G04 EAGLE Gerber RS-274X export*
G75*
%MOMM*%
%FSLAX34Y34*%
%LPD*%
%IN*%
%IPPOS*%
%AMOC8*
5,1,8,0,0,1.08239X$1,22.5*%
G01*
%ADD10C,0.254000*%


D10*
X57378Y168700D02*
X70219Y147335D01*
X85801Y125767D01*
X103204Y105639D01*
X122295Y87105D01*
X142929Y70306D01*
X164948Y55368D01*
X188186Y42407D01*
X212464Y31520D01*
X237599Y22791D01*
X263400Y16285D01*
X289669Y12053D01*
X316207Y10126D01*
X342812Y10520D01*
X369281Y13231D01*
X395414Y18239D01*
X421010Y25505D01*
X445876Y34975D01*
X469822Y46575D01*
X492665Y60219D01*
X514233Y75801D01*
X534360Y93204D01*
X552895Y112295D01*
X569694Y132929D01*
X584632Y154948D01*
X597593Y178186D01*
X608480Y202464D01*
X617209Y227600D01*
X623715Y253400D01*
X627947Y279669D01*
X629873Y306207D01*
X629480Y332812D01*
X626769Y359281D01*
X621761Y385414D01*
X614495Y411010D01*
X605025Y435876D01*
X593425Y459822D01*
X579781Y482666D01*
X564199Y504233D01*
X546796Y524361D01*
X527705Y542895D01*
X507071Y559694D01*
X485052Y574632D01*
X461814Y587593D01*
X437535Y598480D01*
X412400Y607210D01*
X386600Y613715D01*
X386600Y168700D01*
X57378Y168700D01*
X147500Y129427D02*
X147425Y128284D01*
X147276Y127148D01*
X147052Y126024D01*
X146755Y124917D01*
X146387Y123832D01*
X145949Y122774D01*
X145442Y121746D01*
X144869Y120754D01*
X144232Y119801D01*
X143535Y118892D01*
X142779Y118031D01*
X141969Y117221D01*
X141108Y116465D01*
X140199Y115768D01*
X139246Y115131D01*
X138254Y114558D01*
X137226Y114051D01*
X136168Y113613D01*
X135083Y113245D01*
X133976Y112948D01*
X132852Y112725D01*
X131716Y112575D01*
X130573Y112500D01*
X129427Y112500D01*
X128284Y112575D01*
X127148Y112725D01*
X126024Y112948D01*
X124917Y113245D01*
X123832Y113613D01*
X122774Y114051D01*
X121746Y114558D01*
X120754Y115131D01*
X119801Y115768D01*
X118892Y116465D01*
X118031Y117221D01*
X117221Y118031D01*
X116465Y118892D01*
X115768Y119801D01*
X115131Y120754D01*
X114558Y121746D01*
X114051Y122774D01*
X113613Y123832D01*
X113245Y124917D01*
X112948Y126024D01*
X112725Y127148D01*
X112575Y128284D01*
X112500Y129427D01*
X112500Y130573D01*
X112575Y131716D01*
X112725Y132852D01*
X112948Y133976D01*
X113245Y135083D01*
X113613Y136168D01*
X114051Y137226D01*
X114558Y138254D01*
X115131Y139246D01*
X115768Y140199D01*
X116465Y141108D01*
X117221Y141969D01*
X118031Y142779D01*
X118892Y143535D01*
X119801Y144232D01*
X120754Y144869D01*
X121746Y145442D01*
X122774Y145949D01*
X123832Y146387D01*
X124917Y146755D01*
X126024Y147052D01*
X127148Y147276D01*
X128284Y147425D01*
X129427Y147500D01*
X130573Y147500D01*
X131716Y147425D01*
X132852Y147276D01*
X133976Y147052D01*
X135083Y146755D01*
X136168Y146387D01*
X137226Y145949D01*
X138254Y145442D01*
X139246Y144869D01*
X140199Y144232D01*
X141108Y143535D01*
X141969Y142779D01*
X142779Y141969D01*
X143535Y141108D01*
X144232Y140199D01*
X144869Y139246D01*
X145442Y138254D01*
X145949Y137226D01*
X146387Y136168D01*
X146755Y135083D01*
X147052Y133976D01*
X147276Y132852D01*
X147425Y131716D01*
X147500Y130573D01*
X147500Y129427D01*
X537500Y129427D02*
X537425Y128284D01*
X537276Y127148D01*
X537052Y126024D01*
X536755Y124917D01*
X536387Y123832D01*
X535949Y122774D01*
X535442Y121746D01*
X534869Y120754D01*
X534232Y119801D01*
X533535Y118892D01*
X532779Y118031D01*
X531969Y117221D01*
X531108Y116465D01*
X530199Y115768D01*
X529246Y115131D01*
X528254Y114558D01*
X527226Y114051D01*
X526168Y113613D01*
X525083Y113245D01*
X523976Y112948D01*
X522852Y112725D01*
X521716Y112575D01*
X520573Y112500D01*
X519427Y112500D01*
X518284Y112575D01*
X517148Y112725D01*
X516024Y112948D01*
X514917Y113245D01*
X513832Y113613D01*
X512774Y114051D01*
X511746Y114558D01*
X510754Y115131D01*
X509801Y115768D01*
X508892Y116465D01*
X508031Y117221D01*
X507221Y118031D01*
X506465Y118892D01*
X505768Y119801D01*
X505131Y120754D01*
X504558Y121746D01*
X504051Y122774D01*
X503613Y123832D01*
X503245Y124917D01*
X502948Y126024D01*
X502725Y127148D01*
X502575Y128284D01*
X502500Y129427D01*
X502500Y130573D01*
X502575Y131716D01*
X502725Y132852D01*
X502948Y133976D01*
X503245Y135083D01*
X503613Y136168D01*
X504051Y137226D01*
X504558Y138254D01*
X505131Y139246D01*
X505768Y140199D01*
X506465Y141108D01*
X507221Y141969D01*
X508031Y142779D01*
X508892Y143535D01*
X509801Y144232D01*
X510754Y144869D01*
X511746Y145442D01*
X512774Y145949D01*
X513832Y146387D01*
X514917Y146755D01*
X516024Y147052D01*
X517148Y147276D01*
X518284Y147425D01*
X519427Y147500D01*
X520573Y147500D01*
X521716Y147425D01*
X522852Y147276D01*
X523976Y147052D01*
X525083Y146755D01*
X526168Y146387D01*
X527226Y145949D01*
X528254Y145442D01*
X529246Y144869D01*
X530199Y144232D01*
X531108Y143535D01*
X531969Y142779D01*
X532779Y141969D01*
X533535Y141108D01*
X534232Y140199D01*
X534869Y139246D01*
X535442Y138254D01*
X535949Y137226D01*
X536387Y136168D01*
X536755Y135083D01*
X537052Y133976D01*
X537276Y132852D01*
X537425Y131716D01*
X537500Y130573D01*
X537500Y129427D01*
X447500Y559427D02*
X447425Y558284D01*
X447276Y557148D01*
X447052Y556024D01*
X446755Y554917D01*
X446387Y553832D01*
X445949Y552774D01*
X445442Y551746D01*
X444869Y550754D01*
X444232Y549801D01*
X443535Y548892D01*
X442779Y548031D01*
X441969Y547221D01*
X441108Y546465D01*
X440199Y545768D01*
X439246Y545131D01*
X438254Y544558D01*
X437226Y544051D01*
X436168Y543613D01*
X435083Y543245D01*
X433976Y542948D01*
X432852Y542725D01*
X431716Y542575D01*
X430573Y542500D01*
X429427Y542500D01*
X428284Y542575D01*
X427148Y542725D01*
X426024Y542948D01*
X424917Y543245D01*
X423832Y543613D01*
X422774Y544051D01*
X421746Y544558D01*
X420754Y545131D01*
X419801Y545768D01*
X418892Y546465D01*
X418031Y547221D01*
X417221Y548031D01*
X416465Y548892D01*
X415768Y549801D01*
X415131Y550754D01*
X414558Y551746D01*
X414051Y552774D01*
X413613Y553832D01*
X413245Y554917D01*
X412948Y556024D01*
X412725Y557148D01*
X412575Y558284D01*
X412500Y559427D01*
X412500Y560573D01*
X412575Y561716D01*
X412725Y562852D01*
X412948Y563976D01*
X413245Y565083D01*
X413613Y566168D01*
X414051Y567226D01*
X414558Y568254D01*
X415131Y569246D01*
X415768Y570199D01*
X416465Y571108D01*
X417221Y571969D01*
X418031Y572779D01*
X418892Y573535D01*
X419801Y574232D01*
X420754Y574869D01*
X421746Y575442D01*
X422774Y575949D01*
X423832Y576387D01*
X424917Y576755D01*
X426024Y577052D01*
X427148Y577276D01*
X428284Y577425D01*
X429427Y577500D01*
X430573Y577500D01*
X431716Y577425D01*
X432852Y577276D01*
X433976Y577052D01*
X435083Y576755D01*
X436168Y576387D01*
X437226Y575949D01*
X438254Y575442D01*
X439246Y574869D01*
X440199Y574232D01*
X441108Y573535D01*
X441969Y572779D01*
X442779Y571969D01*
X443535Y571108D01*
X444232Y570199D01*
X444869Y569246D01*
X445442Y568254D01*
X445949Y567226D01*
X446387Y566168D01*
X446755Y565083D01*
X447052Y563976D01*
X447276Y562852D01*
X447425Y561716D01*
X447500Y560573D01*
X447500Y559427D01*
M02*
