G04 EAGLE Gerber RS-274X export*
G75*
%MOMM*%
%FSLAX34Y34*%
%LPD*%
%INSilkscreen Bottom*%
%IPPOS*%
%AMOC8*
5,1,8,0,0,1.08239X$1,22.5*%
G01*
%ADD10C,0.254000*%
%ADD11C,0.500000*%
%ADD12C,0.120000*%
%ADD13C,0.330200*%
%ADD14C,0.152400*%
%ADD15C,0.127000*%
%ADD16C,0.254000*%


D10*
X558546Y457424D02*
X572770Y457424D01*
X572770Y461375D01*
X572768Y461499D01*
X572762Y461623D01*
X572752Y461747D01*
X572739Y461870D01*
X572721Y461993D01*
X572700Y462115D01*
X572675Y462237D01*
X572646Y462358D01*
X572613Y462477D01*
X572577Y462596D01*
X572536Y462713D01*
X572493Y462829D01*
X572445Y462944D01*
X572394Y463057D01*
X572339Y463169D01*
X572281Y463278D01*
X572220Y463386D01*
X572155Y463492D01*
X572087Y463596D01*
X572015Y463697D01*
X571941Y463797D01*
X571863Y463893D01*
X571783Y463988D01*
X571699Y464080D01*
X571613Y464169D01*
X571524Y464255D01*
X571432Y464339D01*
X571337Y464419D01*
X571241Y464497D01*
X571141Y464571D01*
X571040Y464643D01*
X570936Y464711D01*
X570830Y464776D01*
X570722Y464837D01*
X570613Y464895D01*
X570501Y464950D01*
X570388Y465001D01*
X570273Y465049D01*
X570157Y465092D01*
X570040Y465133D01*
X569921Y465169D01*
X569802Y465202D01*
X569681Y465231D01*
X569559Y465256D01*
X569437Y465277D01*
X569314Y465295D01*
X569191Y465308D01*
X569067Y465318D01*
X568943Y465324D01*
X568819Y465326D01*
X568695Y465324D01*
X568571Y465318D01*
X568447Y465308D01*
X568324Y465295D01*
X568201Y465277D01*
X568079Y465256D01*
X567957Y465231D01*
X567836Y465202D01*
X567717Y465169D01*
X567598Y465133D01*
X567481Y465092D01*
X567365Y465049D01*
X567250Y465001D01*
X567137Y464950D01*
X567025Y464895D01*
X566916Y464837D01*
X566808Y464776D01*
X566702Y464711D01*
X566598Y464643D01*
X566497Y464571D01*
X566397Y464497D01*
X566301Y464419D01*
X566206Y464339D01*
X566114Y464255D01*
X566025Y464169D01*
X565939Y464080D01*
X565855Y463988D01*
X565775Y463893D01*
X565697Y463797D01*
X565623Y463697D01*
X565551Y463596D01*
X565483Y463492D01*
X565418Y463386D01*
X565357Y463278D01*
X565299Y463169D01*
X565244Y463057D01*
X565193Y462944D01*
X565145Y462829D01*
X565102Y462713D01*
X565061Y462596D01*
X565025Y462477D01*
X564992Y462358D01*
X564963Y462237D01*
X564938Y462115D01*
X564917Y461993D01*
X564899Y461870D01*
X564886Y461747D01*
X564876Y461623D01*
X564870Y461499D01*
X564868Y461375D01*
X564868Y457424D01*
X564868Y462165D02*
X558546Y465326D01*
X558546Y472158D02*
X558546Y476109D01*
X558548Y476233D01*
X558554Y476357D01*
X558564Y476481D01*
X558577Y476604D01*
X558595Y476727D01*
X558616Y476849D01*
X558641Y476971D01*
X558670Y477092D01*
X558703Y477211D01*
X558739Y477330D01*
X558780Y477447D01*
X558823Y477563D01*
X558871Y477678D01*
X558922Y477791D01*
X558977Y477903D01*
X559035Y478012D01*
X559096Y478120D01*
X559161Y478226D01*
X559229Y478330D01*
X559301Y478431D01*
X559375Y478531D01*
X559453Y478627D01*
X559533Y478722D01*
X559617Y478814D01*
X559703Y478903D01*
X559792Y478989D01*
X559884Y479073D01*
X559979Y479153D01*
X560075Y479231D01*
X560175Y479305D01*
X560276Y479377D01*
X560380Y479445D01*
X560486Y479510D01*
X560594Y479571D01*
X560703Y479629D01*
X560815Y479684D01*
X560928Y479735D01*
X561043Y479783D01*
X561159Y479826D01*
X561276Y479867D01*
X561395Y479903D01*
X561514Y479936D01*
X561635Y479965D01*
X561757Y479990D01*
X561879Y480011D01*
X562002Y480029D01*
X562125Y480042D01*
X562249Y480052D01*
X562373Y480058D01*
X562497Y480060D01*
X562621Y480058D01*
X562745Y480052D01*
X562869Y480042D01*
X562992Y480029D01*
X563115Y480011D01*
X563237Y479990D01*
X563359Y479965D01*
X563480Y479936D01*
X563599Y479903D01*
X563718Y479867D01*
X563835Y479826D01*
X563951Y479783D01*
X564066Y479735D01*
X564179Y479684D01*
X564291Y479629D01*
X564400Y479571D01*
X564508Y479510D01*
X564614Y479445D01*
X564718Y479377D01*
X564819Y479305D01*
X564919Y479231D01*
X565015Y479153D01*
X565110Y479073D01*
X565202Y478989D01*
X565291Y478903D01*
X565377Y478814D01*
X565461Y478722D01*
X565541Y478627D01*
X565619Y478531D01*
X565693Y478431D01*
X565765Y478330D01*
X565833Y478226D01*
X565898Y478120D01*
X565959Y478012D01*
X566017Y477903D01*
X566072Y477791D01*
X566123Y477678D01*
X566171Y477563D01*
X566214Y477447D01*
X566255Y477330D01*
X566291Y477211D01*
X566324Y477092D01*
X566353Y476971D01*
X566378Y476849D01*
X566399Y476727D01*
X566417Y476604D01*
X566430Y476481D01*
X566440Y476357D01*
X566446Y476233D01*
X566448Y476109D01*
X572770Y476899D02*
X572770Y472158D01*
X572770Y476899D02*
X572768Y477011D01*
X572762Y477122D01*
X572752Y477233D01*
X572739Y477344D01*
X572721Y477454D01*
X572699Y477563D01*
X572674Y477672D01*
X572645Y477780D01*
X572612Y477886D01*
X572575Y477992D01*
X572535Y478096D01*
X572491Y478198D01*
X572443Y478299D01*
X572392Y478398D01*
X572337Y478496D01*
X572279Y478591D01*
X572218Y478684D01*
X572153Y478775D01*
X572085Y478864D01*
X572014Y478950D01*
X571941Y479033D01*
X571864Y479114D01*
X571784Y479193D01*
X571702Y479268D01*
X571617Y479340D01*
X571530Y479410D01*
X571440Y479476D01*
X571348Y479539D01*
X571253Y479599D01*
X571157Y479655D01*
X571059Y479708D01*
X570959Y479757D01*
X570857Y479803D01*
X570754Y479845D01*
X570649Y479884D01*
X570543Y479919D01*
X570436Y479950D01*
X570328Y479977D01*
X570219Y480001D01*
X570109Y480020D01*
X569999Y480036D01*
X569888Y480048D01*
X569776Y480056D01*
X569665Y480060D01*
X569553Y480060D01*
X569442Y480056D01*
X569330Y480048D01*
X569219Y480036D01*
X569109Y480020D01*
X568999Y480001D01*
X568890Y479977D01*
X568782Y479950D01*
X568675Y479919D01*
X568569Y479884D01*
X568464Y479845D01*
X568361Y479803D01*
X568259Y479757D01*
X568159Y479708D01*
X568061Y479655D01*
X567965Y479599D01*
X567870Y479539D01*
X567778Y479476D01*
X567688Y479410D01*
X567601Y479340D01*
X567516Y479268D01*
X567434Y479193D01*
X567354Y479114D01*
X567277Y479033D01*
X567204Y478950D01*
X567133Y478864D01*
X567065Y478775D01*
X567000Y478684D01*
X566939Y478591D01*
X566881Y478496D01*
X566826Y478398D01*
X566775Y478299D01*
X566727Y478198D01*
X566683Y478096D01*
X566643Y477992D01*
X566606Y477886D01*
X566573Y477780D01*
X566544Y477672D01*
X566519Y477563D01*
X566497Y477454D01*
X566479Y477344D01*
X566466Y477233D01*
X566456Y477122D01*
X566450Y477011D01*
X566448Y476899D01*
X566448Y473738D01*
X596900Y379110D02*
X611124Y379110D01*
X611124Y383061D01*
X611122Y383185D01*
X611116Y383309D01*
X611106Y383433D01*
X611093Y383556D01*
X611075Y383679D01*
X611054Y383801D01*
X611029Y383923D01*
X611000Y384044D01*
X610967Y384163D01*
X610931Y384282D01*
X610890Y384399D01*
X610847Y384515D01*
X610799Y384630D01*
X610748Y384743D01*
X610693Y384855D01*
X610635Y384964D01*
X610574Y385072D01*
X610509Y385178D01*
X610441Y385282D01*
X610369Y385383D01*
X610295Y385483D01*
X610217Y385579D01*
X610137Y385674D01*
X610053Y385766D01*
X609967Y385855D01*
X609878Y385941D01*
X609786Y386025D01*
X609691Y386105D01*
X609595Y386183D01*
X609495Y386257D01*
X609394Y386329D01*
X609290Y386397D01*
X609184Y386462D01*
X609076Y386523D01*
X608967Y386581D01*
X608855Y386636D01*
X608742Y386687D01*
X608627Y386735D01*
X608511Y386778D01*
X608394Y386819D01*
X608275Y386855D01*
X608156Y386888D01*
X608035Y386917D01*
X607913Y386942D01*
X607791Y386963D01*
X607668Y386981D01*
X607545Y386994D01*
X607421Y387004D01*
X607297Y387010D01*
X607173Y387012D01*
X607049Y387010D01*
X606925Y387004D01*
X606801Y386994D01*
X606678Y386981D01*
X606555Y386963D01*
X606433Y386942D01*
X606311Y386917D01*
X606190Y386888D01*
X606071Y386855D01*
X605952Y386819D01*
X605835Y386778D01*
X605719Y386735D01*
X605604Y386687D01*
X605491Y386636D01*
X605379Y386581D01*
X605270Y386523D01*
X605162Y386462D01*
X605056Y386397D01*
X604952Y386329D01*
X604851Y386257D01*
X604751Y386183D01*
X604655Y386105D01*
X604560Y386025D01*
X604468Y385941D01*
X604379Y385855D01*
X604293Y385766D01*
X604209Y385674D01*
X604129Y385579D01*
X604051Y385483D01*
X603977Y385383D01*
X603905Y385282D01*
X603837Y385178D01*
X603772Y385072D01*
X603711Y384964D01*
X603653Y384855D01*
X603598Y384743D01*
X603547Y384630D01*
X603499Y384515D01*
X603456Y384399D01*
X603415Y384282D01*
X603379Y384163D01*
X603346Y384044D01*
X603317Y383923D01*
X603292Y383801D01*
X603271Y383679D01*
X603253Y383556D01*
X603240Y383433D01*
X603230Y383309D01*
X603224Y383185D01*
X603222Y383061D01*
X603222Y379110D01*
X603222Y383851D02*
X596900Y387012D01*
X600061Y393844D02*
X611124Y397005D01*
X600061Y393844D02*
X600061Y401746D01*
X603222Y399375D02*
X596900Y399375D01*
X589056Y326390D02*
X589056Y312166D01*
X589056Y326390D02*
X585105Y326390D01*
X584981Y326388D01*
X584857Y326382D01*
X584733Y326372D01*
X584610Y326359D01*
X584487Y326341D01*
X584365Y326320D01*
X584243Y326295D01*
X584122Y326266D01*
X584003Y326233D01*
X583884Y326197D01*
X583767Y326156D01*
X583651Y326113D01*
X583536Y326065D01*
X583423Y326014D01*
X583311Y325959D01*
X583202Y325901D01*
X583094Y325840D01*
X582988Y325775D01*
X582884Y325707D01*
X582783Y325635D01*
X582683Y325561D01*
X582587Y325483D01*
X582492Y325403D01*
X582400Y325319D01*
X582311Y325233D01*
X582225Y325144D01*
X582141Y325052D01*
X582061Y324957D01*
X581983Y324861D01*
X581909Y324761D01*
X581837Y324660D01*
X581769Y324556D01*
X581704Y324450D01*
X581643Y324342D01*
X581585Y324233D01*
X581530Y324121D01*
X581479Y324008D01*
X581431Y323893D01*
X581388Y323777D01*
X581347Y323660D01*
X581311Y323541D01*
X581278Y323422D01*
X581249Y323301D01*
X581224Y323179D01*
X581203Y323057D01*
X581185Y322934D01*
X581172Y322811D01*
X581162Y322687D01*
X581156Y322563D01*
X581154Y322439D01*
X581156Y322315D01*
X581162Y322191D01*
X581172Y322067D01*
X581185Y321944D01*
X581203Y321821D01*
X581224Y321699D01*
X581249Y321577D01*
X581278Y321456D01*
X581311Y321337D01*
X581347Y321218D01*
X581388Y321101D01*
X581431Y320985D01*
X581479Y320870D01*
X581530Y320757D01*
X581585Y320645D01*
X581643Y320536D01*
X581704Y320428D01*
X581769Y320322D01*
X581837Y320218D01*
X581909Y320117D01*
X581983Y320017D01*
X582061Y319921D01*
X582141Y319826D01*
X582225Y319734D01*
X582311Y319645D01*
X582400Y319559D01*
X582492Y319475D01*
X582587Y319395D01*
X582683Y319317D01*
X582783Y319243D01*
X582884Y319171D01*
X582988Y319103D01*
X583094Y319038D01*
X583202Y318977D01*
X583311Y318919D01*
X583423Y318864D01*
X583536Y318813D01*
X583651Y318765D01*
X583767Y318722D01*
X583884Y318681D01*
X584003Y318645D01*
X584122Y318612D01*
X584243Y318583D01*
X584365Y318558D01*
X584487Y318537D01*
X584610Y318519D01*
X584733Y318506D01*
X584857Y318496D01*
X584981Y318490D01*
X585105Y318488D01*
X589056Y318488D01*
X584315Y318488D02*
X581154Y312166D01*
X574322Y312166D02*
X569581Y312166D01*
X569471Y312168D01*
X569361Y312174D01*
X569251Y312183D01*
X569141Y312197D01*
X569032Y312214D01*
X568924Y312235D01*
X568816Y312260D01*
X568710Y312288D01*
X568604Y312321D01*
X568500Y312357D01*
X568397Y312396D01*
X568295Y312439D01*
X568195Y312486D01*
X568097Y312536D01*
X568001Y312589D01*
X567906Y312646D01*
X567813Y312706D01*
X567723Y312770D01*
X567635Y312836D01*
X567549Y312906D01*
X567466Y312978D01*
X567385Y313053D01*
X567307Y313131D01*
X567232Y313212D01*
X567160Y313295D01*
X567090Y313381D01*
X567024Y313469D01*
X566960Y313559D01*
X566900Y313652D01*
X566844Y313746D01*
X566790Y313843D01*
X566740Y313941D01*
X566693Y314041D01*
X566650Y314143D01*
X566611Y314246D01*
X566575Y314350D01*
X566542Y314456D01*
X566514Y314562D01*
X566489Y314670D01*
X566468Y314778D01*
X566451Y314887D01*
X566437Y314997D01*
X566428Y315106D01*
X566422Y315217D01*
X566420Y315327D01*
X566420Y316907D01*
X566422Y317017D01*
X566428Y317128D01*
X566437Y317237D01*
X566451Y317347D01*
X566468Y317456D01*
X566489Y317564D01*
X566514Y317672D01*
X566542Y317778D01*
X566575Y317884D01*
X566611Y317988D01*
X566650Y318091D01*
X566693Y318193D01*
X566740Y318293D01*
X566790Y318391D01*
X566843Y318488D01*
X566900Y318582D01*
X566960Y318675D01*
X567024Y318765D01*
X567090Y318853D01*
X567160Y318939D01*
X567232Y319022D01*
X567307Y319103D01*
X567385Y319181D01*
X567466Y319256D01*
X567549Y319328D01*
X567635Y319398D01*
X567723Y319464D01*
X567813Y319528D01*
X567906Y319588D01*
X568001Y319645D01*
X568097Y319698D01*
X568195Y319748D01*
X568295Y319795D01*
X568397Y319838D01*
X568500Y319877D01*
X568604Y319913D01*
X568710Y319946D01*
X568816Y319974D01*
X568924Y319999D01*
X569032Y320020D01*
X569141Y320037D01*
X569251Y320051D01*
X569361Y320060D01*
X569471Y320066D01*
X569581Y320068D01*
X574322Y320068D01*
X574322Y326390D01*
X566420Y326390D01*
X537464Y204470D02*
X523240Y204470D01*
X537464Y204470D02*
X537464Y208421D01*
X537462Y208545D01*
X537456Y208669D01*
X537446Y208793D01*
X537433Y208916D01*
X537415Y209039D01*
X537394Y209161D01*
X537369Y209283D01*
X537340Y209404D01*
X537307Y209523D01*
X537271Y209642D01*
X537230Y209759D01*
X537187Y209875D01*
X537139Y209990D01*
X537088Y210103D01*
X537033Y210215D01*
X536975Y210324D01*
X536914Y210432D01*
X536849Y210538D01*
X536781Y210642D01*
X536709Y210743D01*
X536635Y210843D01*
X536557Y210939D01*
X536477Y211034D01*
X536393Y211126D01*
X536307Y211215D01*
X536218Y211301D01*
X536126Y211385D01*
X536031Y211465D01*
X535935Y211543D01*
X535835Y211617D01*
X535734Y211689D01*
X535630Y211757D01*
X535524Y211822D01*
X535416Y211883D01*
X535307Y211941D01*
X535195Y211996D01*
X535082Y212047D01*
X534967Y212095D01*
X534851Y212138D01*
X534734Y212179D01*
X534615Y212215D01*
X534496Y212248D01*
X534375Y212277D01*
X534253Y212302D01*
X534131Y212323D01*
X534008Y212341D01*
X533885Y212354D01*
X533761Y212364D01*
X533637Y212370D01*
X533513Y212372D01*
X533389Y212370D01*
X533265Y212364D01*
X533141Y212354D01*
X533018Y212341D01*
X532895Y212323D01*
X532773Y212302D01*
X532651Y212277D01*
X532530Y212248D01*
X532411Y212215D01*
X532292Y212179D01*
X532175Y212138D01*
X532059Y212095D01*
X531944Y212047D01*
X531831Y211996D01*
X531719Y211941D01*
X531610Y211883D01*
X531502Y211822D01*
X531396Y211757D01*
X531292Y211689D01*
X531191Y211617D01*
X531091Y211543D01*
X530995Y211465D01*
X530900Y211385D01*
X530808Y211301D01*
X530719Y211215D01*
X530633Y211126D01*
X530549Y211034D01*
X530469Y210939D01*
X530391Y210843D01*
X530317Y210743D01*
X530245Y210642D01*
X530177Y210538D01*
X530112Y210432D01*
X530051Y210324D01*
X529993Y210215D01*
X529938Y210103D01*
X529887Y209990D01*
X529839Y209875D01*
X529796Y209759D01*
X529755Y209642D01*
X529719Y209523D01*
X529686Y209404D01*
X529657Y209283D01*
X529632Y209161D01*
X529611Y209039D01*
X529593Y208916D01*
X529580Y208793D01*
X529570Y208669D01*
X529564Y208545D01*
X529562Y208421D01*
X529562Y204470D01*
X529562Y209211D02*
X523240Y212372D01*
X531142Y219204D02*
X531142Y223945D01*
X531140Y224055D01*
X531134Y224166D01*
X531125Y224275D01*
X531111Y224385D01*
X531094Y224494D01*
X531073Y224602D01*
X531048Y224710D01*
X531020Y224816D01*
X530987Y224922D01*
X530951Y225026D01*
X530912Y225129D01*
X530869Y225231D01*
X530822Y225331D01*
X530772Y225429D01*
X530719Y225526D01*
X530662Y225620D01*
X530602Y225713D01*
X530538Y225803D01*
X530472Y225891D01*
X530402Y225977D01*
X530330Y226060D01*
X530255Y226141D01*
X530177Y226219D01*
X530096Y226294D01*
X530013Y226366D01*
X529927Y226436D01*
X529839Y226502D01*
X529749Y226566D01*
X529656Y226626D01*
X529562Y226683D01*
X529465Y226736D01*
X529367Y226786D01*
X529267Y226833D01*
X529165Y226876D01*
X529062Y226915D01*
X528958Y226951D01*
X528852Y226984D01*
X528746Y227012D01*
X528638Y227037D01*
X528530Y227058D01*
X528421Y227075D01*
X528311Y227089D01*
X528202Y227098D01*
X528091Y227104D01*
X527981Y227106D01*
X527191Y227106D01*
X527067Y227104D01*
X526943Y227098D01*
X526819Y227088D01*
X526696Y227075D01*
X526573Y227057D01*
X526451Y227036D01*
X526329Y227011D01*
X526208Y226982D01*
X526089Y226949D01*
X525970Y226913D01*
X525853Y226872D01*
X525737Y226829D01*
X525622Y226781D01*
X525509Y226730D01*
X525397Y226675D01*
X525288Y226617D01*
X525180Y226556D01*
X525074Y226491D01*
X524970Y226423D01*
X524869Y226351D01*
X524769Y226277D01*
X524673Y226199D01*
X524578Y226119D01*
X524486Y226035D01*
X524397Y225949D01*
X524311Y225860D01*
X524227Y225768D01*
X524147Y225673D01*
X524069Y225577D01*
X523995Y225477D01*
X523923Y225376D01*
X523855Y225272D01*
X523790Y225166D01*
X523729Y225058D01*
X523671Y224949D01*
X523616Y224837D01*
X523565Y224724D01*
X523517Y224609D01*
X523474Y224493D01*
X523433Y224376D01*
X523397Y224257D01*
X523364Y224138D01*
X523335Y224017D01*
X523310Y223895D01*
X523289Y223773D01*
X523271Y223650D01*
X523258Y223527D01*
X523248Y223403D01*
X523242Y223279D01*
X523240Y223155D01*
X523242Y223031D01*
X523248Y222907D01*
X523258Y222783D01*
X523271Y222660D01*
X523289Y222537D01*
X523310Y222415D01*
X523335Y222293D01*
X523364Y222172D01*
X523397Y222053D01*
X523433Y221934D01*
X523474Y221817D01*
X523517Y221701D01*
X523565Y221586D01*
X523616Y221473D01*
X523671Y221361D01*
X523729Y221252D01*
X523790Y221144D01*
X523855Y221038D01*
X523923Y220934D01*
X523995Y220833D01*
X524069Y220733D01*
X524147Y220637D01*
X524227Y220542D01*
X524311Y220450D01*
X524397Y220361D01*
X524486Y220275D01*
X524578Y220191D01*
X524673Y220111D01*
X524769Y220033D01*
X524869Y219959D01*
X524970Y219887D01*
X525074Y219819D01*
X525180Y219754D01*
X525288Y219693D01*
X525397Y219635D01*
X525509Y219580D01*
X525622Y219529D01*
X525737Y219481D01*
X525853Y219438D01*
X525970Y219397D01*
X526089Y219361D01*
X526208Y219328D01*
X526329Y219299D01*
X526451Y219274D01*
X526573Y219253D01*
X526696Y219235D01*
X526819Y219222D01*
X526943Y219212D01*
X527067Y219206D01*
X527191Y219204D01*
X531142Y219204D01*
X531300Y219206D01*
X531457Y219212D01*
X531614Y219222D01*
X531771Y219235D01*
X531928Y219253D01*
X532084Y219275D01*
X532240Y219300D01*
X532395Y219329D01*
X532549Y219363D01*
X532702Y219399D01*
X532854Y219440D01*
X533005Y219485D01*
X533155Y219533D01*
X533304Y219585D01*
X533452Y219641D01*
X533598Y219700D01*
X533742Y219763D01*
X533885Y219830D01*
X534026Y219900D01*
X534166Y219974D01*
X534303Y220051D01*
X534439Y220131D01*
X534572Y220215D01*
X534703Y220303D01*
X534832Y220393D01*
X534959Y220487D01*
X535084Y220583D01*
X535206Y220683D01*
X535325Y220786D01*
X535442Y220892D01*
X535556Y221000D01*
X535668Y221112D01*
X535776Y221226D01*
X535882Y221343D01*
X535985Y221462D01*
X536085Y221584D01*
X536181Y221709D01*
X536275Y221836D01*
X536365Y221965D01*
X536453Y222096D01*
X536536Y222229D01*
X536617Y222365D01*
X536694Y222502D01*
X536768Y222642D01*
X536838Y222783D01*
X536905Y222926D01*
X536968Y223070D01*
X537027Y223216D01*
X537083Y223364D01*
X537135Y223513D01*
X537183Y223663D01*
X537228Y223814D01*
X537269Y223966D01*
X537305Y224119D01*
X537339Y224273D01*
X537368Y224428D01*
X537393Y224584D01*
X537415Y224740D01*
X537433Y224897D01*
X537446Y225054D01*
X537456Y225211D01*
X537462Y225368D01*
X537464Y225526D01*
X470154Y201930D02*
X455930Y201930D01*
X470154Y201930D02*
X470154Y205881D01*
X470152Y206005D01*
X470146Y206129D01*
X470136Y206253D01*
X470123Y206376D01*
X470105Y206499D01*
X470084Y206621D01*
X470059Y206743D01*
X470030Y206864D01*
X469997Y206983D01*
X469961Y207102D01*
X469920Y207219D01*
X469877Y207335D01*
X469829Y207450D01*
X469778Y207563D01*
X469723Y207675D01*
X469665Y207784D01*
X469604Y207892D01*
X469539Y207998D01*
X469471Y208102D01*
X469399Y208203D01*
X469325Y208303D01*
X469247Y208399D01*
X469167Y208494D01*
X469083Y208586D01*
X468997Y208675D01*
X468908Y208761D01*
X468816Y208845D01*
X468721Y208925D01*
X468625Y209003D01*
X468525Y209077D01*
X468424Y209149D01*
X468320Y209217D01*
X468214Y209282D01*
X468106Y209343D01*
X467997Y209401D01*
X467885Y209456D01*
X467772Y209507D01*
X467657Y209555D01*
X467541Y209598D01*
X467424Y209639D01*
X467305Y209675D01*
X467186Y209708D01*
X467065Y209737D01*
X466943Y209762D01*
X466821Y209783D01*
X466698Y209801D01*
X466575Y209814D01*
X466451Y209824D01*
X466327Y209830D01*
X466203Y209832D01*
X466079Y209830D01*
X465955Y209824D01*
X465831Y209814D01*
X465708Y209801D01*
X465585Y209783D01*
X465463Y209762D01*
X465341Y209737D01*
X465220Y209708D01*
X465101Y209675D01*
X464982Y209639D01*
X464865Y209598D01*
X464749Y209555D01*
X464634Y209507D01*
X464521Y209456D01*
X464409Y209401D01*
X464300Y209343D01*
X464192Y209282D01*
X464086Y209217D01*
X463982Y209149D01*
X463881Y209077D01*
X463781Y209003D01*
X463685Y208925D01*
X463590Y208845D01*
X463498Y208761D01*
X463409Y208675D01*
X463323Y208586D01*
X463239Y208494D01*
X463159Y208399D01*
X463081Y208303D01*
X463007Y208203D01*
X462935Y208102D01*
X462867Y207998D01*
X462802Y207892D01*
X462741Y207784D01*
X462683Y207675D01*
X462628Y207563D01*
X462577Y207450D01*
X462529Y207335D01*
X462486Y207219D01*
X462445Y207102D01*
X462409Y206983D01*
X462376Y206864D01*
X462347Y206743D01*
X462322Y206621D01*
X462301Y206499D01*
X462283Y206376D01*
X462270Y206253D01*
X462260Y206129D01*
X462254Y206005D01*
X462252Y205881D01*
X462252Y201930D01*
X462252Y206671D02*
X455930Y209832D01*
X468574Y216664D02*
X470154Y216664D01*
X470154Y224566D01*
X455930Y220615D01*
X488696Y494254D02*
X502920Y494254D01*
X502920Y498205D01*
X502918Y498329D01*
X502912Y498453D01*
X502902Y498577D01*
X502889Y498700D01*
X502871Y498823D01*
X502850Y498945D01*
X502825Y499067D01*
X502796Y499188D01*
X502763Y499307D01*
X502727Y499426D01*
X502686Y499543D01*
X502643Y499659D01*
X502595Y499774D01*
X502544Y499887D01*
X502489Y499999D01*
X502431Y500108D01*
X502370Y500216D01*
X502305Y500322D01*
X502237Y500426D01*
X502165Y500527D01*
X502091Y500627D01*
X502013Y500723D01*
X501933Y500818D01*
X501849Y500910D01*
X501763Y500999D01*
X501674Y501085D01*
X501582Y501169D01*
X501487Y501249D01*
X501391Y501327D01*
X501291Y501401D01*
X501190Y501473D01*
X501086Y501541D01*
X500980Y501606D01*
X500872Y501667D01*
X500763Y501725D01*
X500651Y501780D01*
X500538Y501831D01*
X500423Y501879D01*
X500307Y501922D01*
X500190Y501963D01*
X500071Y501999D01*
X499952Y502032D01*
X499831Y502061D01*
X499709Y502086D01*
X499587Y502107D01*
X499464Y502125D01*
X499341Y502138D01*
X499217Y502148D01*
X499093Y502154D01*
X498969Y502156D01*
X498845Y502154D01*
X498721Y502148D01*
X498597Y502138D01*
X498474Y502125D01*
X498351Y502107D01*
X498229Y502086D01*
X498107Y502061D01*
X497986Y502032D01*
X497867Y501999D01*
X497748Y501963D01*
X497631Y501922D01*
X497515Y501879D01*
X497400Y501831D01*
X497287Y501780D01*
X497175Y501725D01*
X497066Y501667D01*
X496958Y501606D01*
X496852Y501541D01*
X496748Y501473D01*
X496647Y501401D01*
X496547Y501327D01*
X496451Y501249D01*
X496356Y501169D01*
X496264Y501085D01*
X496175Y500999D01*
X496089Y500910D01*
X496005Y500818D01*
X495925Y500723D01*
X495847Y500627D01*
X495773Y500527D01*
X495701Y500426D01*
X495633Y500322D01*
X495568Y500216D01*
X495507Y500108D01*
X495449Y499999D01*
X495394Y499887D01*
X495343Y499774D01*
X495295Y499659D01*
X495252Y499543D01*
X495211Y499426D01*
X495175Y499307D01*
X495142Y499188D01*
X495113Y499067D01*
X495088Y498945D01*
X495067Y498823D01*
X495049Y498700D01*
X495036Y498577D01*
X495026Y498453D01*
X495020Y498329D01*
X495018Y498205D01*
X495018Y494254D01*
X495018Y498995D02*
X488696Y502156D01*
X492647Y508988D02*
X492771Y508990D01*
X492895Y508996D01*
X493019Y509006D01*
X493142Y509019D01*
X493265Y509037D01*
X493387Y509058D01*
X493509Y509083D01*
X493630Y509112D01*
X493749Y509145D01*
X493868Y509181D01*
X493985Y509222D01*
X494101Y509265D01*
X494216Y509313D01*
X494329Y509364D01*
X494441Y509419D01*
X494550Y509477D01*
X494658Y509538D01*
X494764Y509603D01*
X494868Y509671D01*
X494969Y509743D01*
X495069Y509817D01*
X495165Y509895D01*
X495260Y509975D01*
X495352Y510059D01*
X495441Y510145D01*
X495527Y510234D01*
X495611Y510326D01*
X495691Y510421D01*
X495769Y510517D01*
X495843Y510617D01*
X495915Y510718D01*
X495983Y510822D01*
X496048Y510928D01*
X496109Y511036D01*
X496167Y511145D01*
X496222Y511257D01*
X496273Y511370D01*
X496321Y511485D01*
X496364Y511601D01*
X496405Y511718D01*
X496441Y511837D01*
X496474Y511956D01*
X496503Y512077D01*
X496528Y512199D01*
X496549Y512321D01*
X496567Y512444D01*
X496580Y512567D01*
X496590Y512691D01*
X496596Y512815D01*
X496598Y512939D01*
X496596Y513063D01*
X496590Y513187D01*
X496580Y513311D01*
X496567Y513434D01*
X496549Y513557D01*
X496528Y513679D01*
X496503Y513801D01*
X496474Y513922D01*
X496441Y514041D01*
X496405Y514160D01*
X496364Y514277D01*
X496321Y514393D01*
X496273Y514508D01*
X496222Y514621D01*
X496167Y514733D01*
X496109Y514842D01*
X496048Y514950D01*
X495983Y515056D01*
X495915Y515160D01*
X495843Y515261D01*
X495769Y515361D01*
X495691Y515457D01*
X495611Y515552D01*
X495527Y515644D01*
X495441Y515733D01*
X495352Y515819D01*
X495260Y515903D01*
X495165Y515983D01*
X495069Y516061D01*
X494969Y516135D01*
X494868Y516207D01*
X494764Y516275D01*
X494658Y516340D01*
X494550Y516401D01*
X494441Y516459D01*
X494329Y516514D01*
X494216Y516565D01*
X494101Y516613D01*
X493985Y516656D01*
X493868Y516697D01*
X493749Y516733D01*
X493630Y516766D01*
X493509Y516795D01*
X493387Y516820D01*
X493265Y516841D01*
X493142Y516859D01*
X493019Y516872D01*
X492895Y516882D01*
X492771Y516888D01*
X492647Y516890D01*
X492523Y516888D01*
X492399Y516882D01*
X492275Y516872D01*
X492152Y516859D01*
X492029Y516841D01*
X491907Y516820D01*
X491785Y516795D01*
X491664Y516766D01*
X491545Y516733D01*
X491426Y516697D01*
X491309Y516656D01*
X491193Y516613D01*
X491078Y516565D01*
X490965Y516514D01*
X490853Y516459D01*
X490744Y516401D01*
X490636Y516340D01*
X490530Y516275D01*
X490426Y516207D01*
X490325Y516135D01*
X490225Y516061D01*
X490129Y515983D01*
X490034Y515903D01*
X489942Y515819D01*
X489853Y515733D01*
X489767Y515644D01*
X489683Y515552D01*
X489603Y515457D01*
X489525Y515361D01*
X489451Y515261D01*
X489379Y515160D01*
X489311Y515056D01*
X489246Y514950D01*
X489185Y514842D01*
X489127Y514733D01*
X489072Y514621D01*
X489021Y514508D01*
X488973Y514393D01*
X488930Y514277D01*
X488889Y514160D01*
X488853Y514041D01*
X488820Y513922D01*
X488791Y513801D01*
X488766Y513679D01*
X488745Y513557D01*
X488727Y513434D01*
X488714Y513311D01*
X488704Y513187D01*
X488698Y513063D01*
X488696Y512939D01*
X488698Y512815D01*
X488704Y512691D01*
X488714Y512567D01*
X488727Y512444D01*
X488745Y512321D01*
X488766Y512199D01*
X488791Y512077D01*
X488820Y511956D01*
X488853Y511837D01*
X488889Y511718D01*
X488930Y511601D01*
X488973Y511485D01*
X489021Y511370D01*
X489072Y511257D01*
X489127Y511145D01*
X489185Y511036D01*
X489246Y510928D01*
X489311Y510822D01*
X489379Y510718D01*
X489451Y510617D01*
X489525Y510517D01*
X489603Y510421D01*
X489683Y510326D01*
X489767Y510234D01*
X489853Y510145D01*
X489942Y510059D01*
X490034Y509975D01*
X490129Y509895D01*
X490225Y509817D01*
X490325Y509743D01*
X490426Y509671D01*
X490530Y509603D01*
X490636Y509538D01*
X490744Y509477D01*
X490853Y509419D01*
X490965Y509364D01*
X491078Y509313D01*
X491193Y509265D01*
X491309Y509222D01*
X491426Y509181D01*
X491545Y509145D01*
X491664Y509112D01*
X491785Y509083D01*
X491907Y509058D01*
X492029Y509037D01*
X492152Y509019D01*
X492275Y509006D01*
X492399Y508996D01*
X492523Y508990D01*
X492647Y508988D01*
X499759Y509778D02*
X499871Y509780D01*
X499982Y509786D01*
X500093Y509796D01*
X500204Y509809D01*
X500314Y509827D01*
X500423Y509849D01*
X500532Y509874D01*
X500640Y509903D01*
X500746Y509936D01*
X500852Y509973D01*
X500956Y510013D01*
X501058Y510057D01*
X501159Y510105D01*
X501258Y510156D01*
X501356Y510211D01*
X501451Y510269D01*
X501544Y510330D01*
X501635Y510395D01*
X501724Y510463D01*
X501810Y510534D01*
X501893Y510607D01*
X501974Y510684D01*
X502053Y510764D01*
X502128Y510846D01*
X502200Y510931D01*
X502270Y511018D01*
X502336Y511108D01*
X502399Y511200D01*
X502459Y511295D01*
X502515Y511391D01*
X502568Y511489D01*
X502617Y511589D01*
X502663Y511691D01*
X502705Y511794D01*
X502744Y511899D01*
X502779Y512005D01*
X502810Y512112D01*
X502837Y512220D01*
X502861Y512329D01*
X502880Y512439D01*
X502896Y512549D01*
X502908Y512660D01*
X502916Y512772D01*
X502920Y512883D01*
X502920Y512995D01*
X502916Y513106D01*
X502908Y513218D01*
X502896Y513329D01*
X502880Y513439D01*
X502861Y513549D01*
X502837Y513658D01*
X502810Y513766D01*
X502779Y513873D01*
X502744Y513979D01*
X502705Y514084D01*
X502663Y514187D01*
X502617Y514289D01*
X502568Y514389D01*
X502515Y514487D01*
X502459Y514583D01*
X502399Y514678D01*
X502336Y514770D01*
X502270Y514860D01*
X502200Y514947D01*
X502128Y515032D01*
X502053Y515114D01*
X501974Y515194D01*
X501893Y515271D01*
X501810Y515344D01*
X501724Y515415D01*
X501635Y515483D01*
X501544Y515548D01*
X501451Y515609D01*
X501356Y515667D01*
X501258Y515722D01*
X501159Y515773D01*
X501058Y515821D01*
X500956Y515865D01*
X500852Y515905D01*
X500746Y515942D01*
X500640Y515975D01*
X500532Y516004D01*
X500423Y516029D01*
X500314Y516051D01*
X500204Y516069D01*
X500093Y516082D01*
X499982Y516092D01*
X499871Y516098D01*
X499759Y516100D01*
X499647Y516098D01*
X499536Y516092D01*
X499425Y516082D01*
X499314Y516069D01*
X499204Y516051D01*
X499095Y516029D01*
X498986Y516004D01*
X498878Y515975D01*
X498772Y515942D01*
X498666Y515905D01*
X498562Y515865D01*
X498460Y515821D01*
X498359Y515773D01*
X498260Y515722D01*
X498162Y515667D01*
X498067Y515609D01*
X497974Y515548D01*
X497883Y515483D01*
X497794Y515415D01*
X497708Y515344D01*
X497625Y515271D01*
X497544Y515194D01*
X497465Y515114D01*
X497390Y515032D01*
X497318Y514947D01*
X497248Y514860D01*
X497182Y514770D01*
X497119Y514678D01*
X497059Y514583D01*
X497003Y514487D01*
X496950Y514389D01*
X496901Y514289D01*
X496855Y514187D01*
X496813Y514084D01*
X496774Y513979D01*
X496739Y513873D01*
X496708Y513766D01*
X496681Y513658D01*
X496657Y513549D01*
X496638Y513439D01*
X496622Y513329D01*
X496610Y513218D01*
X496602Y513106D01*
X496598Y512995D01*
X496598Y512883D01*
X496602Y512772D01*
X496610Y512660D01*
X496622Y512549D01*
X496638Y512439D01*
X496657Y512329D01*
X496681Y512220D01*
X496708Y512112D01*
X496739Y512005D01*
X496774Y511899D01*
X496813Y511794D01*
X496855Y511691D01*
X496901Y511589D01*
X496950Y511489D01*
X497003Y511391D01*
X497059Y511295D01*
X497119Y511200D01*
X497182Y511108D01*
X497248Y511018D01*
X497318Y510931D01*
X497390Y510846D01*
X497465Y510764D01*
X497544Y510684D01*
X497625Y510607D01*
X497708Y510534D01*
X497794Y510463D01*
X497883Y510395D01*
X497974Y510330D01*
X498067Y510269D01*
X498162Y510211D01*
X498260Y510156D01*
X498359Y510105D01*
X498460Y510057D01*
X498562Y510013D01*
X498666Y509973D01*
X498772Y509936D01*
X498878Y509903D01*
X498986Y509874D01*
X499095Y509849D01*
X499204Y509827D01*
X499314Y509809D01*
X499425Y509796D01*
X499536Y509786D01*
X499647Y509780D01*
X499759Y509778D01*
X478790Y494254D02*
X464566Y494254D01*
X478790Y494254D02*
X478790Y498205D01*
X478788Y498329D01*
X478782Y498453D01*
X478772Y498577D01*
X478759Y498700D01*
X478741Y498823D01*
X478720Y498945D01*
X478695Y499067D01*
X478666Y499188D01*
X478633Y499307D01*
X478597Y499426D01*
X478556Y499543D01*
X478513Y499659D01*
X478465Y499774D01*
X478414Y499887D01*
X478359Y499999D01*
X478301Y500108D01*
X478240Y500216D01*
X478175Y500322D01*
X478107Y500426D01*
X478035Y500527D01*
X477961Y500627D01*
X477883Y500723D01*
X477803Y500818D01*
X477719Y500910D01*
X477633Y500999D01*
X477544Y501085D01*
X477452Y501169D01*
X477357Y501249D01*
X477261Y501327D01*
X477161Y501401D01*
X477060Y501473D01*
X476956Y501541D01*
X476850Y501606D01*
X476742Y501667D01*
X476633Y501725D01*
X476521Y501780D01*
X476408Y501831D01*
X476293Y501879D01*
X476177Y501922D01*
X476060Y501963D01*
X475941Y501999D01*
X475822Y502032D01*
X475701Y502061D01*
X475579Y502086D01*
X475457Y502107D01*
X475334Y502125D01*
X475211Y502138D01*
X475087Y502148D01*
X474963Y502154D01*
X474839Y502156D01*
X474715Y502154D01*
X474591Y502148D01*
X474467Y502138D01*
X474344Y502125D01*
X474221Y502107D01*
X474099Y502086D01*
X473977Y502061D01*
X473856Y502032D01*
X473737Y501999D01*
X473618Y501963D01*
X473501Y501922D01*
X473385Y501879D01*
X473270Y501831D01*
X473157Y501780D01*
X473045Y501725D01*
X472936Y501667D01*
X472828Y501606D01*
X472722Y501541D01*
X472618Y501473D01*
X472517Y501401D01*
X472417Y501327D01*
X472321Y501249D01*
X472226Y501169D01*
X472134Y501085D01*
X472045Y500999D01*
X471959Y500910D01*
X471875Y500818D01*
X471795Y500723D01*
X471717Y500627D01*
X471643Y500527D01*
X471571Y500426D01*
X471503Y500322D01*
X471438Y500216D01*
X471377Y500108D01*
X471319Y499999D01*
X471264Y499887D01*
X471213Y499774D01*
X471165Y499659D01*
X471122Y499543D01*
X471081Y499426D01*
X471045Y499307D01*
X471012Y499188D01*
X470983Y499067D01*
X470958Y498945D01*
X470937Y498823D01*
X470919Y498700D01*
X470906Y498577D01*
X470896Y498453D01*
X470890Y498329D01*
X470888Y498205D01*
X470888Y494254D01*
X470888Y498995D02*
X464566Y502156D01*
X470888Y512149D02*
X470888Y516890D01*
X470888Y512149D02*
X470890Y512039D01*
X470896Y511928D01*
X470905Y511819D01*
X470919Y511709D01*
X470936Y511600D01*
X470957Y511492D01*
X470982Y511384D01*
X471010Y511278D01*
X471043Y511172D01*
X471079Y511068D01*
X471118Y510965D01*
X471161Y510863D01*
X471208Y510763D01*
X471258Y510665D01*
X471311Y510568D01*
X471368Y510474D01*
X471428Y510381D01*
X471492Y510291D01*
X471558Y510203D01*
X471628Y510117D01*
X471700Y510034D01*
X471775Y509953D01*
X471853Y509875D01*
X471934Y509800D01*
X472017Y509728D01*
X472103Y509658D01*
X472191Y509592D01*
X472281Y509528D01*
X472374Y509468D01*
X472469Y509411D01*
X472565Y509358D01*
X472663Y509308D01*
X472763Y509261D01*
X472865Y509218D01*
X472968Y509179D01*
X473072Y509143D01*
X473178Y509110D01*
X473284Y509082D01*
X473392Y509057D01*
X473500Y509036D01*
X473609Y509019D01*
X473719Y509005D01*
X473829Y508996D01*
X473939Y508990D01*
X474049Y508988D01*
X474839Y508988D01*
X474963Y508990D01*
X475087Y508996D01*
X475211Y509006D01*
X475334Y509019D01*
X475457Y509037D01*
X475579Y509058D01*
X475701Y509083D01*
X475822Y509112D01*
X475941Y509145D01*
X476060Y509181D01*
X476177Y509222D01*
X476293Y509265D01*
X476408Y509313D01*
X476521Y509364D01*
X476633Y509419D01*
X476742Y509477D01*
X476850Y509538D01*
X476956Y509603D01*
X477060Y509671D01*
X477161Y509743D01*
X477261Y509817D01*
X477357Y509895D01*
X477452Y509975D01*
X477544Y510059D01*
X477633Y510145D01*
X477719Y510234D01*
X477803Y510326D01*
X477883Y510421D01*
X477961Y510517D01*
X478035Y510617D01*
X478107Y510718D01*
X478175Y510822D01*
X478240Y510928D01*
X478301Y511036D01*
X478359Y511145D01*
X478414Y511257D01*
X478465Y511370D01*
X478513Y511485D01*
X478556Y511601D01*
X478597Y511718D01*
X478633Y511837D01*
X478666Y511956D01*
X478695Y512077D01*
X478720Y512199D01*
X478741Y512321D01*
X478759Y512444D01*
X478772Y512567D01*
X478782Y512691D01*
X478788Y512815D01*
X478790Y512939D01*
X478788Y513063D01*
X478782Y513187D01*
X478772Y513311D01*
X478759Y513434D01*
X478741Y513557D01*
X478720Y513679D01*
X478695Y513801D01*
X478666Y513922D01*
X478633Y514041D01*
X478597Y514160D01*
X478556Y514277D01*
X478513Y514393D01*
X478465Y514508D01*
X478414Y514621D01*
X478359Y514733D01*
X478301Y514842D01*
X478240Y514950D01*
X478175Y515056D01*
X478107Y515160D01*
X478035Y515261D01*
X477961Y515361D01*
X477883Y515457D01*
X477803Y515552D01*
X477719Y515644D01*
X477633Y515733D01*
X477544Y515819D01*
X477452Y515903D01*
X477357Y515983D01*
X477261Y516061D01*
X477161Y516135D01*
X477060Y516207D01*
X476956Y516275D01*
X476850Y516340D01*
X476742Y516401D01*
X476633Y516459D01*
X476521Y516514D01*
X476408Y516565D01*
X476293Y516613D01*
X476177Y516656D01*
X476060Y516697D01*
X475941Y516733D01*
X475822Y516766D01*
X475701Y516795D01*
X475579Y516820D01*
X475457Y516841D01*
X475334Y516859D01*
X475211Y516872D01*
X475087Y516882D01*
X474963Y516888D01*
X474839Y516890D01*
X470888Y516890D01*
X470730Y516888D01*
X470573Y516882D01*
X470416Y516872D01*
X470259Y516859D01*
X470102Y516841D01*
X469946Y516819D01*
X469790Y516794D01*
X469635Y516765D01*
X469481Y516731D01*
X469328Y516695D01*
X469176Y516654D01*
X469025Y516609D01*
X468875Y516561D01*
X468726Y516509D01*
X468578Y516453D01*
X468432Y516394D01*
X468288Y516331D01*
X468145Y516264D01*
X468004Y516194D01*
X467864Y516120D01*
X467727Y516043D01*
X467591Y515963D01*
X467458Y515879D01*
X467327Y515791D01*
X467198Y515701D01*
X467071Y515607D01*
X466946Y515511D01*
X466824Y515411D01*
X466705Y515308D01*
X466588Y515202D01*
X466474Y515094D01*
X466362Y514982D01*
X466254Y514868D01*
X466148Y514751D01*
X466045Y514632D01*
X465945Y514510D01*
X465849Y514385D01*
X465755Y514258D01*
X465665Y514129D01*
X465577Y513998D01*
X465493Y513865D01*
X465413Y513729D01*
X465336Y513592D01*
X465262Y513452D01*
X465192Y513311D01*
X465125Y513168D01*
X465062Y513024D01*
X465003Y512878D01*
X464947Y512730D01*
X464895Y512581D01*
X464847Y512431D01*
X464802Y512280D01*
X464761Y512128D01*
X464725Y511975D01*
X464691Y511821D01*
X464662Y511666D01*
X464637Y511510D01*
X464615Y511354D01*
X464597Y511197D01*
X464584Y511040D01*
X464574Y510883D01*
X464568Y510726D01*
X464566Y510568D01*
D11*
X409531Y290601D03*
D12*
X417930Y290400D02*
X417930Y293101D01*
X417930Y290400D02*
X493930Y290400D01*
X493930Y293101D01*
X417930Y392699D02*
X417930Y395400D01*
X493930Y395400D01*
X493930Y392699D01*
D13*
X468881Y285369D02*
X468881Y266827D01*
X470941Y266827D02*
X466821Y266827D01*
X466821Y285369D02*
X470941Y285369D01*
X455135Y266827D02*
X451015Y266827D01*
X455135Y266827D02*
X455262Y266829D01*
X455389Y266835D01*
X455515Y266845D01*
X455641Y266858D01*
X455767Y266876D01*
X455892Y266897D01*
X456016Y266922D01*
X456140Y266951D01*
X456262Y266984D01*
X456384Y267021D01*
X456504Y267061D01*
X456623Y267105D01*
X456741Y267153D01*
X456857Y267204D01*
X456971Y267259D01*
X457084Y267317D01*
X457195Y267379D01*
X457304Y267444D01*
X457411Y267513D01*
X457515Y267584D01*
X457618Y267659D01*
X457718Y267737D01*
X457816Y267818D01*
X457911Y267902D01*
X458003Y267989D01*
X458093Y268079D01*
X458180Y268171D01*
X458264Y268266D01*
X458345Y268364D01*
X458423Y268464D01*
X458498Y268567D01*
X458569Y268671D01*
X458638Y268778D01*
X458703Y268887D01*
X458765Y268998D01*
X458823Y269111D01*
X458878Y269225D01*
X458929Y269341D01*
X458977Y269459D01*
X459021Y269578D01*
X459061Y269698D01*
X459098Y269820D01*
X459131Y269942D01*
X459160Y270066D01*
X459185Y270190D01*
X459206Y270315D01*
X459224Y270441D01*
X459237Y270567D01*
X459247Y270693D01*
X459253Y270820D01*
X459255Y270947D01*
X459256Y270947D02*
X459256Y281249D01*
X459255Y281249D02*
X459253Y281376D01*
X459247Y281503D01*
X459237Y281629D01*
X459224Y281755D01*
X459206Y281881D01*
X459185Y282006D01*
X459160Y282130D01*
X459131Y282254D01*
X459098Y282376D01*
X459061Y282498D01*
X459021Y282618D01*
X458977Y282737D01*
X458929Y282855D01*
X458878Y282971D01*
X458823Y283085D01*
X458765Y283198D01*
X458703Y283309D01*
X458638Y283418D01*
X458569Y283525D01*
X458498Y283629D01*
X458423Y283732D01*
X458345Y283832D01*
X458264Y283930D01*
X458180Y284025D01*
X458093Y284117D01*
X458003Y284207D01*
X457911Y284294D01*
X457816Y284378D01*
X457718Y284459D01*
X457618Y284537D01*
X457515Y284612D01*
X457411Y284683D01*
X457304Y284752D01*
X457195Y284817D01*
X457084Y284879D01*
X456971Y284937D01*
X456857Y284992D01*
X456741Y285043D01*
X456623Y285091D01*
X456504Y285135D01*
X456384Y285175D01*
X456262Y285212D01*
X456140Y285245D01*
X456016Y285274D01*
X455892Y285299D01*
X455767Y285320D01*
X455641Y285338D01*
X455515Y285351D01*
X455389Y285361D01*
X455262Y285367D01*
X455135Y285369D01*
X451015Y285369D01*
X443752Y281249D02*
X438602Y285369D01*
X438602Y266827D01*
X443752Y266827D02*
X433451Y266827D01*
D10*
X556006Y197448D02*
X570230Y197448D01*
X570230Y201399D01*
X570228Y201523D01*
X570222Y201647D01*
X570212Y201771D01*
X570199Y201894D01*
X570181Y202017D01*
X570160Y202139D01*
X570135Y202261D01*
X570106Y202382D01*
X570073Y202501D01*
X570037Y202620D01*
X569996Y202737D01*
X569953Y202853D01*
X569905Y202968D01*
X569854Y203081D01*
X569799Y203193D01*
X569741Y203302D01*
X569680Y203410D01*
X569615Y203516D01*
X569547Y203620D01*
X569475Y203721D01*
X569401Y203821D01*
X569323Y203917D01*
X569243Y204012D01*
X569159Y204104D01*
X569073Y204193D01*
X568984Y204279D01*
X568892Y204363D01*
X568797Y204443D01*
X568701Y204521D01*
X568601Y204595D01*
X568500Y204667D01*
X568396Y204735D01*
X568290Y204800D01*
X568182Y204861D01*
X568073Y204919D01*
X567961Y204974D01*
X567848Y205025D01*
X567733Y205073D01*
X567617Y205116D01*
X567500Y205157D01*
X567381Y205193D01*
X567262Y205226D01*
X567141Y205255D01*
X567019Y205280D01*
X566897Y205301D01*
X566774Y205319D01*
X566651Y205332D01*
X566527Y205342D01*
X566403Y205348D01*
X566279Y205350D01*
X566155Y205348D01*
X566031Y205342D01*
X565907Y205332D01*
X565784Y205319D01*
X565661Y205301D01*
X565539Y205280D01*
X565417Y205255D01*
X565296Y205226D01*
X565177Y205193D01*
X565058Y205157D01*
X564941Y205116D01*
X564825Y205073D01*
X564710Y205025D01*
X564597Y204974D01*
X564485Y204919D01*
X564376Y204861D01*
X564268Y204800D01*
X564162Y204735D01*
X564058Y204667D01*
X563957Y204595D01*
X563857Y204521D01*
X563761Y204443D01*
X563666Y204363D01*
X563574Y204279D01*
X563485Y204193D01*
X563399Y204104D01*
X563315Y204012D01*
X563235Y203917D01*
X563157Y203821D01*
X563083Y203721D01*
X563011Y203620D01*
X562943Y203516D01*
X562878Y203410D01*
X562817Y203302D01*
X562759Y203193D01*
X562704Y203081D01*
X562653Y202968D01*
X562605Y202853D01*
X562562Y202737D01*
X562521Y202620D01*
X562485Y202501D01*
X562452Y202382D01*
X562423Y202261D01*
X562398Y202139D01*
X562377Y202017D01*
X562359Y201894D01*
X562346Y201771D01*
X562336Y201647D01*
X562330Y201523D01*
X562328Y201399D01*
X562328Y197448D01*
X562328Y202189D02*
X556006Y205350D01*
X567069Y212182D02*
X570230Y216133D01*
X556006Y216133D01*
X556006Y212182D02*
X556006Y220084D01*
X563118Y227048D02*
X563398Y227051D01*
X563677Y227061D01*
X563957Y227078D01*
X564236Y227101D01*
X564514Y227131D01*
X564791Y227168D01*
X565068Y227211D01*
X565343Y227261D01*
X565617Y227318D01*
X565890Y227380D01*
X566161Y227450D01*
X566430Y227526D01*
X566698Y227608D01*
X566963Y227697D01*
X567226Y227792D01*
X567487Y227893D01*
X567746Y228000D01*
X568002Y228114D01*
X568255Y228233D01*
X568254Y228233D02*
X568355Y228269D01*
X568453Y228310D01*
X568551Y228353D01*
X568646Y228400D01*
X568740Y228451D01*
X568832Y228505D01*
X568922Y228562D01*
X569010Y228623D01*
X569096Y228687D01*
X569179Y228753D01*
X569259Y228823D01*
X569338Y228896D01*
X569413Y228972D01*
X569485Y229050D01*
X569555Y229131D01*
X569622Y229214D01*
X569685Y229299D01*
X569746Y229387D01*
X569803Y229477D01*
X569857Y229570D01*
X569907Y229664D01*
X569954Y229759D01*
X569998Y229857D01*
X570038Y229956D01*
X570074Y230056D01*
X570106Y230158D01*
X570135Y230260D01*
X570160Y230364D01*
X570181Y230469D01*
X570199Y230574D01*
X570213Y230680D01*
X570222Y230786D01*
X570228Y230892D01*
X570230Y230999D01*
X570228Y231106D01*
X570222Y231212D01*
X570213Y231318D01*
X570199Y231424D01*
X570181Y231529D01*
X570160Y231634D01*
X570135Y231738D01*
X570106Y231840D01*
X570074Y231942D01*
X570038Y232042D01*
X569998Y232141D01*
X569954Y232239D01*
X569907Y232334D01*
X569857Y232428D01*
X569803Y232521D01*
X569746Y232611D01*
X569685Y232699D01*
X569622Y232784D01*
X569555Y232867D01*
X569485Y232948D01*
X569413Y233026D01*
X569338Y233102D01*
X569259Y233175D01*
X569179Y233245D01*
X569096Y233311D01*
X569010Y233375D01*
X568922Y233436D01*
X568832Y233493D01*
X568740Y233547D01*
X568646Y233598D01*
X568551Y233645D01*
X568453Y233688D01*
X568355Y233729D01*
X568254Y233765D01*
X568255Y233765D02*
X568002Y233884D01*
X567746Y233998D01*
X567487Y234105D01*
X567227Y234206D01*
X566963Y234301D01*
X566698Y234390D01*
X566430Y234472D01*
X566161Y234548D01*
X565890Y234618D01*
X565617Y234680D01*
X565343Y234737D01*
X565068Y234787D01*
X564791Y234830D01*
X564514Y234867D01*
X564236Y234897D01*
X563957Y234920D01*
X563677Y234937D01*
X563398Y234947D01*
X563118Y234950D01*
X563118Y227048D02*
X562838Y227051D01*
X562559Y227061D01*
X562279Y227078D01*
X562000Y227101D01*
X561722Y227131D01*
X561445Y227168D01*
X561168Y227211D01*
X560893Y227261D01*
X560619Y227318D01*
X560346Y227380D01*
X560075Y227450D01*
X559806Y227526D01*
X559538Y227608D01*
X559273Y227697D01*
X559010Y227792D01*
X558749Y227893D01*
X558490Y228000D01*
X558235Y228114D01*
X557982Y228233D01*
X557881Y228270D01*
X557783Y228310D01*
X557685Y228353D01*
X557589Y228400D01*
X557496Y228451D01*
X557404Y228505D01*
X557314Y228562D01*
X557226Y228623D01*
X557140Y228687D01*
X557057Y228754D01*
X556976Y228823D01*
X556898Y228896D01*
X556823Y228972D01*
X556751Y229050D01*
X556681Y229131D01*
X556614Y229214D01*
X556551Y229299D01*
X556490Y229387D01*
X556433Y229477D01*
X556379Y229570D01*
X556329Y229664D01*
X556282Y229759D01*
X556238Y229857D01*
X556198Y229956D01*
X556162Y230056D01*
X556130Y230158D01*
X556101Y230260D01*
X556076Y230364D01*
X556055Y230469D01*
X556037Y230574D01*
X556023Y230680D01*
X556014Y230786D01*
X556008Y230892D01*
X556006Y230999D01*
X557981Y233765D02*
X558234Y233884D01*
X558490Y233998D01*
X558749Y234105D01*
X559009Y234206D01*
X559273Y234301D01*
X559538Y234390D01*
X559806Y234472D01*
X560075Y234548D01*
X560346Y234618D01*
X560619Y234680D01*
X560893Y234737D01*
X561168Y234787D01*
X561445Y234830D01*
X561722Y234867D01*
X562000Y234897D01*
X562279Y234920D01*
X562559Y234937D01*
X562838Y234947D01*
X563118Y234950D01*
X557982Y233765D02*
X557881Y233729D01*
X557783Y233688D01*
X557685Y233645D01*
X557590Y233598D01*
X557496Y233547D01*
X557404Y233493D01*
X557314Y233436D01*
X557226Y233375D01*
X557140Y233311D01*
X557057Y233245D01*
X556977Y233175D01*
X556898Y233102D01*
X556823Y233026D01*
X556751Y232948D01*
X556681Y232867D01*
X556614Y232784D01*
X556551Y232699D01*
X556490Y232611D01*
X556433Y232521D01*
X556379Y232428D01*
X556329Y232334D01*
X556282Y232239D01*
X556238Y232141D01*
X556198Y232042D01*
X556162Y231942D01*
X556130Y231840D01*
X556101Y231738D01*
X556076Y231634D01*
X556055Y231529D01*
X556037Y231424D01*
X556023Y231318D01*
X556014Y231212D01*
X556008Y231106D01*
X556006Y230999D01*
X559167Y227838D02*
X567069Y234160D01*
D14*
X431800Y279400D02*
X406400Y279400D01*
X431800Y279400D02*
X431800Y256540D01*
X429260Y254000D01*
X431800Y251460D01*
X431800Y231140D01*
X429260Y228600D01*
X431800Y226060D01*
X431800Y205740D01*
X429260Y203200D01*
X431800Y200660D01*
X431800Y180340D01*
X429260Y177800D01*
X431800Y175260D01*
X408940Y177800D02*
X406400Y175260D01*
X408940Y177800D02*
X406400Y180340D01*
X406400Y200660D01*
X408940Y203200D01*
X406400Y205740D01*
X406400Y226060D01*
X408940Y228600D01*
X406400Y231140D01*
X406400Y251460D01*
X408940Y254000D01*
X406400Y256540D01*
X406400Y279400D01*
X431800Y175260D02*
X431800Y154940D01*
X429260Y152400D01*
X431800Y149860D01*
X431800Y129540D01*
X429260Y127000D01*
X431800Y124460D01*
X408940Y127000D02*
X406400Y124460D01*
X408940Y127000D02*
X406400Y129540D01*
X406400Y149860D01*
X408940Y152400D01*
X406400Y154940D01*
X406400Y175260D01*
X406400Y99060D02*
X406400Y78740D01*
X431800Y78740D02*
X431800Y99060D01*
X408940Y101600D02*
X406400Y104140D01*
X408940Y101600D02*
X406400Y99060D01*
X406400Y104140D02*
X406400Y124460D01*
X429260Y101600D02*
X431800Y99060D01*
X429260Y101600D02*
X431800Y104140D01*
X431800Y124460D01*
X431800Y50800D02*
X406400Y50800D01*
X406400Y73660D01*
X431800Y73660D02*
X431800Y50800D01*
X429260Y76200D02*
X431800Y78740D01*
X429260Y76200D02*
X431800Y73660D01*
X408940Y76200D02*
X406400Y73660D01*
X408940Y76200D02*
X406400Y78740D01*
D15*
X400685Y264795D02*
X403225Y267970D01*
X391795Y267970D01*
X391795Y264795D02*
X391795Y271145D01*
X396875Y67945D02*
X396875Y64135D01*
X396877Y64035D01*
X396883Y63936D01*
X396893Y63836D01*
X396906Y63738D01*
X396924Y63639D01*
X396945Y63542D01*
X396970Y63446D01*
X396999Y63350D01*
X397032Y63256D01*
X397068Y63163D01*
X397108Y63072D01*
X397152Y62982D01*
X397199Y62894D01*
X397249Y62808D01*
X397303Y62724D01*
X397360Y62642D01*
X397420Y62563D01*
X397484Y62485D01*
X397550Y62411D01*
X397619Y62339D01*
X397691Y62270D01*
X397765Y62204D01*
X397843Y62140D01*
X397922Y62080D01*
X398004Y62023D01*
X398088Y61969D01*
X398174Y61919D01*
X398262Y61872D01*
X398352Y61828D01*
X398443Y61788D01*
X398536Y61752D01*
X398630Y61719D01*
X398726Y61690D01*
X398822Y61665D01*
X398919Y61644D01*
X399018Y61626D01*
X399116Y61613D01*
X399216Y61603D01*
X399315Y61597D01*
X399415Y61595D01*
X400050Y61595D01*
X400161Y61597D01*
X400271Y61603D01*
X400382Y61612D01*
X400492Y61626D01*
X400601Y61643D01*
X400710Y61664D01*
X400818Y61689D01*
X400925Y61718D01*
X401031Y61750D01*
X401136Y61786D01*
X401239Y61826D01*
X401341Y61869D01*
X401442Y61916D01*
X401541Y61967D01*
X401638Y62020D01*
X401732Y62077D01*
X401825Y62138D01*
X401916Y62201D01*
X402005Y62268D01*
X402091Y62338D01*
X402174Y62411D01*
X402256Y62486D01*
X402334Y62564D01*
X402409Y62646D01*
X402482Y62729D01*
X402552Y62815D01*
X402619Y62904D01*
X402682Y62995D01*
X402743Y63088D01*
X402800Y63182D01*
X402853Y63279D01*
X402904Y63378D01*
X402951Y63479D01*
X402994Y63581D01*
X403034Y63684D01*
X403070Y63789D01*
X403102Y63895D01*
X403131Y64002D01*
X403156Y64110D01*
X403177Y64219D01*
X403194Y64328D01*
X403208Y64438D01*
X403217Y64549D01*
X403223Y64659D01*
X403225Y64770D01*
X403223Y64881D01*
X403217Y64991D01*
X403208Y65102D01*
X403194Y65212D01*
X403177Y65321D01*
X403156Y65430D01*
X403131Y65538D01*
X403102Y65645D01*
X403070Y65751D01*
X403034Y65856D01*
X402994Y65959D01*
X402951Y66061D01*
X402904Y66162D01*
X402853Y66261D01*
X402800Y66357D01*
X402743Y66452D01*
X402682Y66545D01*
X402619Y66636D01*
X402552Y66725D01*
X402482Y66811D01*
X402409Y66894D01*
X402334Y66976D01*
X402256Y67054D01*
X402174Y67129D01*
X402091Y67202D01*
X402005Y67272D01*
X401916Y67339D01*
X401825Y67402D01*
X401732Y67463D01*
X401638Y67520D01*
X401541Y67573D01*
X401442Y67624D01*
X401341Y67671D01*
X401239Y67714D01*
X401136Y67754D01*
X401031Y67790D01*
X400925Y67822D01*
X400818Y67851D01*
X400710Y67876D01*
X400601Y67897D01*
X400492Y67914D01*
X400382Y67928D01*
X400271Y67937D01*
X400161Y67943D01*
X400050Y67945D01*
X396875Y67945D01*
X396735Y67943D01*
X396595Y67937D01*
X396455Y67928D01*
X396316Y67914D01*
X396177Y67897D01*
X396039Y67876D01*
X395901Y67851D01*
X395764Y67822D01*
X395628Y67790D01*
X395493Y67753D01*
X395359Y67713D01*
X395226Y67670D01*
X395094Y67622D01*
X394963Y67572D01*
X394834Y67517D01*
X394707Y67459D01*
X394581Y67398D01*
X394457Y67333D01*
X394335Y67264D01*
X394215Y67193D01*
X394097Y67118D01*
X393980Y67040D01*
X393866Y66958D01*
X393755Y66874D01*
X393646Y66786D01*
X393539Y66696D01*
X393434Y66602D01*
X393333Y66506D01*
X393234Y66407D01*
X393138Y66306D01*
X393044Y66201D01*
X392954Y66094D01*
X392866Y65985D01*
X392782Y65874D01*
X392700Y65760D01*
X392622Y65643D01*
X392547Y65525D01*
X392476Y65405D01*
X392407Y65283D01*
X392342Y65159D01*
X392281Y65033D01*
X392223Y64906D01*
X392168Y64777D01*
X392118Y64646D01*
X392070Y64514D01*
X392027Y64381D01*
X391987Y64247D01*
X391950Y64112D01*
X391918Y63976D01*
X391889Y63839D01*
X391864Y63701D01*
X391843Y63563D01*
X391826Y63424D01*
X391812Y63285D01*
X391803Y63145D01*
X391797Y63005D01*
X391795Y62865D01*
D13*
X479201Y96449D02*
X479201Y110871D01*
X479201Y96449D02*
X479203Y96322D01*
X479209Y96195D01*
X479219Y96069D01*
X479232Y95943D01*
X479250Y95817D01*
X479271Y95692D01*
X479296Y95568D01*
X479325Y95444D01*
X479358Y95322D01*
X479395Y95200D01*
X479435Y95080D01*
X479479Y94961D01*
X479527Y94843D01*
X479578Y94727D01*
X479633Y94613D01*
X479691Y94500D01*
X479753Y94389D01*
X479818Y94280D01*
X479887Y94173D01*
X479958Y94069D01*
X480033Y93966D01*
X480111Y93866D01*
X480192Y93768D01*
X480276Y93673D01*
X480363Y93581D01*
X480453Y93491D01*
X480545Y93404D01*
X480640Y93320D01*
X480738Y93239D01*
X480838Y93161D01*
X480941Y93086D01*
X481045Y93015D01*
X481152Y92946D01*
X481261Y92881D01*
X481372Y92819D01*
X481485Y92761D01*
X481599Y92706D01*
X481715Y92655D01*
X481833Y92607D01*
X481952Y92563D01*
X482072Y92523D01*
X482194Y92486D01*
X482316Y92453D01*
X482440Y92424D01*
X482564Y92399D01*
X482689Y92378D01*
X482815Y92360D01*
X482941Y92347D01*
X483067Y92337D01*
X483194Y92331D01*
X483321Y92329D01*
X485382Y92329D01*
X469482Y92329D02*
X469482Y110871D01*
X464332Y110871D01*
X464190Y110869D01*
X464048Y110863D01*
X463907Y110853D01*
X463765Y110840D01*
X463624Y110822D01*
X463484Y110801D01*
X463344Y110775D01*
X463206Y110746D01*
X463068Y110713D01*
X462930Y110677D01*
X462794Y110636D01*
X462659Y110592D01*
X462526Y110544D01*
X462394Y110492D01*
X462263Y110437D01*
X462134Y110378D01*
X462006Y110316D01*
X461880Y110250D01*
X461757Y110181D01*
X461635Y110108D01*
X461515Y110032D01*
X461397Y109953D01*
X461281Y109870D01*
X461168Y109785D01*
X461057Y109696D01*
X460949Y109604D01*
X460843Y109510D01*
X460740Y109412D01*
X460640Y109312D01*
X460542Y109209D01*
X460448Y109103D01*
X460356Y108995D01*
X460267Y108884D01*
X460182Y108771D01*
X460099Y108655D01*
X460020Y108537D01*
X459944Y108417D01*
X459871Y108296D01*
X459802Y108172D01*
X459736Y108046D01*
X459674Y107918D01*
X459615Y107789D01*
X459560Y107658D01*
X459508Y107526D01*
X459460Y107393D01*
X459416Y107258D01*
X459375Y107122D01*
X459339Y106984D01*
X459306Y106846D01*
X459277Y106708D01*
X459251Y106568D01*
X459230Y106428D01*
X459212Y106287D01*
X459199Y106145D01*
X459189Y106004D01*
X459183Y105862D01*
X459181Y105720D01*
X459183Y105578D01*
X459189Y105436D01*
X459199Y105295D01*
X459212Y105153D01*
X459230Y105012D01*
X459251Y104872D01*
X459277Y104732D01*
X459306Y104594D01*
X459339Y104456D01*
X459375Y104318D01*
X459416Y104182D01*
X459460Y104047D01*
X459508Y103914D01*
X459560Y103782D01*
X459615Y103651D01*
X459674Y103522D01*
X459736Y103394D01*
X459802Y103268D01*
X459871Y103145D01*
X459944Y103023D01*
X460020Y102903D01*
X460099Y102785D01*
X460182Y102669D01*
X460267Y102556D01*
X460356Y102445D01*
X460448Y102337D01*
X460542Y102231D01*
X460640Y102128D01*
X460740Y102028D01*
X460843Y101930D01*
X460949Y101836D01*
X461057Y101744D01*
X461168Y101655D01*
X461281Y101570D01*
X461397Y101487D01*
X461515Y101408D01*
X461635Y101332D01*
X461756Y101259D01*
X461880Y101190D01*
X462006Y101124D01*
X462134Y101062D01*
X462263Y101003D01*
X462394Y100948D01*
X462526Y100896D01*
X462659Y100848D01*
X462794Y100804D01*
X462930Y100763D01*
X463068Y100727D01*
X463206Y100694D01*
X463344Y100665D01*
X463484Y100639D01*
X463624Y100618D01*
X463765Y100600D01*
X463907Y100587D01*
X464048Y100577D01*
X464190Y100571D01*
X464332Y100569D01*
X464332Y100570D02*
X469482Y100570D01*
X451880Y106751D02*
X446730Y110871D01*
X446730Y92329D01*
X451880Y92329D02*
X441579Y92329D01*
D16*
X57378Y168700D02*
X70219Y147335D01*
X85801Y125767D01*
X103204Y105639D01*
X122295Y87105D01*
X142929Y70306D01*
X164948Y55368D01*
X188186Y42407D01*
X212464Y31520D01*
X237599Y22791D01*
X263400Y16285D01*
X289669Y12053D01*
X316207Y10126D01*
X342812Y10520D01*
X369281Y13231D01*
X395414Y18239D01*
X421010Y25505D01*
X445876Y34975D01*
X469822Y46575D01*
X492665Y60219D01*
X514233Y75801D01*
X534360Y93204D01*
X552895Y112295D01*
X569694Y132929D01*
X584632Y154948D01*
X597593Y178186D01*
X608480Y202464D01*
X617209Y227600D01*
X623715Y253400D01*
X627947Y279669D01*
X629873Y306207D01*
X629480Y332812D01*
X626769Y359281D01*
X621761Y385414D01*
X614495Y411010D01*
X605025Y435876D01*
X593425Y459822D01*
X579781Y482666D01*
X564199Y504233D01*
X546796Y524361D01*
X527705Y542895D01*
X507071Y559694D01*
X485052Y574632D01*
X461814Y587593D01*
X437535Y598480D01*
X412400Y607210D01*
X386600Y613715D01*
X386600Y168700D01*
X57378Y168700D01*
X147500Y129427D02*
X147425Y128284D01*
X147276Y127148D01*
X147052Y126024D01*
X146755Y124917D01*
X146387Y123832D01*
X145949Y122774D01*
X145442Y121746D01*
X144869Y120754D01*
X144232Y119801D01*
X143535Y118892D01*
X142779Y118031D01*
X141969Y117221D01*
X141108Y116465D01*
X140199Y115768D01*
X139246Y115131D01*
X138254Y114558D01*
X137226Y114051D01*
X136168Y113613D01*
X135083Y113245D01*
X133976Y112948D01*
X132852Y112725D01*
X131716Y112575D01*
X130573Y112500D01*
X129427Y112500D01*
X128284Y112575D01*
X127148Y112725D01*
X126024Y112948D01*
X124917Y113245D01*
X123832Y113613D01*
X122774Y114051D01*
X121746Y114558D01*
X120754Y115131D01*
X119801Y115768D01*
X118892Y116465D01*
X118031Y117221D01*
X117221Y118031D01*
X116465Y118892D01*
X115768Y119801D01*
X115131Y120754D01*
X114558Y121746D01*
X114051Y122774D01*
X113613Y123832D01*
X113245Y124917D01*
X112948Y126024D01*
X112725Y127148D01*
X112575Y128284D01*
X112500Y129427D01*
X112500Y130573D01*
X112575Y131716D01*
X112725Y132852D01*
X112948Y133976D01*
X113245Y135083D01*
X113613Y136168D01*
X114051Y137226D01*
X114558Y138254D01*
X115131Y139246D01*
X115768Y140199D01*
X116465Y141108D01*
X117221Y141969D01*
X118031Y142779D01*
X118892Y143535D01*
X119801Y144232D01*
X120754Y144869D01*
X121746Y145442D01*
X122774Y145949D01*
X123832Y146387D01*
X124917Y146755D01*
X126024Y147052D01*
X127148Y147276D01*
X128284Y147425D01*
X129427Y147500D01*
X130573Y147500D01*
X131716Y147425D01*
X132852Y147276D01*
X133976Y147052D01*
X135083Y146755D01*
X136168Y146387D01*
X137226Y145949D01*
X138254Y145442D01*
X139246Y144869D01*
X140199Y144232D01*
X141108Y143535D01*
X141969Y142779D01*
X142779Y141969D01*
X143535Y141108D01*
X144232Y140199D01*
X144869Y139246D01*
X145442Y138254D01*
X145949Y137226D01*
X146387Y136168D01*
X146755Y135083D01*
X147052Y133976D01*
X147276Y132852D01*
X147425Y131716D01*
X147500Y130573D01*
X147500Y129427D01*
X537500Y129427D02*
X537425Y128284D01*
X537276Y127148D01*
X537052Y126024D01*
X536755Y124917D01*
X536387Y123832D01*
X535949Y122774D01*
X535442Y121746D01*
X534869Y120754D01*
X534232Y119801D01*
X533535Y118892D01*
X532779Y118031D01*
X531969Y117221D01*
X531108Y116465D01*
X530199Y115768D01*
X529246Y115131D01*
X528254Y114558D01*
X527226Y114051D01*
X526168Y113613D01*
X525083Y113245D01*
X523976Y112948D01*
X522852Y112725D01*
X521716Y112575D01*
X520573Y112500D01*
X519427Y112500D01*
X518284Y112575D01*
X517148Y112725D01*
X516024Y112948D01*
X514917Y113245D01*
X513832Y113613D01*
X512774Y114051D01*
X511746Y114558D01*
X510754Y115131D01*
X509801Y115768D01*
X508892Y116465D01*
X508031Y117221D01*
X507221Y118031D01*
X506465Y118892D01*
X505768Y119801D01*
X505131Y120754D01*
X504558Y121746D01*
X504051Y122774D01*
X503613Y123832D01*
X503245Y124917D01*
X502948Y126024D01*
X502725Y127148D01*
X502575Y128284D01*
X502500Y129427D01*
X502500Y130573D01*
X502575Y131716D01*
X502725Y132852D01*
X502948Y133976D01*
X503245Y135083D01*
X503613Y136168D01*
X504051Y137226D01*
X504558Y138254D01*
X505131Y139246D01*
X505768Y140199D01*
X506465Y141108D01*
X507221Y141969D01*
X508031Y142779D01*
X508892Y143535D01*
X509801Y144232D01*
X510754Y144869D01*
X511746Y145442D01*
X512774Y145949D01*
X513832Y146387D01*
X514917Y146755D01*
X516024Y147052D01*
X517148Y147276D01*
X518284Y147425D01*
X519427Y147500D01*
X520573Y147500D01*
X521716Y147425D01*
X522852Y147276D01*
X523976Y147052D01*
X525083Y146755D01*
X526168Y146387D01*
X527226Y145949D01*
X528254Y145442D01*
X529246Y144869D01*
X530199Y144232D01*
X531108Y143535D01*
X531969Y142779D01*
X532779Y141969D01*
X533535Y141108D01*
X534232Y140199D01*
X534869Y139246D01*
X535442Y138254D01*
X535949Y137226D01*
X536387Y136168D01*
X536755Y135083D01*
X537052Y133976D01*
X537276Y132852D01*
X537425Y131716D01*
X537500Y130573D01*
X537500Y129427D01*
X447500Y559427D02*
X447425Y558284D01*
X447276Y557148D01*
X447052Y556024D01*
X446755Y554917D01*
X446387Y553832D01*
X445949Y552774D01*
X445442Y551746D01*
X444869Y550754D01*
X444232Y549801D01*
X443535Y548892D01*
X442779Y548031D01*
X441969Y547221D01*
X441108Y546465D01*
X440199Y545768D01*
X439246Y545131D01*
X438254Y544558D01*
X437226Y544051D01*
X436168Y543613D01*
X435083Y543245D01*
X433976Y542948D01*
X432852Y542725D01*
X431716Y542575D01*
X430573Y542500D01*
X429427Y542500D01*
X428284Y542575D01*
X427148Y542725D01*
X426024Y542948D01*
X424917Y543245D01*
X423832Y543613D01*
X422774Y544051D01*
X421746Y544558D01*
X420754Y545131D01*
X419801Y545768D01*
X418892Y546465D01*
X418031Y547221D01*
X417221Y548031D01*
X416465Y548892D01*
X415768Y549801D01*
X415131Y550754D01*
X414558Y551746D01*
X414051Y552774D01*
X413613Y553832D01*
X413245Y554917D01*
X412948Y556024D01*
X412725Y557148D01*
X412575Y558284D01*
X412500Y559427D01*
X412500Y560573D01*
X412575Y561716D01*
X412725Y562852D01*
X412948Y563976D01*
X413245Y565083D01*
X413613Y566168D01*
X414051Y567226D01*
X414558Y568254D01*
X415131Y569246D01*
X415768Y570199D01*
X416465Y571108D01*
X417221Y571969D01*
X418031Y572779D01*
X418892Y573535D01*
X419801Y574232D01*
X420754Y574869D01*
X421746Y575442D01*
X422774Y575949D01*
X423832Y576387D01*
X424917Y576755D01*
X426024Y577052D01*
X427148Y577276D01*
X428284Y577425D01*
X429427Y577500D01*
X430573Y577500D01*
X431716Y577425D01*
X432852Y577276D01*
X433976Y577052D01*
X435083Y576755D01*
X436168Y576387D01*
X437226Y575949D01*
X438254Y575442D01*
X439246Y574869D01*
X440199Y574232D01*
X441108Y573535D01*
X441969Y572779D01*
X442779Y571969D01*
X443535Y571108D01*
X444232Y570199D01*
X444869Y569246D01*
X445442Y568254D01*
X445949Y567226D01*
X446387Y566168D01*
X446755Y565083D01*
X447052Y563976D01*
X447276Y562852D01*
X447425Y561716D01*
X447500Y560573D01*
X447500Y559427D01*
M02*
