G04 EAGLE Gerber RS-274X export*
G75*
%MOMM*%
%FSLAX34Y34*%
%LPD*%
%INSilkscreen Top*%
%IPPOS*%
%AMOC8*
5,1,8,0,0,1.08239X$1,22.5*%
G01*
%ADD10C,0.152400*%
%ADD11C,0.050800*%
%ADD12C,0.330200*%
%ADD13C,0.254000*%
%ADD14C,1.016000*%
%ADD15C,0.762000*%
%ADD16C,0.508000*%
%ADD17C,0.660400*%
%ADD18C,0.406400*%
%ADD19R,0.635000X0.508000*%
%ADD20R,0.508000X0.508000*%
%ADD21R,0.381000X0.508000*%
%ADD22R,0.381000X0.254000*%
%ADD23R,0.508000X0.254000*%
%ADD24C,0.254000*%


D10*
X176980Y121920D02*
X179520Y121920D01*
X176980Y121920D02*
X176980Y106680D01*
X179520Y106680D01*
X240480Y106680D02*
X243020Y106680D01*
X243020Y121920D01*
X240480Y121920D01*
D11*
X222700Y86360D02*
X222700Y83820D01*
X222700Y86360D02*
X197300Y86360D01*
X197300Y83820D01*
X198570Y142240D02*
X222700Y142240D01*
X198570Y142240D02*
X198570Y144780D01*
X222700Y144780D02*
X222700Y142240D01*
D10*
X222700Y144780D02*
X231590Y144780D01*
X197300Y83820D02*
X188410Y83820D01*
X197300Y83820D02*
X222700Y83820D01*
X231590Y83820D01*
X222700Y144780D02*
X198570Y144780D01*
X188410Y144780D01*
X179520Y124460D02*
X179520Y121920D01*
X179520Y106680D02*
X179520Y104140D01*
X240480Y121920D02*
X240480Y124460D01*
X240480Y106680D02*
X240480Y104140D01*
X192220Y114300D02*
X192225Y114736D01*
X192241Y115172D01*
X192268Y115608D01*
X192306Y116043D01*
X192354Y116476D01*
X192412Y116909D01*
X192482Y117340D01*
X192562Y117769D01*
X192652Y118196D01*
X192753Y118620D01*
X192864Y119042D01*
X192986Y119461D01*
X193117Y119877D01*
X193259Y120290D01*
X193411Y120699D01*
X193573Y121104D01*
X193745Y121505D01*
X193927Y121902D01*
X194118Y122294D01*
X194319Y122681D01*
X194530Y123064D01*
X194750Y123441D01*
X194979Y123812D01*
X195216Y124178D01*
X195463Y124538D01*
X195719Y124892D01*
X195983Y125239D01*
X196256Y125580D01*
X196537Y125913D01*
X196826Y126240D01*
X197123Y126560D01*
X197428Y126872D01*
X197740Y127177D01*
X198060Y127474D01*
X198387Y127763D01*
X198720Y128044D01*
X199061Y128317D01*
X199408Y128581D01*
X199762Y128837D01*
X200122Y129084D01*
X200488Y129321D01*
X200859Y129550D01*
X201236Y129770D01*
X201619Y129981D01*
X202006Y130182D01*
X202398Y130373D01*
X202795Y130555D01*
X203196Y130727D01*
X203601Y130889D01*
X204010Y131041D01*
X204423Y131183D01*
X204839Y131314D01*
X205258Y131436D01*
X205680Y131547D01*
X206104Y131648D01*
X206531Y131738D01*
X206960Y131818D01*
X207391Y131888D01*
X207824Y131946D01*
X208257Y131994D01*
X208692Y132032D01*
X209128Y132059D01*
X209564Y132075D01*
X210000Y132080D01*
X210436Y132075D01*
X210872Y132059D01*
X211308Y132032D01*
X211743Y131994D01*
X212176Y131946D01*
X212609Y131888D01*
X213040Y131818D01*
X213469Y131738D01*
X213896Y131648D01*
X214320Y131547D01*
X214742Y131436D01*
X215161Y131314D01*
X215577Y131183D01*
X215990Y131041D01*
X216399Y130889D01*
X216804Y130727D01*
X217205Y130555D01*
X217602Y130373D01*
X217994Y130182D01*
X218381Y129981D01*
X218764Y129770D01*
X219141Y129550D01*
X219512Y129321D01*
X219878Y129084D01*
X220238Y128837D01*
X220592Y128581D01*
X220939Y128317D01*
X221280Y128044D01*
X221613Y127763D01*
X221940Y127474D01*
X222260Y127177D01*
X222572Y126872D01*
X222877Y126560D01*
X223174Y126240D01*
X223463Y125913D01*
X223744Y125580D01*
X224017Y125239D01*
X224281Y124892D01*
X224537Y124538D01*
X224784Y124178D01*
X225021Y123812D01*
X225250Y123441D01*
X225470Y123064D01*
X225681Y122681D01*
X225882Y122294D01*
X226073Y121902D01*
X226255Y121505D01*
X226427Y121104D01*
X226589Y120699D01*
X226741Y120290D01*
X226883Y119877D01*
X227014Y119461D01*
X227136Y119042D01*
X227247Y118620D01*
X227348Y118196D01*
X227438Y117769D01*
X227518Y117340D01*
X227588Y116909D01*
X227646Y116476D01*
X227694Y116043D01*
X227732Y115608D01*
X227759Y115172D01*
X227775Y114736D01*
X227780Y114300D01*
X227775Y113864D01*
X227759Y113428D01*
X227732Y112992D01*
X227694Y112557D01*
X227646Y112124D01*
X227588Y111691D01*
X227518Y111260D01*
X227438Y110831D01*
X227348Y110404D01*
X227247Y109980D01*
X227136Y109558D01*
X227014Y109139D01*
X226883Y108723D01*
X226741Y108310D01*
X226589Y107901D01*
X226427Y107496D01*
X226255Y107095D01*
X226073Y106698D01*
X225882Y106306D01*
X225681Y105919D01*
X225470Y105536D01*
X225250Y105159D01*
X225021Y104788D01*
X224784Y104422D01*
X224537Y104062D01*
X224281Y103708D01*
X224017Y103361D01*
X223744Y103020D01*
X223463Y102687D01*
X223174Y102360D01*
X222877Y102040D01*
X222572Y101728D01*
X222260Y101423D01*
X221940Y101126D01*
X221613Y100837D01*
X221280Y100556D01*
X220939Y100283D01*
X220592Y100019D01*
X220238Y99763D01*
X219878Y99516D01*
X219512Y99279D01*
X219141Y99050D01*
X218764Y98830D01*
X218381Y98619D01*
X217994Y98418D01*
X217602Y98227D01*
X217205Y98045D01*
X216804Y97873D01*
X216399Y97711D01*
X215990Y97559D01*
X215577Y97417D01*
X215161Y97286D01*
X214742Y97164D01*
X214320Y97053D01*
X213896Y96952D01*
X213469Y96862D01*
X213040Y96782D01*
X212609Y96712D01*
X212176Y96654D01*
X211743Y96606D01*
X211308Y96568D01*
X210872Y96541D01*
X210436Y96525D01*
X210000Y96520D01*
X209564Y96525D01*
X209128Y96541D01*
X208692Y96568D01*
X208257Y96606D01*
X207824Y96654D01*
X207391Y96712D01*
X206960Y96782D01*
X206531Y96862D01*
X206104Y96952D01*
X205680Y97053D01*
X205258Y97164D01*
X204839Y97286D01*
X204423Y97417D01*
X204010Y97559D01*
X203601Y97711D01*
X203196Y97873D01*
X202795Y98045D01*
X202398Y98227D01*
X202006Y98418D01*
X201619Y98619D01*
X201236Y98830D01*
X200859Y99050D01*
X200488Y99279D01*
X200122Y99516D01*
X199762Y99763D01*
X199408Y100019D01*
X199061Y100283D01*
X198720Y100556D01*
X198387Y100837D01*
X198060Y101126D01*
X197740Y101423D01*
X197428Y101728D01*
X197123Y102040D01*
X196826Y102360D01*
X196537Y102687D01*
X196256Y103020D01*
X195983Y103361D01*
X195719Y103708D01*
X195463Y104062D01*
X195216Y104422D01*
X194979Y104788D01*
X194750Y105159D01*
X194530Y105536D01*
X194319Y105919D01*
X194118Y106306D01*
X193927Y106698D01*
X193745Y107095D01*
X193573Y107496D01*
X193411Y107901D01*
X193259Y108310D01*
X193117Y108723D01*
X192986Y109139D01*
X192864Y109558D01*
X192753Y109980D01*
X192652Y110404D01*
X192562Y110831D01*
X192482Y111260D01*
X192412Y111691D01*
X192354Y112124D01*
X192306Y112557D01*
X192268Y112992D01*
X192241Y113428D01*
X192225Y113864D01*
X192220Y114300D01*
X207460Y114300D02*
X207462Y114400D01*
X207468Y114501D01*
X207478Y114600D01*
X207492Y114700D01*
X207509Y114799D01*
X207531Y114897D01*
X207557Y114994D01*
X207586Y115090D01*
X207619Y115184D01*
X207656Y115278D01*
X207696Y115370D01*
X207740Y115460D01*
X207788Y115548D01*
X207839Y115635D01*
X207893Y115719D01*
X207951Y115801D01*
X208012Y115881D01*
X208076Y115958D01*
X208143Y116033D01*
X208213Y116105D01*
X208286Y116174D01*
X208361Y116240D01*
X208439Y116304D01*
X208519Y116364D01*
X208602Y116421D01*
X208687Y116474D01*
X208774Y116524D01*
X208863Y116571D01*
X208953Y116614D01*
X209045Y116654D01*
X209139Y116690D01*
X209234Y116722D01*
X209330Y116750D01*
X209428Y116775D01*
X209526Y116795D01*
X209625Y116812D01*
X209725Y116825D01*
X209824Y116834D01*
X209925Y116839D01*
X210025Y116840D01*
X210125Y116837D01*
X210226Y116830D01*
X210325Y116819D01*
X210425Y116804D01*
X210523Y116786D01*
X210621Y116763D01*
X210718Y116736D01*
X210813Y116706D01*
X210908Y116672D01*
X211001Y116634D01*
X211092Y116593D01*
X211182Y116548D01*
X211270Y116500D01*
X211356Y116448D01*
X211440Y116393D01*
X211521Y116334D01*
X211600Y116272D01*
X211677Y116208D01*
X211751Y116140D01*
X211822Y116069D01*
X211891Y115996D01*
X211956Y115920D01*
X212019Y115841D01*
X212078Y115760D01*
X212134Y115677D01*
X212187Y115592D01*
X212236Y115504D01*
X212282Y115415D01*
X212324Y115324D01*
X212363Y115231D01*
X212398Y115137D01*
X212429Y115042D01*
X212457Y114945D01*
X212480Y114848D01*
X212500Y114749D01*
X212516Y114650D01*
X212528Y114551D01*
X212536Y114450D01*
X212540Y114350D01*
X212540Y114250D01*
X212536Y114150D01*
X212528Y114049D01*
X212516Y113950D01*
X212500Y113851D01*
X212480Y113752D01*
X212457Y113655D01*
X212429Y113558D01*
X212398Y113463D01*
X212363Y113369D01*
X212324Y113276D01*
X212282Y113185D01*
X212236Y113096D01*
X212187Y113008D01*
X212134Y112923D01*
X212078Y112840D01*
X212019Y112759D01*
X211956Y112680D01*
X211891Y112604D01*
X211822Y112531D01*
X211751Y112460D01*
X211677Y112392D01*
X211600Y112328D01*
X211521Y112266D01*
X211440Y112207D01*
X211356Y112152D01*
X211270Y112100D01*
X211182Y112052D01*
X211092Y112007D01*
X211001Y111966D01*
X210908Y111928D01*
X210813Y111894D01*
X210718Y111864D01*
X210621Y111837D01*
X210523Y111814D01*
X210425Y111796D01*
X210325Y111781D01*
X210226Y111770D01*
X210125Y111763D01*
X210025Y111760D01*
X209925Y111761D01*
X209824Y111766D01*
X209725Y111775D01*
X209625Y111788D01*
X209526Y111805D01*
X209428Y111825D01*
X209330Y111850D01*
X209234Y111878D01*
X209139Y111910D01*
X209045Y111946D01*
X208953Y111986D01*
X208863Y112029D01*
X208774Y112076D01*
X208687Y112126D01*
X208602Y112179D01*
X208519Y112236D01*
X208439Y112296D01*
X208361Y112360D01*
X208286Y112426D01*
X208213Y112495D01*
X208143Y112567D01*
X208076Y112642D01*
X208012Y112719D01*
X207951Y112799D01*
X207893Y112881D01*
X207839Y112965D01*
X207788Y113052D01*
X207740Y113140D01*
X207696Y113230D01*
X207656Y113322D01*
X207619Y113416D01*
X207586Y113510D01*
X207557Y113606D01*
X207531Y113703D01*
X207509Y113801D01*
X207492Y113900D01*
X207478Y114000D01*
X207468Y114099D01*
X207462Y114200D01*
X207460Y114300D01*
D12*
X220908Y61397D02*
X220906Y61270D01*
X220900Y61143D01*
X220890Y61017D01*
X220877Y60891D01*
X220859Y60765D01*
X220838Y60640D01*
X220813Y60516D01*
X220784Y60392D01*
X220751Y60270D01*
X220714Y60148D01*
X220674Y60028D01*
X220630Y59909D01*
X220582Y59791D01*
X220531Y59675D01*
X220476Y59561D01*
X220418Y59448D01*
X220356Y59337D01*
X220291Y59228D01*
X220222Y59121D01*
X220151Y59017D01*
X220076Y58914D01*
X219998Y58814D01*
X219917Y58716D01*
X219833Y58621D01*
X219746Y58529D01*
X219656Y58439D01*
X219564Y58352D01*
X219469Y58268D01*
X219371Y58187D01*
X219271Y58109D01*
X219168Y58034D01*
X219064Y57963D01*
X218957Y57894D01*
X218848Y57829D01*
X218737Y57767D01*
X218624Y57709D01*
X218510Y57654D01*
X218394Y57603D01*
X218276Y57555D01*
X218157Y57511D01*
X218037Y57471D01*
X217915Y57434D01*
X217793Y57401D01*
X217669Y57372D01*
X217545Y57347D01*
X217420Y57326D01*
X217294Y57308D01*
X217168Y57295D01*
X217042Y57285D01*
X216915Y57279D01*
X216788Y57277D01*
X216580Y57279D01*
X216372Y57287D01*
X216164Y57299D01*
X215956Y57317D01*
X215749Y57339D01*
X215543Y57367D01*
X215337Y57399D01*
X215132Y57436D01*
X214928Y57478D01*
X214725Y57525D01*
X214523Y57577D01*
X214323Y57633D01*
X214124Y57695D01*
X213926Y57761D01*
X213730Y57832D01*
X213536Y57907D01*
X213344Y57987D01*
X213154Y58072D01*
X212966Y58161D01*
X212780Y58255D01*
X212596Y58353D01*
X212415Y58455D01*
X212236Y58562D01*
X212060Y58673D01*
X211886Y58788D01*
X211715Y58908D01*
X211548Y59031D01*
X211383Y59159D01*
X211221Y59290D01*
X211063Y59425D01*
X210907Y59564D01*
X210755Y59706D01*
X210607Y59852D01*
X211123Y71699D02*
X211125Y71826D01*
X211131Y71953D01*
X211141Y72079D01*
X211154Y72205D01*
X211172Y72331D01*
X211193Y72456D01*
X211218Y72580D01*
X211247Y72704D01*
X211280Y72826D01*
X211317Y72948D01*
X211357Y73068D01*
X211401Y73187D01*
X211449Y73305D01*
X211500Y73421D01*
X211555Y73535D01*
X211613Y73648D01*
X211675Y73759D01*
X211740Y73868D01*
X211809Y73975D01*
X211880Y74079D01*
X211955Y74182D01*
X212033Y74282D01*
X212114Y74380D01*
X212198Y74475D01*
X212285Y74567D01*
X212375Y74657D01*
X212467Y74744D01*
X212562Y74828D01*
X212660Y74909D01*
X212760Y74987D01*
X212863Y75062D01*
X212967Y75133D01*
X213074Y75202D01*
X213183Y75267D01*
X213294Y75329D01*
X213407Y75387D01*
X213521Y75442D01*
X213637Y75493D01*
X213755Y75541D01*
X213874Y75585D01*
X213994Y75625D01*
X214116Y75662D01*
X214238Y75695D01*
X214362Y75724D01*
X214486Y75749D01*
X214611Y75770D01*
X214737Y75788D01*
X214863Y75801D01*
X214989Y75811D01*
X215116Y75817D01*
X215243Y75819D01*
X215427Y75817D01*
X215611Y75810D01*
X215795Y75799D01*
X215978Y75784D01*
X216162Y75764D01*
X216344Y75740D01*
X216526Y75712D01*
X216707Y75679D01*
X216888Y75642D01*
X217067Y75601D01*
X217245Y75555D01*
X217423Y75505D01*
X217599Y75451D01*
X217773Y75393D01*
X217947Y75331D01*
X218118Y75264D01*
X218288Y75193D01*
X218457Y75119D01*
X218623Y75040D01*
X218788Y74958D01*
X218950Y74871D01*
X219111Y74781D01*
X219269Y74687D01*
X219425Y74589D01*
X219579Y74488D01*
X219730Y74383D01*
X219879Y74274D01*
X213182Y68093D02*
X213073Y68160D01*
X212966Y68230D01*
X212861Y68303D01*
X212759Y68379D01*
X212659Y68459D01*
X212561Y68541D01*
X212466Y68626D01*
X212373Y68714D01*
X212284Y68805D01*
X212197Y68899D01*
X212113Y68995D01*
X212031Y69094D01*
X211953Y69195D01*
X211879Y69299D01*
X211807Y69405D01*
X211739Y69513D01*
X211673Y69623D01*
X211612Y69735D01*
X211553Y69848D01*
X211499Y69964D01*
X211447Y70081D01*
X211400Y70199D01*
X211356Y70319D01*
X211316Y70441D01*
X211279Y70563D01*
X211246Y70687D01*
X211217Y70811D01*
X211192Y70936D01*
X211171Y71062D01*
X211153Y71189D01*
X211140Y71316D01*
X211130Y71444D01*
X211124Y71571D01*
X211122Y71699D01*
X218849Y65003D02*
X218958Y64936D01*
X219065Y64866D01*
X219170Y64793D01*
X219272Y64717D01*
X219372Y64637D01*
X219470Y64555D01*
X219565Y64470D01*
X219658Y64382D01*
X219747Y64291D01*
X219834Y64197D01*
X219918Y64101D01*
X220000Y64002D01*
X220078Y63901D01*
X220152Y63797D01*
X220224Y63691D01*
X220293Y63583D01*
X220358Y63473D01*
X220419Y63361D01*
X220478Y63248D01*
X220532Y63132D01*
X220584Y63015D01*
X220631Y62897D01*
X220675Y62777D01*
X220715Y62655D01*
X220752Y62533D01*
X220785Y62409D01*
X220814Y62285D01*
X220839Y62160D01*
X220860Y62034D01*
X220878Y61907D01*
X220891Y61780D01*
X220901Y61652D01*
X220907Y61525D01*
X220909Y61397D01*
X218848Y65003D02*
X213183Y68093D01*
X228528Y71699D02*
X233678Y75819D01*
X233678Y57277D01*
X228528Y57277D02*
X238829Y57277D01*
D10*
X594360Y256540D02*
X594360Y429260D01*
X472440Y429260D01*
X472440Y256540D01*
X594360Y256540D01*
D13*
X568706Y390398D02*
X577596Y397510D01*
X582168Y394208D01*
X561848Y353314D02*
X573278Y346964D01*
X582168Y394208D01*
X568706Y390398D02*
X561848Y353314D01*
X558800Y349250D02*
X570230Y342900D01*
X565150Y393700D02*
X573786Y400558D01*
X566166Y406400D01*
X570230Y342900D02*
X557530Y336550D01*
X558038Y330962D02*
X571500Y337820D01*
X562610Y288798D01*
X551434Y295402D02*
X558038Y330962D01*
X548132Y292100D02*
X555752Y282956D01*
X551688Y279400D01*
X559308Y286004D02*
X551434Y295402D01*
X559308Y286004D02*
X562610Y288798D01*
X508000Y336550D02*
X496570Y342900D01*
X501650Y292100D02*
X493014Y285242D01*
X500634Y279400D01*
X551688Y279400D01*
X548132Y292100D02*
X501650Y292100D01*
X508000Y336550D02*
X557530Y336550D01*
X509270Y349250D02*
X496570Y342900D01*
X509270Y349250D02*
X558800Y349250D01*
X518668Y393700D02*
X511048Y402844D01*
X515112Y406400D01*
X566166Y406400D01*
X565150Y393700D02*
X518668Y393700D01*
D14*
X500380Y285750D02*
X547370Y285750D01*
X557530Y295910D02*
X563880Y327660D01*
X560070Y342900D02*
X506730Y342900D01*
D15*
X558800Y290830D02*
X560070Y292100D01*
D14*
X568960Y356870D02*
X575310Y389890D01*
D16*
X577850Y393700D02*
X579120Y392430D01*
D17*
X565150Y355600D02*
X571500Y351790D01*
D14*
X566420Y400050D02*
X519430Y400050D01*
D18*
X516890Y405130D02*
X513080Y401320D01*
D13*
X498094Y295402D02*
X489204Y288290D01*
X484632Y291592D01*
X504952Y332486D02*
X493522Y338836D01*
X484632Y291592D01*
X498094Y295402D02*
X504952Y332486D01*
X495300Y347980D02*
X508762Y354838D01*
X495300Y347980D02*
X504190Y397002D01*
X515366Y390398D02*
X508762Y354838D01*
X515366Y390398D02*
X507492Y399796D01*
X504190Y397002D01*
D14*
X509270Y389890D02*
X502920Y358140D01*
D15*
X506730Y393700D02*
X508000Y394970D01*
D14*
X497840Y328930D02*
X491490Y295910D01*
D16*
X488950Y292100D02*
X487680Y293370D01*
D17*
X501650Y330200D02*
X495300Y334010D01*
D15*
X575310Y285750D02*
X575312Y285873D01*
X575318Y285997D01*
X575328Y286120D01*
X575342Y286242D01*
X575360Y286364D01*
X575382Y286486D01*
X575407Y286606D01*
X575437Y286726D01*
X575471Y286845D01*
X575508Y286963D01*
X575549Y287079D01*
X575594Y287194D01*
X575643Y287307D01*
X575695Y287419D01*
X575751Y287529D01*
X575810Y287637D01*
X575873Y287743D01*
X575939Y287847D01*
X576009Y287949D01*
X576082Y288049D01*
X576158Y288146D01*
X576237Y288241D01*
X576319Y288333D01*
X576404Y288422D01*
X576492Y288509D01*
X576583Y288592D01*
X576676Y288673D01*
X576772Y288751D01*
X576871Y288825D01*
X576971Y288896D01*
X577074Y288964D01*
X577179Y289029D01*
X577287Y289090D01*
X577396Y289148D01*
X577507Y289202D01*
X577619Y289252D01*
X577734Y289299D01*
X577849Y289342D01*
X577966Y289381D01*
X578084Y289417D01*
X578204Y289448D01*
X578324Y289476D01*
X578445Y289500D01*
X578567Y289520D01*
X578689Y289536D01*
X578812Y289548D01*
X578935Y289556D01*
X579058Y289560D01*
X579182Y289560D01*
X579305Y289556D01*
X579428Y289548D01*
X579551Y289536D01*
X579673Y289520D01*
X579795Y289500D01*
X579916Y289476D01*
X580036Y289448D01*
X580156Y289417D01*
X580274Y289381D01*
X580391Y289342D01*
X580506Y289299D01*
X580621Y289252D01*
X580733Y289202D01*
X580844Y289148D01*
X580953Y289090D01*
X581061Y289029D01*
X581166Y288964D01*
X581269Y288896D01*
X581369Y288825D01*
X581468Y288751D01*
X581564Y288673D01*
X581657Y288592D01*
X581748Y288509D01*
X581836Y288422D01*
X581921Y288333D01*
X582003Y288241D01*
X582082Y288146D01*
X582158Y288049D01*
X582231Y287949D01*
X582301Y287847D01*
X582367Y287743D01*
X582430Y287637D01*
X582489Y287529D01*
X582545Y287419D01*
X582597Y287307D01*
X582646Y287194D01*
X582691Y287079D01*
X582732Y286963D01*
X582769Y286845D01*
X582803Y286726D01*
X582833Y286606D01*
X582858Y286486D01*
X582880Y286364D01*
X582898Y286242D01*
X582912Y286120D01*
X582922Y285997D01*
X582928Y285873D01*
X582930Y285750D01*
X582928Y285627D01*
X582922Y285503D01*
X582912Y285380D01*
X582898Y285258D01*
X582880Y285136D01*
X582858Y285014D01*
X582833Y284894D01*
X582803Y284774D01*
X582769Y284655D01*
X582732Y284537D01*
X582691Y284421D01*
X582646Y284306D01*
X582597Y284193D01*
X582545Y284081D01*
X582489Y283971D01*
X582430Y283863D01*
X582367Y283757D01*
X582301Y283653D01*
X582231Y283551D01*
X582158Y283451D01*
X582082Y283354D01*
X582003Y283259D01*
X581921Y283167D01*
X581836Y283078D01*
X581748Y282991D01*
X581657Y282908D01*
X581564Y282827D01*
X581468Y282749D01*
X581369Y282675D01*
X581269Y282604D01*
X581166Y282536D01*
X581061Y282471D01*
X580953Y282410D01*
X580844Y282352D01*
X580733Y282298D01*
X580621Y282248D01*
X580506Y282201D01*
X580391Y282158D01*
X580274Y282119D01*
X580156Y282083D01*
X580036Y282052D01*
X579916Y282024D01*
X579795Y282000D01*
X579673Y281980D01*
X579551Y281964D01*
X579428Y281952D01*
X579305Y281944D01*
X579182Y281940D01*
X579058Y281940D01*
X578935Y281944D01*
X578812Y281952D01*
X578689Y281964D01*
X578567Y281980D01*
X578445Y282000D01*
X578324Y282024D01*
X578204Y282052D01*
X578084Y282083D01*
X577966Y282119D01*
X577849Y282158D01*
X577734Y282201D01*
X577619Y282248D01*
X577507Y282298D01*
X577396Y282352D01*
X577287Y282410D01*
X577179Y282471D01*
X577074Y282536D01*
X576971Y282604D01*
X576871Y282675D01*
X576772Y282749D01*
X576676Y282827D01*
X576583Y282908D01*
X576492Y282991D01*
X576404Y283078D01*
X576319Y283167D01*
X576237Y283259D01*
X576158Y283354D01*
X576082Y283451D01*
X576009Y283551D01*
X575939Y283653D01*
X575873Y283757D01*
X575810Y283863D01*
X575751Y283971D01*
X575695Y284081D01*
X575643Y284193D01*
X575594Y284306D01*
X575549Y284421D01*
X575508Y284537D01*
X575471Y284655D01*
X575437Y284774D01*
X575407Y284894D01*
X575382Y285014D01*
X575360Y285136D01*
X575342Y285258D01*
X575328Y285380D01*
X575318Y285503D01*
X575312Y285627D01*
X575310Y285750D01*
D19*
X551815Y283210D03*
D20*
X567690Y332740D03*
D21*
X565785Y342900D03*
D22*
X501015Y342900D03*
D20*
X499110Y353060D03*
D23*
X579120Y285750D03*
D12*
X474091Y435991D02*
X474091Y454533D01*
X479242Y454533D01*
X479384Y454531D01*
X479526Y454525D01*
X479667Y454515D01*
X479809Y454502D01*
X479950Y454484D01*
X480090Y454463D01*
X480230Y454437D01*
X480368Y454408D01*
X480506Y454375D01*
X480644Y454339D01*
X480780Y454298D01*
X480915Y454254D01*
X481048Y454206D01*
X481180Y454154D01*
X481311Y454099D01*
X481440Y454040D01*
X481568Y453978D01*
X481694Y453912D01*
X481818Y453843D01*
X481939Y453770D01*
X482059Y453694D01*
X482177Y453615D01*
X482293Y453532D01*
X482406Y453447D01*
X482517Y453358D01*
X482625Y453266D01*
X482731Y453172D01*
X482834Y453074D01*
X482934Y452974D01*
X483032Y452871D01*
X483126Y452765D01*
X483218Y452657D01*
X483307Y452546D01*
X483392Y452433D01*
X483475Y452317D01*
X483554Y452199D01*
X483630Y452079D01*
X483703Y451958D01*
X483772Y451834D01*
X483838Y451708D01*
X483900Y451580D01*
X483959Y451451D01*
X484014Y451320D01*
X484066Y451188D01*
X484114Y451055D01*
X484158Y450920D01*
X484199Y450784D01*
X484235Y450646D01*
X484268Y450508D01*
X484297Y450370D01*
X484323Y450230D01*
X484344Y450090D01*
X484362Y449949D01*
X484375Y449807D01*
X484385Y449666D01*
X484391Y449524D01*
X484393Y449382D01*
X484392Y449382D02*
X484392Y441142D01*
X484393Y441142D02*
X484391Y441000D01*
X484385Y440858D01*
X484375Y440717D01*
X484362Y440575D01*
X484344Y440434D01*
X484323Y440294D01*
X484297Y440154D01*
X484268Y440016D01*
X484235Y439877D01*
X484199Y439740D01*
X484158Y439604D01*
X484114Y439469D01*
X484066Y439336D01*
X484014Y439204D01*
X483959Y439073D01*
X483900Y438944D01*
X483838Y438816D01*
X483772Y438690D01*
X483703Y438566D01*
X483630Y438445D01*
X483554Y438325D01*
X483475Y438207D01*
X483392Y438091D01*
X483307Y437978D01*
X483218Y437867D01*
X483126Y437759D01*
X483032Y437653D01*
X482934Y437550D01*
X482834Y437450D01*
X482731Y437352D01*
X482625Y437258D01*
X482517Y437166D01*
X482406Y437077D01*
X482293Y436991D01*
X482177Y436909D01*
X482059Y436830D01*
X481939Y436754D01*
X481817Y436681D01*
X481694Y436612D01*
X481568Y436546D01*
X481440Y436484D01*
X481311Y436425D01*
X481180Y436370D01*
X481048Y436318D01*
X480915Y436270D01*
X480780Y436226D01*
X480644Y436185D01*
X480506Y436149D01*
X480368Y436116D01*
X480229Y436087D01*
X480090Y436061D01*
X479949Y436040D01*
X479809Y436022D01*
X479667Y436009D01*
X479526Y435999D01*
X479384Y435993D01*
X479242Y435991D01*
X474091Y435991D01*
X498913Y454534D02*
X499048Y454532D01*
X499183Y454526D01*
X499317Y454516D01*
X499451Y454503D01*
X499585Y454485D01*
X499718Y454464D01*
X499850Y454438D01*
X499982Y454409D01*
X500113Y454376D01*
X500243Y454339D01*
X500371Y454299D01*
X500499Y454254D01*
X500625Y454206D01*
X500749Y454155D01*
X500872Y454100D01*
X500994Y454041D01*
X501113Y453979D01*
X501231Y453913D01*
X501347Y453844D01*
X501461Y453771D01*
X501572Y453696D01*
X501681Y453617D01*
X501788Y453535D01*
X501893Y453449D01*
X501995Y453361D01*
X502094Y453270D01*
X502191Y453176D01*
X502285Y453079D01*
X502376Y452980D01*
X502464Y452878D01*
X502550Y452773D01*
X502632Y452666D01*
X502711Y452557D01*
X502786Y452446D01*
X502859Y452332D01*
X502928Y452216D01*
X502994Y452098D01*
X503056Y451979D01*
X503115Y451857D01*
X503170Y451734D01*
X503221Y451610D01*
X503269Y451484D01*
X503314Y451356D01*
X503354Y451228D01*
X503391Y451098D01*
X503424Y450967D01*
X503453Y450835D01*
X503479Y450703D01*
X503500Y450570D01*
X503518Y450436D01*
X503531Y450302D01*
X503541Y450168D01*
X503547Y450033D01*
X503549Y449898D01*
X498913Y454533D02*
X498760Y454531D01*
X498607Y454525D01*
X498455Y454515D01*
X498303Y454502D01*
X498151Y454484D01*
X498000Y454463D01*
X497849Y454437D01*
X497699Y454408D01*
X497550Y454375D01*
X497401Y454338D01*
X497254Y454297D01*
X497108Y454253D01*
X496963Y454205D01*
X496819Y454153D01*
X496677Y454097D01*
X496536Y454038D01*
X496396Y453975D01*
X496259Y453909D01*
X496123Y453839D01*
X495989Y453766D01*
X495857Y453689D01*
X495726Y453609D01*
X495598Y453525D01*
X495473Y453439D01*
X495349Y453349D01*
X495228Y453256D01*
X495109Y453160D01*
X494993Y453060D01*
X494879Y452958D01*
X494768Y452853D01*
X494659Y452746D01*
X494554Y452635D01*
X494451Y452522D01*
X494351Y452406D01*
X494255Y452288D01*
X494161Y452167D01*
X494070Y452044D01*
X493983Y451918D01*
X493899Y451791D01*
X493818Y451661D01*
X493741Y451529D01*
X493667Y451396D01*
X493596Y451260D01*
X493529Y451123D01*
X493466Y450984D01*
X493406Y450843D01*
X493349Y450701D01*
X493297Y450558D01*
X493248Y450413D01*
X502003Y446293D02*
X502102Y446390D01*
X502199Y446490D01*
X502292Y446593D01*
X502383Y446698D01*
X502471Y446806D01*
X502556Y446916D01*
X502638Y447028D01*
X502716Y447143D01*
X502792Y447260D01*
X502864Y447379D01*
X502932Y447500D01*
X502997Y447622D01*
X503059Y447747D01*
X503118Y447873D01*
X503172Y448001D01*
X503224Y448130D01*
X503271Y448261D01*
X503315Y448393D01*
X503355Y448526D01*
X503392Y448660D01*
X503424Y448795D01*
X503453Y448931D01*
X503478Y449068D01*
X503500Y449205D01*
X503517Y449343D01*
X503531Y449481D01*
X503540Y449620D01*
X503546Y449759D01*
X503548Y449898D01*
X502003Y446292D02*
X493247Y435991D01*
X503548Y435991D01*
D10*
X294520Y121920D02*
X291980Y121920D01*
X291980Y106680D01*
X294520Y106680D01*
X355480Y106680D02*
X358020Y106680D01*
X358020Y121920D01*
X355480Y121920D01*
D11*
X337700Y86360D02*
X337700Y83820D01*
X337700Y86360D02*
X312300Y86360D01*
X312300Y83820D01*
X313570Y142240D02*
X337700Y142240D01*
X313570Y142240D02*
X313570Y144780D01*
X337700Y144780D02*
X337700Y142240D01*
D10*
X337700Y144780D02*
X346590Y144780D01*
X312300Y83820D02*
X303410Y83820D01*
X312300Y83820D02*
X337700Y83820D01*
X346590Y83820D01*
X337700Y144780D02*
X313570Y144780D01*
X303410Y144780D01*
X294520Y124460D02*
X294520Y121920D01*
X294520Y106680D02*
X294520Y104140D01*
X355480Y121920D02*
X355480Y124460D01*
X355480Y106680D02*
X355480Y104140D01*
X307220Y114300D02*
X307225Y114736D01*
X307241Y115172D01*
X307268Y115608D01*
X307306Y116043D01*
X307354Y116476D01*
X307412Y116909D01*
X307482Y117340D01*
X307562Y117769D01*
X307652Y118196D01*
X307753Y118620D01*
X307864Y119042D01*
X307986Y119461D01*
X308117Y119877D01*
X308259Y120290D01*
X308411Y120699D01*
X308573Y121104D01*
X308745Y121505D01*
X308927Y121902D01*
X309118Y122294D01*
X309319Y122681D01*
X309530Y123064D01*
X309750Y123441D01*
X309979Y123812D01*
X310216Y124178D01*
X310463Y124538D01*
X310719Y124892D01*
X310983Y125239D01*
X311256Y125580D01*
X311537Y125913D01*
X311826Y126240D01*
X312123Y126560D01*
X312428Y126872D01*
X312740Y127177D01*
X313060Y127474D01*
X313387Y127763D01*
X313720Y128044D01*
X314061Y128317D01*
X314408Y128581D01*
X314762Y128837D01*
X315122Y129084D01*
X315488Y129321D01*
X315859Y129550D01*
X316236Y129770D01*
X316619Y129981D01*
X317006Y130182D01*
X317398Y130373D01*
X317795Y130555D01*
X318196Y130727D01*
X318601Y130889D01*
X319010Y131041D01*
X319423Y131183D01*
X319839Y131314D01*
X320258Y131436D01*
X320680Y131547D01*
X321104Y131648D01*
X321531Y131738D01*
X321960Y131818D01*
X322391Y131888D01*
X322824Y131946D01*
X323257Y131994D01*
X323692Y132032D01*
X324128Y132059D01*
X324564Y132075D01*
X325000Y132080D01*
X325436Y132075D01*
X325872Y132059D01*
X326308Y132032D01*
X326743Y131994D01*
X327176Y131946D01*
X327609Y131888D01*
X328040Y131818D01*
X328469Y131738D01*
X328896Y131648D01*
X329320Y131547D01*
X329742Y131436D01*
X330161Y131314D01*
X330577Y131183D01*
X330990Y131041D01*
X331399Y130889D01*
X331804Y130727D01*
X332205Y130555D01*
X332602Y130373D01*
X332994Y130182D01*
X333381Y129981D01*
X333764Y129770D01*
X334141Y129550D01*
X334512Y129321D01*
X334878Y129084D01*
X335238Y128837D01*
X335592Y128581D01*
X335939Y128317D01*
X336280Y128044D01*
X336613Y127763D01*
X336940Y127474D01*
X337260Y127177D01*
X337572Y126872D01*
X337877Y126560D01*
X338174Y126240D01*
X338463Y125913D01*
X338744Y125580D01*
X339017Y125239D01*
X339281Y124892D01*
X339537Y124538D01*
X339784Y124178D01*
X340021Y123812D01*
X340250Y123441D01*
X340470Y123064D01*
X340681Y122681D01*
X340882Y122294D01*
X341073Y121902D01*
X341255Y121505D01*
X341427Y121104D01*
X341589Y120699D01*
X341741Y120290D01*
X341883Y119877D01*
X342014Y119461D01*
X342136Y119042D01*
X342247Y118620D01*
X342348Y118196D01*
X342438Y117769D01*
X342518Y117340D01*
X342588Y116909D01*
X342646Y116476D01*
X342694Y116043D01*
X342732Y115608D01*
X342759Y115172D01*
X342775Y114736D01*
X342780Y114300D01*
X342775Y113864D01*
X342759Y113428D01*
X342732Y112992D01*
X342694Y112557D01*
X342646Y112124D01*
X342588Y111691D01*
X342518Y111260D01*
X342438Y110831D01*
X342348Y110404D01*
X342247Y109980D01*
X342136Y109558D01*
X342014Y109139D01*
X341883Y108723D01*
X341741Y108310D01*
X341589Y107901D01*
X341427Y107496D01*
X341255Y107095D01*
X341073Y106698D01*
X340882Y106306D01*
X340681Y105919D01*
X340470Y105536D01*
X340250Y105159D01*
X340021Y104788D01*
X339784Y104422D01*
X339537Y104062D01*
X339281Y103708D01*
X339017Y103361D01*
X338744Y103020D01*
X338463Y102687D01*
X338174Y102360D01*
X337877Y102040D01*
X337572Y101728D01*
X337260Y101423D01*
X336940Y101126D01*
X336613Y100837D01*
X336280Y100556D01*
X335939Y100283D01*
X335592Y100019D01*
X335238Y99763D01*
X334878Y99516D01*
X334512Y99279D01*
X334141Y99050D01*
X333764Y98830D01*
X333381Y98619D01*
X332994Y98418D01*
X332602Y98227D01*
X332205Y98045D01*
X331804Y97873D01*
X331399Y97711D01*
X330990Y97559D01*
X330577Y97417D01*
X330161Y97286D01*
X329742Y97164D01*
X329320Y97053D01*
X328896Y96952D01*
X328469Y96862D01*
X328040Y96782D01*
X327609Y96712D01*
X327176Y96654D01*
X326743Y96606D01*
X326308Y96568D01*
X325872Y96541D01*
X325436Y96525D01*
X325000Y96520D01*
X324564Y96525D01*
X324128Y96541D01*
X323692Y96568D01*
X323257Y96606D01*
X322824Y96654D01*
X322391Y96712D01*
X321960Y96782D01*
X321531Y96862D01*
X321104Y96952D01*
X320680Y97053D01*
X320258Y97164D01*
X319839Y97286D01*
X319423Y97417D01*
X319010Y97559D01*
X318601Y97711D01*
X318196Y97873D01*
X317795Y98045D01*
X317398Y98227D01*
X317006Y98418D01*
X316619Y98619D01*
X316236Y98830D01*
X315859Y99050D01*
X315488Y99279D01*
X315122Y99516D01*
X314762Y99763D01*
X314408Y100019D01*
X314061Y100283D01*
X313720Y100556D01*
X313387Y100837D01*
X313060Y101126D01*
X312740Y101423D01*
X312428Y101728D01*
X312123Y102040D01*
X311826Y102360D01*
X311537Y102687D01*
X311256Y103020D01*
X310983Y103361D01*
X310719Y103708D01*
X310463Y104062D01*
X310216Y104422D01*
X309979Y104788D01*
X309750Y105159D01*
X309530Y105536D01*
X309319Y105919D01*
X309118Y106306D01*
X308927Y106698D01*
X308745Y107095D01*
X308573Y107496D01*
X308411Y107901D01*
X308259Y108310D01*
X308117Y108723D01*
X307986Y109139D01*
X307864Y109558D01*
X307753Y109980D01*
X307652Y110404D01*
X307562Y110831D01*
X307482Y111260D01*
X307412Y111691D01*
X307354Y112124D01*
X307306Y112557D01*
X307268Y112992D01*
X307241Y113428D01*
X307225Y113864D01*
X307220Y114300D01*
X322460Y114300D02*
X322462Y114400D01*
X322468Y114501D01*
X322478Y114600D01*
X322492Y114700D01*
X322509Y114799D01*
X322531Y114897D01*
X322557Y114994D01*
X322586Y115090D01*
X322619Y115184D01*
X322656Y115278D01*
X322696Y115370D01*
X322740Y115460D01*
X322788Y115548D01*
X322839Y115635D01*
X322893Y115719D01*
X322951Y115801D01*
X323012Y115881D01*
X323076Y115958D01*
X323143Y116033D01*
X323213Y116105D01*
X323286Y116174D01*
X323361Y116240D01*
X323439Y116304D01*
X323519Y116364D01*
X323602Y116421D01*
X323687Y116474D01*
X323774Y116524D01*
X323863Y116571D01*
X323953Y116614D01*
X324045Y116654D01*
X324139Y116690D01*
X324234Y116722D01*
X324330Y116750D01*
X324428Y116775D01*
X324526Y116795D01*
X324625Y116812D01*
X324725Y116825D01*
X324824Y116834D01*
X324925Y116839D01*
X325025Y116840D01*
X325125Y116837D01*
X325226Y116830D01*
X325325Y116819D01*
X325425Y116804D01*
X325523Y116786D01*
X325621Y116763D01*
X325718Y116736D01*
X325813Y116706D01*
X325908Y116672D01*
X326001Y116634D01*
X326092Y116593D01*
X326182Y116548D01*
X326270Y116500D01*
X326356Y116448D01*
X326440Y116393D01*
X326521Y116334D01*
X326600Y116272D01*
X326677Y116208D01*
X326751Y116140D01*
X326822Y116069D01*
X326891Y115996D01*
X326956Y115920D01*
X327019Y115841D01*
X327078Y115760D01*
X327134Y115677D01*
X327187Y115592D01*
X327236Y115504D01*
X327282Y115415D01*
X327324Y115324D01*
X327363Y115231D01*
X327398Y115137D01*
X327429Y115042D01*
X327457Y114945D01*
X327480Y114848D01*
X327500Y114749D01*
X327516Y114650D01*
X327528Y114551D01*
X327536Y114450D01*
X327540Y114350D01*
X327540Y114250D01*
X327536Y114150D01*
X327528Y114049D01*
X327516Y113950D01*
X327500Y113851D01*
X327480Y113752D01*
X327457Y113655D01*
X327429Y113558D01*
X327398Y113463D01*
X327363Y113369D01*
X327324Y113276D01*
X327282Y113185D01*
X327236Y113096D01*
X327187Y113008D01*
X327134Y112923D01*
X327078Y112840D01*
X327019Y112759D01*
X326956Y112680D01*
X326891Y112604D01*
X326822Y112531D01*
X326751Y112460D01*
X326677Y112392D01*
X326600Y112328D01*
X326521Y112266D01*
X326440Y112207D01*
X326356Y112152D01*
X326270Y112100D01*
X326182Y112052D01*
X326092Y112007D01*
X326001Y111966D01*
X325908Y111928D01*
X325813Y111894D01*
X325718Y111864D01*
X325621Y111837D01*
X325523Y111814D01*
X325425Y111796D01*
X325325Y111781D01*
X325226Y111770D01*
X325125Y111763D01*
X325025Y111760D01*
X324925Y111761D01*
X324824Y111766D01*
X324725Y111775D01*
X324625Y111788D01*
X324526Y111805D01*
X324428Y111825D01*
X324330Y111850D01*
X324234Y111878D01*
X324139Y111910D01*
X324045Y111946D01*
X323953Y111986D01*
X323863Y112029D01*
X323774Y112076D01*
X323687Y112126D01*
X323602Y112179D01*
X323519Y112236D01*
X323439Y112296D01*
X323361Y112360D01*
X323286Y112426D01*
X323213Y112495D01*
X323143Y112567D01*
X323076Y112642D01*
X323012Y112719D01*
X322951Y112799D01*
X322893Y112881D01*
X322839Y112965D01*
X322788Y113052D01*
X322740Y113140D01*
X322696Y113230D01*
X322656Y113322D01*
X322619Y113416D01*
X322586Y113510D01*
X322557Y113606D01*
X322531Y113703D01*
X322509Y113801D01*
X322492Y113900D01*
X322478Y114000D01*
X322468Y114099D01*
X322462Y114200D01*
X322460Y114300D01*
D12*
X335908Y61397D02*
X335906Y61270D01*
X335900Y61143D01*
X335890Y61017D01*
X335877Y60891D01*
X335859Y60765D01*
X335838Y60640D01*
X335813Y60516D01*
X335784Y60392D01*
X335751Y60270D01*
X335714Y60148D01*
X335674Y60028D01*
X335630Y59909D01*
X335582Y59791D01*
X335531Y59675D01*
X335476Y59561D01*
X335418Y59448D01*
X335356Y59337D01*
X335291Y59228D01*
X335222Y59121D01*
X335151Y59017D01*
X335076Y58914D01*
X334998Y58814D01*
X334917Y58716D01*
X334833Y58621D01*
X334746Y58529D01*
X334656Y58439D01*
X334564Y58352D01*
X334469Y58268D01*
X334371Y58187D01*
X334271Y58109D01*
X334168Y58034D01*
X334064Y57963D01*
X333957Y57894D01*
X333848Y57829D01*
X333737Y57767D01*
X333624Y57709D01*
X333510Y57654D01*
X333394Y57603D01*
X333276Y57555D01*
X333157Y57511D01*
X333037Y57471D01*
X332915Y57434D01*
X332793Y57401D01*
X332669Y57372D01*
X332545Y57347D01*
X332420Y57326D01*
X332294Y57308D01*
X332168Y57295D01*
X332042Y57285D01*
X331915Y57279D01*
X331788Y57277D01*
X331580Y57279D01*
X331372Y57287D01*
X331164Y57299D01*
X330956Y57317D01*
X330749Y57339D01*
X330543Y57367D01*
X330337Y57399D01*
X330132Y57436D01*
X329928Y57478D01*
X329725Y57525D01*
X329523Y57577D01*
X329323Y57633D01*
X329124Y57695D01*
X328926Y57761D01*
X328730Y57832D01*
X328536Y57907D01*
X328344Y57987D01*
X328154Y58072D01*
X327966Y58161D01*
X327780Y58255D01*
X327596Y58353D01*
X327415Y58455D01*
X327236Y58562D01*
X327060Y58673D01*
X326886Y58788D01*
X326715Y58908D01*
X326548Y59031D01*
X326383Y59159D01*
X326221Y59290D01*
X326063Y59425D01*
X325907Y59564D01*
X325755Y59706D01*
X325607Y59852D01*
X326123Y71699D02*
X326125Y71826D01*
X326131Y71953D01*
X326141Y72079D01*
X326154Y72205D01*
X326172Y72331D01*
X326193Y72456D01*
X326218Y72580D01*
X326247Y72704D01*
X326280Y72826D01*
X326317Y72948D01*
X326357Y73068D01*
X326401Y73187D01*
X326449Y73305D01*
X326500Y73421D01*
X326555Y73535D01*
X326613Y73648D01*
X326675Y73759D01*
X326740Y73868D01*
X326809Y73975D01*
X326880Y74079D01*
X326955Y74182D01*
X327033Y74282D01*
X327114Y74380D01*
X327198Y74475D01*
X327285Y74567D01*
X327375Y74657D01*
X327467Y74744D01*
X327562Y74828D01*
X327660Y74909D01*
X327760Y74987D01*
X327863Y75062D01*
X327967Y75133D01*
X328074Y75202D01*
X328183Y75267D01*
X328294Y75329D01*
X328407Y75387D01*
X328521Y75442D01*
X328637Y75493D01*
X328755Y75541D01*
X328874Y75585D01*
X328994Y75625D01*
X329116Y75662D01*
X329238Y75695D01*
X329362Y75724D01*
X329486Y75749D01*
X329611Y75770D01*
X329737Y75788D01*
X329863Y75801D01*
X329989Y75811D01*
X330116Y75817D01*
X330243Y75819D01*
X330427Y75817D01*
X330611Y75810D01*
X330795Y75799D01*
X330978Y75784D01*
X331162Y75764D01*
X331344Y75740D01*
X331526Y75712D01*
X331707Y75679D01*
X331888Y75642D01*
X332067Y75601D01*
X332245Y75555D01*
X332423Y75505D01*
X332599Y75451D01*
X332773Y75393D01*
X332947Y75331D01*
X333118Y75264D01*
X333288Y75193D01*
X333457Y75119D01*
X333623Y75040D01*
X333788Y74958D01*
X333950Y74871D01*
X334111Y74781D01*
X334269Y74687D01*
X334425Y74589D01*
X334579Y74488D01*
X334730Y74383D01*
X334879Y74274D01*
X328182Y68093D02*
X328073Y68160D01*
X327966Y68230D01*
X327861Y68303D01*
X327759Y68379D01*
X327659Y68459D01*
X327561Y68541D01*
X327466Y68626D01*
X327373Y68714D01*
X327284Y68805D01*
X327197Y68899D01*
X327113Y68995D01*
X327031Y69094D01*
X326953Y69195D01*
X326879Y69299D01*
X326807Y69405D01*
X326739Y69513D01*
X326673Y69623D01*
X326612Y69735D01*
X326553Y69848D01*
X326499Y69964D01*
X326447Y70081D01*
X326400Y70199D01*
X326356Y70319D01*
X326316Y70441D01*
X326279Y70563D01*
X326246Y70687D01*
X326217Y70811D01*
X326192Y70936D01*
X326171Y71062D01*
X326153Y71189D01*
X326140Y71316D01*
X326130Y71444D01*
X326124Y71571D01*
X326122Y71699D01*
X333849Y65003D02*
X333958Y64936D01*
X334065Y64866D01*
X334170Y64793D01*
X334272Y64717D01*
X334372Y64637D01*
X334470Y64555D01*
X334565Y64470D01*
X334658Y64382D01*
X334747Y64291D01*
X334834Y64197D01*
X334918Y64101D01*
X335000Y64002D01*
X335078Y63901D01*
X335152Y63797D01*
X335224Y63691D01*
X335293Y63583D01*
X335358Y63473D01*
X335419Y63361D01*
X335478Y63248D01*
X335532Y63132D01*
X335584Y63015D01*
X335631Y62897D01*
X335675Y62777D01*
X335715Y62655D01*
X335752Y62533D01*
X335785Y62409D01*
X335814Y62285D01*
X335839Y62160D01*
X335860Y62034D01*
X335878Y61907D01*
X335891Y61780D01*
X335901Y61652D01*
X335907Y61525D01*
X335909Y61397D01*
X333848Y65003D02*
X328183Y68093D01*
X349194Y75820D02*
X349329Y75818D01*
X349464Y75812D01*
X349598Y75802D01*
X349732Y75789D01*
X349866Y75771D01*
X349999Y75750D01*
X350131Y75724D01*
X350263Y75695D01*
X350394Y75662D01*
X350524Y75625D01*
X350652Y75585D01*
X350780Y75540D01*
X350906Y75492D01*
X351030Y75441D01*
X351153Y75386D01*
X351275Y75327D01*
X351394Y75265D01*
X351512Y75199D01*
X351628Y75130D01*
X351742Y75057D01*
X351853Y74982D01*
X351962Y74903D01*
X352069Y74821D01*
X352174Y74735D01*
X352276Y74647D01*
X352375Y74556D01*
X352472Y74462D01*
X352566Y74365D01*
X352657Y74266D01*
X352745Y74164D01*
X352831Y74059D01*
X352913Y73952D01*
X352992Y73843D01*
X353067Y73732D01*
X353140Y73618D01*
X353209Y73502D01*
X353275Y73384D01*
X353337Y73265D01*
X353396Y73143D01*
X353451Y73020D01*
X353502Y72896D01*
X353550Y72770D01*
X353595Y72642D01*
X353635Y72514D01*
X353672Y72384D01*
X353705Y72253D01*
X353734Y72121D01*
X353760Y71989D01*
X353781Y71856D01*
X353799Y71722D01*
X353812Y71588D01*
X353822Y71454D01*
X353828Y71319D01*
X353830Y71184D01*
X349194Y75819D02*
X349041Y75817D01*
X348888Y75811D01*
X348736Y75801D01*
X348584Y75788D01*
X348432Y75770D01*
X348281Y75749D01*
X348130Y75723D01*
X347980Y75694D01*
X347831Y75661D01*
X347682Y75624D01*
X347535Y75583D01*
X347389Y75539D01*
X347244Y75491D01*
X347100Y75439D01*
X346958Y75383D01*
X346817Y75324D01*
X346677Y75261D01*
X346540Y75195D01*
X346404Y75125D01*
X346270Y75052D01*
X346138Y74975D01*
X346007Y74895D01*
X345879Y74811D01*
X345754Y74725D01*
X345630Y74635D01*
X345509Y74542D01*
X345390Y74446D01*
X345274Y74346D01*
X345160Y74244D01*
X345049Y74139D01*
X344940Y74032D01*
X344835Y73921D01*
X344732Y73808D01*
X344632Y73692D01*
X344536Y73574D01*
X344442Y73453D01*
X344351Y73330D01*
X344264Y73204D01*
X344180Y73077D01*
X344099Y72947D01*
X344022Y72815D01*
X343948Y72682D01*
X343877Y72546D01*
X343810Y72409D01*
X343747Y72270D01*
X343687Y72129D01*
X343630Y71987D01*
X343578Y71844D01*
X343529Y71699D01*
X352284Y67579D02*
X352383Y67676D01*
X352480Y67776D01*
X352573Y67879D01*
X352664Y67984D01*
X352752Y68092D01*
X352837Y68202D01*
X352919Y68314D01*
X352997Y68429D01*
X353073Y68546D01*
X353145Y68665D01*
X353213Y68786D01*
X353278Y68908D01*
X353340Y69033D01*
X353399Y69159D01*
X353453Y69287D01*
X353505Y69416D01*
X353552Y69547D01*
X353596Y69679D01*
X353636Y69812D01*
X353673Y69946D01*
X353705Y70081D01*
X353734Y70217D01*
X353759Y70354D01*
X353781Y70491D01*
X353798Y70629D01*
X353812Y70767D01*
X353821Y70906D01*
X353827Y71045D01*
X353829Y71184D01*
X352284Y67578D02*
X343528Y57277D01*
X353829Y57277D01*
D24*
X57378Y168700D02*
X70219Y147335D01*
X85801Y125767D01*
X103204Y105639D01*
X122295Y87105D01*
X142929Y70306D01*
X164948Y55368D01*
X188186Y42407D01*
X212464Y31520D01*
X237599Y22791D01*
X263400Y16285D01*
X289669Y12053D01*
X316207Y10126D01*
X342812Y10520D01*
X369281Y13231D01*
X395414Y18239D01*
X421010Y25505D01*
X445876Y34975D01*
X469822Y46575D01*
X492665Y60219D01*
X514233Y75801D01*
X534360Y93204D01*
X552895Y112295D01*
X569694Y132929D01*
X584632Y154948D01*
X597593Y178186D01*
X608480Y202464D01*
X617209Y227600D01*
X623715Y253400D01*
X627947Y279669D01*
X629873Y306207D01*
X629480Y332812D01*
X626769Y359281D01*
X621761Y385414D01*
X614495Y411010D01*
X605025Y435876D01*
X593425Y459822D01*
X579781Y482666D01*
X564199Y504233D01*
X546796Y524361D01*
X527705Y542895D01*
X507071Y559694D01*
X485052Y574632D01*
X461814Y587593D01*
X437535Y598480D01*
X412400Y607210D01*
X386600Y613715D01*
X386600Y168700D01*
X57378Y168700D01*
X147500Y129427D02*
X147425Y128284D01*
X147276Y127148D01*
X147052Y126024D01*
X146755Y124917D01*
X146387Y123832D01*
X145949Y122774D01*
X145442Y121746D01*
X144869Y120754D01*
X144232Y119801D01*
X143535Y118892D01*
X142779Y118031D01*
X141969Y117221D01*
X141108Y116465D01*
X140199Y115768D01*
X139246Y115131D01*
X138254Y114558D01*
X137226Y114051D01*
X136168Y113613D01*
X135083Y113245D01*
X133976Y112948D01*
X132852Y112725D01*
X131716Y112575D01*
X130573Y112500D01*
X129427Y112500D01*
X128284Y112575D01*
X127148Y112725D01*
X126024Y112948D01*
X124917Y113245D01*
X123832Y113613D01*
X122774Y114051D01*
X121746Y114558D01*
X120754Y115131D01*
X119801Y115768D01*
X118892Y116465D01*
X118031Y117221D01*
X117221Y118031D01*
X116465Y118892D01*
X115768Y119801D01*
X115131Y120754D01*
X114558Y121746D01*
X114051Y122774D01*
X113613Y123832D01*
X113245Y124917D01*
X112948Y126024D01*
X112725Y127148D01*
X112575Y128284D01*
X112500Y129427D01*
X112500Y130573D01*
X112575Y131716D01*
X112725Y132852D01*
X112948Y133976D01*
X113245Y135083D01*
X113613Y136168D01*
X114051Y137226D01*
X114558Y138254D01*
X115131Y139246D01*
X115768Y140199D01*
X116465Y141108D01*
X117221Y141969D01*
X118031Y142779D01*
X118892Y143535D01*
X119801Y144232D01*
X120754Y144869D01*
X121746Y145442D01*
X122774Y145949D01*
X123832Y146387D01*
X124917Y146755D01*
X126024Y147052D01*
X127148Y147276D01*
X128284Y147425D01*
X129427Y147500D01*
X130573Y147500D01*
X131716Y147425D01*
X132852Y147276D01*
X133976Y147052D01*
X135083Y146755D01*
X136168Y146387D01*
X137226Y145949D01*
X138254Y145442D01*
X139246Y144869D01*
X140199Y144232D01*
X141108Y143535D01*
X141969Y142779D01*
X142779Y141969D01*
X143535Y141108D01*
X144232Y140199D01*
X144869Y139246D01*
X145442Y138254D01*
X145949Y137226D01*
X146387Y136168D01*
X146755Y135083D01*
X147052Y133976D01*
X147276Y132852D01*
X147425Y131716D01*
X147500Y130573D01*
X147500Y129427D01*
X537500Y129427D02*
X537425Y128284D01*
X537276Y127148D01*
X537052Y126024D01*
X536755Y124917D01*
X536387Y123832D01*
X535949Y122774D01*
X535442Y121746D01*
X534869Y120754D01*
X534232Y119801D01*
X533535Y118892D01*
X532779Y118031D01*
X531969Y117221D01*
X531108Y116465D01*
X530199Y115768D01*
X529246Y115131D01*
X528254Y114558D01*
X527226Y114051D01*
X526168Y113613D01*
X525083Y113245D01*
X523976Y112948D01*
X522852Y112725D01*
X521716Y112575D01*
X520573Y112500D01*
X519427Y112500D01*
X518284Y112575D01*
X517148Y112725D01*
X516024Y112948D01*
X514917Y113245D01*
X513832Y113613D01*
X512774Y114051D01*
X511746Y114558D01*
X510754Y115131D01*
X509801Y115768D01*
X508892Y116465D01*
X508031Y117221D01*
X507221Y118031D01*
X506465Y118892D01*
X505768Y119801D01*
X505131Y120754D01*
X504558Y121746D01*
X504051Y122774D01*
X503613Y123832D01*
X503245Y124917D01*
X502948Y126024D01*
X502725Y127148D01*
X502575Y128284D01*
X502500Y129427D01*
X502500Y130573D01*
X502575Y131716D01*
X502725Y132852D01*
X502948Y133976D01*
X503245Y135083D01*
X503613Y136168D01*
X504051Y137226D01*
X504558Y138254D01*
X505131Y139246D01*
X505768Y140199D01*
X506465Y141108D01*
X507221Y141969D01*
X508031Y142779D01*
X508892Y143535D01*
X509801Y144232D01*
X510754Y144869D01*
X511746Y145442D01*
X512774Y145949D01*
X513832Y146387D01*
X514917Y146755D01*
X516024Y147052D01*
X517148Y147276D01*
X518284Y147425D01*
X519427Y147500D01*
X520573Y147500D01*
X521716Y147425D01*
X522852Y147276D01*
X523976Y147052D01*
X525083Y146755D01*
X526168Y146387D01*
X527226Y145949D01*
X528254Y145442D01*
X529246Y144869D01*
X530199Y144232D01*
X531108Y143535D01*
X531969Y142779D01*
X532779Y141969D01*
X533535Y141108D01*
X534232Y140199D01*
X534869Y139246D01*
X535442Y138254D01*
X535949Y137226D01*
X536387Y136168D01*
X536755Y135083D01*
X537052Y133976D01*
X537276Y132852D01*
X537425Y131716D01*
X537500Y130573D01*
X537500Y129427D01*
X447500Y559427D02*
X447425Y558284D01*
X447276Y557148D01*
X447052Y556024D01*
X446755Y554917D01*
X446387Y553832D01*
X445949Y552774D01*
X445442Y551746D01*
X444869Y550754D01*
X444232Y549801D01*
X443535Y548892D01*
X442779Y548031D01*
X441969Y547221D01*
X441108Y546465D01*
X440199Y545768D01*
X439246Y545131D01*
X438254Y544558D01*
X437226Y544051D01*
X436168Y543613D01*
X435083Y543245D01*
X433976Y542948D01*
X432852Y542725D01*
X431716Y542575D01*
X430573Y542500D01*
X429427Y542500D01*
X428284Y542575D01*
X427148Y542725D01*
X426024Y542948D01*
X424917Y543245D01*
X423832Y543613D01*
X422774Y544051D01*
X421746Y544558D01*
X420754Y545131D01*
X419801Y545768D01*
X418892Y546465D01*
X418031Y547221D01*
X417221Y548031D01*
X416465Y548892D01*
X415768Y549801D01*
X415131Y550754D01*
X414558Y551746D01*
X414051Y552774D01*
X413613Y553832D01*
X413245Y554917D01*
X412948Y556024D01*
X412725Y557148D01*
X412575Y558284D01*
X412500Y559427D01*
X412500Y560573D01*
X412575Y561716D01*
X412725Y562852D01*
X412948Y563976D01*
X413245Y565083D01*
X413613Y566168D01*
X414051Y567226D01*
X414558Y568254D01*
X415131Y569246D01*
X415768Y570199D01*
X416465Y571108D01*
X417221Y571969D01*
X418031Y572779D01*
X418892Y573535D01*
X419801Y574232D01*
X420754Y574869D01*
X421746Y575442D01*
X422774Y575949D01*
X423832Y576387D01*
X424917Y576755D01*
X426024Y577052D01*
X427148Y577276D01*
X428284Y577425D01*
X429427Y577500D01*
X430573Y577500D01*
X431716Y577425D01*
X432852Y577276D01*
X433976Y577052D01*
X435083Y576755D01*
X436168Y576387D01*
X437226Y575949D01*
X438254Y575442D01*
X439246Y574869D01*
X440199Y574232D01*
X441108Y573535D01*
X441969Y572779D01*
X442779Y571969D01*
X443535Y571108D01*
X444232Y570199D01*
X444869Y569246D01*
X445442Y568254D01*
X445949Y567226D01*
X446387Y566168D01*
X446755Y565083D01*
X447052Y563976D01*
X447276Y562852D01*
X447425Y561716D01*
X447500Y560573D01*
X447500Y559427D01*
M02*
