G04 EAGLE Gerber RS-274X export*
G75*
%MOMM*%
%FSLAX34Y34*%
%LPD*%
%INSoldermask Top*%
%IPPOS*%
%AMOC8*
5,1,8,0,0,1.08239X$1,22.5*%
G01*
%ADD10C,3.703200*%
%ADD11C,1.727200*%
%ADD12C,1.524000*%
%ADD13C,2.203200*%


D10*
X130000Y130000D03*
X520000Y130000D03*
X430000Y560000D03*
D11*
X250132Y114300D02*
X234892Y114300D01*
X185108Y114300D02*
X169868Y114300D01*
D12*
X482600Y260096D02*
X482600Y273304D01*
X508000Y273304D02*
X508000Y260096D01*
X533400Y260096D02*
X533400Y273304D01*
X558800Y273304D02*
X558800Y260096D01*
X584200Y260096D02*
X584200Y273304D01*
X584200Y412496D02*
X584200Y425704D01*
X558800Y425704D02*
X558800Y412496D01*
X533400Y412496D02*
X533400Y425704D01*
X508000Y425704D02*
X508000Y412496D01*
X482600Y412496D02*
X482600Y425704D01*
D11*
X365132Y114300D02*
X349892Y114300D01*
X300108Y114300D02*
X284868Y114300D01*
D12*
X412496Y266700D02*
X425704Y266700D01*
X425704Y241300D02*
X412496Y241300D01*
X412496Y215900D02*
X425704Y215900D01*
X425704Y190500D02*
X412496Y190500D01*
X412496Y165100D02*
X425704Y165100D01*
X425704Y139700D02*
X412496Y139700D01*
X412496Y114300D02*
X425704Y114300D01*
X425704Y88900D02*
X412496Y88900D01*
X412496Y63500D02*
X425704Y63500D01*
D13*
X484280Y546910D03*
X278540Y42720D03*
X528730Y442770D03*
X537620Y238300D03*
X418410Y435960D03*
X437460Y415880D03*
X436880Y190500D03*
X436880Y215900D03*
X399440Y266580D03*
X521430Y480080D03*
X544530Y329760D03*
X526900Y187460D03*
X610160Y362380D03*
X482780Y179600D03*
X543020Y381190D03*
X443570Y478810D03*
X528020Y307220D03*
X436880Y139700D03*
X401320Y114300D03*
M02*
