<svg version="1.1" xmlns="http://www.w3.org/2000/svg" xmlns:xlink="http://www.w3.org/1999/xlink" stroke-linecap="round" stroke-linejoin="round" stroke-width="0" fill-rule="evenodd" width="57.5035mm" height="60.6129mm" viewBox="5610.8 885.6 57503.5 60612.9" id="eM4AjLqGLlONLwqWXu0A"><defs><mask id="eM4AjLqGLlONLwqWXu0A_clear-1" fill="#000" stroke="#000"><g><rect x="6236.5" y="1256.5" width="55922.8" height="59774.2" fill="#fff"/><path d="M 42601.4 53995.9 42601.4 53995.9 41864.8 54301 41301 54864.8 40995.9 55601.4 40995.9 56398.6 41301 57135.2 41864.8 57699 42601.4 58004.1 43398.6 58004.1 44135.2 57699 44699 57135.2 45004.1 56398.6 45004.1 55601.4 44699 54864.8 44135.2 54301 43398.6 53995.9 42601.4 53995.9"/></g></mask><mask id="eM4AjLqGLlONLwqWXu0A_clear-2" fill="#000" stroke="#000"><g><rect x="6236.5" y="1256.5" width="55922.8" height="59774.2" fill="#fff"/><path d="M 51601.4 10995.9 51601.4 10995.9 50864.8 11301 50301 11864.8 49995.9 12601.4 49995.9 13398.6 50301 14135.2 50864.8 14699 51601.4 15004.1 52398.6 15004.1 53135.2 14699 53699 14135.2 54004.1 13398.6 54004.1 12601.4 53699 11864.8 53135.2 11301 52398.6 10995.9 51601.4 10995.9"/></g></mask><mask id="eM4AjLqGLlONLwqWXu0A_clear-3" fill="#000" stroke="#000"><g><rect x="6236.5" y="1256.5" width="55922.8" height="59774.2" fill="#fff"/><path d="M 12601.4 10995.9 12601.4 10995.9 11864.8 11301 11301 11864.8 10995.9 12601.4 10995.9 13398.6 11301 14135.2 11864.8 14699 12601.4 15004.1 13398.6 15004.1 14135.2 14699 14699 14135.2 15004.1 13398.6 15004.1 12601.4 14699 11864.8 14135.2 11301 13398.6 10995.9 12601.4 10995.9"/></g></mask><mask id="eM4AjLqGLlONLwqWXu0A_clear-4" fill="#000" stroke="#000"><g><rect x="6236.5" y="1256.5" width="55922.8" height="59774.2" fill="#fff"/><path d="M 34736.6 10159.9 34736.6 10159.9 34269.8 10353.3 33912.5 10710.6 33719.1 11177.4 33719.1 11682.6 33912.5 12149.4 34269.8 12506.7 34736.6 12700.1 36765.8 12700.1 37232.6 12506.7 37589.9 12149.4 37783.3 11682.6 37783.3 11177.4 37589.9 10710.6 37232.6 10353.3 36765.8 10159.9 34736.6 10159.9"/></g></mask><mask id="eM4AjLqGLlONLwqWXu0A_clear-5" fill="#000" stroke="#000"><g><rect x="6236.5" y="1256.5" width="55922.8" height="59774.2" fill="#fff"/><path d="M 55647.6 40081.1 55647.6 40081.1 55218.1 40259 54889.4 40587.7 54711.5 41017.2 54711.5 42802.8 54889.4 43232.3 55218.1 43561 55647.6 43738.9 56112.4 43738.9 56541.9 43561 56870.6 43232.3 57048.5 42802.8 57048.5 41017.2 56870.6 40587.7 56541.9 40259 56112.4 40081.1 55647.6 40081.1"/></g></mask><mask id="eM4AjLqGLlONLwqWXu0A_clear-6" fill="#000" stroke="#000"><g><rect x="6236.5" y="1256.5" width="55922.8" height="59774.2" fill="#fff"/><path d="M 58187.6 40081.1 58187.6 40081.1 57758.1 40259 57429.4 40587.7 57251.5 41017.2 57251.5 42802.8 57429.4 43232.3 57758.1 43561 58187.6 43738.9 58652.4 43738.9 59081.9 43561 59410.6 43232.3 59588.5 42802.8 59588.5 41017.2 59410.6 40587.7 59081.9 40259 58652.4 40081.1 58187.6 40081.1"/></g></mask><mask id="eM4AjLqGLlONLwqWXu0A_clear-7" fill="#000" stroke="#000"><g><rect x="6236.5" y="1256.5" width="55922.8" height="59774.2" fill="#fff"/><path d="M 50567.6 40081.1 50567.6 40081.1 50138.1 40259 49809.4 40587.7 49631.5 41017.2 49631.5 42802.8 49809.4 43232.3 50138.1 43561 50567.6 43738.9 51032.4 43738.9 51461.9 43561 51790.6 43232.3 51968.5 42802.8 51968.5 41017.2 51790.6 40587.7 51461.9 40259 51032.4 40081.1 50567.6 40081.1"/></g></mask><mask id="eM4AjLqGLlONLwqWXu0A_clear-8" fill="#000" stroke="#000"><g><rect x="6236.5" y="1256.5" width="55922.8" height="59774.2" fill="#fff"/><path d="M 58187.6 24841.1 58187.6 24841.1 57758.1 25019 57429.4 25347.7 57251.5 25777.2 57251.5 27562.8 57429.4 27992.3 57758.1 28321 58187.6 28498.9 58652.4 28498.9 59081.9 28321 59410.6 27992.3 59588.5 27562.8 59588.5 25777.2 59410.6 25347.7 59081.9 25019 58652.4 24841.1 58187.6 24841.1"/></g></mask><mask id="eM4AjLqGLlONLwqWXu0A_clear-9" fill="#000" stroke="#000"><g><rect x="6236.5" y="1256.5" width="55922.8" height="59774.2" fill="#fff"/><path d="M 55647.6 24841.1 55647.6 24841.1 55218.1 25019 54889.4 25347.7 54711.5 25777.2 54711.5 27562.8 54889.4 27992.3 55218.1 28321 55647.6 28498.9 56112.4 28498.9 56541.9 28321 56870.6 27992.3 57048.5 27562.8 57048.5 25777.2 56870.6 25347.7 56541.9 25019 56112.4 24841.1 55647.6 24841.1"/></g></mask><mask id="eM4AjLqGLlONLwqWXu0A_clear-10" fill="#000" stroke="#000"><g><rect x="6236.5" y="1256.5" width="55922.8" height="59774.2" fill="#fff"/><path d="M 17901.1 11582.3 17901.1 11582.3 17901.1 12446.1 18590.8 12446.1 18748.7 12421.1 18900.8 12371.6 19043.3 12299 19172.7 12205 19285.8 12091.9 19379.8 11962.5 19452.4 11820 19501.9 11667.9 19515.4 11582.3 17901.1 11582.3"/></g></mask><mask id="eM4AjLqGLlONLwqWXu0A_clear-11" fill="#000" stroke="#000"><g><rect x="6236.5" y="1256.5" width="55922.8" height="59774.2" fill="#fff"/><path d="M 29401.1 11582.3 29401.1 11582.3 29401.1 12446.1 30090.8 12446.1 30248.7 12421.1 30400.8 12371.6 30543.3 12299 30672.7 12205 30785.8 12091.9 30879.8 11962.5 30952.4 11820 31001.9 11667.9 31015.4 11582.3 29401.1 11582.3"/></g></mask><mask id="eM4AjLqGLlONLwqWXu0A_clear-12" fill="#000" stroke="#000"><g><rect x="6236.5" y="1256.5" width="55922.8" height="59774.2" fill="#fff"/><path d="M 27482.2 11582.3 27482.2 11582.3 27495.7 11667.9 27545.2 11820 27617.8 11962.5 27711.8 12091.9 27824.9 12205 27954.3 12299 28096.8 12371.6 28248.9 12421.1 28406.8 12446.1 29096.5 12446.1 29096.5 11582.3 27482.2 11582.3"/></g></mask><mask id="eM4AjLqGLlONLwqWXu0A_clear-13" fill="#000" stroke="#000"><g><rect x="6236.5" y="1256.5" width="55922.8" height="59774.2" fill="#fff"/><path d="M 15982.2 11582.3 15982.2 11582.3 15995.7 11667.9 16045.2 11820 16117.8 11962.5 16211.8 12091.9 16324.9 12205 16454.3 12299 16596.8 12371.6 16748.9 12421.1 16906.8 12446.1 17596.5 12446.1 17596.5 11582.3 15982.2 11582.3"/></g></mask><mask id="eM4AjLqGLlONLwqWXu0A_clear-14" fill="#000" stroke="#000"><g><rect x="6236.5" y="1256.5" width="55922.8" height="59774.2" fill="#fff"/><path d="M 29401.1 10413.9 29401.1 10413.9 29401.1 11277.7 31015.4 11277.7 31001.9 11192.1 30952.4 11040 30879.8 10897.5 30785.8 10768.1 30672.7 10655 30543.3 10561 30400.8 10488.4 30248.7 10438.9 30090.8 10413.9 29401.1 10413.9"/></g></mask><mask id="eM4AjLqGLlONLwqWXu0A_clear-15" fill="#000" stroke="#000"><g><rect x="6236.5" y="1256.5" width="55922.8" height="59774.2" fill="#fff"/><path d="M 17901.1 10413.9 17901.1 10413.9 17901.1 11277.7 19515.4 11277.7 19501.9 11192.1 19452.4 11040 19379.8 10897.5 19285.8 10768.1 19172.7 10655 19043.3 10561 18900.8 10488.4 18748.7 10438.9 18590.8 10413.9 17901.1 10413.9"/></g></mask><mask id="eM4AjLqGLlONLwqWXu0A_clear-16" fill="#000" stroke="#000"><g><rect x="6236.5" y="1256.5" width="55922.8" height="59774.2" fill="#fff"/><path d="M 28406.8 10413.9 28406.8 10413.9 28248.9 10438.9 28096.8 10488.4 27954.3 10561 27824.9 10655 27711.8 10768.1 27617.8 10897.5 27545.2 11040 27495.7 11192.1 27482.2 11277.7 29096.5 11277.7 29096.5 10413.9 28406.8 10413.9"/></g></mask><mask id="eM4AjLqGLlONLwqWXu0A_clear-17" fill="#000" stroke="#000"><g><rect x="6236.5" y="1256.5" width="55922.8" height="59774.2" fill="#fff"/><path d="M 16906.8 10413.9 16906.8 10413.9 16748.9 10438.9 16596.8 10488.4 16454.3 10561 16324.9 10655 16211.8 10768.1 16117.8 10897.5 16045.2 11040 15995.7 11192.1 15982.2 11277.7 17596.5 11277.7 17596.5 10413.9 16906.8 10413.9"/></g></mask><mask id="eM4AjLqGLlONLwqWXu0A_clear-18" fill="#000" stroke="#000"><g><rect x="6236.5" y="1256.5" width="55922.8" height="59774.2" fill="#fff"/><path d="M 53492.3 42062.3 53492.3 42062.3 53492.3 43472.5 53606.7 43449.7 53773.2 43380.8 53923 43280.7 54050.3 43153.4 54150.4 43003.6 54219.3 42837.1 54254.5 42660.5 54254.5 42062.3 53492.3 42062.3"/></g></mask><mask id="eM4AjLqGLlONLwqWXu0A_clear-19" fill="#000" stroke="#000"><g><rect x="6236.5" y="1256.5" width="55922.8" height="59774.2" fill="#fff"/><path d="M 42062.3 6502.3 42062.3 6502.3 42062.3 7264.5 42660.5 7264.5 42837.1 7229.3 43003.6 7160.4 43153.4 7060.3 43280.7 6933 43380.8 6783.2 43449.7 6616.7 43472.5 6502.3 42062.3 6502.3"/></g></mask><mask id="eM4AjLqGLlONLwqWXu0A_clear-20" fill="#000" stroke="#000"><g><rect x="6236.5" y="1256.5" width="55922.8" height="59774.2" fill="#fff"/><path d="M 53492.3 41757.7 53492.3 41757.7 54254.5 41757.7 54254.5 41159.5 54219.3 40982.9 54150.4 40816.4 54050.3 40666.6 53923 40539.3 53773.2 40439.2 53606.7 40370.3 53492.3 40347.5 53492.3 41757.7"/></g></mask><mask id="eM4AjLqGLlONLwqWXu0A_clear-21" fill="#000" stroke="#000"><g><rect x="6236.5" y="1256.5" width="55922.8" height="59774.2" fill="#fff"/><path d="M 53492.3 26517.7 53492.3 26517.7 54254.5 26517.7 54254.5 25919.5 54219.3 25742.9 54150.4 25576.4 54050.3 25426.6 53923 25299.3 53773.2 25199.2 53606.7 25130.3 53492.3 25107.5 53492.3 26517.7"/></g></mask><mask id="eM4AjLqGLlONLwqWXu0A_clear-22" fill="#000" stroke="#000"><g><rect x="6236.5" y="1256.5" width="55922.8" height="59774.2" fill="#fff"/><path d="M 40347.5 6502.3 40347.5 6502.3 40370.3 6616.7 40439.2 6783.2 40539.3 6933 40666.6 7060.3 40816.4 7160.4 40982.9 7229.3 41159.5 7264.5 41757.7 7264.5 41757.7 6502.3 40347.5 6502.3"/></g></mask><mask id="eM4AjLqGLlONLwqWXu0A_clear-23" fill="#000" stroke="#000"><g><rect x="6236.5" y="1256.5" width="55922.8" height="59774.2" fill="#fff"/><path d="M 52425.5 42062.3 52425.5 42062.3 52425.5 42660.5 52460.7 42837.1 52529.6 43003.6 52629.7 43153.4 52757 43280.7 52906.8 43380.8 53073.3 43449.7 53187.7 43472.5 53187.7 42062.3 52425.5 42062.3"/></g></mask><mask id="eM4AjLqGLlONLwqWXu0A_clear-24" fill="#000" stroke="#000"><g><rect x="6236.5" y="1256.5" width="55922.8" height="59774.2" fill="#fff"/><path d="M 42062.3 5435.5 42062.3 5435.5 42062.3 6197.7 43472.5 6197.7 43449.7 6083.3 43380.8 5916.8 43280.7 5767 43153.4 5639.7 43003.6 5539.6 42837.1 5470.7 42660.5 5435.5 42062.3 5435.5"/></g></mask><mask id="eM4AjLqGLlONLwqWXu0A_clear-25" fill="#000" stroke="#000"><g><rect x="6236.5" y="1256.5" width="55922.8" height="59774.2" fill="#fff"/><path d="M 53073.3 40370.3 53073.3 40370.3 52906.8 40439.2 52757 40539.3 52629.7 40666.6 52529.6 40816.4 52460.7 40982.9 52425.5 41159.5 52425.5 41757.7 53187.7 41757.7 53187.7 40347.5 53073.3 40370.3"/></g></mask><mask id="eM4AjLqGLlONLwqWXu0A_clear-26" fill="#000" stroke="#000"><g><rect x="6236.5" y="1256.5" width="55922.8" height="59774.2" fill="#fff"/><path d="M 53073.3 25130.3 53073.3 25130.3 52906.8 25199.2 52757 25299.3 52629.7 25426.6 52529.6 25576.4 52460.7 25742.9 52425.5 25919.5 52425.5 26517.7 53187.7 26517.7 53187.7 25107.5 53073.3 25130.3"/></g></mask><mask id="eM4AjLqGLlONLwqWXu0A_clear-27" fill="#000" stroke="#000"><g><rect x="6236.5" y="1256.5" width="55922.8" height="59774.2" fill="#fff"/><path d="M 41159.5 5435.5 41159.5 5435.5 40982.9 5470.7 40816.4 5539.6 40666.6 5639.7 40539.3 5767 40439.2 5916.8 40370.3 6083.3 40347.5 6197.7 41757.7 6197.7 41757.7 5435.5 41159.5 5435.5"/></g></mask><mask id="eM4AjLqGLlONLwqWXu0A_clear-28" fill="#000" stroke="#000"><g><rect x="6236.5" y="1256.5" width="55922.8" height="59774.2" fill="#fff"/><path d="M 53339.9 41909.9 53339.9 41909.9 53339.9 41910.1 53340.1 41910.1 53340.1 41909.9 53339.9 41909.9"/></g></mask><mask id="eM4AjLqGLlONLwqWXu0A_clear-29" fill="#000" stroke="#000"><g><rect x="6236.5" y="1256.5" width="55922.8" height="59774.2" fill="#fff"/><path d="M 29248.7 11429.9 29248.7 11429.9 29248.7 11430.1 29248.9 11430.1 29248.9 11429.9 29248.7 11429.9"/></g></mask><mask id="eM4AjLqGLlONLwqWXu0A_clear-30" fill="#000" stroke="#000"><g><rect x="6236.5" y="1256.5" width="55922.8" height="59774.2" fill="#fff"/><path d="M 17748.7 11429.9 17748.7 11429.9 17748.7 11430.1 17748.9 11430.1 17748.9 11429.9 17748.7 11429.9"/></g></mask><mask id="eM4AjLqGLlONLwqWXu0A_clear-31" fill="#000" stroke="#000"><g><rect x="6236.5" y="1256.5" width="55922.8" height="59774.2" fill="#fff"/><path d="M 41909.9 6349.9 41909.9 6349.9 41909.9 6350.1 41910.1 6350.1 41910.1 6349.9 41909.9 6349.9"/></g></mask><circle cx="0" cy="0" r="1000" id="eM4AjLqGLlONLwqWXu0A_pad-12"/></defs><g transform="translate(0,62384.1) scale(1,-1)" fill="currentColor" stroke="currentColor"><g mask="url(#eM4AjLqGLlONLwqWXu0A_clear-31)"><g mask="url(#eM4AjLqGLlONLwqWXu0A_clear-30)"><g mask="url(#eM4AjLqGLlONLwqWXu0A_clear-29)"><g mask="url(#eM4AjLqGLlONLwqWXu0A_clear-28)"><g mask="url(#eM4AjLqGLlONLwqWXu0A_clear-27)"><g mask="url(#eM4AjLqGLlONLwqWXu0A_clear-26)"><g mask="url(#eM4AjLqGLlONLwqWXu0A_clear-25)"><g mask="url(#eM4AjLqGLlONLwqWXu0A_clear-24)"><g mask="url(#eM4AjLqGLlONLwqWXu0A_clear-23)"><g mask="url(#eM4AjLqGLlONLwqWXu0A_clear-22)"><g mask="url(#eM4AjLqGLlONLwqWXu0A_clear-21)"><g mask="url(#eM4AjLqGLlONLwqWXu0A_clear-20)"><g mask="url(#eM4AjLqGLlONLwqWXu0A_clear-19)"><g mask="url(#eM4AjLqGLlONLwqWXu0A_clear-18)"><g mask="url(#eM4AjLqGLlONLwqWXu0A_clear-17)"><g mask="url(#eM4AjLqGLlONLwqWXu0A_clear-16)"><g mask="url(#eM4AjLqGLlONLwqWXu0A_clear-15)"><g mask="url(#eM4AjLqGLlONLwqWXu0A_clear-14)"><g mask="url(#eM4AjLqGLlONLwqWXu0A_clear-13)"><g mask="url(#eM4AjLqGLlONLwqWXu0A_clear-12)"><g mask="url(#eM4AjLqGLlONLwqWXu0A_clear-11)"><g mask="url(#eM4AjLqGLlONLwqWXu0A_clear-10)"><g mask="url(#eM4AjLqGLlONLwqWXu0A_clear-9)"><g mask="url(#eM4AjLqGLlONLwqWXu0A_clear-8)"><g mask="url(#eM4AjLqGLlONLwqWXu0A_clear-7)"><g mask="url(#eM4AjLqGLlONLwqWXu0A_clear-6)"><g mask="url(#eM4AjLqGLlONLwqWXu0A_clear-5)"><g mask="url(#eM4AjLqGLlONLwqWXu0A_clear-4)"><g mask="url(#eM4AjLqGLlONLwqWXu0A_clear-3)"><g mask="url(#eM4AjLqGLlONLwqWXu0A_clear-2)"><g mask="url(#eM4AjLqGLlONLwqWXu0A_clear-1)"><path d="M 35476.2 1401 35476.2 1401 35479 1401.5 35484.6 1401.8 38802.5 1918.1 38805.3 1919 38810.8 1919.9 42050.7 2801.7 42053.3 2802.9 42058.8 2804.4 45180.7 4040.7 45183.1 4042.2 45188.3 4044.3 48153.5 5619.9 48155.8 5621.7 48160.7 5624.3 50932.4 7519.7 50934.5 7521.7 50939.2 7524.9 53483.1 9716.5 53484.9 9718.7 53489.2 9722.4 55773.8 12183.1 55775.4 12185.5 55779.2 12189.7 57776.2 14889.1 57777.5 14891.6 57780.9 14896.1 59465.5 17800.7 59466.6 17803.4 59469.4 17808.3 60820.8 20882.1 60821.6 20884.9 60823.8 20890 61825.3 24095 61825.7 24097.8 61827.4 24103.2 61965.1 24813.4 61965.3 24818.2 61966.3 24822.7 61965.6 24830.4 61965.9 24838 61964.5 24842.5 61964 24847.2 61960.9 24854.2 61958.7 24861.6 61956 24865.4 61954 24869.7 61948.9 24875.3 61944.4 24881.6 61940.6 24884.3 61937.4 24887.8 61930.7 24891.5 61924.5 24896 61920 24897.4 61915.8 24899.7 61908.3 24901 61901 24903.3 61896.3 24903.2 61891.6 24904 61884.1 24902.9 61876.4 24902.8 61872 24901.2 61867.3 24900.5 61860.5 24897 61853.3 24894.4 61849.6 24891.5 61845.4 24889.3 61840 24883.8 61834 24879.1 61831.5 24875.1 61828.2 24871.8 61821.8 24860.2 61820.7 24858.4 61820.4 24857.7 61820.1 24857.1 61705.1 24579.5 61465.8 24340.2 61465.7 24340.2 55421.8 18296.3 55182.5 18056.9 54883.7 17933.1 54036.5 17933.1 54025 17931.2 54013.4 17929.5 54012.8 17929.3 54012.2 17929.2 54001.9 17923.7 53991.5 17918.4 53991 17917.9 53990.5 17917.6 53982.4 17909.2 53974.2 17900.8 53973.9 17900.2 53973.5 17899.8 53972.8 17898.1 53970.2 17893.4 53544.3 17467.5 52990 17237.9 52390 17237.9 51835.7 17467.5 51411.5 17891.7 51181.9 18446 51181.9 19046 51411.5 19600.3 51835.7 20024.5 52390 20254.1 52990 20254.1 53544.3 20024.5 53971.5 19597.2 53972.3 19595.9 53978.3 19585.9 53978.8 19585.5 53979.1 19585 53988.1 19577.5 53997 19569.9 53997.6 19569.7 53998.1 19569.3 54009 19565.1 54019.8 19560.7 54020.6 19560.6 54021 19560.5 54022.9 19560.4 54036.5 19558.9 54353.8 19558.9 54362.8 19560.3 54371.9 19561.1 54374.8 19562.3 54378 19562.8 54386.1 19567.1 54394.5 19570.7 54397.7 19573.3 54399.8 19574.4 54402 19576.7 54407.6 19581.2 60180.8 25354.4 60186.1 25361.8 60192.1 25368.7 60193.3 25371.8 60195.2 25374.4 60197.9 25383.1 60201.3 25391.6 60201.7 25395.7 60202.4 25397.9 60202.3 25401.1 60203.1 25408.2 60203.1 34891.5 60201.2 34903 60199.5 34914.6 60199.3 34915.2 60199.2 34915.8 60193.7 34926.1 60188.4 34936.5 60187.9 34937 60187.6 34937.5 60179.2 34945.6 60170.8 34953.8 60170.2 34954.1 60169.8 34954.5 60168.1 34955.2 60163.4 34957.8 59737.5 35383.7 59507.9 35938 59507.9 36538 59737.5 37092.3 60161.7 37516.5 60716 37746.1 61316 37746.1 61870.3 37516.5 62029.6 37357.2 62029.8 37357 62029.9 37356.8 62039.8 37349.8 62049.5 37342.8 62049.8 37342.7 62050 37342.6 62061.5 37339.1 62073.1 37335.6 62073.3 37335.6 62073.5 37335.5 62085.5 37335.9 62097.6 37336.2 62097.9 37336.3 62098.1 37336.3 62109.3 37340.5 62120.7 37344.7 62120.9 37344.8 62121.2 37344.9 62130.5 37352.5 62139.9 37360 62140.1 37360.2 62140.3 37360.4 62146.7 37370.6 62153.2 37380.7 62153.3 37380.9 62153.4 37381.2 62156.3 37392.9 62159.3 37404.6 62159.2 37404.8 62159.3 37405 62158.8 37421.8 62154.4 37451.8 62153.6 37454.6 62152.8 37460.1 61309.4 40710.3 61308.2 40712.9 61306.8 40718.3 60107.5 43854.6 60106 43857.1 60104 43862.4 58563.6 46846 58561.9 46848.3 58559.3 46853.3 56696.9 49647.2 56694.9 49649.3 56691.8 49654 54530.4 52223.7 54528.2 52225.6 54524.6 52229.9 52091.1 54543.4 52088.7 54545.1 52084.6 54548.9 49409.1 56577.8 49406.5 56579.1 49402 56582.5 46517.6 58301.5 46514.9 58302.5 46510.1 58305.4 43452.5 59693.1 43449.7 59693.9 43444.6 59696.2 40251.7 60735.6 40249.4 60736 40245.6 60737.3 39007.6 61028.8 38996.9 61029.5 38986.3 61030.7 38984.7 61030.4 38983.1 61030.5 38972.7 61027.8 38962.2 61025.5 38960.8 61024.7 38959.3 61024.2 38950.3 61018.4 38941.1 61012.9 38940.1 61011.6 38938.7 61010.8 38932.1 61002.3 38925.1 60994.2 38924.5 60992.7 38923.5 60991.4 38919.9 60981.3 38915.9 60971.3 38915.7 60969.4 38915.3 60968.3 38915.2 60965.2 38914.1 60954.7 38914.1 27944.6 38915.2 27937.5 38915.4 27930.3 38917.2 27925.5 38918 27920.3 38921.4 27914 38923.9 27907.2 38927.1 27903.2 38929.6 27898.6 38934.8 27893.6 38939.2 27888 38943.6 27885.2 38947.4 27881.6 38953.9 27878.6 38959.9 27874.7 38965 27873.5 38969.7 27871.3 38976.8 27870.5 38983.8 27868.7 38989 27869.1 38994.1 27868.6 39001.2 27870.1 39008.3 27870.7 39013.1 27872.7 39018.2 27873.8 39024.3 27877.5 39030.9 27880.3 39036.5 27884.8 39039.3 27886.4 39040.8 27888.2 39044 27890.8 39089.7 27936.5 39644 28166.1 40244 28166.1 40798.3 27936.5 40895.7 27839 40905.2 27832.2 40914.6 27825.2 40915.2 27825 40915.7 27824.7 40926.8 27821.2 40938 27817.6 40938.6 27817.6 40939.2 27817.4 40950.9 27817.7 40962.6 27817.9 40963.3 27818.1 40963.8 27818.1 40965.5 27818.7 40978.7 27822.5 41017.2 27838.5 42802.8 27838.5 43129.9 27703 43134.3 27702 43138.5 27700 43146.2 27699.2 43153.8 27697.4 43158.4 27697.8 43162.9 27697.3 43170.6 27699 43178.3 27699.7 43182.5 27701.6 43187 27702.5 43193.7 27706.5 43200.8 27709.7 43204.2 27712.8 43208.1 27715.2 43213.2 27721.1 43218.9 27726.3 43221.1 27730.4 43224.1 27733.8 43227 27741.1 43230.7 27747.9 43231.6 27752.4 43233.3 27756.7 43234.8 27770.3 43235.1 27772.1 43235 27772.6 43235.1 27773.3 43235.1 32765.8 43233.7 32774.8 43232.9 32783.9 43231.7 32786.8 43231.2 32790 43226.9 32798.1 43223.3 32806.5 43220.7 32809.7 43219.6 32811.8 43217.3 32814 43212.8 32819.6 41151.9 34880.5 41028.1 35179.3 41028.1 42249.5 41026.2 42261 41024.5 42272.6 41024.3 42273.2 41024.2 42273.8 41018.7 42284.1 41013.4 42294.5 41012.9 42295 41012.6 42295.5 41004.2 42303.6 40995.8 42311.8 40995.2 42312.1 40994.8 42312.5 40993.1 42313.2 40988.4 42315.8 40562.5 42741.7 40332.9 43296 40332.9 43896 40562.5 44450.3 40986.7 44874.5 41541 45104.1 42141 45104.1 42695.3 44874.5 43119.5 44450.3 43349.1 43896 43349.1 43296 43299.3 43176 43297.7 43169 43295.1 43162.3 43294.9 43157.1 43293.7 43152 43294.4 43144.9 43294.1 43137.7 43295.6 43132.7 43296 43127.5 43299 43121 43301 43114.1 43303.9 43109.8 43306 43105.1 43310.9 43099.8 43315 43093.9 43319.1 43090.8 43322.7 43087 43329 43083.5 43334.7 43079.2 43339.7 43077.6 43344.2 43075.1 43351.3 43073.8 43358.1 43071.6 43363.3 43071.7 43368.4 43070.7 43375.5 43071.8 43382.7 43071.8 43389.6 43073.8 43392.8 43074.3 43394.9 43075.4 43398.8 43076.5 43446 43096.1 44046 43096.1 44600.3 42866.5 44671.5 42795.3 44677.3 42791.1 44682.5 42786.1 44687.2 42783.9 44691.4 42780.9 44698.3 42778.8 44704.8 42775.8 44710 42775.2 44715 42773.7 44722.1 42773.9 44729.2 42773.1 44734.3 42774.2 44739.5 42774.3 44746.3 42776.8 44753.3 42778.3 44757.8 42781 44762.6 42782.8 44768.2 42787.2 44774.4 42790.9 44777.8 42794.9 44781.8 42798.1 44785.7 42804.2 44790.4 42809.6 44792.3 42814.4 44795.1 42818.8 44796.9 42825.8 44799.6 42832.4 44800.4 42839.5 44801.2 42842.7 44801 42845 44801.4 42849.1 44801.4 45274.1 44800 45283.1 44799.2 45292.2 44798 45295.2 44797.5 45298.4 44793.2 45306.5 44789.6 45314.8 44787 45318.1 44785.9 45320.1 44783.6 45322.3 44779.1 45327.9 43764.8 46342.3 43701 46496.3 43696.2 46504 43692.1 46512.2 43689.7 46514.4 43688 46517.2 43681 46523 43674.5 46529.4 43670.9 46531.4 43669.1 46532.9 43666.1 46534 43659.8 46537.5 43502.7 46602.5 43078.5 47026.7 42848.9 47581 42848.9 48181 43078.5 48735.3 43502.7 49159.5 44057 49389.1 44657 49389.1 45211.3 49159.5 45635.5 48735.3 45865.1 48181 45865.1 47581 45635.5 47026.7 45399.7 46790.9 45398.5 46789.3 45396.9 46788.1 45391.3 46779.3 45385.3 46770.9 45384.7 46769.1 45383.6 46767.4 45381.1 46757.3 45378.1 46747.4 45378.1 46745.4 45377.6 46743.5 45378.4 46733.2 45378.7 46722.9 45379.4 46721 45379.6 46719 45383.6 46709.5 45387.2 46699.8 45388.4 46698.2 45389.2 46696.4 45399.7 46683.3 46092.2 45990.7 46198.6 45734 46198.6 45140.3 46199.7 45133.2 46199.9 45126 46201.7 45121.1 46202.5 45116 46205.9 45109.7 46208.4 45102.9 46211.6 45098.9 46214.1 45094.3 46219.3 45089.3 46223.7 45083.7 46228.1 45080.9 46231.9 45077.3 46238.4 45074.3 46244.4 45070.4 46249.5 45069.2 46254.2 45067 46261.3 45066.2 46268.3 45064.4 46273.5 45064.8 46278.6 45064.3 46285.7 45065.8 46292.8 45066.3 46297.6 45068.4 46302.7 45069.5 46308.8 45073.2 46315.4 45076 46321 45080.5 46323.8 45082.1 46325.3 45083.9 46328.5 45086.5 49842.3 48600.2 50099 48706.6 50749.2 48706.6 50760.6 48708.5 50772.3 48710.2 50772.8 48710.4 50773.4 48710.5 50783.7 48716 50794.2 48721.3 50794.6 48721.8 50795.2 48722.1 50803.2 48730.5 50811.4 48738.9 50811.8 48739.5 50812.1 48739.9 50812.9 48741.6 50819.5 48753.6 50864.5 48862.3 51288.7 49286.5 51843 49516.1 52443 49516.1 52997.3 49286.5 53421.5 48862.3 53651.1 48308 53651.1 47708 53421.5 47153.7 52997.3 46729.5 52443 46499.9 51843 46499.9 51288.7 46729.5 50864.5 47153.7 50819.5 47262.4 50813.3 47272.4 50807.3 47282.4 50806.9 47282.8 50806.5 47283.3 50797.5 47290.8 50788.7 47298.4 50788.1 47298.6 50787.6 47299 50776.7 47303.2 50765.8 47307.6 50765.1 47307.7 50764.6 47307.8 50762.8 47307.9 50749.2 47309.4 50558.9 47309.4 50549.9 47308 50540.8 47307.2 50537.8 47306 50534.6 47305.5 50526.5 47301.2 50518.2 47297.6 50514.9 47295 50512.9 47293.9 50510.7 47291.6 50505.1 47287.1 47220.9 44002.9 47215.6 43995.5 47209.6 43988.6 47208.4 43985.6 47206.5 43983 47203.8 43974.3 47200.4 43965.8 47200 43961.7 47199.3 43959.5 47199.4 43956.2 47198.6 43949.1 47198.6 43345.2 47199.7 43338.2 47199.9 43331 47201.7 43326.1 47202.5 43320.9 47205.9 43314.6 47208.4 43307.9 47211.6 43303.8 47214.1 43299.2 47219.3 43294.3 47223.7 43288.7 47228.1 43285.9 47231.9 43282.3 47238.4 43279.3 47244.4 43275.4 47249.5 43274.1 47254.2 43271.9 47261.3 43271.1 47268.3 43269.4 47273.5 43269.8 47278.6 43269.2 47285.7 43270.7 47292.8 43271.3 47297.6 43273.3 47302.7 43274.4 47308.8 43278.1 47315.4 43280.9 47321 43285.4 47323.8 43287 47325.3 43288.8 47328.5 43291.4 47598.1 43561 48027.6 43738.9 48492.4 43738.9 48921.9 43561 49250.6 43232.3 49428.5 42802.8 49428.5 41017.2 49250.6 40587.7 48921.9 40259 48492.4 40081.1 48392.6 40081.1 48385.5 40080 48378.3 40079.8 48373.4 40078 48368.3 40077.2 48362 40073.8 48355.2 40071.3 48351.2 40068.1 48346.6 40065.6 48341.6 40060.5 48336 40056 48333.2 40051.6 48329.6 40047.8 48326.6 40041.3 48322.7 40035.3 48321.5 40030.2 48319.3 40025.5 48318.5 40018.4 48316.7 40011.4 48317.1 40006.2 48316.6 40001.1 48318.1 39994 48318.6 39986.9 48320.7 39982.1 48321.8 39977 48325.5 39970.9 48328.3 39964.3 48332.8 39958.7 48334.4 39955.9 48335.2 39955.3 48335.3 39955 48336.5 39954 48338.8 39951.2 53871.6 34418.4 53881 34411.6 53890.4 34404.6 53891 34404.4 53891.5 34404 53902.6 34400.6 53913.8 34396.9 53914.5 34397 53915.1 34396.8 53926.7 34397.1 53938.4 34397.2 53939.1 34397.4 53939.6 34397.4 53941.4 34398 53954.5 34401.9 54153 34484.1 54753 34484.1 55307.3 34254.5 55731.5 33830.3 55743 33802.5 55748.1 33794.2 55752.7 33785.6 55754.6 33783.8 55755.9 33781.6 55763.4 33775.4 55770.5 33768.7 55772.9 33767.6 55774.9 33765.9 55784 33762.4 55792.8 33758.3 55795.4 33758 55797.8 33757.1 55807.6 33756.7 55817.2 33755.6 55819.8 33756.2 55822.4 33756.1 55831.8 33758.8 55841.3 33760.9 55843.5 33762.2 55846 33762.9 55854 33768.5 55862.4 33773.5 55864.1 33775.5 55866.2 33776.9 55872.1 33784.8 55878.4 33792.2 55879.4 33794.6 55880.9 33796.7 55883.9 33805.9 55887.6 33815 55887.9 33818.2 55888.5 33820.1 55888.5 33823.4 55889.4 33831.6 55889.4 37163.1 55888 37172.1 55887.2 37181.2 55886 37184.2 55885.5 37187.4 55881.2 37195.5 55877.6 37203.8 55875 37207.1 55873.9 37209.1 55871.6 37211.3 55867.1 37216.9 55731 37353.1 55727.3 37355.7 55724.2 37359.1 55717.3 37362.9 55711 37367.4 55706.6 37368.8 55702.6 37371 55694.9 37372.4 55687.5 37374.7 55682.9 37374.5 55678.4 37375.4 55670.7 37374.2 55662.9 37374 55658.6 37372.4 55654.1 37371.8 55647.1 37368.3 55639.8 37365.6 55636.2 37362.7 55632.2 37360.6 55626.7 37355.1 55620.6 37350.2 55618.1 37346.3 55614.9 37343.1 55608.3 37331.1 55607.3 37329.5 55607.2 37329 55606.8 37328.4 55580.5 37264.7 55156.3 36840.5 54602 36610.9 54002 36610.9 53447.7 36840.5 53023.5 37264.7 52793.9 37819 52793.9 38419 53023.5 38973.3 53447.7 39397.5 54002 39627.1 54602 39627.1 55156.3 39397.5 55580.5 38973.3 55625.5 38864.6 55631.7 38854.6 55637.7 38844.6 55638.1 38844.2 55638.5 38843.7 55647.5 38836.2 55656.3 38828.6 55656.9 38828.4 55657.4 38828 55668.3 38823.8 55679.2 38819.4 55679.9 38819.3 55680.4 38819.2 55682.2 38819.1 55695.8 38817.6 56092 38817.6 56348.7 38711.2 56973 38086.9 57180.2 37879.7 57286.6 37623 57286.6 31176 57180.2 30919.3 54497.7 28236.8 54241 28130.4 54017 28130.4 54009.9 28129.3 54002.8 28129.1 53997.9 28127.3 53992.7 28126.5 53986.4 28123.1 53979.7 28120.6 53975.6 28117.4 53971 28114.9 53966.1 28109.7 53960.5 28105.3 53957.7 28100.9 53954.1 28097.1 53951 28090.6 53947.2 28084.6 53945.9 28079.5 53943.7 28074.8 53942.9 28067.7 53941.2 28060.7 53941.6 28055.5 53941 28050.4 53942.5 28043.3 53943.1 28036.2 53945.1 28031.4 53946.2 28026.3 53949.9 28020.2 53952.7 28013.6 53957.2 28008 53958.8 28005.2 53960.4 28003.9 53960.7 28003.4 53961.3 28002.9 53963.2 28000.5 54050.3 27913.4 54150.4 27763.6 54219.3 27597.1 54254.5 27420.5 54254.5 26822.3 53416.2 26822.3 53414.2 26822 53412.3 26822.2 53402.1 26820 53391.9 26818.3 53390.2 26817.4 53388.2 26817 53379.3 26811.7 53370.2 26806.8 53368.8 26805.4 53367.1 26804.4 53360.4 26796.5 53353.3 26789 53352.4 26787.2 53351.1 26785.7 53347.3 26776.1 53342.9 26766.7 53342.7 26764.7 53341.9 26762.9 53340.1 26746.2 53340.1 26669.9 53339.9 26669.9 53339.9 26746.2 53339.6 26748.2 53339.8 26750.1 53337.6 26760.3 53335.9 26770.5 53335 26772.2 53334.6 26774.2 53329.3 26783.1 53324.4 26792.2 53323 26793.6 53322 26795.3 53314.1 26802 53306.6 26809.1 53304.8 26810 53303.3 26811.3 53293.7 26815.2 53284.3 26819.5 53282.3 26819.7 53280.5 26820.5 53263.8 26822.3 52425.5 26822.3 52425.5 27420.5 52460.7 27597.1 52529.6 27763.6 52629.7 27913.4 52716.8 28000.5 52721 28006.3 52725.9 28011.5 52728.1 28016.2 52731.2 28020.4 52733.3 28027.3 52736.3 28033.8 52736.9 28039 52738.4 28044 52738.2 28051.1 52739 28058.2 52737.9 28063.3 52737.8 28068.5 52735.3 28075.3 52733.8 28082.3 52731.1 28086.8 52729.3 28091.6 52724.8 28097.2 52721.2 28103.4 52717.2 28106.8 52714 28110.8 52707.9 28114.7 52702.5 28119.4 52697.6 28121.3 52693.3 28124.1 52686.3 28125.9 52679.7 28128.6 52672.5 28129.4 52669.4 28130.2 52667.1 28130 52663 28130.4 51836.2 28130.4 51829.1 28129.3 51822 28129.1 51817.1 28127.3 51811.9 28126.5 51805.6 28123.1 51798.9 28120.6 51794.8 28117.4 51790.2 28114.9 51785.3 28109.7 51779.7 28105.3 51776.9 28100.9 51773.3 28097.1 51770.3 28090.6 51766.4 28084.6 51765.1 28079.5 51762.9 28074.8 51762.1 28067.7 51760.4 28060.7 51760.8 28055.5 51760.2 28050.4 51761.7 28043.3 51762.3 28036.2 51764.3 28031.4 51765.4 28026.3 51769.1 28020.2 51771.9 28013.6 51776.4 28008 51778 28005.2 51779.6 28003.9 51779.9 28003.4 51780.5 28002.9 51782.4 28000.5 51790.6 27992.3 51968.5 27562.8 51968.5 25777.2 51790.6 25347.7 51461.9 25019 51032.4 24841.1 50567.6 24841.1 50138.1 25019 49809.4 25347.7 49631.5 25777.2 49631.5 27562.8 49809.4 27992.3 49817.6 28000.5 49821.8 28006.3 49826.7 28011.5 49828.9 28016.2 49832 28020.4 49834.1 28027.3 49837.1 28033.8 49837.7 28039 49839.2 28043.9 49839 28051.1 49839.8 28058.2 49838.7 28063.3 49838.6 28068.5 49836.1 28075.3 49834.6 28082.3 49831.9 28086.8 49830.1 28091.6 49825.6 28097.2 49822 28103.4 49818 28106.8 49814.7 28110.8 49808.7 28114.7 49803.3 28119.4 49798.4 28121.3 49794.1 28124.1 49787.1 28125.9 49780.4 28128.6 49773.3 28129.4 49770.2 28130.2 49767.9 28130 49763.8 28130.4 49296.2 28130.4 49289.1 28129.3 49282 28129.1 49277.1 28127.3 49271.9 28126.5 49265.6 28123.1 49258.9 28120.6 49254.8 28117.4 49250.2 28114.9 49245.3 28109.7 49239.7 28105.3 49236.9 28100.9 49233.3 28097.1 49230.3 28090.6 49226.4 28084.6 49225.1 28079.5 49222.9 28074.8 49222.1 28067.7 49220.4 28060.7 49220.8 28055.5 49220.2 28050.4 49221.7 28043.3 49222.3 28036.2 49224.3 28031.4 49225.4 28026.3 49229.1 28020.2 49231.9 28013.6 49236.4 28008 49238 28005.2 49239.6 28003.9 49239.9 28003.4 49240.5 28002.9 49242.4 28000.5 49250.6 27992.3 49428.5 27562.8 49428.5 25777.2 49250.6 25347.7 48921.9 25019 48492.4 24841.1 48027.6 24841.1 47684.8 24983.1 47680.4 24984.1 47676.2 24986.1 47668.5 24986.9 47660.9 24988.7 47656.3 24988.3 47651.8 24988.8 47644.1 24987.1 47636.4 24986.4 47632.2 24984.5 47627.7 24983.6 47621 24979.6 47613.9 24976.4 47610.5 24973.3 47606.6 24970.9 47601.5 24965 47595.8 24959.8 47593.6 24955.7 47590.6 24952.3 47587.7 24945 47584 24938.2 47583.1 24933.7 47581.4 24929.4 47579.9 24915.8 47579.6 24914 47579.7 24913.5 47579.6 24912.8 47579.6 24503.9 47581 24494.9 47581.8 24485.8 47583 24482.8 47583.5 24479.6 47587.8 24471.5 47591.4 24463.2 47594 24459.9 47595.1 24457.9 47597.4 24455.7 47601.9 24450.1 48870.2 23181.7 48976.6 22925 48976.6 19353.8 48978.5 19342.4 48980.2 19330.7 48980.4 19330.2 48980.5 19329.6 48986 19319.3 48991.3 19308.8 48991.8 19308.4 48992.1 19307.8 49000.5 19299.8 49008.9 19291.6 49009.5 19291.2 49009.9 19290.9 49011.6 19290.1 49023.6 19283.5 49132.3 19238.5 49556.5 18814.3 49786.1 18260 49786.1 17660 49556.5 17105.7 49132.3 16681.5 48578 16451.9 47978 16451.9 47423.7 16681.5 46999.5 17105.7 46769.9 17660 46769.9 18260 46999.5 18814.3 47423.7 19238.5 47532.4 19283.5 47542.4 19289.7 47552.4 19295.7 47552.8 19296.1 47553.3 19296.5 47560.8 19305.5 47568.4 19314.3 47568.6 19314.9 47569 19315.4 47573.2 19326.3 47577.6 19337.2 47577.7 19337.9 47577.8 19338.4 47577.9 19340.2 47579.4 19353.8 47579.4 22465.1 47578 22474.1 47577.2 22483.2 47576 22486.2 47575.5 22489.4 47571.2 22497.5 47567.6 22505.8 47565 22509.1 47563.9 22511.1 47561.6 22513.3 47557.1 22518.9 46606.5 23469.5 46600.7 23473.7 46595.5 23478.7 46590.8 23480.9 46586.6 23483.9 46579.7 23486 46573.2 23489 46568 23489.6 46563 23491.1 46555.9 23490.9 46548.8 23491.7 46543.7 23490.6 46538.5 23490.5 46531.7 23488 46524.7 23486.5 46520.2 23483.8 46515.4 23482.1 46509.8 23477.6 46503.6 23473.9 46500.2 23469.9 46496.2 23466.7 46492.3 23460.7 46487.6 23455.2 46485.7 23450.4 46482.9 23446 46481.1 23439 46478.4 23432.4 46477.6 23425.3 46476.8 23422.1 46477 23419.8 46476.6 23415.7 46476.6 17064 46370.2 16807.3 45480.7 15917.8 45224 15811.4 43555.8 15811.4 43546.8 15810 43537.7 15809.2 43534.7 15808 43531.6 15807.5 43523.5 15803.2 43515.1 15799.6 43511.9 15797 43509.8 15795.9 43507.6 15793.6 43502 15789.1 43320.9 15608 43316.7 15602.2 43311.8 15597 43309.6 15592.3 43306.5 15588.1 43304.4 15581.2 43301.4 15574.7 43300.8 15569.5 43299.3 15564.5 43299.5 15557.4 43298.7 15550.3 43299.8 15545.2 43299.9 15540 43302.4 15533.2 43303.9 15526.2 43306.6 15521.8 43308.4 15516.9 43312.9 15511.3 43316.5 15505.1 43320.5 15501.7 43323.8 15497.7 43329.8 15493.8 43335.2 15489.1 43340.1 15487.2 43344.4 15484.4 43351.4 15482.6 43358.1 15479.9 43365.2 15479.1 43368.3 15478.3 43370.6 15478.5 43374.7 15478.1 43988 15478.1 44542.3 15248.5 44966.5 14824.3 45196.1 14270 45196.1 13670 44966.5 13115.7 44542.3 12691.5 43988 12461.9 43374.7 12461.9 43367.7 12460.8 43360.5 12460.6 43355.6 12458.8 43350.4 12458 43344.1 12454.6 43337.4 12452.1 43333.3 12448.9 43328.7 12446.4 43323.8 12441.2 43318.2 12436.8 43315.4 12432.4 43311.8 12428.6 43308.8 12422.1 43304.9 12416.1 43303.6 12411 43301.4 12406.3 43300.6 12399.2 43298.9 12392.2 43299.3 12387 43298.7 12381.9 43300.2 12374.8 43300.8 12367.7 43302.8 12362.9 43303.9 12357.8 43307.6 12351.7 43310.4 12345.1 43314.9 12339.5 43316.5 12336.7 43318.3 12335.2 43320.9 12332 43561 12091.9 43738.9 11662.4 43738.9 11197.6 43561 10768.1 43232.3 10439.4 42802.8 10261.5 41127.8 10261.5 41118.8 10260.1 41109.7 10259.3 41106.7 10258.1 41103.5 10257.6 41095.5 10253.3 41087.1 10249.7 41083.8 10247.1 41081.8 10246 41079.6 10243.7 41074 10239.2 41023.2 10188.4 41019 10182.6 41014 10177.4 41011.8 10172.7 41008.8 10168.5 41006.7 10161.6 41003.7 10155.1 41003.1 10149.9 41001.6 10144.9 41001.8 10137.8 41001 10130.7 41002.1 10125.6 41002.2 10120.4 41004.7 10113.6 41006.2 10106.6 41008.9 10102.1 41010.7 10097.3 41015.1 10091.7 41018.8 10085.5 41022.8 10082.1 41026 10078.1 41032 10074.2 41037.5 10069.5 41042.3 10067.6 41046.7 10064.8 41053.7 10063 41060.3 10060.3 41067.5 10059.5 41070.6 10058.7 41072.9 10058.9 41077 10058.5 42802.8 10058.5 43232.3 9880.6 43561 9551.9 43738.9 9122.4 43738.9 8657.6 43561 8228.1 43232.3 7899.4 42802.8 7721.5 41017.2 7721.5 40663.2 7868.1 40656.9 7869.6 40650.8 7872.1 40642.5 7873 40639.3 7873.7 40637.4 7873.6 40634.1 7873.9 25883.6 7873.9 25878.6 7873.1 25873.4 7873.2 25861.9 7870.4 25859.3 7870 25858.5 7869.5 25857.2 7869.2 25851.2 7867 25670 7873.9 25668.8 7873.7 25667.1 7873.9 25485.8 7873.9 25479.9 7876.4 25474.9 7877.5 25470.2 7879.6 25458.5 7881.4 25455.9 7882 25455 7881.9 25453.6 7882.1 25447.3 7882.4 25282.5 7958.1 25281.4 7958.4 25279.8 7959.2 25112.3 8028.6 25107.8 8033.1 25103.6 8036.1 25100.1 8039.8 25090 8045.9 25087.8 8047.5 25087 8047.8 25085.8 8048.5 25079.9 8051.1 24956.7 8184.1 24955.8 8184.8 24954.7 8186.2 24826.5 8314.4 24824 8320.3 24821.4 8324.7 24819.5 8329.5 24812.5 8339 24811.1 8341.2 24810.4 8341.8 24809.6 8343 23520.1 9734.6 23519.2 9735.3 23518 9736.7 23389.8 9864.9 23387.4 9870.8 23384.7 9875.1 23382.9 9879.9 23375.8 9889.4 23374.4 9891.7 23373.7 9892.3 23372.9 9893.4 23368.5 9898.1 23305.6 10068.1 23305 10069.1 23304.5 10070.8 23286.1 10115.3 23281.3 10123 23277.2 10131.2 23274.8 10133.4 23273.1 10136.2 23266.1 10142 23259.6 10148.4 23256 10150.4 23254.2 10151.9 23251.2 10153 23244.9 10156.5 22769.8 10353.3 22412.5 10710.6 22219.1 11177.4 22219.1 11682.6 22412.5 12149.4 22769.8 12506.7 23236.6 12700.1 25265.8 12700.1 25732.6 12506.7 26089.9 12149.4 26283.3 11682.6 26283.3 11177.4 26089.9 10710.6 25776.4 10397.1 25776.1 10396.7 25775.7 10396.3 25768.9 10386.6 25762.1 10377.1 25761.9 10376.6 25761.6 10376.2 25758.3 10364.9 25754.8 10353.6 25754.9 10353.1 25754.7 10352.6 25755.2 10340.8 25755.5 10329 25755.7 10328.5 25755.7 10328 25759.9 10317 25763.9 10305.9 25764.3 10305.5 25764.5 10305 25774.4 10291.5 26109 9930.5 26117.3 9924 26125.3 9917.1 26127 9916.4 26128.4 9915.4 26138.3 9911.9 26148.2 9907.9 26150.3 9907.7 26151.6 9907.2 26154.7 9907.2 26164.8 9906.1 39487.6 9906.1 39497.2 9907.6 39506.9 9908.6 39509.3 9909.6 39511.9 9910 39520.5 9914.6 39529.4 9918.6 39531.3 9920.3 39533.6 9921.6 39540.3 9928.6 39547.5 9935.2 39548.7 9937.5 39550.5 9939.4 39554.6 9948.2 39559.3 9956.8 39559.8 9959.3 39560.9 9961.7 39562 9971.4 39563.7 9981 39563.3 9983.6 39563.6 9986.1 39561.5 9995.7 39560.1 10005.3 39558.9 10007.6 39558.4 10010.2 39553.4 10018.5 39549 10027.2 39547.1 10029.1 39545.8 10031.3 39538.4 10037.6 39531.4 10044.4 39528.6 10046 39527.1 10047.3 39524 10048.5 39516.7 10052.5 39277.7 10151.5 38853.5 10575.7 38623.9 11130 38623.9 11730 38853.5 12284.3 39277.7 12708.5 39832 12938.1 40445.3 12938.1 40452.3 12939.2 40459.5 12939.4 40464.4 12941.2 40469.6 12942 40475.9 12945.4 40482.6 12947.9 40486.7 12951.1 40491.3 12953.6 40496.2 12958.8 40501.8 12963.2 40504.6 12967.6 40508.2 12971.4 40511.2 12977.9 40515.1 12983.9 40516.4 12989 40518.6 12993.7 40519.4 13000.8 40521.1 13007.8 40520.7 13013 40521.3 13018.1 40519.8 13025.2 40519.2 13032.3 40517.2 13037.1 40516.1 13042.2 40512.4 13048.3 40509.6 13054.9 40505.1 13060.5 40503.5 13063.3 40501.7 13064.8 40499.1 13068 40259 13308.1 40081.1 13737.6 40081.1 14202.4 40259 14631.9 40587.7 14960.6 41017.2 15138.5 42692.2 15138.5 42701.2 15139.9 42710.3 15140.7 42713.3 15141.9 42716.5 15142.4 42724.5 15146.7 42732.9 15150.3 42736.2 15152.9 42738.2 15154 42740.4 15156.3 42746 15160.8 42796.8 15211.6 42801 15217.4 42806 15222.6 42808.2 15227.3 42811.2 15231.5 42813.3 15238.4 42816.3 15244.9 42816.9 15250.1 42818.4 15255.1 42818.2 15262.2 42819 15269.3 42817.9 15274.4 42817.8 15279.6 42815.3 15286.4 42813.8 15293.4 42811.1 15297.9 42809.3 15302.7 42804.9 15308.3 42801.2 15314.5 42797.2 15317.9 42794 15321.9 42788 15325.8 42782.5 15330.5 42777.7 15332.4 42773.3 15335.2 42766.3 15337 42759.7 15339.7 42752.5 15340.5 42749.4 15341.3 42747.1 15341.1 42743 15341.5 41017.2 15341.5 40587.7 15519.4 40259 15848.1 40081.1 16277.6 40081.1 16742.4 40259 17171.9 40587.7 17500.6 41017.2 17678.5 42743 17678.5 42750.1 17679.6 42757.3 17679.8 42762.1 17681.6 42767.3 17682.4 42773.6 17685.8 42780.4 17688.3 42784.4 17691.5 42789 17694 42794 17699.2 42799.6 17703.6 42802.4 17708 42806 17711.8 42809 17718.3 42812.9 17724.3 42814.1 17729.4 42816.3 17734.1 42817.1 17741.2 42818.9 17748.2 42818.5 17753.4 42819 17758.5 42817.5 17765.6 42816.9 17772.7 42814.9 17777.5 42813.8 17782.6 42810.1 17788.7 42807.3 17795.3 42802.8 17800.9 42801.2 17803.7 42799.4 17805.2 42796.8 17808.4 42746 17859.2 42738.6 17864.6 42731.7 17870.5 42728.7 17871.7 42726.1 17873.6 42717.3 17876.3 42708.9 17879.7 42704.8 17880.1 42702.5 17880.8 42699.3 17880.7 42692.2 17881.5 41017.2 17881.5 40587.7 18059.4 40259 18388.1 40081.1 18817.6 40081.1 19282.4 40259 19711.9 40587.7 20040.6 41017.2 20218.5 42692.2 20218.5 42701.2 20219.9 42710.3 20220.7 42713.3 20221.9 42716.5 20222.4 42724.5 20226.7 42732.9 20230.3 42736.1 20232.9 42738.2 20234 42740.4 20236.3 42746 20240.8 42771.4 20266.2 42772.6 20267.8 42774.2 20269 42779.7 20277.7 42785.8 20286.1 42786.4 20288 42787.5 20289.7 42790 20299.8 42793 20309.6 42793 20311.6 42793.5 20313.6 42792.7 20323.9 42792.4 20334.2 42791.7 20336.1 42791.5 20338.1 42787.5 20347.6 42783.9 20357.3 42782.7 20358.9 42781.9 20360.7 42771.4 20373.8 42746 20399.2 42738.6 20404.5 42731.7 20410.5 42728.7 20411.7 42726.1 20413.6 42717.4 20416.3 42708.9 20419.7 42704.8 20420.1 42702.5 20420.8 42699.3 20420.7 42692.2 20421.5 41017.2 20421.5 40587.7 20599.4 40259 20928.1 40081.1 21357.6 40081.1 21822.4 40259 22251.9 40587.7 22580.6 41017.2 22758.5 42692.2 22758.5 42701.2 22759.9 42710.3 22760.7 42713.3 22761.9 42716.5 22762.4 42724.5 22766.7 42732.9 22770.3 42736.2 22772.9 42738.2 22774 42740.4 22776.3 42746 22780.8 42796.8 22831.6 42801 22837.4 42806 22842.6 42808.2 22847.3 42811.2 22851.5 42813.3 22858.4 42816.3 22864.9 42816.9 22870.1 42818.4 22875.1 42818.2 22882.2 42819 22889.3 42817.9 22894.4 42817.8 22899.6 42815.3 22906.4 42813.8 22913.4 42811.1 22917.9 42809.3 22922.7 42804.9 22928.3 42801.2 22934.5 42797.2 22937.9 42794 22941.9 42788 22945.8 42782.5 22950.5 42777.7 22952.4 42773.3 22955.2 42766.3 22957 42759.7 22959.7 42752.5 22960.5 42749.4 22961.3 42747.1 22961.1 42743 22961.5 41017.2 22961.5 40587.7 23139.4 40259 23468.1 40081.1 23897.6 40081.1 24362.4 40259 24791.9 40587.7 25120.6 41017.2 25298.5 42802.8 25298.5 43129.9 25163 43134.3 25162 43138.5 25160 43146.2 25159.2 43153.8 25157.4 43158.4 25157.8 43162.9 25157.3 43170.6 25159 43178.3 25159.7 43182.5 25161.6 43187 25162.5 43193.7 25166.5 43200.8 25169.7 43204.2 25172.8 43208.1 25175.2 43213.2 25181.1 43218.9 25186.3 43221.1 25190.4 43224.1 25193.8 43227 25201.1 43230.7 25207.9 43231.6 25212.4 43233.3 25216.7 43234.8 25230.3 43235.1 25232.1 43235 25232.6 43235.1 25233.3 43235.1 25566.7 43234.4 25571.2 43234.6 25575.8 43232.4 25583.3 43231.2 25590.9 43229 25595 43227.7 25599.4 43223.3 25605.8 43219.6 25612.7 43216.3 25615.8 43213.7 25619.6 43207.4 25624.3 43201.8 25629.6 43197.6 25631.5 43194 25634.3 43186.6 25636.7 43179.5 25640 43174.9 25640.5 43170.6 25641.9 43162.8 25641.8 43155.1 25642.7 43150.6 25641.7 43146 25641.7 43132.8 25637.9 43131 25637.5 43130.6 25637.2 43129.9 25637 42802.8 25501.5 41017.2 25501.5 40995.6 25510.4 40984.3 25513.1 40972.9 25516 40972.3 25515.9 40971.7 25516.1 40960.1 25515 40948.4 25514.1 40947.8 25513.8 40947.2 25513.8 40936.5 25509 40925.8 25504.4 40925.2 25504 40924.7 25503.8 40923.4 25502.5 40912.7 25493.9 40798.3 25379.5 40244 25149.9 39644 25149.9 39089.7 25379.5 39044 25425.2 39038.2 25429.4 39033 25434.4 39028.3 25436.6 39024.1 25439.6 39017.2 25441.7 39010.7 25444.7 39005.5 25445.3 39000.5 25446.8 38993.4 25446.6 38986.3 25447.4 38981.2 25446.3 38976 25446.2 38969.2 25443.7 38962.2 25442.2 38957.7 25439.5 38952.9 25437.7 38947.3 25433.3 38941.1 25429.6 38937.7 25425.6 38933.7 25422.4 38929.8 25416.4 38925.1 25410.9 38923.2 25406 38920.4 25401.7 38918.6 25394.7 38915.9 25388.1 38915.1 25380.9 38914.3 25377.8 38914.5 25375.5 38914.1 25371.4 38914.1 16764.8 38765.2 16615.9 6312.6 16615.9 6303 16614.4 6293.3 16613.5 6290.9 16612.4 6288.3 16612 6279.7 16607.4 6270.8 16603.5 6268.9 16601.7 6266.6 16600.4 6259.9 16593.4 6252.7 16586.9 6251.4 16584.5 6249.6 16582.6 6245.5 16573.8 6240.8 16565.3 6240.4 16562.7 6239.3 16560.3 6238.2 16550.6 6236.5 16541.1 6236.8 16538.5 6236.5 16535.9 6238.6 16526.4 6240 16516.8 6241.4 16513.7 6241.8 16511.8 6243.5 16509 6246.8 16501.4 6808.1 15539.3 6809.6 15537.5 6811.5 15534 8739.6 12784.9 8741.6 12782.8 8744.9 12778.2 10966.5 10260.5 10968.7 10258.6 10972.4 10254.4 13460.1 7999.1 13462.5 7997.5 13466.6 7993.8 16189.5 6028.9 16192.1 6027.6 16196.6 6024.3 19121 4374.1 19123.7 4373.1 19128.6 4370.4 22218.2 3055.4 22221 3054.7 22226.1 3052.5 25442.7 2089 25445.6 2088.7 25451 2087 28754.7 1486.9 28757.6 1486.9 28763.1 1485.9 32113.1 1256.6 32115.9 1256.9 32121.5 1256.5 35476.2 1401"/></g></g></g></g></g></g></g></g></g></g></g></g></g></g></g></g></g></g></g></g></g></g></g></g></g></g></g></g></g></g></g><path d="M 25013.2 11430 23489.2 11430 M 18510.8 11430 16986.8 11430" fill="none" stroke-width="1524"/><path d="M 48260 26009.6 48260 27330.4 M 50800 27330.4 50800 26009.6 M 53340 26009.6 53340 27330.4 M 55880 27330.4 55880 26009.6 M 58420 26009.6 58420 27330.4 M 58420 41249.6 58420 42570.4 M 55880 42570.4 55880 41249.6 M 53340 41249.6 53340 42570.4 M 50800 42570.4 50800 41249.6 M 48260 41249.6 48260 42570.4" fill="none" stroke-width="1320.8"/><path d="M 36513.2 11430 34989.2 11430 M 30010.8 11430 28486.8 11430" fill="none" stroke-width="1524"/><path d="M 41249.6 26670 42570.4 26670 M 42570.4 24130 41249.6 24130 M 41249.6 21590 42570.4 21590 M 42570.4 19050 41249.6 19050 M 41249.6 16510 42570.4 16510 M 42570.4 13970 41249.6 13970 M 41249.6 11430 42570.4 11430 M 42570.4 8890 41249.6 8890 M 41249.6 6350 42570.4 6350" fill="none" stroke-width="1320.8"/><use xlink:href="#eM4AjLqGLlONLwqWXu0A_pad-12" x="48428" y="54691"/><use xlink:href="#eM4AjLqGLlONLwqWXu0A_pad-12" x="27854" y="4272"/><use xlink:href="#eM4AjLqGLlONLwqWXu0A_pad-12" x="52873" y="44277"/><use xlink:href="#eM4AjLqGLlONLwqWXu0A_pad-12" x="53762" y="23830"/><path d="M 44048 33134 41841 35341 41841 43596 M 44048 33134 44048 24182" fill="none" stroke-width="609.6"/><use xlink:href="#eM4AjLqGLlONLwqWXu0A_pad-12" x="41841" y="43596"/><path d="M 44048 24182 43996 24130 41910 24130" fill="none" stroke-width="609.6"/><path d="M 45778 33968 43746 36000 43746 41588 M 45778 33968 45778 17203 M 45085 16510 41910 16510 M 45085 16510 45778 17203" fill="none" stroke-width="381"/><use xlink:href="#eM4AjLqGLlONLwqWXu0A_pad-12" x="43746" y="41588"/><use xlink:href="#eM4AjLqGLlONLwqWXu0A_pad-12" x="43688" y="19050"/><path d="M 43688 19050 41910 19050" fill="none" stroke-width="1016"/><use xlink:href="#eM4AjLqGLlONLwqWXu0A_pad-12" x="43688" y="21590"/><path d="M 43688 21590 41910 21590" fill="none" stroke-width="1016"/><path d="M 39944 26658 39956 26670" fill="none" stroke-width="381"/><path d="M 39956 26670 41910 26670" fill="none" stroke-width="1016"/><use xlink:href="#eM4AjLqGLlONLwqWXu0A_pad-12" x="39944" y="26658"/><path d="M 50238 48008 52143 48008 M 50238 48008 46500 44270 46500 40802 M 54326 32976 54453 32976 M 54326 32976 46500 40802" fill="none" stroke-width="381"/><use xlink:href="#eM4AjLqGLlONLwqWXu0A_pad-12" x="52143" y="48008"/><use xlink:href="#eM4AjLqGLlONLwqWXu0A_pad-12" x="54453" y="32976"/><path d="M 61016 25040 54722 18746 52690 18746 M 61016 25040 61016 36238" fill="none" stroke-width="609.6"/><use xlink:href="#eM4AjLqGLlONLwqWXu0A_pad-12" x="52690" y="18746"/><use xlink:href="#eM4AjLqGLlONLwqWXu0A_pad-12" x="61016" y="36238"/><path d="M 55953 38119 54302 38119 M 55953 38119 56588 37484" fill="none" stroke-width="381"/><use xlink:href="#eM4AjLqGLlONLwqWXu0A_pad-12" x="48278" y="17960"/><use xlink:href="#eM4AjLqGLlONLwqWXu0A_pad-12" x="54302" y="38119"/><path d="M 54102 28829 46881 28829 M 54102 28829 56588 31315 M 48278 22786 48278 17960 M 48278 22786 46881 24183 46881 28829 M 56588 31315 56588 37484 M 45500 38151 45500 45595 44357 46738 44357 47881 M 52865.5 30785.5 52802 30722 M 52865.5 30785.5 45500 38151" fill="none" stroke-width="381"/><use xlink:href="#eM4AjLqGLlONLwqWXu0A_pad-12" x="44357" y="47881"/><use xlink:href="#eM4AjLqGLlONLwqWXu0A_pad-12" x="52802" y="30722"/><use xlink:href="#eM4AjLqGLlONLwqWXu0A_pad-12" x="43688" y="13970"/><path d="M 43688 13970 41910 13970" fill="none" stroke-width="1016"/><use xlink:href="#eM4AjLqGLlONLwqWXu0A_pad-12" x="40132" y="11430"/><path d="M 40132 11430 41910 11430 M 41910 8890 25687.9 8890 24251.2 10440.4 24251.2 11430" fill="none" stroke-width="1016"/><path d="M 5737.8 16870 7021.9 14733.5 8580.1 12576.7 10320.4 10563.9 12229.5 8710.5 14292.9 7030.6 16494.8 5536.8 18818.6 4240.7 21246.4 3152 23759.9 2279.1 26340 1628.5 28966.9 1205.3 31620.7 1012.6 34281.2 1052 36928.1 1323.1 39541.4 1823.9 42101 2550.5 44587.6 3497.5 46982.2 4657.5 49266.5 6021.9 51423.3 7580.1 53436 9320.4 55289.5 11229.5 56969.4 13292.9 58463.2 15494.8 59759.3 17818.6 60848 20246.4 61720.9 22760 62371.5 25340 62794.7 27966.9 62987.3 30620.7 62948 33281.2 62676.9 35928.1 62176.1 38541.4 61449.5 41101 60502.5 43587.6 59342.5 45982.2 57978.1 48266.6 56419.9 50423.3 54679.6 52436.1 52770.5 54289.5 50707.1 55969.4 48505.2 57463.2 46181.4 58759.3 43753.5 59848 41240 60721 38660 61371.5 38660 16870 5737.8 16870 M 14750 12942.7 14742.5 12828.4 14727.6 12714.8 14705.2 12602.4 14675.5 12491.7 14638.7 12383.2 14594.9 12277.4 14544.2 12174.6 14486.9 12075.4 14423.2 11980.1 14353.5 11889.2 14277.9 11803.1 14196.9 11722.1 14110.8 11646.5 14019.9 11576.8 13924.6 11513.1 13825.4 11455.8 13722.6 11405.1 13616.8 11361.3 13508.3 11324.5 13397.6 11294.8 13285.2 11272.5 13171.6 11257.5 13057.3 11250 12942.7 11250 12828.4 11257.5 12714.8 11272.5 12602.4 11294.8 12491.7 11324.5 12383.2 11361.3 12277.4 11405.1 12174.6 11455.8 12075.4 11513.1 11980.1 11576.8 11889.2 11646.5 11803.1 11722.1 11722.1 11803.1 11646.5 11889.2 11576.8 11980.1 11513.1 12075.4 11455.8 12174.6 11405.1 12277.4 11361.3 12383.2 11324.5 12491.7 11294.8 12602.4 11272.5 12714.8 11257.5 12828.4 11250 12942.7 11250 13057.3 11257.5 13171.6 11272.5 13285.2 11294.8 13397.6 11324.5 13508.3 11361.3 13616.8 11405.1 13722.6 11455.8 13825.4 11513.1 13924.6 11576.8 14019.9 11646.5 14110.8 11722.1 14196.9 11803.1 14277.9 11889.2 14353.5 11980.1 14423.2 12075.4 14486.9 12174.6 14544.2 12277.4 14594.9 12383.2 14638.7 12491.7 14675.5 12602.4 14705.2 12714.8 14727.6 12828.4 14742.5 12942.7 14750 13057.3 14750 13171.6 14742.5 13285.2 14727.6 13397.6 14705.2 13508.3 14675.5 13616.8 14638.7 13722.6 14594.9 13825.4 14544.2 13924.6 14486.9 14019.9 14423.2 14110.8 14353.5 14196.9 14277.9 14277.9 14196.9 14353.5 14110.8 14423.2 14019.9 14486.9 13924.6 14544.2 13825.4 14594.9 13722.6 14638.7 13616.8 14675.5 13508.3 14705.2 13397.6 14727.6 13285.2 14742.5 13171.6 14750 13057.3 14750 12942.7 M 53750 12942.7 53742.5 12828.4 53727.6 12714.8 53705.2 12602.4 53675.5 12491.7 53638.7 12383.2 53594.9 12277.4 53544.2 12174.6 53486.9 12075.4 53423.2 11980.1 53353.5 11889.2 53277.9 11803.1 53196.9 11722.1 53110.8 11646.5 53019.9 11576.8 52924.6 11513.1 52825.4 11455.8 52722.6 11405.1 52616.8 11361.3 52508.3 11324.5 52397.6 11294.8 52285.2 11272.5 52171.6 11257.5 52057.3 11250 51942.7 11250 51828.4 11257.5 51714.8 11272.5 51602.4 11294.8 51491.7 11324.5 51383.2 11361.3 51277.4 11405.1 51174.6 11455.8 51075.4 11513.1 50980.1 11576.8 50889.2 11646.5 50803.1 11722.1 50722.1 11803.1 50646.5 11889.2 50576.8 11980.1 50513.1 12075.4 50455.8 12174.6 50405.1 12277.4 50361.3 12383.2 50324.5 12491.7 50294.8 12602.4 50272.5 12714.8 50257.5 12828.4 50250 12942.7 50250 13057.3 50257.5 13171.6 50272.5 13285.2 50294.8 13397.6 50324.5 13508.3 50361.3 13616.8 50405.1 13722.6 50455.8 13825.4 50513.1 13924.6 50576.8 14019.9 50646.5 14110.8 50722.1 14196.9 50803.1 14277.9 50889.2 14353.5 50980.1 14423.2 51075.4 14486.9 51174.6 14544.2 51277.4 14594.9 51383.2 14638.7 51491.7 14675.5 51602.4 14705.2 51714.8 14727.6 51828.4 14742.5 51942.7 14750 52057.3 14750 52171.6 14742.5 52285.2 14727.6 52397.6 14705.2 52508.3 14675.5 52616.8 14638.7 52722.6 14594.9 52825.4 14544.2 52924.6 14486.9 53019.9 14423.2 53110.8 14353.5 53196.9 14277.9 53277.9 14196.9 53353.5 14110.8 53423.2 14019.9 53486.9 13924.6 53544.2 13825.4 53594.9 13722.6 53638.7 13616.8 53675.5 13508.3 53705.2 13397.6 53727.6 13285.2 53742.5 13171.6 53750 13057.3 53750 12942.7 M 44750 55942.7 44742.5 55828.4 44727.6 55714.8 44705.2 55602.4 44675.5 55491.7 44638.7 55383.2 44594.9 55277.4 44544.2 55174.6 44486.9 55075.4 44423.2 54980.1 44353.5 54889.2 44277.9 54803.1 44196.9 54722.1 44110.8 54646.5 44019.9 54576.8 43924.6 54513.1 43825.4 54455.8 43722.6 54405.1 43616.8 54361.3 43508.3 54324.5 43397.6 54294.8 43285.2 54272.5 43171.6 54257.5 43057.3 54250 42942.7 54250 42828.4 54257.5 42714.8 54272.5 42602.4 54294.8 42491.7 54324.5 42383.2 54361.3 42277.4 54405.1 42174.6 54455.8 42075.4 54513.1 41980.1 54576.8 41889.2 54646.5 41803.1 54722.1 41722.1 54803.1 41646.5 54889.2 41576.8 54980.1 41513.1 55075.4 41455.8 55174.6 41405.1 55277.4 41361.3 55383.2 41324.5 55491.7 41294.8 55602.4 41272.5 55714.8 41257.5 55828.4 41250 55942.7 41250 56057.3 41257.5 56171.6 41272.5 56285.2 41294.8 56397.6 41324.5 56508.3 41361.3 56616.8 41405.1 56722.6 41455.8 56825.4 41513.1 56924.6 41576.8 57019.9 41646.5 57110.8 41722.1 57196.9 41803.1 57277.9 41889.2 57353.5 41980.1 57423.2 42075.4 57486.9 42174.6 57544.2 42277.4 57594.9 42383.2 57638.7 42491.7 57675.5 42602.4 57705.2 42714.8 57727.6 42828.4 57742.5 42942.7 57750 43057.3 57750 43171.6 57742.5 43285.2 57727.6 43397.6 57705.2 43508.3 57675.5 43616.8 57638.7 43722.6 57594.9 43825.4 57544.2 43924.6 57486.9 44019.9 57423.2 44110.8 57353.5 44196.9 57277.9 44277.9 57196.9 44353.5 57110.8 44423.2 57019.9 44486.9 56924.6 44544.2 56825.4 44594.9 56722.6 44638.7 56616.8 44675.5 56508.3 44705.2 56397.6 44727.6 56285.2 44742.5 56171.6 44750 56057.3 44750 55942.7" fill="none" stroke-width="254"/></g></svg>