<svg version="1.1" xmlns="http://www.w3.org/2000/svg" xmlns:xlink="http://www.w3.org/1999/xlink" stroke-linecap="round" stroke-linejoin="round" stroke-width="0" fill-rule="evenodd" width="57.5035mm" height="60.6129mm" viewBox="5610.8 885.6 57503.5 60612.9" id="FBwk-Bbmr_Y4hGCtjWe-"><defs><mask id="FBwk-Bbmr_Y4hGCtjWe-_clear-1" fill="#000" stroke="#000"><g><rect x="6321.4" y="1256.6" width="56415.4" height="59744.1" fill="#fff"/><path d="M 42601.4 53995.9 42601.4 53995.9 41864.8 54301 41301 54864.8 40995.9 55601.4 40995.9 56398.6 41301 57135.2 41864.8 57699 42601.4 58004.1 43398.6 58004.1 44135.2 57699 44699 57135.2 45004.1 56398.6 45004.1 55601.4 44699 54864.8 44135.2 54301 43398.6 53995.9 42601.4 53995.9"/></g></mask><mask id="FBwk-Bbmr_Y4hGCtjWe-_clear-2" fill="#000" stroke="#000"><g><rect x="6321.4" y="1256.6" width="56415.4" height="59744.1" fill="#fff"/><path d="M 12601.4 10995.9 12601.4 10995.9 11864.8 11301 11301 11864.8 10995.9 12601.4 10995.9 13398.6 11301 14135.2 11864.8 14699 12601.4 15004.1 13398.6 15004.1 14135.2 14699 14699 14135.2 15004.1 13398.6 15004.1 12601.4 14699 11864.8 14135.2 11301 13398.6 10995.9 12601.4 10995.9"/></g></mask><mask id="FBwk-Bbmr_Y4hGCtjWe-_clear-3" fill="#000" stroke="#000"><g><rect x="6321.4" y="1256.6" width="56415.4" height="59744.1" fill="#fff"/><path d="M 23236.6 10159.9 23236.6 10159.9 22769.8 10353.3 22412.5 10710.6 22219.1 11177.4 22219.1 11682.6 22412.5 12149.4 22769.8 12506.7 23236.6 12700.1 25265.8 12700.1 25732.6 12506.7 26089.9 12149.4 26283.3 11682.6 26283.3 11177.4 26089.9 10710.6 25732.6 10353.3 25265.8 10159.9 23236.6 10159.9"/></g></mask><mask id="FBwk-Bbmr_Y4hGCtjWe-_clear-4" fill="#000" stroke="#000"><g><rect x="6321.4" y="1256.6" width="56415.4" height="59744.1" fill="#fff"/><path d="M 29502.7 11683.9 29502.7 11683.9 29502.7 12446.1 30090.8 12446.1 30248.7 12421.1 30400.8 12371.6 30543.3 12299 30672.7 12205 30785.8 12091.9 30879.8 11962.5 30952.4 11820 30996.7 11683.9 29502.7 11683.9"/></g></mask><mask id="FBwk-Bbmr_Y4hGCtjWe-_clear-5" fill="#000" stroke="#000"><g><rect x="6321.4" y="1256.6" width="56415.4" height="59744.1" fill="#fff"/><path d="M 18002.7 11683.9 18002.7 11683.9 18002.7 12446.1 18590.8 12446.1 18748.7 12421.1 18900.8 12371.6 19043.3 12299 19172.7 12205 19285.8 12091.9 19379.8 11962.5 19452.4 11820 19496.7 11683.9 18002.7 11683.9"/></g></mask><mask id="FBwk-Bbmr_Y4hGCtjWe-_clear-6" fill="#000" stroke="#000"><g><rect x="6321.4" y="1256.6" width="56415.4" height="59744.1" fill="#fff"/><path d="M 27500.9 11683.9 27500.9 11683.9 27545.2 11820 27617.8 11962.5 27711.8 12091.9 27824.9 12205 27954.3 12299 28096.8 12371.6 28248.9 12421.1 28406.8 12446.1 28994.9 12446.1 28994.9 11683.9 27500.9 11683.9"/></g></mask><mask id="FBwk-Bbmr_Y4hGCtjWe-_clear-7" fill="#000" stroke="#000"><g><rect x="6321.4" y="1256.6" width="56415.4" height="59744.1" fill="#fff"/><path d="M 16000.9 11683.9 16000.9 11683.9 16045.2 11820 16117.8 11962.5 16211.8 12091.9 16324.9 12205 16454.3 12299 16596.8 12371.6 16748.9 12421.1 16906.8 12446.1 17494.9 12446.1 17494.9 11683.9 16000.9 11683.9"/></g></mask><mask id="FBwk-Bbmr_Y4hGCtjWe-_clear-8" fill="#000" stroke="#000"><g><rect x="6321.4" y="1256.6" width="56415.4" height="59744.1" fill="#fff"/><path d="M 29502.7 10413.9 29502.7 10413.9 29502.7 11176.1 30996.7 11176.1 30952.4 11040 30879.8 10897.5 30785.8 10768.1 30672.7 10655 30543.3 10561 30400.8 10488.4 30248.7 10438.9 30090.8 10413.9 29502.7 10413.9"/></g></mask><mask id="FBwk-Bbmr_Y4hGCtjWe-_clear-9" fill="#000" stroke="#000"><g><rect x="6321.4" y="1256.6" width="56415.4" height="59744.1" fill="#fff"/><path d="M 18002.7 10413.9 18002.7 10413.9 18002.7 11176.1 19496.7 11176.1 19452.4 11040 19379.8 10897.5 19285.8 10768.1 19172.7 10655 19043.3 10561 18900.8 10488.4 18748.7 10438.9 18590.8 10413.9 18002.7 10413.9"/></g></mask><mask id="FBwk-Bbmr_Y4hGCtjWe-_clear-10" fill="#000" stroke="#000"><g><rect x="6321.4" y="1256.6" width="56415.4" height="59744.1" fill="#fff"/><path d="M 28406.8 10413.9 28406.8 10413.9 28248.9 10438.9 28096.8 10488.4 27954.3 10561 27824.9 10655 27711.8 10768.1 27617.8 10897.5 27545.2 11040 27500.9 11176.1 28994.9 11176.1 28994.9 10413.9 28406.8 10413.9"/></g></mask><mask id="FBwk-Bbmr_Y4hGCtjWe-_clear-11" fill="#000" stroke="#000"><g><rect x="6321.4" y="1256.6" width="56415.4" height="59744.1" fill="#fff"/><path d="M 16906.8 10413.9 16906.8 10413.9 16748.9 10438.9 16596.8 10488.4 16454.3 10561 16324.9 10655 16211.8 10768.1 16117.8 10897.5 16045.2 11040 16000.9 11176.1 17494.9 11176.1 17494.9 10413.9 16906.8 10413.9"/></g></mask><mask id="FBwk-Bbmr_Y4hGCtjWe-_clear-12" fill="#000" stroke="#000"><g><rect x="6321.4" y="1256.6" width="56415.4" height="59744.1" fill="#fff"/><path d="M 53543.1 42113.1 53543.1 42113.1 53543.1 43464.1 53554.2 43462.4 53691 43417.9 53819.3 43352.5 53935.7 43267.9 54037.5 43166.1 54122.1 43049.7 54187.5 42921.4 54232 42784.6 54254.5 42642.4 54254.5 42113.1 53543.1 42113.1"/></g></mask><mask id="FBwk-Bbmr_Y4hGCtjWe-_clear-13" fill="#000" stroke="#000"><g><rect x="6321.4" y="1256.6" width="56415.4" height="59744.1" fill="#fff"/><path d="M 53543.1 26873.1 53543.1 26873.1 53543.1 28224.1 53554.2 28222.4 53691 28177.9 53819.3 28112.5 53935.7 28027.9 54037.5 27926.1 54122.1 27809.7 54187.5 27681.4 54232 27544.6 54254.5 27402.4 54254.5 26873.1 53543.1 26873.1"/></g></mask><mask id="FBwk-Bbmr_Y4hGCtjWe-_clear-14" fill="#000" stroke="#000"><g><rect x="6321.4" y="1256.6" width="56415.4" height="59744.1" fill="#fff"/><path d="M 42113.1 6553.1 42113.1 6553.1 42113.1 7264.5 42642.4 7264.5 42784.6 7242 42921.4 7197.5 43049.7 7132.1 43166.1 7047.5 43267.9 6945.7 43352.5 6829.3 43417.9 6701 43462.4 6564.2 43464.1 6553.1 42113.1 6553.1"/></g></mask><mask id="FBwk-Bbmr_Y4hGCtjWe-_clear-15" fill="#000" stroke="#000"><g><rect x="6321.4" y="1256.6" width="56415.4" height="59744.1" fill="#fff"/><path d="M 53543.1 26466.9 53543.1 26466.9 54254.5 26466.9 54254.5 25937.6 54232 25795.4 54187.5 25658.6 54122.1 25530.3 54037.5 25413.9 53935.7 25312.1 53819.3 25227.5 53691 25162.1 53554.2 25117.6 53543.1 25115.9 53543.1 26466.9"/></g></mask><mask id="FBwk-Bbmr_Y4hGCtjWe-_clear-16" fill="#000" stroke="#000"><g><rect x="6321.4" y="1256.6" width="56415.4" height="59744.1" fill="#fff"/><path d="M 40355.9 6553.1 40355.9 6553.1 40357.6 6564.2 40402.1 6701 40467.5 6829.3 40552.1 6945.7 40653.9 7047.5 40770.3 7132.1 40898.6 7197.5 41035.4 7242 41177.6 7264.5 41706.9 7264.5 41706.9 6553.1 40355.9 6553.1"/></g></mask><mask id="FBwk-Bbmr_Y4hGCtjWe-_clear-17" fill="#000" stroke="#000"><g><rect x="6321.4" y="1256.6" width="56415.4" height="59744.1" fill="#fff"/><path d="M 52425.5 42113.1 52425.5 42113.1 52425.5 42642.4 52448 42784.6 52492.5 42921.4 52557.9 43049.7 52642.5 43166.1 52744.3 43267.9 52860.7 43352.5 52989 43417.9 53125.8 43462.4 53136.9 43464.1 53136.9 42113.1 52425.5 42113.1"/></g></mask><mask id="FBwk-Bbmr_Y4hGCtjWe-_clear-18" fill="#000" stroke="#000"><g><rect x="6321.4" y="1256.6" width="56415.4" height="59744.1" fill="#fff"/><path d="M 52425.5 26873.1 52425.5 26873.1 52425.5 27402.4 52448 27544.6 52492.5 27681.4 52557.9 27809.7 52642.5 27926.1 52744.3 28027.9 52860.7 28112.5 52989 28177.9 53125.8 28222.4 53136.9 28224.1 53136.9 26873.1 52425.5 26873.1"/></g></mask><mask id="FBwk-Bbmr_Y4hGCtjWe-_clear-19" fill="#000" stroke="#000"><g><rect x="6321.4" y="1256.6" width="56415.4" height="59744.1" fill="#fff"/><path d="M 42113.1 5435.5 42113.1 5435.5 42113.1 6146.9 43464.1 6146.9 43462.4 6135.8 43417.9 5999 43352.5 5870.7 43267.9 5754.3 43166.1 5652.5 43049.7 5567.9 42921.4 5502.5 42784.6 5458 42642.4 5435.5 42113.1 5435.5"/></g></mask><mask id="FBwk-Bbmr_Y4hGCtjWe-_clear-20" fill="#000" stroke="#000"><g><rect x="6321.4" y="1256.6" width="56415.4" height="59744.1" fill="#fff"/><path d="M 53125.8 25117.6 53125.8 25117.6 52989 25162.1 52860.7 25227.5 52744.3 25312.1 52642.5 25413.9 52557.9 25530.3 52492.5 25658.6 52448 25795.4 52425.5 25937.6 52425.5 26466.9 53136.9 26466.9 53136.9 25115.9 53125.8 25117.6"/></g></mask><mask id="FBwk-Bbmr_Y4hGCtjWe-_clear-21" fill="#000" stroke="#000"><g><rect x="6321.4" y="1256.6" width="56415.4" height="59744.1" fill="#fff"/><path d="M 41177.6 5435.5 41177.6 5435.5 41035.4 5458 40898.6 5502.5 40770.3 5567.9 40653.9 5652.5 40552.1 5754.3 40467.5 5870.7 40402.1 5999 40357.6 6135.8 40355.9 6146.9 41706.9 6146.9 41706.9 5435.5 41177.6 5435.5"/></g></mask><mask id="FBwk-Bbmr_Y4hGCtjWe-_clear-22" fill="#000" stroke="#000"><g><rect x="6321.4" y="1256.6" width="56415.4" height="59744.1" fill="#fff"/><path d="M 39859.1 38925.4 39859.1 38925.4 39859.1 39049.4 39876.4 39114 39909.9 39172 39957.2 39219.3 40015.1 39252.7 40079.8 39270 40799 39270 40799 38925.4 39859.1 38925.4"/></g></mask><rect x="-750" y="-650" width="1500" height="1300" id="FBwk-Bbmr_Y4hGCtjWe-_pad-11"/><rect x="-650" y="-750" width="1300" height="1500" id="FBwk-Bbmr_Y4hGCtjWe-_pad-12"/><rect x="-876.2" y="-280.95" width="1752.4" height="561.9" id="FBwk-Bbmr_Y4hGCtjWe-_pad-13"/><circle cx="0" cy="0" r="1000" id="FBwk-Bbmr_Y4hGCtjWe-_pad-15"/></defs><g transform="translate(0,62384.1) scale(1,-1)" fill="currentColor" stroke="currentColor"><g mask="url(#FBwk-Bbmr_Y4hGCtjWe-_clear-22)"><g mask="url(#FBwk-Bbmr_Y4hGCtjWe-_clear-21)"><g mask="url(#FBwk-Bbmr_Y4hGCtjWe-_clear-20)"><g mask="url(#FBwk-Bbmr_Y4hGCtjWe-_clear-19)"><g mask="url(#FBwk-Bbmr_Y4hGCtjWe-_clear-18)"><g mask="url(#FBwk-Bbmr_Y4hGCtjWe-_clear-17)"><g mask="url(#FBwk-Bbmr_Y4hGCtjWe-_clear-16)"><g mask="url(#FBwk-Bbmr_Y4hGCtjWe-_clear-15)"><g mask="url(#FBwk-Bbmr_Y4hGCtjWe-_clear-14)"><g mask="url(#FBwk-Bbmr_Y4hGCtjWe-_clear-13)"><g mask="url(#FBwk-Bbmr_Y4hGCtjWe-_clear-12)"><g mask="url(#FBwk-Bbmr_Y4hGCtjWe-_clear-11)"><g mask="url(#FBwk-Bbmr_Y4hGCtjWe-_clear-10)"><g mask="url(#FBwk-Bbmr_Y4hGCtjWe-_clear-9)"><g mask="url(#FBwk-Bbmr_Y4hGCtjWe-_clear-8)"><g mask="url(#FBwk-Bbmr_Y4hGCtjWe-_clear-7)"><g mask="url(#FBwk-Bbmr_Y4hGCtjWe-_clear-6)"><g mask="url(#FBwk-Bbmr_Y4hGCtjWe-_clear-5)"><g mask="url(#FBwk-Bbmr_Y4hGCtjWe-_clear-4)"><g mask="url(#FBwk-Bbmr_Y4hGCtjWe-_clear-3)"><g mask="url(#FBwk-Bbmr_Y4hGCtjWe-_clear-2)"><g mask="url(#FBwk-Bbmr_Y4hGCtjWe-_clear-1)"><path d="M 35469.9 1400.5 35469.9 1400.5 35483.1 1402.4 35491 1402.6 38796.3 1917 38809.2 1920.3 38817 1921.4 42044.6 2799.8 42057.1 2804.6 42064.7 2806.5 45174.8 4038.2 45186.7 4044.4 45194 4047.1 48148 5616.8 48159.1 5624.2 48166.1 5627.8 50927.3 7516 50937.5 7524.6 50944.1 7528.9 53478.4 9712.2 53487.6 9721.9 53493.6 9726.9 53995 10267 54171.8 10457.4 54348.6 10647.8 54525.4 10838.2 54525.4 10838.3 54702.2 11028.7 54879 11219.1 55055.8 11409.5 55232.6 11599.9 55232.6 11600 55409.4 11790.4 55586.2 11980.8 55763 12171.2 55769.6 12178.4 55777.6 12189 55783.1 12194.7 57772.6 14883.8 57779.4 14895.4 57784.2 14901.6 59462.5 17795.1 59468 17807.3 59472.1 17814 60818.4 20876.2 60822.5 20888.9 60825.9 20896 61823.6 24088.9 61826.3 24101.9 61828.8 24109.4 62465.6 27393.3 62466.7 27406.6 62468.4 27414.3 62736.3 30748.6 62736 30762 62736.8 30769.8 62632.5 34113.3 62630.8 34126.5 62630.7 34134.4 62485.8 35144.3 62483.5 35153.3 62482.3 35162.5 62478.8 35172.1 62476.3 35182.1 62472.3 35190.5 62469.2 35199.2 62463.8 35208 62459.4 35217.2 62453.7 35224.6 62448.9 35232.5 62441.9 35240 62435.6 35248.1 62428.6 35254.2 62422.2 35260.9 62413.8 35266.8 62406.1 35273.5 62397.9 35278 62390.4 35283.4 62381 35287.4 62372 35292.4 62363.1 35295.2 62354.6 35298.8 62344.5 35300.9 62334.7 35304 62325.5 35304.8 62316.4 35306.7 62306.1 35306.7 62295.9 35307.7 62286.7 35306.7 62277.4 35306.6 62267.4 35304.5 62257.2 35303.4 62248.4 35300.5 62239.3 35298.6 62229.9 35294.5 62220.1 35291.3 62212.1 35286.7 62203.6 35283 62197.4 35278.4 62186.3 35272 62169.5 35257.2 62162.6 35251.9 61870.3 34959.5 61316 34729.9 60982.4 34729.9 60979.1 34729.6 60975.7 34729.8 60959.7 34727.6 60943.6 34725.9 60940.4 34724.9 60937.1 34724.5 60921.9 34719 60906.4 34714.1 60903.5 34712.5 60900.4 34711.4 60886.6 34703 60872.5 34695 60870 34692.8 60867.1 34691.1 60855.3 34680 60843.1 34669.4 60841.1 34666.7 60838.7 34664.5 60829.3 34651.2 60819.6 34638.3 60818.2 34635.3 60816.2 34632.6 60809.8 34617.7 60802.9 34603.1 60802.1 34599.9 60800.8 34596.8 60797.5 34580.9 60793.7 34565.2 60793.6 34561.9 60792.9 34558.6 60792.9 34542.4 60792.4 34526.2 60793 34523 60793 34519.6 60796.3 34503.8 60799.1 34487.8 60800.3 34484.8 60801 34481.5 60807.5 34466.6 60813.4 34451.6 60815.3 34448.8 60816.6 34445.8 60821.7 34439.1 60834.9 34419.1 60843.3 34410.7 60847.7 34404.9 60885.7 34366.9 61141.1 34111.5 61264.9 33812.7 61264.9 31146.3 61141.1 30847.5 60885.7 30592.1 59958.9 29665.3 59703.5 29409.9 59404.7 29286.1 59401.1 29286.1 59392.9 29285.3 59384.6 29285.4 59373.5 29283.3 59362.4 29282.1 59354.4 29279.6 59346.3 29278.1 59335.9 29273.7 59325.2 29270.3 59318 29266.3 59310.3 29263.1 59301 29256.7 59291.2 29251.2 59285 29245.8 59278.1 29241.1 59270.3 29233 59261.9 29225.6 59256.9 29219 59251.1 29213 59247 29205.9 59238.3 29194.5 59229.7 29176.3 59225.2 29168.6 59180.7 29061.2 59037.8 28918.3 58851.1 28840.9 58784 28840.9 58782.3 28840.8 58780.6 28840.9 58762.9 28838.8 58745.2 28836.9 58743.6 28836.4 58741.9 28836.2 58725.1 28830.5 58708 28825.1 58706.6 28824.3 58705 28823.8 58689.7 28814.8 58674.1 28806 58672.8 28804.9 58671.4 28804.1 58658.2 28792.2 58644.7 28780.4 58643.7 28779 58642.5 28777.9 58632 28763.6 58621.2 28749.3 58620.5 28747.8 58619.5 28746.5 58612.1 28730.3 58604.5 28714.1 58604.1 28712.5 58603.4 28711 58599.5 28693.4 58595.3 28676.2 58595.2 28674.5 58594.9 28672.9 58594.6 28655.1 58594 28637.2 58594.3 28635.6 58594.3 28633.9 58597.6 28616.4 58600.7 28598.8 58601.3 28597.3 58601.6 28595.7 58608.5 28579.2 58615 28562.6 58615.9 28561.2 58616.6 28559.7 58626.7 28545 58636.5 28530.1 58637.7 28528.9 58638.6 28527.5 58651.4 28515.2 58664.1 28502.5 58665.5 28501.6 58666.7 28500.5 58672 28497.4 58696.7 28481.2 58705.7 28477.7 58711.1 28474.6 59081.9 28321 59410.6 27992.3 59588.5 27562.8 59588.5 25777.2 59450.6 25444.2 59447.3 25433.1 59443 25422.3 59442.2 25416.1 59439.4 25406.9 59436.9 25377.5 59436.1 25371.4 59436.1 23721.3 59436.6 23716 59436.5 23713.4 59437.1 23710.1 59437.1 23701.5 59439.1 23692.1 59440.1 23682.6 59443.1 23673.1 59445.1 23663.3 59449 23654.5 59451.9 23645.4 59456.8 23636.7 59460.7 23627.6 59465.2 23621.8 59471 23611.4 59486.8 23593.3 59491.8 23586.7 59600.7 23477.8 59678.1 23291.1 59678.1 21788.9 59625.9 21662.9 59623 21653.3 59619.2 21644.1 59617.4 21634.7 59614.7 21625.5 59613.9 21615.6 59612 21605.8 59612.2 21596.2 59611.4 21586.7 59612.6 21576.8 59612.8 21566.8 59614.6 21559.8 59616 21548 59623.7 21525.2 59625.9 21517.1 59678.1 21391.1 59678.1 19888.9 59600.7 19702.2 59457.8 19559.3 59262.5 19478.4 59253.7 19473.6 59244.5 19469.8 59236.6 19464.4 59228.2 19459.8 59220.6 19453.4 59212.3 19447.8 59205.7 19440.9 59198.4 19434.7 59192.2 19426.9 59185.3 19419.7 59181.6 19413.4 59174.3 19404.1 59163.6 19382.5 59159.4 19375.3 59109.1 19253.9 55269.1 15413.9 54970.4 15290.1 52665.4 15290.1 52663.7 15290 52662.1 15290.1 52644.3 15288 52626.6 15286.1 52625 15285.6 52623.4 15285.4 52606.5 15279.7 52589.4 15274.3 52588 15273.5 52586.4 15273 52571.1 15264 52555.5 15255.2 52554.2 15254.1 52552.8 15253.3 52539.6 15241.4 52526.1 15229.6 52525.1 15228.2 52523.9 15227.1 52513.4 15212.8 52502.6 15198.5 52501.9 15197 52500.9 15195.7 52493.5 15179.5 52485.9 15163.3 52485.5 15161.7 52484.8 15160.2 52480.9 15142.7 52476.7 15125.4 52476.6 15123.7 52476.3 15122.1 52476 15104.3 52475.4 15086.4 52475.7 15084.8 52475.7 15083.1 52479 15065.6 52482.1 15048 52482.7 15046.5 52483 15044.9 52489.9 15028.4 52496.4 15011.8 52497.4 15010.4 52498 15008.9 52508 14994.2 52517.9 14979.3 52519.1 14978.1 52520 14976.7 52532.8 14964.4 52545.5 14951.7 52546.9 14950.8 52548.1 14949.7 52553.4 14946.6 52578.1 14930.4 52587.1 14926.9 52592.5 14923.8 53135.2 14699 53699 14135.2 54004.1 13398.6 54004.1 12601.4 53699 11864.8 53135.2 11301 52398.6 10995.9 51601.4 10995.9 50864.8 11301 50301 11864.8 49995.9 12601.4 49995.9 13282.6 49995.6 13285.9 49995.8 13289.3 49993.6 13305.3 49991.9 13321.4 49990.9 13324.6 49990.5 13327.9 49985 13343.1 49980.1 13358.6 49978.5 13361.4 49977.4 13364.6 49968.9 13378.4 49961 13392.5 49958.8 13395 49957.1 13397.9 49946 13409.7 49935.4 13421.9 49932.7 13423.9 49930.5 13426.3 49917.2 13435.6 49904.3 13445.4 49901.3 13446.8 49898.6 13448.8 49883.7 13455.2 49869.1 13462.1 49865.9 13462.9 49862.8 13464.2 49846.9 13467.5 49831.2 13471.3 49827.9 13471.4 49824.6 13472.1 49808.4 13472.1 49792.2 13472.6 49789 13472 49785.6 13472 49769.8 13468.7 49753.8 13465.9 49750.8 13464.7 49747.5 13464 49732.6 13457.5 49717.6 13451.6 49714.8 13449.7 49711.8 13448.4 49705.1 13443.3 49685.1 13430.1 49676.7 13421.7 49670.8 13417.3 49534.4 13280.9 49235.7 13157.1 45086.7 13157.1 45076.8 13156.1 45066.9 13156.1 45057.5 13154.1 45048 13153.1 45038.5 13150.1 45028.7 13148.1 45020 13144.2 45010.8 13141.3 45002.1 13136.4 44993 13132.5 44987.2 13128 44976.8 13122.2 44958.7 13106.4 44952.1 13101.4 44542.3 12691.5 43988 12461.9 43650.7 12461.9 43647.4 12461.6 43644 12461.8 43628 12459.6 43611.9 12457.9 43608.7 12456.9 43605.4 12456.5 43590.2 12451 43574.7 12446.1 43571.8 12444.5 43568.7 12443.4 43554.9 12435 43540.8 12427 43538.3 12424.8 43535.4 12423.1 43523.6 12412 43511.4 12401.4 43509.4 12398.7 43507 12396.5 43497.6 12383.2 43487.9 12370.3 43486.5 12367.3 43484.5 12364.6 43478.1 12349.7 43471.2 12335.1 43470.4 12331.8 43469.1 12328.8 43465.8 12313 43462 12297.2 43461.9 12293.9 43461.2 12290.6 43461.2 12274.4 43460.7 12258.2 43461.3 12255 43461.3 12251.6 43464.6 12235.7 43467.4 12219.8 43468.6 12216.8 43469.3 12213.5 43475.8 12198.6 43481.7 12183.6 43483.6 12180.8 43484.9 12177.8 43490 12171.1 43503.2 12151.1 43511.6 12142.7 43516 12136.8 43561 12091.9 43738.9 11662.4 43738.9 11197.6 43561 10768.1 43232.3 10439.4 42982.4 10335.9 42979.5 10334.3 42976.4 10333.3 42962.4 10325.1 42948.1 10317.4 42945.6 10315.3 42942.7 10313.6 42930.7 10302.7 42918.3 10292.3 42916.3 10289.7 42913.8 10287.4 42904.3 10274.4 42894.3 10261.6 42892.8 10258.6 42890.8 10256 42884.2 10241.2 42877 10226.7 42876.1 10223.5 42874.7 10220.5 42871.2 10204.7 42867.1 10189 42866.9 10185.7 42866.2 10182.4 42866 10166.3 42865.2 10150.1 42865.7 10146.8 42865.6 10143.4 42868.7 10127.6 42871.2 10111.5 42872.3 10108.4 42873 10105.2 42879.2 10090.2 42884.9 10075.1 42886.7 10072.3 42887.9 10069.2 42897.1 10055.8 42905.8 10042.1 42908.1 10039.8 42909.9 10037 42921.6 10025.8 42932.9 10014.2 42935.6 10012.3 42938 10010 42945.2 10005.8 42965.1 9992.3 42976.1 9987.8 42982.4 9984.1 43232.3 9880.6 43561 9551.9 43738.9 9122.4 43738.9 8657.6 43561 8228.1 43232.3 7899.4 42802.8 7721.5 41017.2 7721.5 40587.7 7899.4 40259 8228.1 40081.1 8657.6 40081.1 9122.4 40259 9551.9 40304 9596.8 40306.1 9599.4 40308.6 9601.6 40318.4 9614.5 40328.6 9627.1 40330.1 9630 40332.1 9632.7 40339 9647.3 40346.5 9661.7 40347.4 9664.9 40348.8 9667.9 40352.6 9683.6 40357 9699.2 40357.2 9702.6 40358 9705.8 40358.5 9722 40359.6 9738.1 40359.2 9741.4 40359.3 9744.8 40356.5 9760.7 40354.3 9776.7 40353.2 9779.9 40352.6 9783.2 40346.7 9798.2 40341.2 9813.5 40339.5 9816.3 40338.3 9819.4 40329.4 9832.9 40320.9 9846.7 40318.7 9849.2 40316.8 9852 40305.3 9863.4 40294.3 9875.2 40291.6 9877.1 40289.2 9879.5 40275.6 9888.3 40262.4 9897.6 40259.4 9898.9 40256.6 9900.8 40241.5 9906.7 40226.6 9913.1 40223.4 9913.8 40220.3 9915 40212 9916.1 40188.5 9921 40176.6 9920.9 40169.3 9921.9 39832 9921.9 39277.7 10151.5 39071.1 10358.2 39063.4 10364.4 39056.3 10371.5 39048.3 10376.7 39040.9 10382.7 39032 10387.3 39023.7 10392.8 39014.8 10396.3 39006.3 10400.7 38996.7 10403.4 38987.4 10407 38980.2 10408 38968.7 10411.2 38944.7 10412.8 38936.5 10413.9 37372.2 10413.9 37362.3 10412.9 37352.3 10412.9 37342.9 10410.9 37333.4 10409.9 37323.9 10406.9 37314.2 10404.9 37305.4 10401 37296.2 10398.1 37287.6 10393.2 37278.4 10389.3 37272.6 10384.8 37262.3 10379 37244.1 10363.2 37237.5 10358.2 37232.6 10353.3 36765.8 10159.9 34736.6 10159.9 34269.8 10353.3 33912.5 10710.6 33719.1 11177.4 33719.1 11682.6 33912.5 12149.4 34269.8 12506.7 34736.6 12700.1 36765.8 12700.1 37232.6 12506.7 37237.5 12501.8 37245.2 12495.6 37252.3 12488.5 37260.3 12483.3 37267.7 12477.3 37276.6 12472.7 37284.9 12467.2 37293.9 12463.7 37302.4 12459.3 37311.9 12456.6 37321.2 12453 37328.5 12452 37339.9 12448.8 37363.9 12447.2 37372.2 12446.1 38936.5 12446.1 38946.4 12447.1 38956.3 12447.1 38965.7 12449.1 38975.2 12450.1 38984.7 12453.1 38994.5 12455.1 39003.2 12459 39012.4 12461.9 39021.1 12466.8 39030.2 12470.7 39036 12475.2 39046.4 12481 39064.5 12496.8 39071.1 12501.8 39277.7 12708.5 39832 12938.1 40169.3 12938.1 40172.6 12938.4 40176 12938.2 40192 12940.4 40208.1 12942.1 40211.3 12943.1 40214.6 12943.5 40229.8 12949 40245.3 12953.9 40248.2 12955.5 40251.3 12956.6 40265.1 12965 40279.2 12973 40281.7 12975.2 40284.6 12976.9 40296.4 12988 40308.6 12998.6 40310.6 13001.3 40313 13003.5 40322.4 13016.8 40332.1 13029.7 40333.5 13032.7 40335.5 13035.4 40341.9 13050.3 40348.8 13064.9 40349.6 13068.2 40350.9 13071.2 40354.2 13087 40358 13102.8 40358.1 13106.1 40358.8 13109.4 40358.8 13125.6 40359.3 13141.8 40358.7 13145 40358.7 13148.4 40355.4 13164.3 40352.6 13180.2 40351.4 13183.2 40350.7 13186.5 40344.2 13201.4 40338.3 13216.4 40336.4 13219.2 40335.1 13222.2 40330 13228.9 40316.8 13248.9 40308.4 13257.3 40304 13263.2 40259 13308.1 40081.1 13737.6 40081.1 14202.4 40259 14631.9 40587.7 14960.6 40837.6 15064.1 40840.5 15065.7 40843.6 15066.7 40857.6 15074.9 40871.9 15082.6 40874.4 15084.7 40877.3 15086.4 40889.3 15097.3 40901.7 15107.7 40903.7 15110.3 40906.2 15112.6 40915.8 15125.7 40925.7 15138.4 40927.2 15141.3 40929.2 15144 40935.9 15158.8 40943 15173.3 40943.9 15176.5 40945.3 15179.6 40948.8 15195.3 40952.9 15211 40953.1 15214.3 40953.8 15217.6 40954 15233.7 40954.8 15249.9 40954.3 15253.2 40954.4 15256.6 40951.3 15272.4 40948.8 15288.5 40947.7 15291.6 40947 15294.8 40940.8 15309.8 40935.1 15324.9 40933.3 15327.8 40932.1 15330.8 40922.9 15344.2 40914.2 15357.9 40911.9 15360.3 40910.1 15363 40898.4 15374.2 40887.1 15385.9 40884.4 15387.7 40882 15390 40874.8 15394.2 40854.9 15407.7 40843.9 15412.3 40837.6 15415.9 40587.7 15519.4 40259 15848.1 40081.1 16277.6 40081.1 16742.4 40259 17171.9 40587.7 17500.6 40837.6 17604.1 40840.5 17605.7 40843.6 17606.7 40857.6 17614.9 40871.9 17622.6 40874.4 17624.7 40877.3 17626.4 40889.3 17637.3 40901.7 17647.7 40903.7 17650.3 40906.2 17652.6 40915.8 17665.7 40925.7 17678.4 40927.2 17681.3 40929.2 17684 40935.9 17698.8 40943 17713.3 40943.9 17716.5 40945.3 17719.6 40948.8 17735.3 40952.9 17751 40953.1 17754.3 40953.8 17757.6 40954 17773.7 40954.8 17789.9 40954.3 17793.2 40954.4 17796.6 40951.3 17812.4 40948.8 17828.5 40947.7 17831.6 40947 17834.8 40940.8 17849.8 40935.1 17864.9 40933.3 17867.8 40932.1 17870.8 40922.9 17884.2 40914.2 17897.9 40911.9 17900.3 40910.1 17903 40898.4 17914.2 40887.1 17925.9 40884.4 17927.7 40882 17930 40874.8 17934.2 40854.9 17947.7 40843.9 17952.3 40837.6 17955.9 40587.7 18059.4 40259 18388.1 40081.1 18817.6 40081.1 19282.4 40259 19711.9 40587.7 20040.6 40837.6 20144.1 40840.5 20145.7 40843.6 20146.7 40857.6 20154.9 40871.9 20162.6 40874.4 20164.7 40877.3 20166.4 40889.3 20177.3 40901.7 20187.7 40903.7 20190.3 40906.2 20192.6 40915.8 20205.7 40925.7 20218.4 40927.2 20221.3 40929.2 20224 40935.9 20238.8 40943 20253.3 40943.9 20256.5 40945.3 20259.6 40948.8 20275.3 40952.9 20291 40953.1 20294.3 40953.8 20297.6 40954 20313.7 40954.8 20329.9 40954.3 20333.2 40954.4 20336.6 40951.3 20352.4 40948.8 20368.5 40947.7 20371.6 40947 20374.8 40940.8 20389.8 40935.1 20404.9 40933.3 20407.8 40932.1 20410.8 40922.9 20424.2 40914.2 20437.9 40911.9 20440.3 40910.1 20443 40898.4 20454.2 40887.1 20465.9 40884.4 20467.7 40882 20470 40874.8 20474.2 40854.9 20487.7 40843.9 20492.3 40837.6 20495.9 40587.7 20599.4 40259 20928.1 40081.1 21357.6 40081.1 21822.4 40259 22251.9 40587.7 22580.6 40837.6 22684.1 40840.5 22685.7 40843.6 22686.7 40857.6 22694.9 40871.9 22702.6 40874.4 22704.7 40877.3 22706.4 40889.3 22717.3 40901.7 22727.7 40903.7 22730.3 40906.2 22732.6 40915.8 22745.7 40925.7 22758.4 40927.2 22761.3 40929.2 22764 40935.9 22778.8 40943 22793.3 40943.9 22796.5 40945.3 22799.6 40948.8 22815.3 40952.9 22831 40953.1 22834.3 40953.8 22837.6 40954 22853.7 40954.8 22869.9 40954.3 22873.2 40954.4 22876.6 40951.3 22892.4 40948.8 22908.5 40947.7 22911.6 40947 22914.8 40940.8 22929.8 40935.1 22944.9 40933.3 22947.8 40932.1 22950.8 40922.9 22964.2 40914.2 22977.9 40911.9 22980.3 40910.1 22983 40898.4 22994.2 40887.1 23005.9 40884.4 23007.7 40882 23010 40874.8 23014.2 40854.9 23027.7 40843.9 23032.3 40837.6 23035.9 40587.7 23139.4 40259 23468.1 40081.1 23897.6 40081.1 24362.4 40259 24791.9 40292 24824.8 40294.1 24827.4 40296.6 24829.6 40306.4 24842.5 40316.6 24855.1 40318.1 24858 40320.1 24860.7 40327.1 24875.4 40334.5 24889.7 40335.4 24892.9 40336.8 24895.9 40340.6 24911.6 40345 24927.2 40345.2 24930.6 40346 24933.8 40346.5 24950 40347.6 24966.1 40347.2 24969.4 40347.3 24972.8 40344.5 24988.7 40342.3 25004.7 40341.2 25007.9 40340.6 25011.2 40334.7 25026.2 40329.2 25041.5 40327.5 25044.3 40326.3 25047.4 40317.4 25060.9 40308.9 25074.7 40306.7 25077.2 40304.8 25080 40293.3 25091.4 40282.3 25103.2 40279.6 25105.1 40277.2 25107.5 40263.6 25116.3 40250.4 25125.6 40247.4 25126.9 40244.6 25128.8 40229.5 25134.7 40214.6 25141.1 40211.4 25141.8 40208.3 25143 40200 25144.1 40176.5 25149 40164.6 25148.9 40157.3 25149.9 39644 25149.9 39177.4 25343.2 39172.6 25344.6 39168.1 25346.8 39153.9 25350.2 39140 25354.4 39135.1 25354.8 39130.2 25356 39115.7 25356.5 39101.2 25357.7 39096.2 25357.1 39091.2 25357.3 39076.9 25354.8 39062.5 25353 39057.8 25351.4 39052.8 25350.6 39039.3 25345.2 39025.5 25340.6 39021.2 25338.1 39016.6 25336.2 39004.5 25328.2 38991.9 25320.9 38988.2 25317.5 38984 25314.8 38973.8 25304.5 38963 25294.7 38960.1 25290.7 38956.5 25287.2 38948.6 25275 38940 25263.2 38938 25258.7 38935.2 25254.5 38929.9 25241 38923.9 25227.7 38922.8 25222.9 38921 25218.2 38919.8 25209.4 38915.4 25189.7 38915.2 25175.4 38914.1 25167.3 38914.1 16764.8 38765.2 16615.9 6511.5 16615.9 6493.8 16614.1 6476 16612.6 6474.4 16612.1 6472.8 16611.9 6455.7 16606.5 6438.7 16601.4 6437.2 16600.6 6435.6 16600.1 6420 16591.4 6404.4 16582.9 6403.1 16581.8 6401.6 16581 6388.2 16569.3 6374.5 16557.8 6373.5 16556.5 6372.3 16555.4 6361.5 16541.2 6350.5 16527.1 6349.7 16525.6 6348.7 16524.3 6341.1 16508.2 6333.2 16492.2 6332.7 16490.6 6332 16489.1 6327.8 16471.8 6323.3 16454.5 6323.2 16452.8 6322.8 16451.2 6322.3 16433.4 6321.4 16415.6 6321.6 16413.9 6321.6 16412.2 6324.6 16394.7 6327.4 16377 6327.9 16375.7 6328.2 16373.8 6342.6 16337.6 6345.6 16333.1 6347 16329.5 6806.5 15542 6812.2 15534.2 6815.1 15528.6 8735.8 12790 8744.6 12779.9 8748.9 12773.4 10962.1 10265.1 10971.9 10256 10977 10250 13455.2 8003.3 13466 7995.3 13471.7 7989.9 16184.2 6032.5 16195.8 6025.8 16202.1 6021 19115.3 4377.1 19127.6 4371.8 19134.3 4367.7 22212.2 3057.7 22225 3053.8 22232.2 3050.5 25436.6 2090.7 25449.7 2088.2 25457.2 2085.7 28748.4 1487.9 28761.7 1486.9 28769.4 1485.3 32106.7 1256.9 32120.1 1257.4 32127.9 1256.6 35469.9 1400.5"/><path d="M 44620.9 32572.1 44620.9 32572.1 44624.3 32572 44640.2 32574.8 44656.2 32577 44659.4 32578.1 44662.7 32578.7 44677.7 32584.7 44693 32590.1 44695.8 32591.8 44698.9 32593.1 44712.4 32602 44726.2 32610.4 44728.7 32612.7 44731.5 32614.5 44742.9 32626 44754.7 32637 44756.6 32639.8 44759 32642.1 44767.8 32655.7 44777.1 32668.9 44778.4 32672 44780.3 32674.8 44786.2 32689.8 44792.6 32704.7 44793.3 32708 44794.5 32711.1 44795.6 32719.3 44800.5 32742.9 44800.4 32754.8 44801.4 32762 44801.4 35988.8 44801.1 35992.1 44801.3 35995.4 44799.1 36011.5 44797.4 36027.5 44796.4 36030.7 44796 36034 44790.5 36049.3 44785.6 36064.7 44784 36067.6 44782.9 36070.7 44774.5 36084.5 44766.5 36098.7 44764.3 36101.2 44762.6 36104 44751.5 36115.9 44740.9 36128 44738.2 36130 44736 36132.5 44722.7 36141.8 44709.8 36151.6 44706.8 36153 44704.1 36154.9 44689.2 36161.3 44674.6 36168.3 44671.4 36169 44668.3 36170.4 44652.4 36173.6 44636.7 36177.5 44633.4 36177.6 44630.1 36178.2 44613.9 36178.2 44597.7 36178.7 44594.5 36178.2 44591.1 36178.2 44575.3 36174.8 44559.3 36172.1 44556.3 36170.8 44553 36170.1 44538.1 36163.7 44523.1 36157.7 44520.3 36155.9 44517.3 36154.5 44510.6 36149.5 44490.6 36136.3 44482.2 36127.8 44476.4 36123.4 43955.7 35602.8 43699 35496.4 42299 35496.4 42287 35495.2 42275 35494.9 42267.7 35493.2 42260.2 35492.4 42248.7 35488.8 42237 35486.1 42230.2 35482.9 42223 35480.6 42212.5 35474.7 42201.6 35469.7 42195.6 35465.2 42189.1 35461.5 42180 35453.6 42170.3 35446.4 42165.4 35440.8 42159.7 35435.9 42152.5 35426.3 42144.5 35417.3 42140.7 35410.8 42136.2 35404.8 42131 35393.9 42125 35383.5 42122.7 35376.4 42119.5 35369.6 42116.6 35357.9 42112.9 35346.5 42112.1 35339 42110.3 35331.7 42109.9 35319.7 42108.6 35307.7 42109.3 35301.8 42109 35292.7 42114.4 35261.9 42115 35256.7 42119.7 35239.4 42119.7 35115.4 40989.4 35115.4 39859.1 35115.4 39859.1 35239.4 39875.1 35299 39877.3 35312.6 39878.3 35316.8 39878.3 35318.1 39880.6 35329.2 39880.6 35333.3 39881.3 35337.5 39880.6 35352.8 39880.5 35368.1 39879.7 35372.2 39879.5 35376.4 39875.7 35391.3 39872.5 35406.3 39870.8 35410.1 39869.8 35414.2 39863.1 35427.9 39856.9 35442 39854.8 35444.8 39852.7 35449.2 39828.7 35479.9 39826.9 35481.5 39825.8 35482.9 39682.5 35626.3 39605.1 35813 39605.1 36577 39679.7 36757.1 39682.6 36766.7 39686.4 36775.9 39688.1 36785.3 39690.9 36794.5 39691.7 36804.4 39693.6 36814.2 39693.4 36823.8 39694.2 36833.3 39693 36843.2 39692.8 36853.2 39691 36860.2 39689.5 36872 39681.9 36894.8 39679.7 36902.9 39605.1 37083 39605.1 37847 39682.5 38033.7 39825.8 38177.1 39835.5 38189 39845.7 38200.4 39847.8 38204.1 39850.4 38207.3 39857.5 38221 39865.1 38234.2 39866.4 38238.2 39868.3 38241.9 39872.5 38256.7 39877.2 38271.3 39877.7 38275.4 39878.8 38279.5 39879.9 38294.7 39881.6 38310 39881.1 38313.5 39881.5 38318.4 39876.1 38357 39875.3 38359.2 39875.1 38361 39859.1 38420.6 39859.1 38544.6 40989.4 38544.6 40996 38545.2 41002.6 38545 41015.3 38547.2 41028.1 38548.5 41034.5 38550.6 41041 38551.7 41053 38556.4 41065.3 38560.3 41071.1 38563.6 41077.3 38566.1 41088 38573.1 41099.3 38579.5 41104.3 38583.8 41109.8 38587.5 41118.9 38596.6 41128.6 38605.1 41128.7 38605.2 41132.7 38610.4 41137.3 38615.1 41137.4 38615.2 41144.4 38626 41152.2 38636.2 41155 38642.2 41158.7 38647.8 41163.4 38659.8 41168.9 38671.4 41170.5 38677.9 41172.9 38684.1 41174.1 38692.8 41178.1 38709.3 41178.7 38726.3 41179.8 38735 41179.8 39270 41899 39270 41963.7 39252.7 42021.6 39219.3 42079.5 39161.4 42079.6 39161.2 42080.4 39160.5 42086.6 39154.2 42087.9 39153.2 42092.1 39148.4 42100.6 39142 42108.4 39134.8 42116.1 39130.3 42116.8 39129.7 42116.9 39129.6 42123.2 39124.9 42132.8 39120.3 42141.9 39114.9 42150.3 39112 42158.4 39108.1 42168.7 39105.7 42178.7 39102.2 42187.6 39101.1 42196.3 39099 42206.9 39098.6 42217.4 39097.3 42226.3 39098 42235.3 39097.7 42245.7 39099.5 42256.3 39100.3 42264.9 39102.8 42273.7 39104.4 42283.5 39108.2 42293.7 39111.2 42301.6 39115.4 42309.9 39118.7 42318.7 39124.5 42328.1 39129.5 42335 39135.2 42342.5 39140.1 42349.9 39147.7 42358.1 39154.4 42363.6 39161.4 42370 39167.8 42375.8 39176.7 42382.3 39184.9 42386.4 39192.9 42391.3 39200.4 42395.1 39210.3 42399.9 39219.7 42402.2 39228.4 42405.5 39236.7 42406.5 39244.5 42410 39257.4 42410.7 39269.5 42410.8 39269.8 42410.8 39270.4 42411.2 39278.9 42412.4 39287.6 42412.4 39417.8 42411.4 39427.7 42411.4 39437.6 42409.4 39447 42408.4 39456.5 42405.4 39466 42403.4 39475.8 42399.5 39484.6 42396.6 39493.7 42391.7 39502.4 42387.8 39511.5 42383.3 39517.3 42377.5 39527.7 42361.7 39545.8 42356.7 39552.4 41248.8 40660.3 41142.4 40917 41142.4 42125.8 41141.6 42134.1 41141.7 42142.4 41139.6 42153.4 41138.4 42164.6 41135.9 42172.5 41134.4 42180.6 41130 42191 41126.6 42201.7 41122.6 42209 41119.4 42216.6 41113 42225.9 41107.5 42235.7 41102.1 42241.9 41097.4 42248.8 41089.3 42256.6 41081.9 42265.1 41075.3 42270.1 41069.3 42275.8 41062.2 42279.9 41050.8 42288.6 41032.6 42297.2 41024.9 42301.7 40986.7 42317.5 40562.5 42741.7 40332.9 43296 40332.9 43896 40562.5 44450.3 40986.7 44874.5 41541 45104.1 42120.6 45104.1 42123.9 45104.4 42127.3 45104.2 42143.3 45106.4 42159.4 45108.1 42162.6 45109.1 42165.9 45109.5 42181.1 45115 42196.6 45119.9 42199.5 45121.5 42202.6 45122.6 42216.4 45131 42230.5 45139 42233 45141.2 42235.9 45142.9 42247.7 45154 42259.9 45164.6 42261.9 45167.3 42264.3 45169.5 42273.7 45182.8 42283.4 45195.7 42284.8 45198.7 42286.8 45201.4 42293.2 45216.3 42300.1 45230.9 42300.9 45234.1 42302.2 45237.2 42305.5 45253.1 42309.3 45268.8 42309.4 45272.1 42310.1 45275.4 42310.1 45291.6 42310.6 45307.8 42310 45311 42310 45314.4 42306.7 45330.2 42303.9 45346.2 42302.7 45349.2 42302 45352.5 42295.5 45367.4 42289.6 45382.4 42287.7 45385.2 42286.4 45388.2 42281.3 45394.9 42268.1 45414.9 42259.7 45423.3 42255.3 45429.1 41024.9 46659.5 40901.1 46958.3 40901.1 49431.7 41024.9 49730.5 44150.5 52856.1 44449.3 52979.9 48288.7 52979.9 48587.5 52856.1 50219.1 51224.5 50342.9 50925.7 50342.9 49241.1 50343.5 49235.1 50343.3 49230.3 50343.7 49228.5 50343.6 49224.6 50345.7 49213.5 50346.9 49202.4 50349.4 49194.4 50350.9 49186.3 50355.3 49175.9 50358.7 49165.2 50362.7 49158 50365.9 49150.3 50372.3 49141 50377.8 49131.2 50383.2 49125 50387.9 49118.1 50396 49110.3 50403.4 49101.9 50410 49096.9 50416 49091.1 50423.1 49087 50434.5 49078.3 50452.7 49069.7 50460.4 49065.2 50567.8 49020.7 50660.7 48927.8 50665.9 48923.6 50670.4 48918.7 50681 48911.3 50691 48903.2 50696.9 48900.1 50702.3 48896.3 50714.1 48891.2 50725.6 48885.3 50732 48883.5 50738.1 48880.8 50750.7 48878.2 50763.1 48874.8 50769.8 48874.3 50776.3 48873 50789.2 48873 50802 48872.1 50808.6 48873 50815.3 48873 50827.9 48875.7 50840.6 48877.5 50846.9 48879.7 50853.4 48881.1 50865.2 48886.2 50877.3 48890.5 50883 48894 50889.1 48896.7 50896.1 48902 50910.6 48910.8 50923.1 48922.5 50930 48927.8 51288.7 49286.5 51843 49516.1 52443 49516.1 52997.3 49286.5 53271.9 49011.8 53279.6 49005.6 53286.7 48998.5 53294.7 48993.3 53302.1 48987.3 53311 48982.7 53319.3 48977.2 53328.2 48973.7 53336.7 48969.3 53346.3 48966.6 53355.6 48963 53362.8 48962 53374.3 48958.8 53398.3 48957.2 53406.5 48956.1 53428.7 48956.1 53438.6 48957.1 53448.5 48957.1 53457.9 48959.1 53467.5 48960.1 53476.9 48963.1 53486.7 48965.1 53495.5 48969 53504.6 48971.9 53513.3 48976.8 53522.4 48980.7 53528.2 48985.2 53538.6 48991 53556.7 49006.8 53563.3 49011.9 53572.2 49020.7 53758.9 49098.1 55461.1 49098.1 55647.8 49020.7 55790.7 48877.8 55868.1 48691.1 55868.1 47188.9 55815.9 47062.9 55813 47053.3 55809.2 47044.1 55807.4 47034.7 55804.7 47025.5 55803.9 47015.6 55802 47005.8 55802.2 46996.2 55801.4 46986.7 55802.6 46976.8 55802.8 46966.8 55804.6 46959.8 55806 46948 55813.7 46925.2 55815.9 46917.1 55868.1 46791.1 55868.1 45469.7 55869.1 45459.9 55869.1 45449.9 55871.1 45440.5 55872.1 45431 55875.1 45421.5 55877.1 45411.7 55881 45403 55883.9 45393.8 55888.8 45385.1 55892.7 45376 55897.2 45370.2 55903 45359.9 55918.8 45341.7 55923.8 45335.1 56741.4 44517.6 56896.1 44144.1 56896.1 43208.6 56897.3 43197.1 56897.5 43185.5 56899.1 43179.4 56900.1 43169.9 56909 43141.7 56910.6 43135.8 56974.1 42982.4 56975.7 42979.5 56976.7 42976.4 56984.9 42962.4 56992.6 42948.1 56994.7 42945.6 56996.4 42942.7 57007.3 42930.7 57017.7 42918.3 57020.3 42916.3 57022.6 42913.8 57035.7 42904.2 57048.4 42894.3 57051.3 42892.8 57054 42890.8 57068.8 42884.1 57083.3 42877 57086.5 42876.1 57089.6 42874.7 57105.3 42871.2 57121 42867.1 57124.3 42866.9 57127.6 42866.2 57143.7 42866 57159.9 42865.2 57163.2 42865.7 57166.6 42865.6 57182.4 42868.7 57198.5 42871.2 57201.6 42872.3 57204.8 42873 57219.8 42879.2 57234.9 42884.9 57237.8 42886.7 57240.8 42887.9 57254.2 42897.1 57267.9 42905.8 57270.3 42908.1 57273 42909.9 57284.2 42921.6 57295.9 42932.9 57297.7 42935.6 57300 42938 57304.2 42945.2 57317.7 42965.1 57322.3 42976.1 57325.9 42982.4 57429.4 43232.3 57758.1 43561 58187.6 43738.9 58652.4 43738.9 59081.9 43561 59410.6 43232.3 59588.5 42802.8 59588.5 41017.2 59544.3 40910.5 59541.9 40902.5 59538.6 40894.9 59536.3 40883.9 59533.1 40873.1 59532.4 40864.9 59530.7 40856.7 59530.8 40845.5 59529.8 40834.3 59530.8 40826 59530.8 40817.7 59533.1 40806.8 59534.5 40795.6 59537.1 40787.7 59538.8 40779.6 59543.3 40769.3 59546.9 40758.7 59551.1 40751.5 59554.4 40743.9 59559.4 40737.4 59566.6 40725 59580.1 40710.1 59585.6 40703 59600.7 40687.8 59678.1 40501.1 59678.1 38998.9 59625.9 38872.9 59623 38863.3 59619.2 38854.1 59617.4 38844.7 59614.7 38835.5 59613.9 38825.6 59612 38815.8 59612.2 38806.2 59611.4 38796.7 59612.6 38786.8 59612.8 38776.8 59614.6 38769.8 59616.1 38758 59623.7 38735.2 59625.9 38727.1 59678.1 38601.1 59678.1 37492.5 59678.4 37489.2 59678.2 37485.9 59680.4 37469.9 59682.1 37453.8 59683.1 37450.6 59683.5 37447.3 59689 37432 59693.9 37416.6 59695.5 37413.7 59696.6 37410.6 59705.1 37396.7 59713 37382.6 59715.2 37380.1 59716.9 37377.3 59728 37365.5 59738.6 37353.3 59741.3 37351.3 59743.5 37348.8 59756.8 37339.5 59769.7 37329.7 59772.7 37328.3 59775.4 37326.4 59790.3 37320 59804.9 37313 59808.1 37312.3 59811.2 37310.9 59827.1 37307.7 59842.8 37303.9 59846.1 37303.7 59849.4 37303.1 59865.6 37303.1 59881.8 37302.6 59885 37303.1 59888.4 37303.1 59904.2 37306.5 59920.2 37309.3 59923.2 37310.5 59926.5 37311.2 59941.4 37317.7 59956.4 37323.6 59959.2 37325.4 59962.2 37326.8 59968.9 37331.8 59988.9 37345 59997.3 37353.5 60003.2 37357.9 60161.7 37516.5 60716 37746.1 61316 37746.1 61817.4 37538.4 61826.6 37535.6 61835.5 37531.9 61845.3 37530.1 61854.8 37527.2 61864.3 37526.4 61873.8 37524.6 61883.7 37524.8 61893.6 37523.9 61903.1 37525.1 61912.8 37525.2 61922.5 37527.4 61932.3 37528.6 61941.4 37531.6 61950.8 37533.8 61959.8 37537.9 61969.2 37541 61977.5 37545.9 61986.3 37549.9 61994.3 37555.7 62002.9 37560.7 62010 37567.2 62017.8 37572.9 62024.4 37580.2 62031.8 37586.9 62037.4 37594.6 62043.9 37601.8 62048.9 37610.4 62054.8 37618.4 62058.7 37627.1 62063.6 37635.4 62066.8 37644.8 62070.8 37653.9 62073 37663.3 62076 37672.4 62077.2 37682.2 62079.4 37691.9 62079.5 37701.5 62080.7 37711.1 62079.8 37718.5 62080 37730.9 62075.6 37753.6 62074.6 37762.1 61311.2 40704.2 61306.5 40716.7 61304.7 40724.3 60109.9 43848.8 60103.9 43860.7 60101.3 43868.1 58566.7 46840.4 58559.4 46851.6 58555.9 46858.7 56700.6 49642 56692 49652.3 56687.8 49659 54534.7 52218.9 54525 52228.2 54520.1 52234.4 52095.8 54539.2 52085.2 54547.4 52079.7 54552.9 49414.2 56574.1 49402.8 56581 49396.7 56585.9 46523.2 58298.3 46511 58304 46504.4 58308.2 43458.4 59690.7 43445.7 59694.9 43438.6 59698.4 40257.8 60733.8 40248.4 60735.9 40242.5 60738.1 39148.1 60995.7 39139.1 60996.9 39130.2 60999.1 39119.8 60999.4 39109.5 61000.7 39100.4 61000.1 39091.2 61000.4 39081 60998.6 39070.6 60997.8 39061.8 60995.2 39052.8 60993.7 39043.2 60989.8 39033.2 60986.9 39025.1 60982.7 39016.6 60979.3 39007.9 60973.6 38998.7 60968.7 38991.7 60962.9 38984 60957.9 38976.7 60950.5 38968.7 60943.9 38963 60936.7 38956.5 60930.3 38950.8 60921.5 38944.4 60913.4 38940.2 60905.3 38935.2 60897.6 38931.4 60887.9 38926.7 60878.6 38924.3 60869.8 38921 60861.3 38920 60853.7 38916.6 60841 38915.3 60819.1 38914.1 60810.4 38914.1 33411.9 38914.8 33405.3 38914.5 33398.6 38916.7 33385.9 38918.1 33373.1 38920.1 33366.8 38921.2 33360.2 38926 33348.3 38929.9 33336 38933.1 33330.2 38935.6 33324 38942.7 33313.3 38949 33302 38953.4 33297 38957 33291.4 38966.1 33282.3 38974.6 33272.6 38979.9 33268.6 38984.6 33263.9 38995.4 33256.9 39005.7 33249.1 39011.7 33246.3 39017.3 33242.6 39029.3 33237.9 39040.9 33232.4 39047.4 33230.8 39053.6 33228.4 39062.2 33227.2 39078.8 33223.2 39095.8 33222.7 39104.5 33221.5 39414.7 33221.5 39421.3 33222.2 39428 33221.9 39440.7 33224.1 39453.5 33225.5 39459.8 33227.5 39466.4 33228.6 39478.3 33233.4 39490.6 33237.3 39496.4 33240.5 39502.6 33243 39513.3 33250.1 39524.6 33256.4 39529.6 33260.8 39535.2 33264.4 39544.3 33273.5 39554 33282 39558 33287.3 39562.7 33292 39569.7 33302.8 39577.5 33313.1 39580.3 33319.1 39584 33324.7 39588.7 33336.7 39594.2 33348.3 39595.8 33354.8 39598.2 33361 39599.4 33369.6 39603.4 33386.2 39603.9 33403.2 39605.1 33411.9 39605.1 34037 39682.5 34223.8 39825.8 34367.1 39835.5 34379 39845.7 34390.4 39847.8 34394.1 39850.4 34397.3 39857.4 34410.9 39865.1 34424.2 39866.4 34428.2 39868.3 34431.9 39872.5 34446.7 39877.2 34461.3 39877.7 34465.4 39878.8 34469.5 39879.9 34484.7 39881.6 34500 39881.1 34503.5 39881.5 34508.4 39876.1 34547 39875.3 34549.2 39875.1 34551 39859.1 34610.6 39859.1 34734.6 40989.4 34734.6 42119.7 34734.6 42119.7 34610.6 42103.7 34551 42101.3 34535.9 42098.2 34520.8 42098.2 34516.7 42097.5 34512.5 42098.2 34497.2 42098.3 34481.9 42099.1 34477.8 42099.3 34473.6 42103.1 34458.7 42106.3 34443.7 42107.9 34439.9 42109 34435.8 42115.7 34422 42121.9 34408 42124 34405.2 42126.1 34400.8 42150.1 34370.1 42151.9 34368.5 42153 34367.1 42296.3 34223.8 42373.7 34037 42373.7 33274 42374.4 33267.4 42374.1 33260.7 42376.3 33248 42377.7 33235.2 42379.7 33228.9 42380.8 33222.3 42385.6 33210.4 42389.5 33198.1 42392.7 33192.3 42395.2 33186.1 42402.3 33175.4 42408.6 33164.1 42413 33159.1 42416.6 33153.5 42425.7 33144.4 42434.2 33134.7 42439.5 33130.7 42444.2 33126 42455 33119 42465.3 33111.2 42471.3 33108.4 42476.9 33104.7 42488.9 33100 42500.5 33094.5 42507 33092.9 42513.2 33090.5 42521.8 33089.3 42538.4 33085.3 42555.4 33084.8 42564.1 33083.6 43869.7 33083.6 44126.5 32977.2 44476.4 32627.3 44478.9 32625.2 44481.1 32622.7 44494 32613 44506.6 32602.7 44509.5 32601.2 44512.2 32599.2 44526.8 32592.3 44541.2 32584.8 44544.4 32583.9 44547.4 32582.5 44563.1 32578.7 44578.7 32574.3 44582.1 32574.1 44585.3 32573.3 44601.5 32572.8 44617.6 32571.7 44620.9 32572.1"/><path d="M 54403 16916.9 54403 16916.9 54413 16916.9 54422.3 16918.9 54431.9 16919.9 54441.3 16922.9 54451.1 16924.9 54459.9 16928.8 54469 16931.7 54477.7 16936.6 54486.8 16940.5 54492.6 16945 54503 16950.8 54521.1 16966.6 54527.7 16971.6 57154.9 19598.8 57160.1 19605.2 57166.1 19611 57172.4 19620.3 57179.5 19629 57183.3 19636.4 57188 19643.3 57192.2 19653.7 57197.4 19663.6 57199.6 19671.6 57202.8 19679.3 57204.9 19690.4 57207.9 19701.2 57208.5 19709.5 57210 19717.6 57209.8 19728.8 57210.5 19740.1 57209.4 19748.3 57209.2 19756.6 57207.2 19764.5 57205.2 19778.7 57198.4 19797.7 57196.2 19806.3 57161.9 19888.9 57161.9 21391.1 57214.1 21517.1 57217 21526.7 57220.8 21535.9 57222.6 21545.3 57225.3 21554.5 57226.1 21564.4 57228 21574.2 57227.8 21583.8 57228.6 21593.3 57227.4 21603.2 57227.2 21613.2 57225.4 21620.2 57223.9 21632 57216.3 21654.8 57214.1 21662.9 57161.9 21788.9 57161.9 23291.1 57239.3 23477.8 57348.2 23586.7 57354.4 23594.4 57361.5 23601.5 57366.7 23609.5 57372.7 23616.9 57377.3 23625.7 57382.8 23634.1 57386.3 23643 57390.7 23651.5 57393.4 23661.1 57397 23670.4 57398 23677.6 57401.2 23689.1 57401.9 23699.7 57402.2 23700.9 57402.4 23706.8 57402.8 23713.1 57403.9 23721.3 57403.9 25371.4 57402.7 25382.9 57402.5 25394.5 57400.9 25400.6 57399.9 25410.2 57391 25438.3 57389.4 25444.3 57325.9 25597.6 57324.3 25600.5 57323.3 25603.6 57315.1 25617.6 57307.4 25631.9 57305.3 25634.4 57303.6 25637.3 57292.7 25649.3 57282.3 25661.7 57279.7 25663.7 57277.4 25666.2 57264.3 25675.7 57251.6 25685.7 57248.6 25687.2 57246 25689.2 57231.2 25695.8 57216.7 25703 57213.5 25703.9 57210.4 25705.3 57194.7 25708.8 57179 25712.9 57175.7 25713.1 57172.4 25713.8 57156.3 25714 57140.1 25714.8 57136.8 25714.3 57133.4 25714.4 57117.6 25711.3 57101.5 25708.8 57098.4 25707.7 57095.2 25707 57080.2 25700.8 57065.1 25695.1 57062.2 25693.3 57059.2 25692.1 57045.8 25682.9 57032.1 25674.2 57029.7 25671.9 57027 25670.1 57015.8 25658.4 57004.1 25647.1 57002.3 25644.4 57000 25642 56995.8 25634.8 56982.3 25614.8 56977.7 25603.9 56974.1 25597.6 56870.6 25347.7 56541.9 25019 56112.4 24841.1 55647.6 24841.1 55218.1 25019 54889.4 25347.7 54711.5 25777.2 54711.5 27562.8 54849.4 27895.8 54852.7 27906.9 54857 27917.7 54857.8 27923.9 54860.6 27933.1 54863.1 27962.5 54863.9 27968.6 54863.9 28457.1 55018.6 28830.6 55067.4 28879.3 55072.6 28885.8 55078.6 28891.5 55084.9 28900.8 55092 28909.6 55095.8 28916.9 55100.5 28923.8 55104.7 28934.2 55109.9 28944.2 55112.1 28952.2 55115.3 28959.8 55117.4 28970.9 55120.4 28981.7 55121 28990 55122.5 28998.2 55122.3 29009.4 55123 29020.6 55121.9 29028.8 55121.7 29037.1 55119.7 29045 55117.7 29059.2 55110.9 29078.2 55108.7 29086.8 55041.9 29247.9 55041.9 30950.1 55119.3 31136.8 55266.6 31284.1 55267.7 31285.4 55269 31286.5 55279.9 31300.5 55291.2 31314.4 55292 31315.9 55293 31317.2 55300.9 31333.1 55309.2 31349 55309.6 31350.6 55310.3 31352.1 55314.8 31369.3 55319.7 31386.5 55319.8 31388.2 55320.2 31389.8 55321.1 31407.7 55322.3 31425.4 55322.1 31427.1 55322.1 31428.7 55319.4 31446.4 55317 31464 55316.4 31465.6 55316.1 31467.3 55309.8 31484 55303.9 31500.8 55303 31502.2 55302.4 31503.7 55292.9 31518.8 55283.6 31534 55282.4 31535.3 55281.5 31536.7 55269.1 31549.5 55256.9 31562.5 55255.6 31563.5 55254.4 31564.7 55239.6 31574.7 55225.1 31584.9 55223.5 31585.6 55222.1 31586.5 55205.6 31593.3 55189.3 31600.4 55187.6 31600.7 55186.1 31601.4 55168.6 31604.7 55151.1 31608.3 55149.4 31608.3 55147.8 31608.6 55130 31608.2 55112.1 31608.2 55110.5 31607.8 55108.8 31607.8 55102.8 31606.2 55074 31600.2 55065.1 31596.3 55059.1 31594.7 54753 31467.9 54410.3 31467.9 54405.4 31467.4 54400.4 31467.7 54386 31465.4 54371.6 31463.9 54366.8 31462.4 54361.9 31461.7 54348.3 31456.5 54334.4 31452.1 54330.1 31449.7 54325.4 31447.9 54313.1 31440.1 54300.4 31433 54296.7 31429.7 54292.5 31427.1 54282 31416.9 54271.1 31407.4 54268.1 31403.4 54264.5 31399.9 54256.3 31387.9 54247.6 31376.3 54245.4 31371.8 54242.6 31367.7 54237.1 31354.2 54230.8 31341.1 54229.7 31336.2 54227.8 31331.6 54225.1 31317.3 54221.7 31303.2 54221.5 31298.2 54220.6 31293.3 54220.9 31278.8 54220.4 31264.2 54221.2 31259.3 54221.3 31254.3 54223.6 31245.7 54227.1 31225.8 54232.3 31212.5 54234.4 31204.6 54310.1 31022 54310.1 30422 54080.5 29867.7 53656.3 29443.5 53102 29213.9 52502 29213.9 51947.7 29443.5 51884.1 29507.1 51880.3 29510.3 51876.9 29514 51865.2 29522.5 51853.9 29531.7 51849.5 29534 51845.4 29537 51832.2 29543 51819.3 29549.6 51814.5 29551 51809.9 29553 51795.8 29556.2 51781.8 29560.1 51776.8 29560.5 51771.9 29561.6 51757.4 29561.8 51742.9 29562.8 51737.9 29562.1 51732.9 29562.2 51718.7 29559.4 51704.3 29557.4 51699.5 29555.8 51694.7 29554.8 51681.3 29549.2 51667.5 29544.4 51663.3 29541.8 51658.7 29539.8 51646.7 29531.6 51634.3 29524.1 51630.6 29520.7 51626.5 29517.8 51616.4 29507.4 51605.8 29497.4 51602.9 29493.3 51599.5 29489.7 51595 29482 51583.4 29465.5 51577.7 29452.4 51573.6 29445.3 51503.5 29276.2 51360.6 29133.3 51173.9 29056 49219.3 29056 49023.5 29137.1 49021.9 29138.4 49014.6 29142.2 49007.7 29146.8 48997.3 29151.2 48987.3 29156.4 48979.3 29158.6 48971.7 29161.7 48963.6 29163 48949.7 29166.9 48929.7 29168.2 48920.9 29169.6 48657.6 29174.4 48655.6 29174.2 48654.1 29174.4 46773.2 29174.4 46769.9 29174.1 46766.6 29174.3 46750.5 29172.1 46734.5 29170.4 46731.3 29169.4 46728 29169 46712.7 29163.5 46697.3 29158.6 46694.4 29157 46691.3 29155.9 46677.5 29147.5 46663.3 29139.5 46660.8 29137.3 46658 29135.6 46646.1 29124.5 46634 29113.9 46632 29111.2 46629.5 29109 46620.2 29095.7 46610.4 29082.8 46609 29079.8 46607.1 29077.1 46600.7 29062.2 46593.7 29047.6 46593 29044.4 46591.6 29041.3 46588.4 29025.4 46584.5 29009.7 46584.4 29006.4 46583.8 29003.1 46583.8 28986.9 46583.3 28970.7 46583.8 28967.5 46583.8 28964.1 46587.2 28948.3 46589.9 28932.3 46591.2 28929.3 46591.9 28926 46598.4 28911.1 46604.3 28896.1 46606.1 28893.3 46607.5 28890.3 46612.5 28883.6 46625.7 28863.6 46634.2 28855.2 46638.6 28849.3 46868.9 28619 47092.2 28395.7 47153.2 28248.4 47155.6 28244.1 47157.3 28239.4 47164.8 28227 47171.7 28214.2 47175 28210.3 47177.6 28206.1 47187.5 28195.5 47196.9 28184.3 47200.8 28181.3 47204.2 28177.6 47216.1 28169.3 47227.5 28160.3 47232 28158.1 47236.1 28155.2 47249.4 28149.4 47262.4 28143 47267.3 28141.7 47271.9 28139.7 47286.1 28136.8 47300.2 28133.1 47305.1 28132.9 47310 28131.9 47324.6 28131.9 47339.1 28131.2 47344 28131.9 47349 28131.9 47363.3 28134.9 47377.6 28137.2 47382.3 28138.9 47387.2 28139.9 47400.5 28145.8 47414.1 28150.9 47418.3 28153.6 47422.9 28155.6 47430 28161 47447 28171.8 47457.3 28181.7 47463.8 28186.7 47598.1 28321 48027.6 28498.9 48492.4 28498.9 48921.9 28321 49250.6 27992.3 49354.1 27742.4 49355.7 27739.5 49356.7 27736.4 49364.9 27722.4 49372.6 27708.1 49374.7 27705.6 49376.4 27702.7 49387.3 27690.7 49397.7 27678.3 49400.3 27676.3 49402.6 27673.8 49415.6 27664.3 49428.4 27654.3 49431.4 27652.8 49434 27650.8 49448.8 27644.2 49463.3 27637 49466.5 27636.1 49469.5 27634.7 49485.3 27631.2 49501 27627.1 49504.3 27626.9 49507.6 27626.2 49523.7 27626 49539.9 27625.2 49543.2 27625.7 49546.6 27625.6 49562.4 27628.7 49578.5 27631.2 49581.6 27632.3 49584.8 27633 49599.8 27639.2 49614.9 27644.9 49617.7 27646.7 49620.8 27647.9 49634.2 27657.1 49647.9 27665.8 49650.2 27668.1 49653 27669.9 49664.2 27681.6 49675.8 27692.9 49677.7 27695.6 49680 27698 49684.2 27705.2 49697.7 27725.1 49702.2 27736.1 49705.9 27742.4 49809.4 27992.3 50138.1 28321 50567.6 28498.9 51032.4 28498.9 51461.9 28321 51790.6 27992.3 51968.5 27562.8 51968.5 25777.2 51830.6 25444.2 51827.3 25433.1 51823 25422.3 51822.2 25416.1 51819.4 25406.9 51816.9 25377.5 51816.1 25371.4 51816.1 23721.3 51816.6 23716 51816.5 23713.4 51817.1 23710.1 51817.1 23701.5 51819.1 23692.1 51820.1 23682.6 51823.1 23673.1 51825.1 23663.3 51829 23654.5 51831.9 23645.4 51836.8 23636.7 51840.7 23627.6 51845.2 23621.8 51851 23611.4 51866.8 23593.3 51871.8 23586.7 51980.7 23477.8 52058.1 23291.1 52058.1 21788.9 52005.9 21662.9 52003 21653.3 51999.2 21644.1 51997.4 21634.7 51994.7 21625.5 51993.9 21615.6 51992 21605.8 51992.2 21596.2 51991.4 21586.7 51992.6 21576.8 51992.8 21566.8 51994.6 21559.8 51996.1 21548 52003.7 21525.2 52005.9 21517.1 52058.1 21391.1 52058.1 20401.6 52058.6 20396.6 52058.3 20391.6 52060.6 20377.2 52062.1 20362.8 52063.6 20358 52064.3 20353.1 52069.5 20339.5 52073.9 20325.6 52076.3 20321.3 52078.1 20316.6 52085.8 20304.4 52093 20291.7 52096.3 20287.9 52098.9 20283.7 52109.1 20273.2 52118.6 20262.3 52122.6 20259.3 52126.1 20255.7 52138.1 20247.6 52149.7 20238.8 52154.2 20236.6 52158.3 20233.8 52171.8 20228.3 52184.9 20222.1 52189.8 20220.9 52194.4 20219 52208.7 20216.3 52222.8 20212.9 52227.8 20212.7 52232.7 20211.8 52247.3 20212.1 52261.8 20211.6 52266.7 20212.5 52271.7 20212.6 52280.3 20214.8 52300.2 20218.3 52313.5 20223.6 52321.4 20225.6 52390 20254.1 52990 20254.1 53544.3 20024.5 53968.5 19600.3 54198.1 19046 54198.1 18446 53968.5 17891.7 53544.3 17467.5 53096.9 17282.2 53095.5 17281.4 53093.9 17280.9 53078.4 17272.2 53062.6 17263.7 53061.4 17262.6 53059.9 17261.8 53046.5 17250.1 53032.8 17238.6 53031.8 17237.3 53030.5 17236.2 53019.8 17222 53008.8 17207.9 53008 17206.4 53007 17205.1 52999.4 17189 52991.4 17173 52991 17171.4 52990.3 17169.9 52986.1 17152.6 52981.6 17135.3 52981.5 17133.6 52981.1 17132 52980.5 17114.2 52979.6 17096.4 52979.9 17094.7 52979.8 17093 52982.9 17075.5 52985.6 17057.8 52986.2 17056.3 52986.5 17054.6 52993.1 17038.1 52999.4 17021.4 53000.3 17019.9 53000.9 17018.4 53010.7 17003.5 53020.2 16988.4 53021.4 16987.2 53022.3 16985.8 53035 16973.2 53047.4 16960.4 53048.7 16959.5 53049.9 16958.3 53064.9 16948.6 53079.6 16938.6 53081.2 16937.9 53082.6 16937 53099.2 16930.5 53115.7 16923.7 53117.3 16923.4 53118.9 16922.8 53125 16922 53154 16916.5 53163.6 16916.7 53169.8 16915.9 54393.1 16915.9 54403 16916.9"/><path d="M 52389 40517.3 52389 40517.3 52401.5 40517.7 52408.4 40519.3 52415.4 40520.1 52427.3 40523.8 52439.4 40526.7 52445.8 40529.7 52452.6 40531.9 52463.5 40538 52474.7 40543.3 52480.4 40547.5 52486.6 40551 52496 40559.2 52505.9 40566.6 52510.6 40572 52515.9 40576.6 52523.4 40586.5 52531.7 40595.9 52535.2 40602 52539.5 40607.7 52544.8 40618.9 52550.9 40629.8 52553.1 40636.5 52556.2 40642.9 52559.1 40655 52562.9 40666.9 52563.7 40673.9 52565.3 40680.8 52565.8 40693.2 52567.1 40705.6 52566.4 40712.7 52566.6 40719.8 52564.5 40732 52563.3 40744.4 52561.4 40749.8 52560 40758.2 52547.6 40789.3 52546.3 40792.9 52492.5 40898.6 52448 41035.4 52425.5 41177.6 52425.5 41706.9 53327.3 41706.9 53333.9 41707.6 53340.5 41707.3 53344.4 41708 53352.7 41706.9 54254.5 41706.9 54254.5 41177.6 54232 41035.4 54187.5 40898.6 54133.7 40792.9 54129.2 40781.3 54123.8 40770.1 54122.2 40763.2 54119.6 40756.6 54117.6 40744.3 54114.7 40732.2 54114.4 40725.1 54113.3 40718.1 54113.8 40705.7 54113.4 40693.2 54114.6 40686.3 54114.9 40679.2 54117.9 40667.1 54120 40654.8 54122.7 40648.3 54124.4 40641.4 54129.8 40630.2 54134.4 40618.6 54138.3 40612.7 54141.4 40606.3 54149 40596.5 54155.8 40586 54160.9 40581 54165.2 40575.4 54174.6 40567.3 54183.5 40558.5 54189.4 40554.7 54194.8 40550.1 54205.7 40544 54216.1 40537.2 54222.7 40534.6 54228.9 40531.2 54240.8 40527.6 54252.4 40523 54258 40522.2 54266.1 40519.7 54299.5 40516.6 54303.3 40516.1 54634.1 40516.1 54639.1 40516.6 54644 40516.3 54658.4 40518.6 54672.9 40520.1 54677.6 40521.6 54682.6 40522.3 54696.2 40527.5 54710 40531.9 54714.4 40534.3 54719 40536.1 54731.3 40543.9 54744 40551 54747.7 40554.3 54752 40556.9 54762.4 40567.1 54773.4 40576.6 54776.4 40580.6 54780 40584.1 54788.1 40596.1 54796.9 40607.7 54799 40612.2 54801.8 40616.3 54807.4 40629.8 54813.6 40642.9 54814.8 40647.8 54816.7 40652.4 54819.4 40666.7 54822.8 40680.8 54822.9 40685.8 54823.9 40690.7 54823.6 40705.2 54824.1 40719.8 54823.2 40724.7 54823.1 40729.7 54820.8 40738.3 54817.4 40758.2 54812.1 40771.5 54810 40779.4 54711.5 41017.2 54711.5 42802.8 54849.4 43135.8 54852.7 43146.9 54857 43157.7 54857.8 43163.9 54860.6 43173.1 54863.1 43202.5 54863.9 43208.6 54863.9 43442.3 54862.9 43452.1 54862.9 43462.1 54860.9 43471.5 54859.9 43481 54856.9 43490.5 54854.9 43500.3 54851 43509 54848.1 43518.2 54843.2 43526.9 54839.3 43536 54834.8 43541.8 54829 43552.1 54813.2 43570.3 54808.2 43576.9 53875.6 44509.4 53743.7 44827.9 53739 44836.6 53735.2 44845.8 53729.8 44853.7 53725.2 44862.2 53718.8 44869.8 53713.2 44878 53706.3 44884.6 53700.1 44892 53692.2 44898.1 53685.1 44905 53678.8 44908.7 53669.4 44916 53647.9 44926.7 53640.7 44930.9 53572.2 44959.3 53429.3 45102.2 53351.9 45288.9 53351.9 46624.5 53351.6 46627.8 53351.8 46631.1 53349.6 46647.2 53347.9 46663.2 53346.9 46666.4 53346.5 46669.7 53341 46685 53336.1 46700.4 53334.5 46703.3 53333.4 46706.4 53325 46720.2 53317 46734.4 53314.8 46736.9 53313.1 46739.7 53302 46751.5 53291.4 46763.7 53288.7 46765.7 53286.5 46768.2 53273.2 46777.5 53260.3 46787.3 53257.3 46788.7 53254.6 46790.6 53239.7 46797 53225.1 46804 53221.9 46804.7 53218.8 46806.1 53202.9 46809.3 53187.2 46813.1 53183.9 46813.3 53180.6 46813.9 53164.4 46813.9 53148.2 46814.4 53145 46813.9 53141.6 46813.9 53125.8 46810.5 53109.8 46807.7 53106.7 46806.5 53103.5 46805.8 53088.7 46799.4 53073.6 46793.4 53070.8 46791.6 53067.8 46790.2 53061.1 46785.2 53041.1 46772 53032.7 46763.5 53026.8 46759.1 52997.3 46729.5 52443 46499.9 51843 46499.9 51288.7 46729.5 51113.2 46905.1 51110.6 46907.2 51108.4 46909.7 51103 46913.8 51100.8 46916 51095.7 46919.3 51095.5 46919.5 51082.9 46929.7 51080 46931.2 51077.3 46933.3 51062.7 46940.2 51048.3 46947.6 51045.1 46948.5 51042.1 46950 51026.4 46953.8 51010.8 46958.1 51007.4 46958.4 51004.2 46959.1 50988 46959.7 50971.9 46960.8 50968.6 46960.3 50965.2 46960.4 50949.3 46957.7 50933.3 46955.4 50930.1 46954.3 50926.8 46953.7 50911.8 46947.8 50896.5 46942.3 50893.7 46940.6 50890.6 46939.4 50877.1 46930.5 50863.3 46922.1 50860.8 46919.8 50858 46918 50846.6 46906.5 50834.8 46895.4 50832.9 46892.7 50830.5 46890.3 50821.7 46876.8 50812.4 46863.5 50811 46860.5 50809.2 46857.7 50803.3 46842.6 50796.9 46827.8 50796.2 46824.5 50795 46821.4 50793.9 46813.1 50790.3 46795.7 50789.8 46793.7 50789.8 46793.3 50789 46789.6 50789.1 46777.7 50788.1 46770.5 50788.1 45723.7 50789.1 45713.9 50789.1 45703.9 50791.1 45694.5 50792.1 45685 50795.1 45675.5 50797.1 45665.7 50801 45657 50803.9 45647.8 50808.8 45639.1 50812.7 45630 50817.2 45624.2 50823 45613.9 50838.8 45595.7 50843.8 45589.1 51348.8 45084.2 51661.4 44771.6 51816.1 44398.1 51816.1 43208.6 51817.3 43197.1 51817.5 43185.5 51819.1 43179.4 51820.1 43169.9 51829 43141.7 51830.6 43135.8 51968.5 42802.8 51968.5 41017.2 51870 40779.4 51868.5 40774.6 51866.4 40770.1 51863 40756 51858.8 40742 51858.4 40737.1 51857.2 40732.2 51856.7 40717.7 51855.5 40703.2 51856.1 40698.2 51855.9 40693.2 51858.4 40678.9 51860.2 40664.5 51861.8 40659.8 51862.6 40654.8 51868 40641.3 51872.6 40627.5 51875.1 40623.2 51877 40618.6 51885 40606.5 51892.3 40593.9 51895.7 40590.2 51898.4 40586 51908.7 40575.8 51918.5 40565 51922.5 40562.1 51926 40558.5 51938.2 40550.6 51949.9 40542 51954.5 40540 51958.7 40537.2 51972.2 40531.9 51985.4 40525.9 51990.3 40524.8 51995 40523 52003.8 40521.8 52023.5 40517.4 52037.8 40517.2 52045.9 40516.1 52376.7 40516.1 52389 40517.3"/></g></g></g></g></g></g></g></g></g></g></g></g></g></g></g></g></g></g></g></g></g></g><path d="M 25013.2 11430 23489.2 11430 M 18510.8 11430 16986.8 11430" fill="none" stroke-width="1524"/><use xlink:href="#FBwk-Bbmr_Y4hGCtjWe-_pad-11" x="54610" y="47940"/><use xlink:href="#FBwk-Bbmr_Y4hGCtjWe-_pad-11" x="54610" y="46040"/><use xlink:href="#FBwk-Bbmr_Y4hGCtjWe-_pad-11" x="58420" y="37850"/><use xlink:href="#FBwk-Bbmr_Y4hGCtjWe-_pad-11" x="58420" y="39750"/><use xlink:href="#FBwk-Bbmr_Y4hGCtjWe-_pad-12" x="58100" y="30099"/><use xlink:href="#FBwk-Bbmr_Y4hGCtjWe-_pad-12" x="56200" y="30099"/><use xlink:href="#FBwk-Bbmr_Y4hGCtjWe-_pad-11" x="50800" y="20640"/><use xlink:href="#FBwk-Bbmr_Y4hGCtjWe-_pad-11" x="50800" y="22540"/><use xlink:href="#FBwk-Bbmr_Y4hGCtjWe-_pad-11" x="48260" y="20640"/><use xlink:href="#FBwk-Bbmr_Y4hGCtjWe-_pad-11" x="48260" y="22540"/><use xlink:href="#FBwk-Bbmr_Y4hGCtjWe-_pad-11" x="49530" y="47940"/><use xlink:href="#FBwk-Bbmr_Y4hGCtjWe-_pad-11" x="49530" y="46040"/><use xlink:href="#FBwk-Bbmr_Y4hGCtjWe-_pad-11" x="46990" y="47940"/><use xlink:href="#FBwk-Bbmr_Y4hGCtjWe-_pad-11" x="46990" y="46040"/><use xlink:href="#FBwk-Bbmr_Y4hGCtjWe-_pad-13" x="40989.4" y="29845"/><use xlink:href="#FBwk-Bbmr_Y4hGCtjWe-_pad-13" x="40989.4" y="31115"/><use xlink:href="#FBwk-Bbmr_Y4hGCtjWe-_pad-13" x="40989.4" y="32385"/><use xlink:href="#FBwk-Bbmr_Y4hGCtjWe-_pad-13" x="40989.4" y="33655"/><use xlink:href="#FBwk-Bbmr_Y4hGCtjWe-_pad-13" x="40989.4" y="34925"/><use xlink:href="#FBwk-Bbmr_Y4hGCtjWe-_pad-13" x="40989.4" y="36195"/><use xlink:href="#FBwk-Bbmr_Y4hGCtjWe-_pad-13" x="40989.4" y="37465"/><use xlink:href="#FBwk-Bbmr_Y4hGCtjWe-_pad-13" x="40989.4" y="38735"/><use xlink:href="#FBwk-Bbmr_Y4hGCtjWe-_pad-13" x="50196.6" y="38735"/><use xlink:href="#FBwk-Bbmr_Y4hGCtjWe-_pad-13" x="50196.6" y="37465"/><use xlink:href="#FBwk-Bbmr_Y4hGCtjWe-_pad-13" x="50196.6" y="36195"/><use xlink:href="#FBwk-Bbmr_Y4hGCtjWe-_pad-13" x="50196.6" y="34925"/><use xlink:href="#FBwk-Bbmr_Y4hGCtjWe-_pad-13" x="50196.6" y="33655"/><use xlink:href="#FBwk-Bbmr_Y4hGCtjWe-_pad-13" x="50196.6" y="32385"/><use xlink:href="#FBwk-Bbmr_Y4hGCtjWe-_pad-13" x="50196.6" y="31115"/><use xlink:href="#FBwk-Bbmr_Y4hGCtjWe-_pad-13" x="50196.6" y="29845"/><path d="M 48260 27330.4 48260 26009.6 M 50800 26009.6 50800 27330.4 M 53340 27330.4 53340 26009.6 M 55880 26009.6 55880 27330.4 M 58420 27330.4 58420 26009.6 M 58420 41249.6 58420 42570.4 M 55880 42570.4 55880 41249.6 M 53340 41249.6 53340 42570.4 M 50800 42570.4 50800 41249.6 M 48260 41249.6 48260 42570.4" fill="none" stroke-width="1320.8"/><use xlink:href="#FBwk-Bbmr_Y4hGCtjWe-_pad-11" x="58420" y="22540"/><use xlink:href="#FBwk-Bbmr_Y4hGCtjWe-_pad-11" x="58420" y="20640"/><path d="M 36513.2 11430 34989.2 11430 M 30010.8 11430 28486.8 11430" fill="none" stroke-width="1524"/><path d="M 41249.6 26670 42570.4 26670 M 42570.4 24130 41249.6 24130 M 41249.6 21590 42570.4 21590 M 42570.4 19050 41249.6 19050 M 41249.6 16510 42570.4 16510 M 42570.4 13970 41249.6 13970 M 41249.6 11430 42570.4 11430 M 42570.4 8890 41249.6 8890 M 41249.6 6350 42570.4 6350" fill="none" stroke-width="1320.8"/><use xlink:href="#FBwk-Bbmr_Y4hGCtjWe-_pad-15" x="48428" y="54691"/><use xlink:href="#FBwk-Bbmr_Y4hGCtjWe-_pad-15" x="27854" y="4272"/><use xlink:href="#FBwk-Bbmr_Y4hGCtjWe-_pad-15" x="52873" y="44277"/><use xlink:href="#FBwk-Bbmr_Y4hGCtjWe-_pad-15" x="53762" y="23830"/><path d="M 41841 41056 41841 43596 M 41841 41056 43111 39786 43111 37465 40989.4 37465" fill="none" stroke-width="381"/><use xlink:href="#FBwk-Bbmr_Y4hGCtjWe-_pad-15" x="41841" y="43596"/><path d="M 43746 41588 44127 41207 44127 36762 M 43560 36195 40989.4 36195 M 43560 36195 44127 36762" fill="none" stroke-width="381"/><use xlink:href="#FBwk-Bbmr_Y4hGCtjWe-_pad-15" x="43746" y="41588"/><path d="M 41379.6 31118 40989.4 31115 M 41379.6 31118 41388.6 31127 43373 31127 46500 28000" fill="none" stroke-width="381"/><use xlink:href="#FBwk-Bbmr_Y4hGCtjWe-_pad-15" x="43688" y="19050"/><path d="M 43688 19050 45085 19050 46500 20465 46500 28000 M 45246 27373 42774 29845 40989.4 29845 M 45246 27373 45246 22111" fill="none" stroke-width="381"/><use xlink:href="#FBwk-Bbmr_Y4hGCtjWe-_pad-15" x="43688" y="21590"/><path d="M 43688 21590 44725 21590 45246 22111 M 40992 33655 40989.4 33655" fill="none" stroke-width="381"/><path d="M 40992 33655 40992 32373" fill="none" stroke-width="609.6"/><path d="M 46242.8 29873 48662.2 29873 M 40989.4 32385 40989.4 32391.2 40972 32408.6" fill="none" stroke-width="381"/><path d="M 40972 32408.6 39250 32408.6" fill="none" stroke-width="609.6"/><path d="M 40992 32373 41881 32373 M 48662.2 29873 50196.6 29845 M 41881 32373 41869.8 32385 40989.4 32385" fill="none" stroke-width="381"/><use xlink:href="#FBwk-Bbmr_Y4hGCtjWe-_pad-15" x="39944" y="26658"/><path d="M 40989.4 32385 43730.8 32385 46242.8 29873" fill="none" stroke-width="381"/><path d="M 39250 32408.6 39250 27293 39944 26658 M 54199 32976 54453 32976 M 54199 32976 53520 33655 50196.6 33655" fill="none" stroke-width="609.6"/><path d="M 52211 47940 52143 48008 M 52211 47940 54610 47940" fill="none" stroke-width="1016"/><use xlink:href="#FBwk-Bbmr_Y4hGCtjWe-_pad-15" x="52143" y="48008"/><use xlink:href="#FBwk-Bbmr_Y4hGCtjWe-_pad-15" x="54453" y="32976"/><path d="M 50196.6 34925 48768 34925 48006 35687 48006 39116" fill="none" stroke-width="609.6"/><path d="M 48006 39116 48707.5 39817.5 55559.5 39817.5 M 57527 37850 58420 37850 M 57527 37850 55559.5 39817.5" fill="none" stroke-width="381"/><path d="M 52786 34865 59238 34865 M 52786 34865 51456 36195 50196.6 36195 M 59238 34865 60452 33651 M 60452 31308 59243 30099 58100 30099 M 60452 31308 60452 33651" fill="none" stroke-width="609.6"/><path d="M 50800 19303 51357 18746 M 50800 19303 50800 20640 M 51357 18746 52690 18746" fill="none" stroke-width="1016"/><path d="M 53310 36238 61016 36238 M 53310 36238 52083 37465 50196.6 37465" fill="none" stroke-width="609.6"/><use xlink:href="#FBwk-Bbmr_Y4hGCtjWe-_pad-15" x="52690" y="18746"/><use xlink:href="#FBwk-Bbmr_Y4hGCtjWe-_pad-15" x="61016" y="36238"/><path d="M 48260 20640 48260 17978 48278 17960" fill="none" stroke-width="1016"/><path d="M 54302 38119 53686 38735 50196.6 38735" fill="none" stroke-width="609.6"/><use xlink:href="#FBwk-Bbmr_Y4hGCtjWe-_pad-15" x="48278" y="17960"/><use xlink:href="#FBwk-Bbmr_Y4hGCtjWe-_pad-15" x="54302" y="38119"/><path d="M 49530 47940 49530 50764 48127 52167 44611 52167 41714 49270 41714 47120 45500 43334" fill="none" stroke-width="609.6"/><path d="M 45500 43334 45500 31873 46246 31127 M 47520.2 31135.8 50196.6 31115 M 47520.2 31135.8 47511.4 31127 46246 31127" fill="none" stroke-width="381"/><path d="M 46924.3 48008 44484 48008 44357 47881" fill="none" stroke-width="1016"/><path d="M 50196.6 32385 51339.6 32385 M 52802 30922.6 52802 30722 M 52802 30922.6 51339.6 32385" fill="none" stroke-width="609.6"/><path d="M 46990 47940 46944.5 47985.5" fill="none" stroke-width="1016"/><path d="M 46944.5 47985.5 46924.3 48008" fill="none" stroke-width="381"/><use xlink:href="#FBwk-Bbmr_Y4hGCtjWe-_pad-15" x="44357" y="47881"/><use xlink:href="#FBwk-Bbmr_Y4hGCtjWe-_pad-15" x="52802" y="30722"/><path d="M 54737 45913 54610 46040" fill="none" stroke-width="381"/><path d="M 54737 45913 54737 45085 M 55880 43942 55880 41910 M 55880 43942 54737 45085 M 55880 28255 55880 26670 M 56200 28575 56200 30099 M 56200 28575 55880 28255 M 50800 26670 50800 22540" fill="none" stroke-width="1016"/><path d="M 48246 26656 48260 26670" fill="none" stroke-width="381"/><path d="M 48246 26656 48246 22554" fill="none" stroke-width="1016"/><path d="M 48246 22554 48260 22540" fill="none" stroke-width="381"/><path d="M 50800 44196 49530 45466 49530 46040 M 50800 44196 50800 41910 M 58420 26670 58420 22540" fill="none" stroke-width="1016"/><path d="M 54808.7 16103 51207 16103 M 58420 19714.3 58420 20640 M 58420 19714.3 54808.7 16103" fill="none" stroke-width="609.6"/><use xlink:href="#FBwk-Bbmr_Y4hGCtjWe-_pad-15" x="43688" y="13970"/><path d="M 43688 13970 49074 13970 51207 16103" fill="none" stroke-width="609.6"/><path d="M 48260 41910 48260 43386.1 46990 44656.1 46990 46040" fill="none" stroke-width="1016"/><use xlink:href="#FBwk-Bbmr_Y4hGCtjWe-_pad-15" x="40132" y="11430"/><path d="M 40132 11430 35751.2 11430 M 58420 39750 58420 41910" fill="none" stroke-width="1016"/><path d="M 5737.8 16870 7021.9 14733.5 8580.1 12576.7 10320.4 10563.9 12229.5 8710.5 14292.9 7030.6 16494.8 5536.8 18818.6 4240.7 21246.4 3152 23759.9 2279.1 26340 1628.5 28966.9 1205.3 31620.7 1012.6 34281.2 1052 36928.1 1323.1 39541.4 1823.9 42101 2550.5 44587.6 3497.5 46982.2 4657.5 49266.5 6021.9 51423.3 7580.1 53436 9320.4 55289.5 11229.5 56969.4 13292.9 58463.2 15494.8 59759.3 17818.6 60848 20246.4 61720.9 22760 62371.5 25340 62794.7 27966.9 62987.3 30620.7 62948 33281.2 62676.9 35928.1 62176.1 38541.4 61449.5 41101 60502.5 43587.6 59342.5 45982.2 57978.1 48266.6 56419.9 50423.3 54679.6 52436.1 52770.5 54289.5 50707.1 55969.4 48505.2 57463.2 46181.4 58759.3 43753.5 59848 41240 60721 38660 61371.5 38660 16870 5737.8 16870 M 14750 12942.7 14742.5 12828.4 14727.6 12714.8 14705.2 12602.4 14675.5 12491.7 14638.7 12383.2 14594.9 12277.4 14544.2 12174.6 14486.9 12075.4 14423.2 11980.1 14353.5 11889.2 14277.9 11803.1 14196.9 11722.1 14110.8 11646.5 14019.9 11576.8 13924.6 11513.1 13825.4 11455.8 13722.6 11405.1 13616.8 11361.3 13508.3 11324.5 13397.6 11294.8 13285.2 11272.5 13171.6 11257.5 13057.3 11250 12942.7 11250 12828.4 11257.5 12714.8 11272.5 12602.4 11294.8 12491.7 11324.5 12383.2 11361.3 12277.4 11405.1 12174.6 11455.8 12075.4 11513.1 11980.1 11576.8 11889.2 11646.5 11803.1 11722.1 11722.1 11803.1 11646.5 11889.2 11576.8 11980.1 11513.1 12075.4 11455.8 12174.6 11405.1 12277.4 11361.3 12383.2 11324.5 12491.7 11294.8 12602.4 11272.5 12714.8 11257.5 12828.4 11250 12942.7 11250 13057.3 11257.5 13171.6 11272.5 13285.2 11294.8 13397.6 11324.5 13508.3 11361.3 13616.8 11405.1 13722.6 11455.8 13825.4 11513.1 13924.6 11576.8 14019.9 11646.5 14110.8 11722.1 14196.9 11803.1 14277.9 11889.2 14353.5 11980.1 14423.2 12075.4 14486.9 12174.6 14544.2 12277.4 14594.9 12383.2 14638.7 12491.7 14675.5 12602.4 14705.2 12714.8 14727.6 12828.4 14742.5 12942.7 14750 13057.3 14750 13171.6 14742.5 13285.2 14727.6 13397.6 14705.2 13508.3 14675.5 13616.8 14638.7 13722.6 14594.9 13825.4 14544.2 13924.6 14486.9 14019.9 14423.2 14110.8 14353.5 14196.9 14277.9 14277.9 14196.9 14353.5 14110.8 14423.2 14019.9 14486.9 13924.6 14544.2 13825.4 14594.9 13722.6 14638.7 13616.8 14675.5 13508.3 14705.2 13397.6 14727.6 13285.2 14742.5 13171.6 14750 13057.3 14750 12942.7 M 53750 12942.7 53742.5 12828.4 53727.6 12714.8 53705.2 12602.4 53675.5 12491.7 53638.7 12383.2 53594.9 12277.4 53544.2 12174.6 53486.9 12075.4 53423.2 11980.1 53353.5 11889.2 53277.9 11803.1 53196.9 11722.1 53110.8 11646.5 53019.9 11576.8 52924.6 11513.1 52825.4 11455.8 52722.6 11405.1 52616.8 11361.3 52508.3 11324.5 52397.6 11294.8 52285.2 11272.5 52171.6 11257.5 52057.3 11250 51942.7 11250 51828.4 11257.5 51714.8 11272.5 51602.4 11294.8 51491.7 11324.5 51383.2 11361.3 51277.4 11405.1 51174.6 11455.8 51075.4 11513.1 50980.1 11576.8 50889.2 11646.5 50803.1 11722.1 50722.1 11803.1 50646.5 11889.2 50576.8 11980.1 50513.1 12075.4 50455.8 12174.6 50405.1 12277.4 50361.3 12383.2 50324.5 12491.7 50294.8 12602.4 50272.5 12714.8 50257.5 12828.4 50250 12942.7 50250 13057.3 50257.5 13171.6 50272.5 13285.2 50294.8 13397.6 50324.5 13508.3 50361.3 13616.8 50405.1 13722.6 50455.8 13825.4 50513.1 13924.6 50576.8 14019.9 50646.5 14110.8 50722.1 14196.9 50803.1 14277.9 50889.2 14353.5 50980.1 14423.2 51075.4 14486.9 51174.6 14544.2 51277.4 14594.9 51383.2 14638.7 51491.7 14675.5 51602.4 14705.2 51714.8 14727.6 51828.4 14742.5 51942.7 14750 52057.3 14750 52171.6 14742.5 52285.2 14727.6 52397.6 14705.2 52508.3 14675.5 52616.8 14638.7 52722.6 14594.9 52825.4 14544.2 52924.6 14486.9 53019.9 14423.2 53110.8 14353.5 53196.9 14277.9 53277.9 14196.9 53353.5 14110.8 53423.2 14019.9 53486.9 13924.6 53544.2 13825.4 53594.9 13722.6 53638.7 13616.8 53675.5 13508.3 53705.2 13397.6 53727.6 13285.2 53742.5 13171.6 53750 13057.3 53750 12942.7 M 44750 55942.7 44742.5 55828.4 44727.6 55714.8 44705.2 55602.4 44675.5 55491.7 44638.7 55383.2 44594.9 55277.4 44544.2 55174.6 44486.9 55075.4 44423.2 54980.1 44353.5 54889.2 44277.9 54803.1 44196.9 54722.1 44110.8 54646.5 44019.9 54576.8 43924.6 54513.1 43825.4 54455.8 43722.6 54405.1 43616.8 54361.3 43508.3 54324.5 43397.6 54294.8 43285.2 54272.5 43171.6 54257.5 43057.3 54250 42942.7 54250 42828.4 54257.5 42714.8 54272.5 42602.4 54294.8 42491.7 54324.5 42383.2 54361.3 42277.4 54405.1 42174.6 54455.8 42075.4 54513.1 41980.1 54576.8 41889.2 54646.5 41803.1 54722.1 41722.1 54803.1 41646.5 54889.2 41576.8 54980.1 41513.1 55075.4 41455.8 55174.6 41405.1 55277.4 41361.3 55383.2 41324.5 55491.7 41294.8 55602.4 41272.5 55714.8 41257.5 55828.4 41250 55942.7 41250 56057.3 41257.5 56171.6 41272.5 56285.2 41294.8 56397.6 41324.5 56508.3 41361.3 56616.8 41405.1 56722.6 41455.8 56825.4 41513.1 56924.6 41576.8 57019.9 41646.5 57110.8 41722.1 57196.9 41803.1 57277.9 41889.2 57353.5 41980.1 57423.2 42075.4 57486.9 42174.6 57544.2 42277.4 57594.9 42383.2 57638.7 42491.7 57675.5 42602.4 57705.2 42714.8 57727.6 42828.4 57742.5 42942.7 57750 43057.3 57750 43171.6 57742.5 43285.2 57727.6 43397.6 57705.2 43508.3 57675.5 43616.8 57638.7 43722.6 57594.9 43825.4 57544.2 43924.6 57486.9 44019.9 57423.2 44110.8 57353.5 44196.9 57277.9 44277.9 57196.9 44353.5 57110.8 44423.2 57019.9 44486.9 56924.6 44544.2 56825.4 44594.9 56722.6 44638.7 56616.8 44675.5 56508.3 44705.2 56397.6 44727.6 56285.2 44742.5 56171.6 44750 56057.3 44750 55942.7" fill="none" stroke-width="254"/></g></svg>