<svg version="1.1" xmlns="http://www.w3.org/2000/svg" xmlns:xlink="http://www.w3.org/1999/xlink" stroke-linecap="round" stroke-linejoin="round" stroke-width="0" fill-rule="evenodd" width="57.5035mm" height="60.6129mm" viewBox="5610.8 885.6 57503.5 60612.9" id="ZdcbuMydZjo7PQCw3bV1"><defs><circle cx="0" cy="0" r="250" id="ZdcbuMydZjo7PQCw3bV1_pad-11"/></defs><g transform="translate(0,62384.1) scale(1,-1)" fill="currentColor" stroke="currentColor"><path d="M 55854.6 45742.4 57277 45742.4 57277 46137.5 57276.8 46149.9 57276.2 46162.3 57275.2 46174.7 57273.9 46187 57272.1 46199.3 57270 46211.5 57267.5 46223.7 57264.6 46235.8 57261.3 46247.7 57257.7 46259.6 57253.6 46271.3 57249.3 46282.9 57244.5 46294.4 57239.4 46305.7 57233.9 46316.9 57228.1 46327.8 57222 46338.6 57215.5 46349.2 57208.7 46359.6 57201.5 46369.7 57194.1 46379.7 57186.3 46389.3 57178.3 46398.8 57169.9 46408 57161.3 46416.9 57152.4 46425.5 57143.2 46433.9 57133.7 46441.9 57124.1 46449.7 57114.1 46457.1 57104 46464.3 57093.6 46471.1 57083 46477.6 57072.2 46483.7 57061.3 46489.5 57050.1 46495 57038.8 46500.1 57027.3 46504.9 57015.7 46509.2 57004 46513.3 56992.1 46516.9 56980.2 46520.2 56968.1 46523.1 56955.9 46525.6 56943.7 46527.7 56931.4 46529.5 56919.1 46530.8 56906.7 46531.8 56894.3 46532.4 56881.9 46532.6 56869.5 46532.4 56857.1 46531.8 56844.7 46530.8 56832.4 46529.5 56820.1 46527.7 56807.9 46525.6 56795.7 46523.1 56783.6 46520.2 56771.7 46516.9 56759.8 46513.3 56748.1 46509.2 56736.5 46504.9 56725 46500.1 56713.7 46495 56702.5 46489.5 56691.6 46483.7 56680.8 46477.6 56670.2 46471.1 56659.8 46464.3 56649.7 46457.1 56639.7 46449.7 56630.1 46441.9 56620.6 46433.9 56611.4 46425.5 56602.5 46416.9 56593.9 46408 56585.5 46398.8 56577.5 46389.3 56569.7 46379.7 56562.3 46369.7 56555.1 46359.6 56548.3 46349.2 56541.8 46338.6 56535.7 46327.8 56529.9 46316.9 56524.4 46305.7 56519.3 46294.4 56514.5 46282.9 56510.2 46271.3 56506.1 46259.6 56502.5 46247.7 56499.2 46235.8 56496.3 46223.7 56493.8 46211.5 56491.7 46199.3 56489.9 46187 56488.6 46174.7 56487.6 46162.3 56487 46149.9 56486.8 46137.5 56486.8 45742.4 M 56486.8 46216.5 55854.6 46532.6 M 55854.6 47215.8 55854.6 47610.9 55854.8 47623.3 55855.4 47635.7 55856.4 47648.1 55857.7 47660.4 55859.5 47672.7 55861.6 47684.9 55864.1 47697.1 55867 47709.2 55870.3 47721.1 55873.9 47733 55878 47744.7 55882.3 47756.3 55887.1 47767.8 55892.2 47779.1 55897.7 47790.3 55903.5 47801.2 55909.6 47812 55916.1 47822.6 55922.9 47833 55930.1 47843.1 55937.5 47853.1 55945.3 47862.7 55953.3 47872.2 55961.7 47881.4 55970.3 47890.3 55979.2 47898.9 55988.4 47907.3 55997.9 47915.3 56007.5 47923.1 56017.5 47930.5 56027.6 47937.7 56038 47944.5 56048.6 47951 56059.4 47957.1 56070.3 47962.9 56081.5 47968.4 56092.8 47973.5 56104.3 47978.3 56115.9 47982.6 56127.6 47986.7 56139.5 47990.3 56151.4 47993.6 56163.5 47996.5 56175.7 47999 56187.9 48001.1 56200.2 48002.9 56212.5 48004.2 56224.9 48005.2 56237.3 48005.8 56249.7 48006 56262.1 48005.8 56274.5 48005.2 56286.9 48004.2 56299.2 48002.9 56311.5 48001.1 56323.7 47999 56335.9 47996.5 56348 47993.6 56359.9 47990.3 56371.8 47986.7 56383.5 47982.6 56395.1 47978.3 56406.6 47973.5 56417.9 47968.4 56429.1 47962.9 56440 47957.1 56450.8 47951 56461.4 47944.5 56471.8 47937.7 56481.9 47930.5 56491.9 47923.1 56501.5 47915.3 56511 47907.3 56520.2 47898.9 56529.1 47890.3 56537.7 47881.4 56546.1 47872.2 56554.1 47862.7 56561.9 47853.1 56569.3 47843.1 56576.5 47833 56583.3 47822.6 56589.8 47812 56595.9 47801.2 56601.7 47790.3 56607.2 47779.1 56612.3 47767.8 56617.1 47756.3 56621.4 47744.7 56625.5 47733 56629.1 47721.1 56632.4 47709.2 56635.3 47697.1 56637.8 47684.9 56639.9 47672.7 56641.7 47660.4 56643 47648.1 56644 47635.7 56644.6 47623.3 56644.8 47610.9 M 57277 47689.9 57277 47215.8 M 57277 47689.9 57276.8 47701.1 57276.2 47712.2 57275.2 47723.3 57273.9 47734.4 57272.1 47745.4 57269.9 47756.3 57267.4 47767.2 57264.5 47778 57261.2 47788.6 57257.5 47799.2 57253.5 47809.6 57249.1 47819.8 57244.3 47829.9 57239.2 47839.8 57233.7 47849.6 57227.9 47859.1 57221.8 47868.4 57215.3 47877.5 57208.5 47886.4 57201.4 47895 57194.1 47903.3 57186.4 47911.4 57178.4 47919.3 57170.2 47926.8 57161.7 47934 57153 47941 57144 47947.6 57134.8 47953.9 57125.3 47959.9 57115.7 47965.5 57105.9 47970.8 57095.9 47975.7 57085.7 47980.3 57075.4 47984.5 57064.9 47988.4 57054.3 47991.9 57043.6 47995 57032.8 47997.7 57021.9 48000.1 57010.9 48002 56999.9 48003.6 56988.8 48004.8 56977.6 48005.6 56966.5 48006 56955.3 48006 56944.2 48005.6 56933 48004.8 56921.9 48003.6 56910.9 48002 56899.9 48000.1 56889 47997.7 56878.2 47995 56867.5 47991.9 56856.9 47988.4 56846.4 47984.5 56836.1 47980.3 56825.9 47975.7 56815.9 47970.8 56806.1 47965.5 56796.5 47959.9 56787 47953.9 56777.8 47947.6 56768.8 47941 56760.1 47934 56751.6 47926.8 56743.4 47919.3 56735.4 47911.4 56727.7 47903.3 56720.4 47895 56713.3 47886.4 56706.5 47877.5 56700 47868.4 56693.9 47859.1 56688.1 47849.6 56682.6 47839.8 56677.5 47829.9 56672.7 47819.8 56668.3 47809.6 56664.3 47799.2 56660.6 47788.6 56657.3 47778 56654.4 47767.2 56651.9 47756.3 56649.7 47745.4 56647.9 47734.4 56646.6 47723.3 56645.6 47712.2 56645 47701.1 56644.8 47689.9 56644.8 47373.8 M 59690 37911 61112.4 37911 61112.4 38306.1 61112.2 38318.5 61111.6 38330.9 61110.6 38343.3 61109.3 38355.6 61107.5 38367.9 61105.4 38380.1 61102.9 38392.3 61100 38404.4 61096.7 38416.3 61093.1 38428.2 61089 38439.9 61084.7 38451.5 61079.9 38463 61074.8 38474.3 61069.3 38485.5 61063.5 38496.4 61057.4 38507.2 61050.9 38517.8 61044.1 38528.2 61036.9 38538.3 61029.5 38548.3 61021.7 38557.9 61013.7 38567.4 61005.3 38576.6 60996.7 38585.5 60987.8 38594.1 60978.6 38602.5 60969.1 38610.5 60959.5 38618.3 60949.5 38625.7 60939.4 38632.9 60929 38639.7 60918.4 38646.2 60907.6 38652.3 60896.7 38658.1 60885.5 38663.6 60874.2 38668.7 60862.7 38673.5 60851.1 38677.8 60839.4 38681.9 60827.5 38685.5 60815.6 38688.8 60803.5 38691.7 60791.3 38694.2 60779.1 38696.3 60766.8 38698.1 60754.5 38699.4 60742.1 38700.4 60729.7 38701 60717.3 38701.2 60704.9 38701 60692.5 38700.4 60680.1 38699.4 60667.8 38698.1 60655.5 38696.3 60643.3 38694.2 60631.1 38691.7 60619 38688.8 60607.1 38685.5 60595.2 38681.9 60583.5 38677.8 60571.9 38673.5 60560.4 38668.7 60549.1 38663.6 60537.9 38658.1 60527 38652.3 60516.2 38646.2 60505.6 38639.7 60495.2 38632.9 60485.1 38625.7 60475.1 38618.3 60465.5 38610.5 60456 38602.5 60446.8 38594.1 60437.9 38585.5 60429.3 38576.6 60420.9 38567.4 60412.9 38557.9 60405.1 38548.3 60397.7 38538.3 60390.5 38528.2 60383.7 38517.8 60377.2 38507.2 60371.1 38496.4 60365.3 38485.5 60359.8 38474.3 60354.7 38463 60349.9 38451.5 60345.6 38439.9 60341.5 38428.2 60337.9 38416.3 60334.6 38404.4 60331.7 38392.3 60329.2 38380.1 60327.1 38367.9 60325.3 38355.6 60324 38343.3 60323 38330.9 60322.4 38318.5 60322.2 38306.1 60322.2 37911 M 60322.2 38385.1 59690 38701.2 M 60006.1 39384.4 61112.4 39700.5 M 60006.1 39384.4 60006.1 40174.6 M 60322.2 39937.5 59690 39937.5 M 58905.6 32639 58905.6 31216.6 M 58905.6 32639 58510.5 32639 58498.1 32638.8 58485.7 32638.2 58473.3 32637.2 58461 32635.9 58448.7 32634.1 58436.5 32632 58424.3 32629.5 58412.2 32626.6 58400.3 32623.3 58388.4 32619.7 58376.7 32615.6 58365.1 32611.3 58353.6 32606.5 58342.3 32601.4 58331.1 32595.9 58320.2 32590.1 58309.4 32584 58298.8 32577.5 58288.4 32570.7 58278.3 32563.5 58268.3 32556.1 58258.7 32548.3 58249.2 32540.3 58240 32531.9 58231.1 32523.3 58222.5 32514.4 58214.1 32505.2 58206.1 32495.7 58198.3 32486.1 58190.9 32476.1 58183.7 32466 58176.9 32455.6 58170.4 32445 58164.3 32434.2 58158.5 32423.3 58153 32412.1 58147.9 32400.8 58143.1 32389.3 58138.8 32377.7 58134.7 32366 58131.1 32354.1 58127.8 32342.2 58124.9 32330.1 58122.4 32317.9 58120.3 32305.7 58118.5 32293.4 58117.2 32281.1 58116.2 32268.7 58115.6 32256.3 58115.4 32243.9 58115.6 32231.5 58116.2 32219.1 58117.2 32206.7 58118.5 32194.4 58120.3 32182.1 58122.4 32169.9 58124.9 32157.7 58127.8 32145.6 58131.1 32133.7 58134.7 32121.8 58138.8 32110.1 58143.1 32098.5 58147.9 32087 58153 32075.7 58158.5 32064.5 58164.3 32053.6 58170.4 32042.8 58176.9 32032.2 58183.7 32021.8 58190.9 32011.7 58198.3 32001.7 58206.1 31992.1 58214.1 31982.6 58222.5 31973.4 58231.1 31964.5 58240 31955.9 58249.2 31947.5 58258.7 31939.5 58268.3 31931.7 58278.3 31924.3 58288.4 31917.1 58298.8 31910.3 58309.4 31903.8 58320.2 31897.7 58331.1 31891.9 58342.3 31886.4 58353.6 31881.3 58365.1 31876.5 58376.7 31872.2 58388.4 31868.1 58400.3 31864.5 58412.2 31861.2 58424.3 31858.3 58436.5 31855.8 58448.7 31853.7 58461 31851.9 58473.3 31850.6 58485.7 31849.6 58498.1 31849 58510.5 31848.8 58905.6 31848.8 M 58431.5 31848.8 58115.4 31216.6 M 57432.2 31216.6 56958.1 31216.6 56947.1 31216.8 56936.1 31217.4 56925.1 31218.3 56914.1 31219.7 56903.2 31221.4 56892.4 31223.5 56881.6 31226 56871 31228.8 56860.4 31232.1 56850 31235.7 56839.7 31239.6 56829.5 31243.9 56819.5 31248.6 56809.7 31253.6 56800.1 31258.9 56790.6 31264.6 56781.3 31270.6 56772.3 31277 56763.5 31283.6 56754.9 31290.6 56746.6 31297.8 56738.5 31305.3 56730.7 31313.1 56723.2 31321.2 56716 31329.5 56709 31338.1 56702.4 31346.9 56696 31355.9 56690 31365.2 56684.4 31374.6 56679 31384.3 56674 31394.1 56669.3 31404.1 56665 31414.3 56661.1 31424.6 56657.5 31435 56654.2 31445.6 56651.4 31456.2 56648.9 31467 56646.8 31477.8 56645.1 31488.7 56643.7 31499.7 56642.8 31510.6 56642.2 31521.7 56642 31532.7 56642 31690.7 56642.2 31701.7 56642.8 31712.8 56643.7 31723.7 56645.1 31734.7 56646.8 31745.6 56648.9 31756.4 56651.4 31767.2 56654.2 31777.8 56657.5 31788.4 56661.1 31798.8 56665 31809.1 56669.3 31819.3 56674 31829.3 56679 31839.1 56684.3 31848.8 56690 31858.2 56696 31867.5 56702.4 31876.5 56709 31885.3 56716 31893.9 56723.2 31902.2 56730.7 31910.3 56738.5 31918.1 56746.6 31925.6 56754.9 31932.8 56763.5 31939.8 56772.3 31946.4 56781.3 31952.8 56790.6 31958.8 56800.1 31964.5 56809.7 31969.8 56819.5 31974.8 56829.5 31979.5 56839.7 31983.8 56850 31987.7 56860.4 31991.3 56871 31994.6 56881.6 31997.4 56892.4 31999.9 56903.2 32002 56914.1 32003.7 56925.1 32005.1 56936.1 32006 56947.1 32006.6 56958.1 32006.8 57432.2 32006.8 57432.2 32639 56642 32639 M 53746.4 20447 52324 20447 M 53746.4 20447 53746.4 20842.1 53746.2 20854.5 53745.6 20866.9 53744.6 20879.3 53743.3 20891.6 53741.5 20903.9 53739.4 20916.1 53736.9 20928.3 53734 20940.4 53730.7 20952.3 53727.1 20964.2 53723 20975.9 53718.7 20987.5 53713.9 20999 53708.8 21010.3 53703.3 21021.5 53697.5 21032.4 53691.4 21043.2 53684.9 21053.8 53678.1 21064.2 53670.9 21074.3 53663.5 21084.3 53655.7 21093.9 53647.7 21103.4 53639.3 21112.6 53630.7 21121.5 53621.8 21130.1 53612.6 21138.5 53603.1 21146.5 53593.5 21154.3 53583.5 21161.7 53573.4 21168.9 53563 21175.7 53552.4 21182.2 53541.6 21188.3 53530.7 21194.1 53519.5 21199.6 53508.2 21204.7 53496.7 21209.5 53485.1 21213.8 53473.4 21217.9 53461.5 21221.5 53449.6 21224.8 53437.5 21227.7 53425.3 21230.2 53413.1 21232.3 53400.8 21234.1 53388.5 21235.4 53376.1 21236.4 53363.7 21237 53351.3 21237.2 53338.9 21237 53326.5 21236.4 53314.1 21235.4 53301.8 21234.1 53289.5 21232.3 53277.3 21230.2 53265.1 21227.7 53253 21224.8 53241.1 21221.5 53229.2 21217.9 53217.5 21213.8 53205.9 21209.5 53194.4 21204.7 53183.1 21199.6 53171.9 21194.1 53161 21188.3 53150.2 21182.2 53139.6 21175.7 53129.2 21168.9 53119.1 21161.7 53109.1 21154.3 53099.5 21146.5 53090 21138.5 53080.8 21130.1 53071.9 21121.5 53063.3 21112.6 53054.9 21103.4 53046.9 21093.9 53039.1 21084.3 53031.7 21074.3 53024.5 21064.2 53017.7 21053.8 53011.2 21043.2 53005.1 21032.4 52999.3 21021.5 52993.8 21010.3 52988.7 20999 52983.9 20987.5 52979.6 20975.9 52975.5 20964.2 52971.9 20952.3 52968.6 20940.4 52965.7 20928.3 52963.2 20916.1 52961.1 20903.9 52959.3 20891.6 52958 20879.3 52957 20866.9 52956.4 20854.5 52956.2 20842.1 52956.2 20447 M 52956.2 20921.1 52324 21237.2 M 53114.2 21920.4 53114.2 22394.5 53114 22405.5 53113.4 22416.6 53112.5 22427.5 53111.1 22438.5 53109.4 22449.4 53107.3 22460.2 53104.8 22471 53102 22481.6 53098.7 22492.2 53095.1 22502.6 53091.2 22512.9 53086.9 22523.1 53082.2 22533.1 53077.2 22542.9 53071.9 22552.6 53066.2 22562 53060.2 22571.3 53053.8 22580.3 53047.2 22589.1 53040.2 22597.7 53033 22606 53025.5 22614.1 53017.7 22621.9 53009.6 22629.4 53001.3 22636.6 52992.7 22643.6 52983.9 22650.2 52974.9 22656.6 52965.6 22662.6 52956.2 22668.3 52946.5 22673.6 52936.7 22678.6 52926.7 22683.3 52916.5 22687.6 52906.2 22691.5 52895.8 22695.1 52885.2 22698.4 52874.6 22701.2 52863.8 22703.7 52853 22705.8 52842.1 22707.5 52831.1 22708.9 52820.2 22709.8 52809.1 22710.4 52798.1 22710.6 52719.1 22710.6 52706.7 22710.4 52694.3 22709.8 52681.9 22708.8 52669.6 22707.5 52657.3 22705.7 52645.1 22703.6 52632.9 22701.1 52620.8 22698.2 52608.9 22694.9 52597 22691.3 52585.3 22687.2 52573.7 22682.9 52562.2 22678.1 52550.9 22673 52539.7 22667.5 52528.8 22661.7 52518 22655.6 52507.4 22649.1 52497 22642.3 52486.9 22635.1 52476.9 22627.7 52467.3 22619.9 52457.8 22611.9 52448.6 22603.5 52439.7 22594.9 52431.1 22586 52422.7 22576.8 52414.7 22567.3 52406.9 22557.7 52399.5 22547.7 52392.3 22537.6 52385.5 22527.2 52379 22516.6 52372.9 22505.8 52367.1 22494.9 52361.6 22483.7 52356.5 22472.4 52351.7 22460.9 52347.4 22449.3 52343.3 22437.6 52339.7 22425.7 52336.4 22413.8 52333.5 22401.7 52331 22389.5 52328.9 22377.3 52327.1 22365 52325.8 22352.7 52324.8 22340.3 52324.2 22327.9 52324 22315.5 52324.2 22303.1 52324.8 22290.7 52325.8 22278.3 52327.1 22266 52328.9 22253.7 52331 22241.5 52333.5 22229.3 52336.4 22217.2 52339.7 22205.3 52343.3 22193.4 52347.4 22181.7 52351.7 22170.1 52356.5 22158.6 52361.6 22147.3 52367.1 22136.1 52372.9 22125.2 52379 22114.4 52385.5 22103.8 52392.3 22093.4 52399.5 22083.3 52406.9 22073.3 52414.7 22063.7 52422.7 22054.2 52431.1 22045 52439.7 22036.1 52448.6 22027.5 52457.8 22019.1 52467.3 22011.1 52476.9 22003.3 52486.9 21995.9 52497 21988.7 52507.4 21981.9 52518 21975.4 52528.8 21969.3 52539.7 21963.5 52550.9 21958 52562.2 21952.9 52573.7 21948.1 52585.3 21943.8 52597 21939.7 52608.9 21936.1 52620.8 21932.8 52632.9 21929.9 52645.1 21927.4 52657.3 21925.3 52669.6 21923.5 52681.9 21922.2 52694.3 21921.2 52706.7 21920.6 52719.1 21920.4 53114.2 21920.4 53130 21920.6 53145.7 21921.2 53161.4 21922.2 53177.1 21923.5 53192.8 21925.3 53208.4 21927.5 53224 21930 53239.5 21932.9 53254.9 21936.3 53270.2 21939.9 53285.4 21944 53300.5 21948.5 53315.5 21953.3 53330.4 21958.5 53345.2 21964.1 53359.8 21970 53374.2 21976.3 53388.5 21983 53402.6 21990 53416.6 21997.4 53430.3 22005.1 53443.9 22013.1 53457.2 22021.5 53470.3 22030.3 53483.2 22039.3 53495.9 22048.7 53508.4 22058.3 53520.6 22068.3 53532.5 22078.6 53544.2 22089.2 53555.6 22100 53566.8 22111.2 53577.6 22122.6 53588.2 22134.3 53598.5 22146.2 53608.5 22158.4 53618.1 22170.9 53627.5 22183.6 53636.5 22196.5 53645.3 22209.6 53653.6 22222.9 53661.7 22236.5 53669.4 22250.2 53676.8 22264.2 53683.8 22278.3 53690.5 22292.6 53696.8 22307 53702.7 22321.6 53708.3 22336.4 53713.5 22351.3 53718.3 22366.3 53722.8 22381.4 53726.9 22396.6 53730.5 22411.9 53733.9 22427.3 53736.8 22442.8 53739.3 22458.4 53741.5 22474 53743.3 22489.7 53744.6 22505.4 53745.6 22521.1 53746.2 22536.8 53746.4 22552.6 M 47015.4 20193 45593 20193 M 47015.4 20193 47015.4 20588.1 47015.2 20600.5 47014.6 20612.9 47013.6 20625.3 47012.3 20637.6 47010.5 20649.9 47008.4 20662.1 47005.9 20674.3 47003 20686.4 46999.7 20698.3 46996.1 20710.2 46992 20721.9 46987.7 20733.5 46982.9 20745 46977.8 20756.3 46972.3 20767.5 46966.5 20778.4 46960.4 20789.2 46953.9 20799.8 46947.1 20810.2 46939.9 20820.3 46932.5 20830.3 46924.7 20839.9 46916.7 20849.4 46908.3 20858.6 46899.7 20867.5 46890.8 20876.1 46881.6 20884.5 46872.1 20892.5 46862.5 20900.3 46852.5 20907.7 46842.4 20914.9 46832 20921.7 46821.4 20928.2 46810.6 20934.3 46799.7 20940.1 46788.5 20945.6 46777.2 20950.7 46765.7 20955.5 46754.1 20959.8 46742.4 20963.9 46730.5 20967.5 46718.6 20970.8 46706.5 20973.7 46694.3 20976.2 46682.1 20978.3 46669.8 20980.1 46657.5 20981.4 46645.1 20982.4 46632.7 20983 46620.3 20983.2 46607.9 20983 46595.5 20982.4 46583.1 20981.4 46570.8 20980.1 46558.5 20978.3 46546.3 20976.2 46534.1 20973.7 46522 20970.8 46510.1 20967.5 46498.2 20963.9 46486.5 20959.8 46474.9 20955.5 46463.4 20950.7 46452.1 20945.6 46440.9 20940.1 46430 20934.3 46419.2 20928.2 46408.6 20921.7 46398.2 20914.9 46388.1 20907.7 46378.1 20900.3 46368.5 20892.5 46359 20884.5 46349.8 20876.1 46340.9 20867.5 46332.3 20858.6 46323.9 20849.4 46315.9 20839.9 46308.1 20830.3 46300.7 20820.3 46293.5 20810.2 46286.7 20799.8 46280.2 20789.2 46274.1 20778.4 46268.3 20767.5 46262.8 20756.3 46257.7 20745 46252.9 20733.5 46248.6 20721.9 46244.5 20710.2 46240.9 20698.3 46237.6 20686.4 46234.7 20674.3 46232.2 20662.1 46230.1 20649.9 46228.3 20637.6 46227 20625.3 46226 20612.9 46225.4 20600.5 46225.2 20588.1 46225.2 20193 M 46225.2 20667.1 45593 20983.2 M 46857.4 21666.4 47015.4 21666.4 47015.4 22456.6 45593 22061.5 M 48869.6 49425.4 50292 49425.4 50292 49820.5 50291.8 49832.9 50291.2 49845.3 50290.2 49857.7 50288.9 49870 50287.1 49882.3 50285 49894.5 50282.5 49906.7 50279.6 49918.8 50276.3 49930.7 50272.7 49942.6 50268.6 49954.3 50264.3 49965.9 50259.5 49977.4 50254.4 49988.7 50248.9 49999.9 50243.1 50010.8 50237 50021.6 50230.5 50032.2 50223.7 50042.6 50216.5 50052.7 50209.1 50062.7 50201.3 50072.3 50193.3 50081.8 50184.9 50091 50176.3 50099.9 50167.4 50108.5 50158.2 50116.9 50148.7 50124.9 50139.1 50132.7 50129.1 50140.1 50119 50147.3 50108.6 50154.1 50098 50160.6 50087.2 50166.7 50076.3 50172.5 50065.1 50178 50053.8 50183.1 50042.3 50187.9 50030.7 50192.2 50019 50196.3 50007.1 50199.9 49995.2 50203.2 49983.1 50206.1 49970.9 50208.6 49958.7 50210.7 49946.4 50212.5 49934.1 50213.8 49921.7 50214.8 49909.3 50215.4 49896.9 50215.6 49884.5 50215.4 49872.1 50214.8 49859.7 50213.8 49847.4 50212.5 49835.1 50210.7 49822.9 50208.6 49810.7 50206.1 49798.6 50203.2 49786.7 50199.9 49774.8 50196.3 49763.1 50192.2 49751.5 50187.9 49740 50183.1 49728.7 50178 49717.5 50172.5 49706.6 50166.7 49695.8 50160.6 49685.2 50154.1 49674.8 50147.3 49664.7 50140.1 49654.7 50132.7 49645.1 50124.9 49635.6 50116.9 49626.4 50108.5 49617.5 50099.9 49608.9 50091 49600.5 50081.8 49592.5 50072.3 49584.7 50062.7 49577.3 50052.7 49570.1 50042.6 49563.3 50032.2 49556.8 50021.6 49550.7 50010.8 49544.9 49999.9 49539.4 49988.7 49534.3 49977.4 49529.5 49965.9 49525.2 49954.3 49521.1 49942.6 49517.5 49930.7 49514.2 49918.8 49511.3 49906.7 49508.8 49894.5 49506.7 49882.3 49504.9 49870 49503.6 49857.7 49502.6 49845.3 49502 49832.9 49501.8 49820.5 49501.8 49425.4 M 49501.8 49899.5 48869.6 50215.6 M 49264.7 50898.8 49277.1 50899 49289.5 50899.6 49301.9 50900.6 49314.2 50901.9 49326.5 50903.7 49338.7 50905.8 49350.9 50908.3 49363 50911.2 49374.9 50914.5 49386.8 50918.1 49398.5 50922.2 49410.1 50926.5 49421.6 50931.3 49432.9 50936.4 49444.1 50941.9 49455 50947.7 49465.8 50953.8 49476.4 50960.3 49486.8 50967.1 49496.9 50974.3 49506.9 50981.7 49516.5 50989.5 49526 50997.5 49535.2 51005.9 49544.1 51014.5 49552.7 51023.4 49561.1 51032.6 49569.1 51042.1 49576.9 51051.7 49584.3 51061.7 49591.5 51071.8 49598.3 51082.2 49604.8 51092.8 49610.9 51103.6 49616.7 51114.5 49622.2 51125.7 49627.3 51137 49632.1 51148.5 49636.4 51160.1 49640.5 51171.8 49644.1 51183.7 49647.4 51195.6 49650.3 51207.7 49652.8 51219.9 49654.9 51232.1 49656.7 51244.4 49658 51256.7 49659 51269.1 49659.6 51281.5 49659.8 51293.9 49659.6 51306.3 49659 51318.7 49658 51331.1 49656.7 51343.4 49654.9 51355.7 49652.8 51367.9 49650.3 51380.1 49647.4 51392.2 49644.1 51404.1 49640.5 51416 49636.4 51427.7 49632.1 51439.3 49627.3 51450.8 49622.2 51462.1 49616.7 51473.3 49610.9 51484.2 49604.8 51495 49598.3 51505.6 49591.5 51516 49584.3 51526.1 49576.9 51536.1 49569.1 51545.7 49561.1 51555.2 49552.7 51564.4 49544.1 51573.3 49535.2 51581.9 49526 51590.3 49516.5 51598.3 49506.9 51606.1 49496.9 51613.5 49486.8 51620.7 49476.4 51627.5 49465.8 51634 49455 51640.1 49444.1 51645.9 49432.9 51651.4 49421.6 51656.5 49410.1 51661.3 49398.5 51665.6 49386.8 51669.7 49374.9 51673.3 49363 51676.6 49350.9 51679.5 49338.7 51682 49326.5 51684.1 49314.2 51685.9 49301.9 51687.2 49289.5 51688.2 49277.1 51688.8 49264.7 51689 49252.3 51688.8 49239.9 51688.2 49227.5 51687.2 49215.2 51685.9 49202.9 51684.1 49190.7 51682 49178.5 51679.5 49166.4 51676.6 49154.5 51673.3 49142.6 51669.7 49130.9 51665.6 49119.3 51661.3 49107.8 51656.5 49096.5 51651.4 49085.3 51645.9 49074.4 51640.1 49063.6 51634 49053 51627.5 49042.6 51620.7 49032.5 51613.5 49022.5 51606.1 49012.9 51598.3 49003.4 51590.3 48994.2 51581.9 48985.3 51573.3 48976.7 51564.4 48968.3 51555.2 48960.3 51545.7 48952.5 51536.1 48945.1 51526.1 48937.9 51516 48931.1 51505.6 48924.6 51495 48918.5 51484.2 48912.7 51473.3 48907.2 51462.1 48902.1 51450.8 48897.3 51439.3 48893 51427.7 48888.9 51416 48885.3 51404.1 48882 51392.2 48879.1 51380.1 48876.6 51367.9 48874.5 51355.7 48872.7 51343.4 48871.4 51331.1 48870.4 51318.7 48869.8 51306.3 48869.6 51293.9 48869.8 51281.5 48870.4 51269.1 48871.4 51256.7 48872.7 51244.4 48874.5 51232.1 48876.6 51219.9 48879.1 51207.7 48882 51195.6 48885.3 51183.7 48888.9 51171.8 48893 51160.1 48897.3 51148.5 48902.1 51137 48907.2 51125.7 48912.7 51114.5 48918.5 51103.6 48924.6 51092.8 48931.1 51082.2 48937.9 51071.8 48945.1 51061.7 48952.5 51051.7 48960.3 51042.1 48968.3 51032.6 48976.7 51023.4 48985.3 51014.5 48994.2 51005.9 49003.4 50997.5 49012.9 50989.5 49022.5 50981.7 49032.5 50974.3 49042.6 50967.1 49053 50960.3 49063.6 50953.8 49074.4 50947.7 49085.3 50941.9 49096.5 50936.4 49107.8 50931.3 49119.3 50926.5 49130.9 50922.2 49142.6 50918.1 49154.5 50914.5 49166.4 50911.2 49178.5 50908.3 49190.7 50905.8 49202.9 50903.7 49215.2 50901.9 49227.5 50900.6 49239.9 50899.6 49252.3 50899 49264.7 50898.8 M 49975.9 50977.8 49987.1 50978 49998.2 50978.6 50009.3 50979.6 50020.4 50980.9 50031.4 50982.7 50042.3 50984.9 50053.2 50987.4 50064 50990.3 50074.6 50993.6 50085.2 50997.3 50095.6 51001.3 50105.8 51005.7 50115.9 51010.5 50125.8 51015.6 50135.6 51021.1 50145.1 51026.9 50154.4 51033 50163.5 51039.5 50172.4 51046.3 50181 51053.4 50189.3 51060.7 50197.4 51068.4 50205.3 51076.4 50212.8 51084.6 50220 51093.1 50227 51101.8 50233.6 51110.8 50239.9 51120 50245.9 51129.5 50251.5 51139.1 50256.8 51148.9 50261.7 51158.9 50266.3 51169.1 50270.5 51179.4 50274.4 51189.9 50277.9 51200.5 50281 51211.2 50283.7 51222 50286.1 51232.9 50288 51243.9 50289.6 51254.9 50290.8 51266 50291.6 51277.2 50292 51288.3 50292 51299.5 50291.6 51310.6 50290.8 51321.8 50289.6 51332.9 50288 51343.9 50286.1 51354.9 50283.7 51365.8 50281 51376.6 50277.9 51387.3 50274.4 51397.9 50270.5 51408.4 50266.3 51418.7 50261.7 51428.9 50256.8 51438.9 50251.5 51448.7 50245.9 51458.3 50239.9 51467.8 50233.6 51477 50227 51486 50220 51494.7 50212.8 51503.2 50205.3 51511.4 50197.4 51519.4 50189.3 51527.1 50181 51534.4 50172.4 51541.5 50163.5 51548.3 50154.4 51554.8 50145.1 51560.9 50135.6 51566.7 50125.8 51572.2 50115.9 51577.3 50105.8 51582.1 50095.6 51586.5 50085.2 51590.5 50074.6 51594.2 50064 51597.5 50053.2 51600.4 50042.3 51602.9 50031.4 51605.1 50020.4 51606.9 50009.3 51608.2 49998.2 51609.2 49987.1 51609.8 49975.9 51610 49964.7 51609.8 49953.6 51609.2 49942.5 51608.2 49931.4 51606.9 49920.4 51605.1 49909.5 51602.9 49898.6 51600.4 49887.8 51597.5 49877.2 51594.2 49866.6 51590.5 49856.2 51586.5 49846 51582.1 49835.9 51577.3 49826 51572.2 49816.2 51566.7 49806.7 51560.9 49797.4 51554.8 49788.3 51548.3 49779.4 51541.5 49770.8 51534.4 49762.5 51527.1 49754.4 51519.4 49746.5 51511.4 49739 51503.2 49731.8 51494.7 49724.8 51486 49718.2 51477 49711.9 51467.8 49705.9 51458.3 49700.3 51448.7 49695 51438.9 49690.1 51428.9 49685.5 51418.7 49681.3 51408.4 49677.4 51397.9 49673.9 51387.3 49670.8 51376.6 49668.1 51365.8 49665.7 51354.9 49663.8 51343.9 49662.2 51332.9 49661 51321.8 49660.2 51310.6 49659.8 51299.5 49659.8 51288.3 49660.2 51277.2 49661 51266 49662.2 51254.9 49663.8 51243.9 49665.7 51232.9 49668.1 51222 49670.8 51211.2 49673.9 51200.5 49677.4 51189.9 49681.3 51179.4 49685.5 51169.1 49690.1 51158.9 49695 51148.9 49700.3 51139.1 49705.9 51129.5 49711.9 51120 49718.2 51110.8 49724.8 51101.8 49731.8 51093.1 49739 51084.6 49746.5 51076.4 49754.4 51068.4 49762.5 51060.7 49770.8 51053.4 49779.4 51046.3 49788.3 51039.5 49797.4 51033 49806.7 51026.9 49816.2 51021.1 49826 51015.6 49835.9 51010.5 49846 51005.7 49856.2 51001.3 49866.6 50997.3 49877.2 50993.6 49887.8 50990.3 49898.6 50987.4 49909.5 50984.9 49920.4 50982.7 49931.4 50980.9 49942.5 50979.6 49953.6 50978.6 49964.7 50978 49975.9 50977.8 M 47879 49425.4 46456.6 49425.4 M 47879 49425.4 47879 49820.5 47878.8 49832.9 47878.2 49845.3 47877.2 49857.7 47875.9 49870 47874.1 49882.3 47872 49894.5 47869.5 49906.7 47866.6 49918.8 47863.3 49930.7 47859.7 49942.6 47855.6 49954.3 47851.3 49965.9 47846.5 49977.4 47841.4 49988.7 47835.9 49999.9 47830.1 50010.8 47824 50021.6 47817.5 50032.2 47810.7 50042.6 47803.5 50052.7 47796.1 50062.7 47788.3 50072.3 47780.3 50081.8 47771.9 50091 47763.3 50099.9 47754.4 50108.5 47745.2 50116.9 47735.7 50124.9 47726.1 50132.7 47716.1 50140.1 47706 50147.3 47695.6 50154.1 47685 50160.6 47674.2 50166.7 47663.3 50172.5 47652.1 50178 47640.8 50183.1 47629.3 50187.9 47617.7 50192.2 47606 50196.3 47594.1 50199.9 47582.2 50203.2 47570.1 50206.1 47557.9 50208.6 47545.7 50210.7 47533.4 50212.5 47521.1 50213.8 47508.7 50214.8 47496.3 50215.4 47483.9 50215.6 47471.5 50215.4 47459.1 50214.8 47446.7 50213.8 47434.4 50212.5 47422.1 50210.7 47409.9 50208.6 47397.7 50206.1 47385.6 50203.2 47373.7 50199.9 47361.8 50196.3 47350.1 50192.2 47338.5 50187.9 47327 50183.1 47315.7 50178 47304.5 50172.5 47293.6 50166.7 47282.8 50160.6 47272.2 50154.1 47261.8 50147.3 47251.7 50140.1 47241.7 50132.7 47232.1 50124.9 47222.6 50116.9 47213.4 50108.5 47204.5 50099.9 47195.9 50091 47187.5 50081.8 47179.5 50072.3 47171.7 50062.7 47164.3 50052.7 47157.1 50042.6 47150.3 50032.2 47143.8 50021.6 47137.7 50010.8 47131.9 49999.9 47126.4 49988.7 47121.3 49977.4 47116.5 49965.9 47112.2 49954.3 47108.1 49942.6 47104.5 49930.7 47101.2 49918.8 47098.3 49906.7 47095.8 49894.5 47093.7 49882.3 47091.9 49870 47090.6 49857.7 47089.6 49845.3 47089 49832.9 47088.8 49820.5 47088.8 49425.4 M 47088.8 49899.5 46456.6 50215.6 M 47088.8 51214.9 47088.8 51689 M 47088.8 51214.9 47089 51203.9 47089.6 51192.8 47090.5 51181.9 47091.9 51170.9 47093.6 51160 47095.7 51149.2 47098.2 51138.4 47101 51127.8 47104.3 51117.2 47107.9 51106.8 47111.8 51096.5 47116.1 51086.3 47120.8 51076.3 47125.8 51066.5 47131.1 51056.8 47136.8 51047.4 47142.8 51038.1 47149.2 51029.1 47155.8 51020.3 47162.8 51011.7 47170 51003.4 47177.5 50995.3 47185.3 50987.5 47193.4 50980 47201.7 50972.8 47210.3 50965.8 47219.1 50959.2 47228.1 50952.8 47237.4 50946.8 47246.9 50941.1 47256.5 50935.8 47266.3 50930.8 47276.3 50926.1 47286.5 50921.8 47296.8 50917.9 47307.2 50914.3 47317.8 50911 47328.4 50908.2 47339.2 50905.7 47350 50903.6 47360.9 50901.9 47371.9 50900.5 47382.9 50899.6 47393.9 50899 47404.9 50898.8 47483.9 50898.8 47496.3 50899 47508.7 50899.6 47521.1 50900.6 47533.4 50901.9 47545.7 50903.7 47557.9 50905.8 47570.1 50908.3 47582.2 50911.2 47594.1 50914.5 47606 50918.1 47617.7 50922.2 47629.3 50926.5 47640.8 50931.3 47652.1 50936.4 47663.3 50941.9 47674.2 50947.7 47685 50953.8 47695.6 50960.3 47706 50967.1 47716.1 50974.3 47726.1 50981.7 47735.7 50989.5 47745.2 50997.5 47754.4 51005.9 47763.3 51014.5 47771.9 51023.4 47780.3 51032.6 47788.3 51042.1 47796.1 51051.7 47803.5 51061.7 47810.7 51071.8 47817.5 51082.2 47824 51092.8 47830.1 51103.6 47835.9 51114.5 47841.4 51125.7 47846.5 51137 47851.3 51148.5 47855.6 51160.1 47859.7 51171.8 47863.3 51183.7 47866.6 51195.6 47869.5 51207.7 47872 51219.9 47874.1 51232.1 47875.9 51244.4 47877.2 51256.7 47878.2 51269.1 47878.8 51281.5 47879 51293.9 47878.8 51306.3 47878.2 51318.7 47877.2 51331.1 47875.9 51343.4 47874.1 51355.7 47872 51367.9 47869.5 51380.1 47866.6 51392.2 47863.3 51404.1 47859.7 51416 47855.6 51427.7 47851.3 51439.3 47846.5 51450.8 47841.4 51462.1 47835.9 51473.3 47830.1 51484.2 47824 51495 47817.5 51505.6 47810.7 51516 47803.5 51526.1 47796.1 51536.1 47788.3 51545.7 47780.3 51555.2 47771.9 51564.4 47763.3 51573.3 47754.4 51581.9 47745.2 51590.3 47735.7 51598.3 47726.1 51606.1 47716.1 51613.5 47706 51620.7 47695.6 51627.5 47685 51634 47674.2 51640.1 47663.3 51645.9 47652.1 51651.4 47640.8 51656.5 47629.3 51661.3 47617.7 51665.6 47606 51669.7 47594.1 51673.3 47582.2 51676.6 47570.1 51679.5 47557.9 51682 47545.7 51684.1 47533.4 51685.9 47521.1 51687.2 47508.7 51688.2 47496.3 51688.8 47483.9 51689 47088.8 51689 47073 51688.8 47057.3 51688.2 47041.6 51687.2 47025.9 51685.9 47010.2 51684.1 46994.6 51681.9 46979 51679.4 46963.5 51676.5 46948.1 51673.1 46932.8 51669.5 46917.6 51665.4 46902.5 51660.9 46887.5 51656.1 46872.6 51650.9 46857.8 51645.3 46843.2 51639.4 46828.8 51633.1 46814.5 51626.4 46800.4 51619.4 46786.4 51612 46772.7 51604.3 46759.1 51596.3 46745.8 51587.9 46732.7 51579.1 46719.8 51570.1 46707.1 51560.7 46694.6 51551.1 46682.4 51541.1 46670.5 51530.8 46658.8 51520.2 46647.4 51509.4 46636.2 51498.2 46625.4 51486.8 46614.8 51475.1 46604.5 51463.2 46594.5 51451 46584.9 51438.5 46575.5 51425.8 46566.5 51412.9 46557.7 51399.8 46549.3 51386.5 46541.3 51372.9 46533.6 51359.2 46526.2 51345.2 46519.2 51331.1 46512.5 51316.8 46506.2 51302.4 46500.3 51287.8 46494.7 51273 46489.5 51258.1 46484.7 51243.1 46480.2 51228 46476.1 51212.8 46472.5 51197.5 46469.1 51182.1 46466.2 51166.6 46463.7 51151 46461.5 51135.4 46459.7 51119.7 46458.4 51104 46457.4 51088.3 46456.8 51072.6 46456.6 51056.8" fill="none" stroke-width="254"/><use xlink:href="#ZdcbuMydZjo7PQCw3bV1_pad-11" x="40953.1" y="29060.1"/><path d="M 41793 29040 41793 29310.1 M 41793 29040 49393 29040 49393 29310.1 M 41793 39269.9 41793 39540 49393 39540 49393 39269.9" fill="none" stroke-width="120"/><path d="M 46888.1 28536.9 46888.1 26682.7 M 47094.1 26682.7 46682.1 26682.7 M 46682.1 28536.9 47094.1 28536.9 M 45513.5 26682.7 45101.5 26682.7 M 45513.5 26682.7 45526.2 26682.9 45538.9 26683.5 45551.5 26684.5 45564.1 26685.8 45576.7 26687.6 45589.2 26689.7 45601.6 26692.2 45614 26695.1 45626.2 26698.4 45638.4 26702.1 45650.4 26706.1 45662.3 26710.5 45674.1 26715.3 45685.7 26720.4 45697.1 26725.9 45708.4 26731.7 45719.5 26737.9 45730.4 26744.4 45741.1 26751.3 45751.5 26758.4 45761.8 26765.9 45771.8 26773.7 45781.6 26781.8 45791.1 26790.2 45800.3 26798.9 45809.3 26807.9 45818 26817.1 45826.4 26826.6 45834.5 26836.4 45842.3 26846.4 45849.8 26856.7 45856.9 26867.1 45863.8 26877.8 45870.3 26888.7 45876.5 26899.8 45882.3 26911.1 45887.8 26922.5 45892.9 26934.1 45897.7 26945.9 45902.1 26957.8 45906.1 26969.8 45909.8 26982 45913.1 26994.2 45916 27006.6 45918.5 27019 45920.6 27031.5 45922.4 27044.1 45923.7 27056.7 45924.7 27069.3 45925.3 27082 45925.5 27094.7 M 45925.6 27094.7 45925.6 28124.9 M 45925.5 28124.9 45925.3 28137.6 45924.7 28150.3 45923.7 28162.9 45922.4 28175.5 45920.6 28188.1 45918.5 28200.6 45916 28213 45913.1 28225.4 45909.8 28237.6 45906.1 28249.8 45902.1 28261.8 45897.7 28273.7 45892.9 28285.5 45887.8 28297.1 45882.3 28308.5 45876.5 28319.8 45870.3 28330.9 45863.8 28341.8 45856.9 28352.5 45849.8 28362.9 45842.3 28373.2 45834.5 28383.2 45826.4 28393 45818 28402.5 45809.3 28411.7 45800.3 28420.7 45791.1 28429.4 45781.6 28437.8 45771.8 28445.9 45761.8 28453.7 45751.5 28461.2 45741.1 28468.3 45730.4 28475.2 45719.5 28481.7 45708.4 28487.9 45697.1 28493.7 45685.7 28499.2 45674.1 28504.3 45662.3 28509.1 45650.4 28513.5 45638.4 28517.5 45626.2 28521.2 45614 28524.5 45601.6 28527.4 45589.2 28529.9 45576.7 28532 45564.1 28533.8 45551.5 28535.1 45538.9 28536.1 45526.2 28536.7 45513.5 28536.9 45101.5 28536.9 M 44375.2 28124.9 43860.2 28536.9 43860.2 26682.7 M 44375.2 26682.7 43345.1 26682.7" fill="none" stroke-width="330.2"/><path d="M 55600.6 19744.8 57023 19744.8 57023 20139.9 57022.8 20152.3 57022.2 20164.7 57021.2 20177.1 57019.9 20189.4 57018.1 20201.7 57016 20213.9 57013.5 20226.1 57010.6 20238.2 57007.3 20250.1 57003.7 20262 56999.6 20273.7 56995.3 20285.3 56990.5 20296.8 56985.4 20308.1 56979.9 20319.3 56974.1 20330.2 56968 20341 56961.5 20351.6 56954.7 20362 56947.5 20372.1 56940.1 20382.1 56932.3 20391.7 56924.3 20401.2 56915.9 20410.4 56907.3 20419.3 56898.4 20427.9 56889.2 20436.3 56879.7 20444.3 56870.1 20452.1 56860.1 20459.5 56850 20466.7 56839.6 20473.5 56829 20480 56818.2 20486.1 56807.3 20491.9 56796.1 20497.4 56784.8 20502.5 56773.3 20507.3 56761.7 20511.6 56750 20515.7 56738.1 20519.3 56726.2 20522.6 56714.1 20525.5 56701.9 20528 56689.7 20530.1 56677.4 20531.9 56665.1 20533.2 56652.7 20534.2 56640.3 20534.8 56627.9 20535 56615.5 20534.8 56603.1 20534.2 56590.7 20533.2 56578.4 20531.9 56566.1 20530.1 56553.9 20528 56541.7 20525.5 56529.6 20522.6 56517.7 20519.3 56505.8 20515.7 56494.1 20511.6 56482.5 20507.3 56471 20502.5 56459.7 20497.4 56448.5 20491.9 56437.6 20486.1 56426.8 20480 56416.2 20473.5 56405.8 20466.7 56395.7 20459.5 56385.7 20452.1 56376.1 20444.3 56366.6 20436.3 56357.4 20427.9 56348.5 20419.3 56339.9 20410.4 56331.5 20401.2 56323.5 20391.7 56315.7 20382.1 56308.3 20372.1 56301.1 20362 56294.3 20351.6 56287.8 20341 56281.7 20330.2 56275.9 20319.3 56270.4 20308.1 56265.3 20296.8 56260.5 20285.3 56256.2 20273.7 56252.1 20262 56248.5 20250.1 56245.2 20238.2 56242.3 20226.1 56239.8 20213.9 56237.7 20201.7 56235.9 20189.4 56234.6 20177.1 56233.6 20164.7 56233 20152.3 56232.8 20139.9 56232.8 19744.8 M 56232.8 20218.9 55600.6 20535 M 56706.9 21218.2 57023 21613.3 55600.6 21613.3 M 55600.6 21218.2 55600.6 22008.4 M 56311.8 22704.8 56339.8 22705.1 56367.7 22706.1 56395.7 22707.8 56423.6 22710.1 56451.4 22713.1 56479.1 22716.8 56506.8 22721.1 56534.3 22726.1 56561.7 22731.8 56589 22738 56616.1 22745 56643 22752.6 56669.8 22760.8 56696.3 22769.7 56722.6 22779.2 56748.7 22789.3 56774.6 22800 56800.2 22811.4 56825.5 22823.3 M 56825.4 22823.3 56835.5 22826.9 56845.3 22831 56855.1 22835.3 56864.6 22840 56874 22845.1 56883.2 22850.5 56892.2 22856.2 56901 22862.3 56909.6 22868.7 56917.9 22875.3 56925.9 22882.3 56933.8 22889.6 56941.3 22897.2 56948.5 22905 56955.5 22913.1 56962.2 22921.4 56968.5 22929.9 56974.6 22938.7 56980.3 22947.7 56985.7 22957 56990.7 22966.4 56995.4 22975.9 56999.8 22985.7 57003.8 22995.6 57007.4 23005.6 57010.6 23015.8 57013.5 23026 57016 23036.4 57018.1 23046.9 57019.9 23057.4 57021.3 23068 57022.2 23078.6 57022.8 23089.2 57023 23099.9 57022.8 23110.6 57022.2 23121.2 57021.3 23131.8 57019.9 23142.4 57018.1 23152.9 57016 23163.4 57013.5 23173.8 57010.6 23184 57007.4 23194.2 57003.8 23204.2 56999.8 23214.1 56995.4 23223.9 56990.7 23233.4 56985.7 23242.8 56980.3 23252.1 56974.6 23261.1 56968.5 23269.9 56962.2 23278.4 56955.5 23286.7 56948.5 23294.8 56941.3 23302.6 56933.8 23310.2 56925.9 23317.5 56917.9 23324.5 56909.6 23331.1 56901 23337.5 56892.2 23343.6 56883.2 23349.3 56874 23354.7 56864.6 23359.8 56855.1 23364.5 56845.3 23368.8 56835.5 23372.9 56825.4 23376.5 M 56825.5 23376.5 56800.2 23388.4 56774.6 23399.8 56748.7 23410.5 56722.7 23420.6 56696.3 23430.1 56669.8 23439 56643 23447.2 56616.1 23454.8 56589 23461.8 56561.7 23468 56534.3 23473.7 56506.8 23478.7 56479.1 23483 56451.4 23486.7 56423.6 23489.7 56395.7 23492 56367.7 23493.7 56339.8 23494.7 56311.8 23495 M 56311.8 22704.8 56283.8 22705.1 56255.9 22706.1 56227.9 22707.8 56200 22710.1 56172.2 22713.1 56144.5 22716.8 56116.8 22721.1 56089.3 22726.1 56061.9 22731.8 56034.6 22738 56007.5 22745 55980.6 22752.6 55953.8 22760.8 55927.3 22769.7 55901 22779.2 55874.9 22789.3 55849 22800 55823.5 22811.4 55798.2 22823.3 55788.1 22827 55778.3 22831 55768.5 22835.3 55758.9 22840 55749.6 22845.1 55740.4 22850.5 55731.4 22856.2 55722.6 22862.3 55714 22868.7 55705.7 22875.4 55697.6 22882.3 55689.8 22889.6 55682.3 22897.2 55675.1 22905 55668.1 22913.1 55661.4 22921.4 55655.1 22929.9 55649 22938.7 55643.3 22947.7 55637.9 22957 55632.9 22966.4 55628.2 22975.9 55623.8 22985.7 55619.8 22995.6 55616.2 23005.6 55613 23015.8 55610.1 23026 55607.6 23036.4 55605.5 23046.9 55603.7 23057.4 55602.3 23068 55601.4 23078.6 55600.8 23089.2 55600.6 23099.9 M 55798.1 23376.5 55823.4 23388.4 55849 23399.8 55874.9 23410.5 55900.9 23420.6 55927.3 23430.1 55953.8 23439 55980.6 23447.2 56007.5 23454.8 56034.6 23461.8 56061.9 23468 56089.3 23473.7 56116.8 23478.7 56144.5 23483 56172.2 23486.7 56200 23489.7 56227.9 23492 56255.9 23493.7 56283.8 23494.7 56311.8 23495 M 55798.2 23376.5 55788.1 23372.9 55778.3 23368.8 55768.5 23364.5 55759 23359.8 55749.6 23354.7 55740.4 23349.3 55731.4 23343.6 55722.6 23337.5 55714 23331.1 55705.7 23324.5 55697.7 23317.5 55689.8 23310.2 55682.3 23302.6 55675.1 23294.8 55668.1 23286.7 55661.4 23278.4 55655.1 23269.9 55649 23261.1 55643.3 23252.1 55637.9 23242.8 55632.9 23233.4 55628.2 23223.9 55623.8 23214.1 55619.8 23204.2 55616.2 23194.2 55613 23184 55610.1 23173.8 55607.6 23163.4 55605.5 23152.9 55603.7 23142.4 55602.3 23131.8 55601.4 23121.2 55600.8 23110.6 55600.6 23099.9 M 55916.7 22783.8 56706.9 23416" fill="none" stroke-width="254"/><path d="M 43180 27940 40640 27940 M 43180 27940 43180 25654 42926 25400 43180 25146 43180 23114 42926 22860 43180 22606 43180 20574 42926 20320 43180 20066 43180 18034 42926 17780 43180 17526 M 40894 17780 40640 17526 M 40894 17780 40640 18034 40640 20066 40894 20320 40640 20574 40640 22606 40894 22860 40640 23114 40640 25146 40894 25400 40640 25654 40640 27940 M 43180 17526 43180 15494 42926 15240 43180 14986 43180 12954 42926 12700 43180 12446 M 40894 12700 40640 12446 M 40894 12700 40640 12954 40640 14986 40894 15240 40640 15494 40640 17526 M 40640 9906 40640 7874 M 43180 7874 43180 9906 M 40894 10160 40640 10414 M 40894 10160 40640 9906 M 40640 10414 40640 12446 M 42926 10160 43180 9906 M 42926 10160 43180 10414 43180 12446 M 43180 5080 40640 5080 40640 7366 M 43180 7366 43180 5080 M 42926 7620 43180 7874 M 42926 7620 43180 7366 M 40894 7620 40640 7366 M 40894 7620 40640 7874" fill="none" stroke-width="152.4"/><path d="M 40068.5 26479.5 40322.5 26797 39179.5 26797 M 39179.5 26479.5 39179.5 27114.5 M 39687.5 6794.5 39687.5 6413.5 39687.7 6403.5 39688.3 6393.6 39689.3 6383.6 39690.6 6373.8 39692.4 6363.9 39694.5 6354.2 39697 6344.6 39699.9 6335 39703.2 6325.6 39706.8 6316.3 39710.8 6307.2 39715.2 6298.2 39719.9 6289.4 39724.9 6280.8 39730.3 6272.4 39736 6264.2 39742 6256.3 39748.4 6248.5 39755 6241.1 39761.9 6233.9 39769.1 6227 39776.5 6220.4 39784.3 6214 39792.2 6208 39800.4 6202.3 39808.8 6196.9 39817.4 6191.9 39826.2 6187.2 39835.2 6182.8 39844.3 6178.8 39853.6 6175.2 39863 6171.9 39872.6 6169 39882.2 6166.5 39891.9 6164.4 39901.8 6162.6 39911.6 6161.3 39921.6 6160.3 39931.5 6159.7 39941.5 6159.5 40005 6159.5 40016.1 6159.7 40027.1 6160.3 40038.2 6161.2 40049.2 6162.6 40060.1 6164.3 40071 6166.4 40081.8 6168.9 40092.5 6171.8 40103.1 6175 40113.6 6178.6 40123.9 6182.6 40134.1 6186.9 40144.2 6191.6 40154.1 6196.7 40163.8 6202 40173.2 6207.7 40182.5 6213.8 40191.6 6220.1 40200.5 6226.8 40209.1 6233.8 40217.4 6241.1 40225.6 6248.6 40233.4 6256.4 40240.9 6264.6 40248.2 6272.9 40255.2 6281.5 40261.9 6290.4 40268.2 6299.5 40274.3 6308.8 40280 6318.2 40285.3 6327.9 40290.4 6337.8 40295.1 6347.9 40299.4 6358.1 40303.4 6368.4 40307 6378.9 40310.2 6389.5 40313.1 6400.2 40315.6 6411 40317.7 6421.9 40319.4 6432.8 40320.8 6443.8 40321.7 6454.9 40322.3 6465.9 40322.5 6477 40322.3 6488.1 40321.7 6499.1 40320.8 6510.2 40319.4 6521.2 40317.7 6532.1 40315.6 6543 40313.1 6553.8 40310.2 6564.5 40307 6575.1 40303.4 6585.6 40299.4 6595.9 40295.1 6606.1 40290.4 6616.2 40285.3 6626.1 40280 6635.7 40274.3 6645.2 40268.2 6654.5 40261.9 6663.6 40255.2 6672.5 40248.2 6681.1 40240.9 6689.4 40233.4 6697.6 40225.6 6705.4 40217.4 6712.9 40209.1 6720.2 40200.5 6727.2 40191.6 6733.9 40182.5 6740.2 40173.2 6746.3 40163.8 6752 40154.1 6757.3 40144.2 6762.4 40134.1 6767.1 40123.9 6771.4 40113.6 6775.4 40103.1 6779 40092.5 6782.2 40081.8 6785.1 40071 6787.6 40060.1 6789.7 40049.2 6791.4 40038.2 6792.8 40027.1 6793.7 40016.1 6794.3 40005 6794.5 39687.5 6794.5 39673.5 6794.3 39659.5 6793.7 39645.5 6792.8 39631.6 6791.4 39617.7 6789.7 39603.9 6787.6 39590.1 6785.1 39576.4 6782.2 39562.8 6779 39549.3 6775.3 39535.9 6771.3 39522.6 6767 39509.4 6762.2 39496.3 6757.2 39483.4 6751.7 39470.7 6745.9 39458.1 6739.8 39445.7 6733.3 39433.5 6726.4 39421.5 6719.3 39409.7 6711.8 39398 6704 39386.6 6695.8 39375.5 6687.4 39364.6 6678.6 39353.9 6669.6 39343.4 6660.2 39333.3 6650.6 39323.4 6640.7 39313.8 6630.6 39304.4 6620.1 39295.4 6609.4 39286.6 6598.5 39278.2 6587.4 39270 6576 39262.2 6564.3 39254.7 6552.5 39247.6 6540.5 39240.7 6528.3 39234.2 6515.9 39228.1 6503.3 39222.3 6490.6 39216.8 6477.7 39211.8 6464.6 39207 6451.4 39202.7 6438.1 39198.7 6424.7 39195 6411.2 39191.8 6397.6 39188.9 6383.9 39186.4 6370.1 39184.3 6356.3 39182.6 6342.4 39181.2 6328.5 39180.3 6314.5 39179.7 6300.5 39179.5 6286.5" fill="none" stroke-width="127"/><path d="M 47920.1 9644.9 47920.1 11087.1 M 47920.1 9644.9 47920.3 9632.2 47920.9 9619.5 47921.9 9606.9 47923.2 9594.3 47925 9581.7 47927.1 9569.2 47929.6 9556.8 47932.5 9544.4 47935.8 9532.2 47939.5 9520 47943.5 9508 47947.9 9496.1 47952.7 9484.3 47957.8 9472.7 47963.3 9461.3 47969.1 9450 47975.3 9438.9 47981.8 9428 47988.7 9417.3 47995.8 9406.9 48003.3 9396.6 48011.1 9386.6 48019.2 9376.8 48027.6 9367.3 48036.3 9358.1 48045.3 9349.1 48054.5 9340.4 48064 9332 48073.8 9323.9 48083.8 9316.1 48094.1 9308.6 48104.5 9301.5 48115.2 9294.6 48126.1 9288.1 48137.2 9281.9 48148.5 9276.1 48159.9 9270.6 48171.5 9265.5 48183.3 9260.7 48195.2 9256.3 48207.2 9252.3 48219.4 9248.6 48231.6 9245.3 48244 9242.4 48256.4 9239.9 48268.9 9237.8 48281.5 9236 48294.1 9234.7 48306.7 9233.7 48319.4 9233.1 48332.1 9232.9 48538.2 9232.9 M 46948.2 9232.9 46948.2 11087.1 46433.2 11087.1 46419 11086.9 46404.8 11086.3 46390.7 11085.3 46376.5 11084 46362.4 11082.2 46348.4 11080.1 46334.4 11077.5 46320.6 11074.6 46306.8 11071.3 46293 11067.7 46279.4 11063.6 46265.9 11059.2 46252.6 11054.4 46239.4 11049.2 46226.3 11043.7 46213.4 11037.8 46200.6 11031.6 46188 11025 46175.7 11018.1 46163.5 11010.8 46151.5 11003.2 46139.7 10995.3 46128.1 10987 46116.8 10978.5 46105.7 10969.6 46094.9 10960.4 46084.3 10951 46074 10941.2 46064 10931.2 46054.2 10920.9 46044.8 10910.3 46035.6 10899.5 46026.7 10888.4 46018.2 10877.1 46009.9 10865.5 46002 10853.7 45994.4 10841.7 45987.1 10829.6 45980.2 10817.2 45973.6 10804.6 45967.4 10791.8 45961.5 10778.9 45956 10765.8 45950.8 10752.6 45946 10739.3 45941.6 10725.8 45937.5 10712.2 45933.9 10698.4 45930.6 10684.6 45927.7 10670.8 45925.1 10656.8 45923 10642.8 45921.2 10628.7 45919.9 10614.5 45918.9 10600.4 45918.3 10586.2 45918.1 10572 45918.3 10557.8 45918.9 10543.6 45919.9 10529.5 45921.2 10515.3 45923 10501.2 45925.1 10487.2 45927.7 10473.2 45930.6 10459.4 45933.9 10445.6 45937.5 10431.8 45941.6 10418.2 45946 10404.7 45950.8 10391.4 45956 10378.2 45961.5 10365.1 45967.4 10352.2 45973.6 10339.4 45980.2 10326.8 45987.1 10314.5 45994.4 10302.3 46002 10290.3 46009.9 10278.5 46018.2 10266.9 46026.7 10255.6 46035.6 10244.5 46044.8 10233.7 46054.2 10223.1 46064 10212.8 46074 10202.8 46084.3 10193 46094.9 10183.6 46105.7 10174.4 46116.8 10165.5 46128.1 10157 46139.7 10148.7 46151.5 10140.8 46163.5 10133.2 46175.6 10125.9 46188 10119 46200.6 10112.4 46213.4 10106.2 46226.3 10100.3 46239.4 10094.8 46252.6 10089.6 46265.9 10084.8 46279.4 10080.4 46293 10076.3 46306.8 10072.7 46320.6 10069.4 46334.4 10066.5 46348.4 10063.9 46362.4 10061.8 46376.5 10060 46390.7 10058.7 46404.8 10057.7 46419 10057.1 46433.2 10056.9 M 46433.2 10057 46948.2 10057 M 45188 10675.1 44673 11087.1 44673 9232.9 M 45188 9232.9 44157.9 9232.9" fill="none" stroke-width="330.2"/><path d="M 5737.8 16870 7021.9 14733.5 8580.1 12576.7 10320.4 10563.9 12229.5 8710.5 14292.9 7030.6 16494.8 5536.8 18818.6 4240.7 21246.4 3152 23759.9 2279.1 26340 1628.5 28966.9 1205.3 31620.7 1012.6 34281.2 1052 36928.1 1323.1 39541.4 1823.9 42101 2550.5 44587.6 3497.5 46982.2 4657.5 49266.5 6021.9 51423.3 7580.1 53436 9320.4 55289.5 11229.5 56969.4 13292.9 58463.2 15494.8 59759.3 17818.6 60848 20246.4 61720.9 22760 62371.5 25340 62794.7 27966.9 62987.3 30620.7 62948 33281.2 62676.9 35928.1 62176.1 38541.4 61449.5 41101 60502.5 43587.6 59342.5 45982.2 57978.1 48266.6 56419.9 50423.3 54679.6 52436.1 52770.5 54289.5 50707.1 55969.4 48505.2 57463.2 46181.4 58759.3 43753.5 59848 41240 60721 38660 61371.5 38660 16870 5737.8 16870 M 14750 12942.7 14742.5 12828.4 14727.6 12714.8 14705.2 12602.4 14675.5 12491.7 14638.7 12383.2 14594.9 12277.4 14544.2 12174.6 14486.9 12075.4 14423.2 11980.1 14353.5 11889.2 14277.9 11803.1 14196.9 11722.1 14110.8 11646.5 14019.9 11576.8 13924.6 11513.1 13825.4 11455.8 13722.6 11405.1 13616.8 11361.3 13508.3 11324.5 13397.6 11294.8 13285.2 11272.5 13171.6 11257.5 13057.3 11250 12942.7 11250 12828.4 11257.5 12714.8 11272.5 12602.4 11294.8 12491.7 11324.5 12383.2 11361.3 12277.4 11405.1 12174.6 11455.8 12075.4 11513.1 11980.1 11576.8 11889.2 11646.5 11803.1 11722.1 11722.1 11803.1 11646.5 11889.2 11576.8 11980.1 11513.1 12075.4 11455.8 12174.6 11405.1 12277.4 11361.3 12383.2 11324.5 12491.7 11294.8 12602.4 11272.5 12714.8 11257.5 12828.4 11250 12942.7 11250 13057.3 11257.5 13171.6 11272.5 13285.2 11294.8 13397.6 11324.5 13508.3 11361.3 13616.8 11405.1 13722.6 11455.8 13825.4 11513.1 13924.6 11576.8 14019.9 11646.5 14110.8 11722.1 14196.9 11803.1 14277.9 11889.2 14353.5 11980.1 14423.2 12075.4 14486.9 12174.6 14544.2 12277.4 14594.9 12383.2 14638.7 12491.7 14675.5 12602.4 14705.2 12714.8 14727.6 12828.4 14742.5 12942.7 14750 13057.3 14750 13171.6 14742.5 13285.2 14727.6 13397.6 14705.2 13508.3 14675.5 13616.8 14638.7 13722.6 14594.9 13825.4 14544.2 13924.6 14486.9 14019.9 14423.2 14110.8 14353.5 14196.9 14277.9 14277.9 14196.9 14353.5 14110.8 14423.2 14019.9 14486.9 13924.6 14544.2 13825.4 14594.9 13722.6 14638.7 13616.8 14675.5 13508.3 14705.2 13397.6 14727.6 13285.2 14742.5 13171.6 14750 13057.3 14750 12942.7 M 53750 12942.7 53742.5 12828.4 53727.6 12714.8 53705.2 12602.4 53675.5 12491.7 53638.7 12383.2 53594.9 12277.4 53544.2 12174.6 53486.9 12075.4 53423.2 11980.1 53353.5 11889.2 53277.9 11803.1 53196.9 11722.1 53110.8 11646.5 53019.9 11576.8 52924.6 11513.1 52825.4 11455.8 52722.6 11405.1 52616.8 11361.3 52508.3 11324.5 52397.6 11294.8 52285.2 11272.5 52171.6 11257.5 52057.3 11250 51942.7 11250 51828.4 11257.5 51714.8 11272.5 51602.4 11294.8 51491.7 11324.5 51383.2 11361.3 51277.4 11405.1 51174.6 11455.8 51075.4 11513.1 50980.1 11576.8 50889.2 11646.5 50803.1 11722.1 50722.1 11803.1 50646.5 11889.2 50576.8 11980.1 50513.1 12075.4 50455.8 12174.6 50405.1 12277.4 50361.3 12383.2 50324.5 12491.7 50294.8 12602.4 50272.5 12714.8 50257.5 12828.4 50250 12942.7 50250 13057.3 50257.5 13171.6 50272.5 13285.2 50294.8 13397.6 50324.5 13508.3 50361.3 13616.8 50405.1 13722.6 50455.8 13825.4 50513.1 13924.6 50576.8 14019.9 50646.5 14110.8 50722.1 14196.9 50803.1 14277.9 50889.2 14353.5 50980.1 14423.2 51075.4 14486.9 51174.6 14544.2 51277.4 14594.9 51383.2 14638.7 51491.7 14675.5 51602.4 14705.2 51714.8 14727.6 51828.4 14742.5 51942.7 14750 52057.3 14750 52171.6 14742.5 52285.2 14727.6 52397.6 14705.2 52508.3 14675.5 52616.8 14638.7 52722.6 14594.9 52825.4 14544.2 52924.6 14486.9 53019.9 14423.2 53110.8 14353.5 53196.9 14277.9 53277.9 14196.9 53353.5 14110.8 53423.2 14019.9 53486.9 13924.6 53544.2 13825.4 53594.9 13722.6 53638.7 13616.8 53675.5 13508.3 53705.2 13397.6 53727.6 13285.2 53742.5 13171.6 53750 13057.3 53750 12942.7 M 44750 55942.7 44742.5 55828.4 44727.6 55714.8 44705.2 55602.4 44675.5 55491.7 44638.7 55383.2 44594.9 55277.4 44544.2 55174.6 44486.9 55075.4 44423.2 54980.1 44353.5 54889.2 44277.9 54803.1 44196.9 54722.1 44110.8 54646.5 44019.9 54576.8 43924.6 54513.1 43825.4 54455.8 43722.6 54405.1 43616.8 54361.3 43508.3 54324.5 43397.6 54294.8 43285.2 54272.5 43171.6 54257.5 43057.3 54250 42942.7 54250 42828.4 54257.5 42714.8 54272.5 42602.4 54294.8 42491.7 54324.5 42383.2 54361.3 42277.4 54405.1 42174.6 54455.8 42075.4 54513.1 41980.1 54576.8 41889.2 54646.5 41803.1 54722.1 41722.1 54803.1 41646.5 54889.2 41576.8 54980.1 41513.1 55075.4 41455.8 55174.6 41405.1 55277.4 41361.3 55383.2 41324.5 55491.7 41294.8 55602.4 41272.5 55714.8 41257.5 55828.4 41250 55942.7 41250 56057.3 41257.5 56171.6 41272.5 56285.2 41294.8 56397.6 41324.5 56508.3 41361.3 56616.8 41405.1 56722.6 41455.8 56825.4 41513.1 56924.6 41576.8 57019.9 41646.5 57110.8 41722.1 57196.9 41803.1 57277.9 41889.2 57353.5 41980.1 57423.2 42075.4 57486.9 42174.6 57544.2 42277.4 57594.9 42383.2 57638.7 42491.7 57675.5 42602.4 57705.2 42714.8 57727.6 42828.4 57742.5 42942.7 57750 43057.3 57750 43171.6 57742.5 43285.2 57727.6 43397.6 57705.2 43508.3 57675.5 43616.8 57638.7 43722.6 57594.9 43825.4 57544.2 43924.6 57486.9 44019.9 57423.2 44110.8 57353.5 44196.9 57277.9 44277.9 57196.9 44353.5 57110.8 44423.2 57019.9 44486.9 56924.6 44544.2 56825.4 44594.9 56722.6 44638.7 56616.8 44675.5 56508.3 44705.2 56397.6 44727.6 56285.2 44742.5 56171.6 44750 56057.3 44750 55942.7" fill="none" stroke-width="254"/></g></svg>