<svg version="1.1" xmlns="http://www.w3.org/2000/svg" xmlns:xlink="http://www.w3.org/1999/xlink" stroke-linecap="round" stroke-linejoin="round" stroke-width="0" fill-rule="evenodd" width="57.5035mm" height="60.6129mm" viewBox="5610.8 885.6 57503.5 60612.9" id="aEeHffVhiZF2rVZn1BIV"><defs><rect x="-317.5" y="-254" width="635" height="508" id="aEeHffVhiZF2rVZn1BIV_pad-19"/><rect x="-254" y="-254" width="508" height="508" id="aEeHffVhiZF2rVZn1BIV_pad-20"/><rect x="-190.5" y="-254" width="381" height="508" id="aEeHffVhiZF2rVZn1BIV_pad-21"/><rect x="-190.5" y="-127" width="381" height="254" id="aEeHffVhiZF2rVZn1BIV_pad-22"/><rect x="-254" y="-127" width="508" height="254" id="aEeHffVhiZF2rVZn1BIV_pad-23"/></defs><g transform="translate(0,62384.1) scale(1,-1)" fill="currentColor" stroke="currentColor"><path d="M 17698 12192 17952 12192 M 17698 12192 17698 10668 17952 10668 M 24048 10668 24302 10668 24302 12192 24048 12192" fill="none" stroke-width="152.4"/><path d="M 22270 8636 22270 8382 M 22270 8636 19730 8636 19730 8382 M 19857 14224 22270 14224 M 19857 14224 19857 14478 M 22270 14478 22270 14224" fill="none" stroke-width="50.8"/><path d="M 22270 14478 23159 14478 M 19730 8382 18841 8382 M 19730 8382 22270 8382 23159 8382 M 22270 14478 19857 14478 18841 14478 M 17952 12446 17952 12192 M 17952 10668 17952 10414 M 24048 12192 24048 12446 M 24048 10668 24048 10414 M 19222 11430 19222.5 11473.6 19224.1 11517.2 19226.8 11560.8 19230.6 11604.3 19235.4 11647.6 19241.2 11690.9 19248.2 11734 19256.2 11776.9 19265.2 11819.6 19275.3 11862 19286.4 11904.2 19298.6 11946.1 19311.7 11987.7 19325.9 12029 19341.1 12069.9 19357.3 12110.4 19374.5 12150.5 19392.7 12190.2 19411.8 12229.4 19431.9 12268.1 19453 12306.4 19475 12344.1 19497.9 12381.2 19521.6 12417.8 19546.3 12453.8 19571.9 12489.2 19598.3 12523.9 19625.6 12558 19653.7 12591.3 19682.6 12624 19712.3 12656 19742.8 12687.2 19774 12717.7 19806 12747.4 19838.7 12776.3 19872 12804.4 19906.1 12831.7 19940.8 12858.1 19976.2 12883.7 20012.2 12908.4 20048.8 12932.1 20085.9 12955 20123.6 12977 20161.9 12998.1 20200.6 13018.2 20239.8 13037.3 20279.5 13055.5 20319.6 13072.7 20360.1 13088.9 20401 13104.1 20442.3 13118.3 20483.9 13131.4 20525.8 13143.6 20568 13154.7 20610.4 13164.8 20653.1 13173.8 20696 13181.8 20739.1 13188.8 20782.4 13194.6 20825.7 13199.4 20869.2 13203.2 20912.8 13205.9 20956.4 13207.5 21000 13208 21043.6 13207.5 21087.2 13205.9 21130.8 13203.2 21174.3 13199.4 21217.6 13194.6 21260.9 13188.8 21304 13181.8 21346.9 13173.8 21389.6 13164.8 21432 13154.7 21474.2 13143.6 21516.1 13131.4 21557.7 13118.3 21599 13104.1 21639.9 13088.9 21680.4 13072.7 21720.5 13055.5 21760.2 13037.3 21799.4 13018.2 21838.1 12998.1 21876.4 12977 21914.1 12955 21951.2 12932.1 21987.8 12908.4 22023.8 12883.7 22059.2 12858.1 22093.9 12831.7 22128 12804.4 22161.3 12776.3 22194 12747.4 22226 12717.7 22257.2 12687.2 22287.7 12656 22317.4 12624 22346.3 12591.3 22374.4 12558 22401.7 12523.9 22428.1 12489.2 22453.7 12453.8 22478.4 12417.8 22502.1 12381.2 22525 12344.1 22547 12306.4 22568.1 12268.1 22588.2 12229.4 22607.3 12190.2 22625.5 12150.5 22642.7 12110.4 22658.9 12069.9 22674.1 12029 22688.3 11987.7 22701.4 11946.1 22713.6 11904.2 22724.7 11862 22734.8 11819.6 22743.8 11776.9 22751.8 11734 22758.8 11690.9 22764.6 11647.6 22769.4 11604.3 22773.2 11560.8 22775.9 11517.2 22777.5 11473.6 22778 11430 22777.5 11386.4 22775.9 11342.8 22773.2 11299.2 22769.4 11255.7 22764.6 11212.4 22758.8 11169.1 22751.8 11126 22743.8 11083.1 22734.8 11040.4 22724.7 10998 22713.6 10955.8 22701.4 10913.9 22688.3 10872.3 22674.1 10831 22658.9 10790.1 22642.7 10749.6 22625.5 10709.5 22607.3 10669.8 22588.2 10630.6 22568.1 10591.9 22547 10553.6 22525 10515.9 22502.1 10478.8 22478.4 10442.2 22453.7 10406.2 22428.1 10370.8 22401.7 10336.1 22374.4 10302 22346.3 10268.7 22317.4 10236 22287.7 10204 22257.2 10172.8 22226 10142.3 22194 10112.6 22161.3 10083.7 22128 10055.6 22093.9 10028.3 22059.2 10001.9 22023.8 9976.3 21987.8 9951.6 21951.2 9927.9 21914.1 9905 21876.4 9883 21838.1 9861.9 21799.4 9841.8 21760.2 9822.7 21720.5 9804.5 21680.4 9787.3 21639.9 9771.1 21599 9755.9 21557.7 9741.7 21516.1 9728.6 21474.2 9716.4 21432 9705.3 21389.6 9695.2 21346.9 9686.2 21304 9678.2 21260.9 9671.2 21217.6 9665.4 21174.3 9660.6 21130.8 9656.8 21087.2 9654.1 21043.6 9652.5 21000 9652 20956.4 9652.5 20912.8 9654.1 20869.2 9656.8 20825.7 9660.6 20782.4 9665.4 20739.1 9671.2 20696 9678.2 20653.1 9686.2 20610.4 9695.2 20568 9705.3 20525.8 9716.4 20483.9 9728.6 20442.3 9741.7 20401 9755.9 20360.1 9771.1 20319.6 9787.3 20279.5 9804.5 20239.8 9822.7 20200.6 9841.8 20161.9 9861.9 20123.6 9883 20085.9 9905 20048.8 9927.9 20012.2 9951.6 19976.2 9976.3 19940.8 10001.9 19906.1 10028.3 19872 10055.6 19838.7 10083.7 19806 10112.6 19774 10142.3 19742.8 10172.8 19712.3 10204 19682.6 10236 19653.7 10268.7 19625.6 10302 19598.3 10336.1 19571.9 10370.8 19546.3 10406.2 19521.6 10442.2 19497.9 10478.8 19475 10515.9 19453 10553.6 19431.9 10591.9 19411.8 10630.6 19392.7 10669.8 19374.5 10709.5 19357.3 10749.6 19341.1 10790.1 19325.9 10831 19311.7 10872.3 19298.6 10913.9 19286.4 10955.8 19275.3 10998 19265.2 11040.4 19256.2 11083.1 19248.2 11126 19241.2 11169.1 19235.4 11212.4 19230.6 11255.7 19226.8 11299.2 19224.1 11342.8 19222.5 11386.4 19222 11430 M 20746 11430 20746.2 11440 20746.8 11450.1 20747.8 11460 20749.2 11470 20750.9 11479.9 20753.1 11489.7 20755.7 11499.4 20758.6 11509 20761.9 11518.4 20765.6 11527.8 20769.6 11537 20774 11546 20778.8 11554.8 20783.9 11563.5 20789.3 11571.9 20795.1 11580.1 20801.2 11588.1 20807.6 11595.8 20814.3 11603.3 20821.3 11610.5 20828.6 11617.4 20836.1 11624 20843.9 11630.4 20851.9 11636.4 20860.2 11642.1 20868.7 11647.4 20877.4 11652.4 20886.3 11657.1 20895.3 11661.4 20904.5 11665.4 20913.9 11669 20923.4 11672.2 20933 11675 20942.8 11677.5 20952.6 11679.5 20962.5 11681.2 20972.5 11682.5 20982.4 11683.4 20992.5 11683.9 21002.5 11684 21012.5 11683.7 21022.6 11683 21032.5 11681.9 21042.5 11680.4 21052.3 11678.6 21062.1 11676.3 21071.8 11673.6 21081.3 11670.6 21090.8 11667.2 21100.1 11663.4 21109.2 11659.3 21118.2 11654.8 21127 11650 21135.6 11644.8 21144 11639.3 21152.1 11633.4 21160 11627.2 21167.7 11620.8 21175.1 11614 21182.2 11606.9 21189.1 11599.6 21195.6 11592 21201.9 11584.1 21207.8 11576 21213.4 11567.7 21218.7 11559.2 21223.6 11550.4 21228.2 11541.5 21232.4 11532.4 21236.3 11523.1 21239.8 11513.7 21242.9 11504.2 21245.7 11494.5 21248 11484.8 21250 11474.9 21251.6 11465 21252.8 11455.1 21253.6 11445 21254 11435 21254 11425 21253.6 11415 21252.8 11404.9 21251.6 11395 21250 11385.1 21248 11375.2 21245.7 11365.5 21242.9 11355.8 21239.8 11346.3 21236.3 11336.9 21232.4 11327.6 21228.2 11318.5 21223.6 11309.6 21218.7 11300.8 21213.4 11292.3 21207.8 11284 21201.9 11275.9 21195.6 11268 21189.1 11260.4 21182.2 11253.1 21175.1 11246 21167.7 11239.2 21160 11232.8 21152.1 11226.6 21144 11220.7 21135.6 11215.2 21127 11210 21118.2 11205.2 21109.2 11200.7 21100.1 11196.6 21090.8 11192.8 21081.3 11189.4 21071.8 11186.4 21062.1 11183.7 21052.3 11181.4 21042.5 11179.6 21032.5 11178.1 21022.6 11177 21012.5 11176.3 21002.5 11176 20992.5 11176.1 20982.4 11176.6 20972.5 11177.5 20962.5 11178.8 20952.6 11180.5 20942.8 11182.5 20933 11185 20923.4 11187.8 20913.9 11191 20904.5 11194.6 20895.3 11198.6 20886.3 11202.9 20877.4 11207.6 20868.7 11212.6 20860.2 11217.9 20851.9 11223.6 20843.9 11229.6 20836.1 11236 20828.6 11242.6 20821.3 11249.5 20814.3 11256.7 20807.6 11264.2 20801.2 11271.9 20795.1 11279.9 20789.3 11288.1 20783.9 11296.5 20778.8 11305.2 20774 11314 20769.6 11323 20765.6 11332.2 20761.9 11341.6 20758.6 11351 20755.7 11360.6 20753.1 11370.3 20750.9 11380.1 20749.2 11390 20747.8 11400 20746.8 11409.9 20746.2 11420 20746 11430" fill="none" stroke-width="152.4"/><path d="M 22090.8 6139.7 22090.6 6127 22090 6114.3 22089 6101.7 22087.7 6089.1 22085.9 6076.5 22083.8 6064 22081.3 6051.6 22078.4 6039.2 22075.1 6027 22071.4 6014.8 22067.4 6002.8 22063 5990.9 22058.2 5979.1 22053.1 5967.5 22047.6 5956.1 22041.8 5944.8 22035.6 5933.7 22029.1 5922.8 22022.2 5912.1 22015.1 5901.7 22007.6 5891.4 21999.8 5881.4 21991.7 5871.6 21983.3 5862.1 21974.6 5852.9 21965.6 5843.9 21956.4 5835.2 21946.9 5826.8 21937.1 5818.7 21927.1 5810.9 21916.8 5803.4 21906.4 5796.3 21895.7 5789.4 21884.8 5782.9 21873.7 5776.7 21862.4 5770.9 21851 5765.4 21839.4 5760.3 21827.6 5755.5 21815.7 5751.1 21803.7 5747.1 21791.5 5743.4 21779.3 5740.1 21766.9 5737.2 21754.5 5734.7 21742 5732.6 21729.4 5730.8 21716.8 5729.5 21704.2 5728.5 21691.5 5727.9 21678.8 5727.7 21658 5727.9 21637.2 5728.7 21616.4 5729.9 21595.6 5731.7 21574.9 5733.9 21554.3 5736.7 21533.7 5739.9 21513.2 5743.6 21492.8 5747.8 21472.5 5752.5 21452.3 5757.7 21432.3 5763.3 21412.4 5769.5 21392.6 5776.1 21373 5783.2 21353.6 5790.7 21334.4 5798.7 21315.4 5807.2 21296.6 5816.1 21278 5825.5 21259.6 5835.3 21241.5 5845.5 21223.6 5856.2 21206 5867.3 21188.6 5878.8 21171.5 5890.8 21154.8 5903.1 21138.3 5915.9 21122.1 5929 21106.3 5942.5 21090.7 5956.4 21075.5 5970.6 21060.7 5985.2 M 21112.3 7169.9 21112.5 7182.6 21113.1 7195.3 21114.1 7207.9 21115.4 7220.5 21117.2 7233.1 21119.3 7245.6 21121.8 7258 21124.7 7270.4 21128 7282.6 21131.7 7294.8 21135.7 7306.8 21140.1 7318.7 21144.9 7330.5 21150 7342.1 21155.5 7353.5 21161.3 7364.8 21167.5 7375.9 21174 7386.8 21180.9 7397.5 21188 7407.9 21195.5 7418.2 21203.3 7428.2 21211.4 7438 21219.8 7447.5 21228.5 7456.7 21237.5 7465.7 21246.7 7474.4 21256.2 7482.8 21266 7490.9 21276 7498.7 21286.3 7506.2 21296.7 7513.3 21307.4 7520.2 21318.3 7526.7 21329.4 7532.9 21340.7 7538.7 21352.1 7544.2 21363.7 7549.3 21375.5 7554.1 21387.4 7558.5 21399.4 7562.5 21411.6 7566.2 21423.8 7569.5 21436.2 7572.4 21448.6 7574.9 21461.1 7577 21473.7 7578.8 21486.3 7580.1 21498.9 7581.1 21511.6 7581.7 21524.3 7581.9 21542.7 7581.7 21561.1 7581 21579.5 7579.9 21597.8 7578.4 21616.2 7576.4 21634.4 7574 21652.6 7571.2 21670.7 7567.9 21688.8 7564.2 21706.7 7560.1 21724.5 7555.5 21742.3 7550.5 21759.9 7545.1 21777.3 7539.3 21794.7 7533.1 21811.8 7526.4 21828.8 7519.3 21845.7 7511.9 21862.3 7504 21878.8 7495.8 21895 7487.1 21911.1 7478.1 21926.9 7468.7 21942.5 7458.9 21957.9 7448.8 21973 7438.3 21987.9 7427.4 M 21318.2 6809.3 21307.3 6816 21296.6 6823 21286.1 6830.3 21275.9 6837.9 21265.9 6845.9 21256.1 6854.1 21246.6 6862.6 21237.3 6871.4 21228.4 6880.5 21219.7 6889.9 21211.3 6899.5 21203.1 6909.4 21195.3 6919.5 21187.9 6929.9 21180.7 6940.5 21173.9 6951.3 21167.3 6962.3 21161.2 6973.5 21155.3 6984.8 21149.9 6996.4 21144.7 7008.1 21140 7019.9 21135.6 7031.9 21131.6 7044.1 21127.9 7056.3 21124.6 7068.7 21121.7 7081.1 21119.2 7093.6 21117.1 7106.2 21115.3 7118.9 21114 7131.6 21113 7144.4 21112.4 7157.1 21112.2 7169.9 M 21884.9 6500.3 21895.8 6493.6 21906.5 6486.6 21917 6479.3 21927.2 6471.7 21937.2 6463.7 21947 6455.5 21956.5 6447 21965.8 6438.2 21974.7 6429.1 21983.4 6419.7 21991.8 6410.1 22000 6400.2 22007.8 6390.1 22015.2 6379.7 22022.4 6369.1 22029.3 6358.3 22035.8 6347.3 22041.9 6336.1 22047.8 6324.8 22053.2 6313.2 22058.4 6301.5 22063.1 6289.7 22067.5 6277.7 22071.5 6265.5 22075.2 6253.3 22078.5 6240.9 22081.4 6228.5 22083.9 6216 22086 6203.4 22087.8 6190.7 22089.1 6178 22090.1 6165.2 22090.7 6152.5 22090.9 6139.7 M 21884.8 6500.3 21318.3 6809.3 M 22852.8 7169.9 23367.8 7581.9 23367.8 5727.7 M 22852.8 5727.7 23882.9 5727.7" fill="none" stroke-width="330.2"/><path d="M 59436 25654 59436 42926 47244 42926 47244 25654 59436 25654" fill="none" stroke-width="152.4"/><path d="M 56870.6 39039.8 57759.6 39751 58216.8 39420.8 M 56184.8 35331.4 57327.8 34696.4 58216.8 39420.8 M 56870.6 39039.8 56184.8 35331.4 M 55880 34925 57023 34290 M 56515 39370 57378.6 40055.8 56616.6 40640 M 57023 34290 55753 33655 M 55803.8 33096.2 57150 33782 56261 28879.8 M 55143.4 29540.2 55803.8 33096.2 M 54813.2 29210 55575.2 28295.6 55168.8 27940 M 55930.8 28600.4 55143.4 29540.2 M 55930.8 28600.4 56261 28879.8 M 50800 33655 49657 34290 M 50165 29210 49301.4 28524.2 50063.4 27940 55168.8 27940 M 54813.2 29210 50165 29210 M 50800 33655 55753 33655 M 50927 34925 49657 34290 M 50927 34925 55880 34925 M 51866.8 39370 51104.8 40284.4 51511.2 40640 56616.6 40640 M 56515 39370 51866.8 39370" fill="none" stroke-width="254"/><path d="M 50038 28575 54737 28575 M 55753 29591 56388 32766 M 56007 34290 50673 34290" fill="none" stroke-width="1016"/><path d="M 55880 29083 56007 29210" fill="none" stroke-width="762"/><path d="M 56896 35687 57531 38989" fill="none" stroke-width="1016"/><path d="M 57785 39370 57912 39243" fill="none" stroke-width="508"/><path d="M 56515 35560 57150 35179" fill="none" stroke-width="660.4"/><path d="M 56642 40005 51943 40005" fill="none" stroke-width="1016"/><path d="M 51689 40513 51308 40132" fill="none" stroke-width="406.4"/><path d="M 49809.4 29540.2 48920.4 28829 48463.2 29159.2 M 50495.2 33248.6 49352.2 33883.6 48463.2 29159.2 M 49809.4 29540.2 50495.2 33248.6 M 49530 34798 50876.2 35483.8 M 49530 34798 50419 39700.2 M 51536.6 39039.8 50876.2 35483.8 M 51536.6 39039.8 50749.2 39979.6 50419 39700.2" fill="none" stroke-width="254"/><path d="M 50927 38989 50292 35814" fill="none" stroke-width="1016"/><path d="M 50673 39370 50800 39497" fill="none" stroke-width="762"/><path d="M 49784 32893 49149 29591" fill="none" stroke-width="1016"/><path d="M 48895 29210 48768 29337" fill="none" stroke-width="508"/><path d="M 50165 33020 49530 33401" fill="none" stroke-width="660.4"/><path d="M 57531 28575 57531.2 28587.3 57531.8 28599.7 57532.8 28612 57534.2 28624.2 57536 28636.4 57538.2 28648.6 57540.7 28660.6 57543.7 28672.6 57547.1 28684.5 57550.8 28696.3 57554.9 28707.9 57559.4 28719.4 57564.3 28730.7 57569.5 28741.9 57575.1 28752.9 57581 28763.7 57587.3 28774.3 57593.9 28784.7 57600.9 28794.9 57608.2 28804.9 57615.8 28814.6 57623.7 28824.1 57631.9 28833.3 57640.4 28842.2 57649.2 28850.9 57658.3 28859.2 57667.6 28867.3 57677.2 28875.1 57687.1 28882.5 57697.1 28889.6 57707.4 28896.4 57717.9 28902.9 57728.7 28909 57739.6 28914.8 57750.7 28920.2 57761.9 28925.2 57773.4 28929.9 57784.9 28934.2 57796.6 28938.1 57808.4 28941.7 57820.4 28944.8 57832.4 28947.6 57844.5 28950 57856.7 28952 57868.9 28953.6 57881.2 28954.8 57893.5 28955.6 57905.8 28956 57918.2 28956 57930.5 28955.6 57942.8 28954.8 57955.1 28953.6 57967.3 28952 57979.5 28950 57991.6 28947.6 58003.6 28944.8 58015.6 28941.7 58027.4 28938.1 58039.1 28934.2 58050.6 28929.9 58062.1 28925.2 58073.3 28920.2 58084.4 28914.8 58095.3 28909 58106.1 28902.9 58116.6 28896.4 58126.9 28889.6 58136.9 28882.5 58146.8 28875.1 58156.4 28867.3 58165.7 28859.2 58174.8 28850.9 58183.6 28842.2 58192.1 28833.3 58200.3 28824.1 58208.2 28814.6 58215.8 28804.9 58223.1 28794.9 58230.1 28784.7 58236.7 28774.3 58243 28763.7 58248.9 28752.9 58254.5 28741.9 58259.7 28730.7 58264.6 28719.4 58269.1 28707.9 58273.2 28696.3 58276.9 28684.5 58280.3 28672.6 58283.3 28660.6 58285.8 28648.6 58288 28636.4 58289.8 28624.2 58291.2 28612 58292.2 28599.7 58292.8 28587.3 58293 28575 58292.8 28562.7 58292.2 28550.3 58291.2 28538 58289.8 28525.8 58288 28513.6 58285.8 28501.4 58283.3 28489.4 58280.3 28477.4 58276.9 28465.5 58273.2 28453.7 58269.1 28442.1 58264.6 28430.6 58259.7 28419.3 58254.5 28408.1 58248.9 28397.1 58243 28386.3 58236.7 28375.7 58230.1 28365.3 58223.1 28355.1 58215.8 28345.1 58208.2 28335.4 58200.3 28325.9 58192.1 28316.7 58183.6 28307.8 58174.8 28299.1 58165.7 28290.8 58156.4 28282.7 58146.8 28274.9 58136.9 28267.5 58126.9 28260.4 58116.6 28253.6 58106.1 28247.1 58095.3 28241 58084.4 28235.2 58073.3 28229.8 58062.1 28224.8 58050.6 28220.1 58039.1 28215.8 58027.4 28211.9 58015.6 28208.3 58003.6 28205.2 57991.6 28202.4 57979.5 28200 57967.3 28198 57955.1 28196.4 57942.8 28195.2 57930.5 28194.4 57918.2 28194 57905.8 28194 57893.5 28194.4 57881.2 28195.2 57868.9 28196.4 57856.7 28198 57844.5 28200 57832.4 28202.4 57820.4 28205.2 57808.4 28208.3 57796.6 28211.9 57784.9 28215.8 57773.4 28220.1 57761.9 28224.8 57750.7 28229.8 57739.6 28235.2 57728.7 28241 57717.9 28247.1 57707.4 28253.6 57697.1 28260.4 57687.1 28267.5 57677.2 28274.9 57667.6 28282.7 57658.3 28290.8 57649.2 28299.1 57640.4 28307.8 57631.9 28316.7 57623.7 28325.9 57615.8 28335.4 57608.2 28345.1 57600.9 28355.1 57593.9 28365.3 57587.3 28375.7 57581 28386.3 57575.1 28397.1 57569.5 28408.1 57564.3 28419.3 57559.4 28430.6 57554.9 28442.1 57550.8 28453.7 57547.1 28465.5 57543.7 28477.4 57540.7 28489.4 57538.2 28501.4 57536 28513.6 57534.2 28525.8 57532.8 28538 57531.8 28550.3 57531.2 28562.7 57531 28575" fill="none" stroke-width="762"/><use xlink:href="#aEeHffVhiZF2rVZn1BIV_pad-19" x="55181.5" y="28321"/><use xlink:href="#aEeHffVhiZF2rVZn1BIV_pad-20" x="56769" y="33274"/><use xlink:href="#aEeHffVhiZF2rVZn1BIV_pad-21" x="56578.5" y="34290"/><use xlink:href="#aEeHffVhiZF2rVZn1BIV_pad-22" x="50101.5" y="34290"/><use xlink:href="#aEeHffVhiZF2rVZn1BIV_pad-20" x="49911" y="35306"/><use xlink:href="#aEeHffVhiZF2rVZn1BIV_pad-23" x="57912" y="28575"/><path d="M 47409.1 43599.1 47409.1 45453.3 47924.2 45453.3 47938.4 45453.1 47952.6 45452.5 47966.7 45451.5 47980.9 45450.2 47995 45448.4 48009 45446.3 48023 45443.7 48036.8 45440.8 48050.6 45437.5 48064.4 45433.9 48078 45429.8 48091.5 45425.4 48104.8 45420.6 48118 45415.4 48131.1 45409.9 48144 45404 48156.8 45397.8 48169.4 45391.2 48181.8 45384.3 48193.9 45377 48205.9 45369.4 48217.7 45361.5 48229.3 45353.2 48240.6 45344.7 48251.7 45335.8 48262.5 45326.6 48273.1 45317.2 48283.4 45307.4 48293.4 45297.4 48303.2 45287.1 48312.6 45276.5 48321.8 45265.7 48330.7 45254.6 48339.2 45243.3 48347.5 45231.7 48355.4 45219.9 48363 45207.9 48370.3 45195.8 48377.2 45183.4 48383.8 45170.8 48390 45158 48395.9 45145.1 48401.4 45132 48406.6 45118.8 48411.4 45105.5 48415.8 45092 48419.9 45078.4 48423.5 45064.6 48426.8 45050.8 48429.7 45037 48432.3 45023 48434.4 45009 48436.2 44994.9 48437.5 44980.7 48438.5 44966.6 48439.1 44952.4 48439.3 44938.2 M 48439.2 44938.2 48439.2 44114.2 M 48439.3 44114.2 48439.1 44100 48438.5 44085.8 48437.5 44071.7 48436.2 44057.5 48434.4 44043.4 48432.3 44029.4 48429.7 44015.4 48426.8 44001.6 48423.5 43987.7 48419.9 43974 48415.8 43960.4 48411.4 43946.9 48406.6 43933.6 48401.4 43920.4 48395.9 43907.3 48390 43894.4 48383.8 43881.6 48377.2 43869 48370.3 43856.6 48363 43844.5 48355.4 43832.5 48347.5 43820.7 48339.2 43809.1 48330.7 43797.8 48321.8 43786.7 48312.6 43775.9 48303.2 43765.3 48293.4 43755 48283.4 43745 48273.1 43735.2 48262.5 43725.8 48251.7 43716.6 48240.6 43707.7 48229.3 43699.1 48217.7 43690.9 48205.9 43683 48193.9 43675.4 48181.7 43668.1 48169.4 43661.2 48156.8 43654.6 48144 43648.4 48131.1 43642.5 48118 43637 48104.8 43631.8 48091.5 43627 48078 43622.6 48064.4 43618.5 48050.6 43614.9 48036.8 43611.6 48022.9 43608.7 48009 43606.1 47994.9 43604 47980.9 43602.2 47966.7 43600.9 47952.6 43599.9 47938.4 43599.3 47924.2 43599.1 47409.1 43599.1 M 49891.3 45453.4 49904.8 45453.2 49918.3 45452.6 49931.7 45451.6 49945.1 45450.3 49958.5 45448.5 49971.8 45446.4 49985 45443.8 49998.2 45440.9 50011.3 45437.6 50024.3 45433.9 50037.1 45429.9 50049.9 45425.4 50062.5 45420.6 50074.9 45415.5 50087.2 45410 50099.4 45404.1 50111.3 45397.9 50123.1 45391.3 50134.7 45384.4 50146.1 45377.1 50157.2 45369.6 50168.1 45361.7 50178.8 45353.5 50189.3 45344.9 50199.5 45336.1 50209.4 45327 50219.1 45317.6 50228.5 45307.9 50237.6 45298 50246.4 45287.8 50255 45277.3 50263.2 45266.6 50271.1 45255.7 50278.6 45244.6 50285.9 45233.2 50292.8 45221.6 50299.4 45209.8 50305.6 45197.9 50311.5 45185.7 50317 45173.4 50322.1 45161 50326.9 45148.4 50331.4 45135.6 50335.4 45122.8 50339.1 45109.8 50342.4 45096.7 50345.3 45083.5 50347.9 45070.3 50350 45057 50351.8 45043.6 50353.1 45030.2 50354.1 45016.8 50354.7 45003.3 50354.9 44989.8 M 49891.3 45453.3 49876 45453.1 49860.7 45452.5 49845.5 45451.5 49830.3 45450.2 49815.1 45448.4 49800 45446.3 49784.9 45443.7 49769.9 45440.8 49755 45437.5 49740.1 45433.8 49725.4 45429.7 49710.8 45425.3 49696.3 45420.5 49681.9 45415.3 49667.7 45409.7 49653.6 45403.8 49639.6 45397.5 49625.9 45390.9 49612.3 45383.9 49598.9 45376.6 49585.7 45368.9 49572.6 45360.9 49559.8 45352.5 49547.3 45343.9 49534.9 45334.9 49522.8 45325.6 49510.9 45316 49499.3 45306 49487.9 45295.8 49476.8 45285.3 49465.9 45274.6 49455.4 45263.5 49445.1 45252.2 49435.1 45240.6 49425.5 45228.8 49416.1 45216.7 49407 45204.4 49398.3 45191.8 49389.9 45179.1 49381.8 45166.1 49374.1 45152.9 49366.7 45139.6 49359.6 45126 49352.9 45112.3 49346.6 45098.4 49340.6 45084.3 49334.9 45070.1 49329.7 45055.8 49324.8 45041.3 M 50200.3 44629.3 50210.2 44639 50219.9 44649 50229.2 44659.3 50238.3 44669.8 50247.1 44680.6 50255.6 44691.6 50263.8 44702.8 50271.6 44714.3 50279.2 44726 50286.4 44737.9 50293.2 44750 50299.7 44762.2 50305.9 44774.7 50311.8 44787.3 50317.2 44800.1 50322.4 44813 50327.1 44826.1 50331.5 44839.3 50335.5 44852.6 50339.2 44866 50342.4 44879.5 50345.3 44893.1 50347.8 44906.8 50350 44920.5 50351.7 44934.3 50353.1 44948.1 50354 44962 50354.6 44975.9 50354.8 44989.8 M 50200.3 44629.2 49324.7 43599.1 50354.8 43599.1" fill="none" stroke-width="330.2"/><path d="M 29452 12192 29198 12192 29198 10668 29452 10668 M 35548 10668 35802 10668 35802 12192 35548 12192" fill="none" stroke-width="152.4"/><path d="M 33770 8636 33770 8382 M 33770 8636 31230 8636 31230 8382 M 31357 14224 33770 14224 M 31357 14224 31357 14478 M 33770 14478 33770 14224" fill="none" stroke-width="50.8"/><path d="M 33770 14478 34659 14478 M 31230 8382 30341 8382 M 31230 8382 33770 8382 34659 8382 M 33770 14478 31357 14478 30341 14478 M 29452 12446 29452 12192 M 29452 10668 29452 10414 M 35548 12192 35548 12446 M 35548 10668 35548 10414 M 30722 11430 30722.5 11473.6 30724.1 11517.2 30726.8 11560.8 30730.6 11604.3 30735.4 11647.6 30741.2 11690.9 30748.2 11734 30756.2 11776.9 30765.2 11819.6 30775.3 11862 30786.4 11904.2 30798.6 11946.1 30811.7 11987.7 30825.9 12029 30841.1 12069.9 30857.3 12110.4 30874.5 12150.5 30892.7 12190.2 30911.8 12229.4 30931.9 12268.1 30953 12306.4 30975 12344.1 30997.9 12381.2 31021.6 12417.8 31046.3 12453.8 31071.9 12489.2 31098.3 12523.9 31125.6 12558 31153.7 12591.3 31182.6 12624 31212.3 12656 31242.8 12687.2 31274 12717.7 31306 12747.4 31338.7 12776.3 31372 12804.4 31406.1 12831.7 31440.8 12858.1 31476.2 12883.7 31512.2 12908.4 31548.8 12932.1 31585.9 12955 31623.6 12977 31661.9 12998.1 31700.6 13018.2 31739.8 13037.3 31779.5 13055.5 31819.6 13072.7 31860.1 13088.9 31901 13104.1 31942.3 13118.3 31983.9 13131.4 32025.8 13143.6 32068 13154.7 32110.4 13164.8 32153.1 13173.8 32196 13181.8 32239.1 13188.8 32282.4 13194.6 32325.7 13199.4 32369.2 13203.2 32412.8 13205.9 32456.4 13207.5 32500 13208 32543.6 13207.5 32587.2 13205.9 32630.8 13203.2 32674.3 13199.4 32717.6 13194.6 32760.9 13188.8 32804 13181.8 32846.9 13173.8 32889.6 13164.8 32932 13154.7 32974.2 13143.6 33016.1 13131.4 33057.7 13118.3 33099 13104.1 33139.9 13088.9 33180.4 13072.7 33220.5 13055.5 33260.2 13037.3 33299.4 13018.2 33338.1 12998.1 33376.4 12977 33414.1 12955 33451.2 12932.1 33487.8 12908.4 33523.8 12883.7 33559.2 12858.1 33593.9 12831.7 33628 12804.4 33661.3 12776.3 33694 12747.4 33726 12717.7 33757.2 12687.2 33787.7 12656 33817.4 12624 33846.3 12591.3 33874.4 12558 33901.7 12523.9 33928.1 12489.2 33953.7 12453.8 33978.4 12417.8 34002.1 12381.2 34025 12344.1 34047 12306.4 34068.1 12268.1 34088.2 12229.4 34107.3 12190.2 34125.5 12150.5 34142.7 12110.4 34158.9 12069.9 34174.1 12029 34188.3 11987.7 34201.4 11946.1 34213.6 11904.2 34224.7 11862 34234.8 11819.6 34243.8 11776.9 34251.8 11734 34258.8 11690.9 34264.6 11647.6 34269.4 11604.3 34273.2 11560.8 34275.9 11517.2 34277.5 11473.6 34278 11430 34277.5 11386.4 34275.9 11342.8 34273.2 11299.2 34269.4 11255.7 34264.6 11212.4 34258.8 11169.1 34251.8 11126 34243.8 11083.1 34234.8 11040.4 34224.7 10998 34213.6 10955.8 34201.4 10913.9 34188.3 10872.3 34174.1 10831 34158.9 10790.1 34142.7 10749.6 34125.5 10709.5 34107.3 10669.8 34088.2 10630.6 34068.1 10591.9 34047 10553.6 34025 10515.9 34002.1 10478.8 33978.4 10442.2 33953.7 10406.2 33928.1 10370.8 33901.7 10336.1 33874.4 10302 33846.3 10268.7 33817.4 10236 33787.7 10204 33757.2 10172.8 33726 10142.3 33694 10112.6 33661.3 10083.7 33628 10055.6 33593.9 10028.3 33559.2 10001.9 33523.8 9976.3 33487.8 9951.6 33451.2 9927.9 33414.1 9905 33376.4 9883 33338.1 9861.9 33299.4 9841.8 33260.2 9822.7 33220.5 9804.5 33180.4 9787.3 33139.9 9771.1 33099 9755.9 33057.7 9741.7 33016.1 9728.6 32974.2 9716.4 32932 9705.3 32889.6 9695.2 32846.9 9686.2 32804 9678.2 32760.9 9671.2 32717.6 9665.4 32674.3 9660.6 32630.8 9656.8 32587.2 9654.1 32543.6 9652.5 32500 9652 32456.4 9652.5 32412.8 9654.1 32369.2 9656.8 32325.7 9660.6 32282.4 9665.4 32239.1 9671.2 32196 9678.2 32153.1 9686.2 32110.4 9695.2 32068 9705.3 32025.8 9716.4 31983.9 9728.6 31942.3 9741.7 31901 9755.9 31860.1 9771.1 31819.6 9787.3 31779.5 9804.5 31739.8 9822.7 31700.6 9841.8 31661.9 9861.9 31623.6 9883 31585.9 9905 31548.8 9927.9 31512.2 9951.6 31476.2 9976.3 31440.8 10001.9 31406.1 10028.3 31372 10055.6 31338.7 10083.7 31306 10112.6 31274 10142.3 31242.8 10172.8 31212.3 10204 31182.6 10236 31153.7 10268.7 31125.6 10302 31098.3 10336.1 31071.9 10370.8 31046.3 10406.2 31021.6 10442.2 30997.9 10478.8 30975 10515.9 30953 10553.6 30931.9 10591.9 30911.8 10630.6 30892.7 10669.8 30874.5 10709.5 30857.3 10749.6 30841.1 10790.1 30825.9 10831 30811.7 10872.3 30798.6 10913.9 30786.4 10955.8 30775.3 10998 30765.2 11040.4 30756.2 11083.1 30748.2 11126 30741.2 11169.1 30735.4 11212.4 30730.6 11255.7 30726.8 11299.2 30724.1 11342.8 30722.5 11386.4 30722 11430 M 32246 11430 32246.2 11440 32246.8 11450.1 32247.8 11460 32249.2 11470 32250.9 11479.9 32253.1 11489.7 32255.7 11499.4 32258.6 11509 32261.9 11518.4 32265.6 11527.8 32269.6 11537 32274 11546 32278.8 11554.8 32283.9 11563.5 32289.3 11571.9 32295.1 11580.1 32301.2 11588.1 32307.6 11595.8 32314.3 11603.3 32321.3 11610.5 32328.6 11617.4 32336.1 11624 32343.9 11630.4 32351.9 11636.4 32360.2 11642.1 32368.7 11647.4 32377.4 11652.4 32386.3 11657.1 32395.3 11661.4 32404.5 11665.4 32413.9 11669 32423.4 11672.2 32433 11675 32442.8 11677.5 32452.6 11679.5 32462.5 11681.2 32472.5 11682.5 32482.4 11683.4 32492.5 11683.9 32502.5 11684 32512.5 11683.7 32522.6 11683 32532.5 11681.9 32542.5 11680.4 32552.3 11678.6 32562.1 11676.3 32571.8 11673.6 32581.3 11670.6 32590.8 11667.2 32600.1 11663.4 32609.2 11659.3 32618.2 11654.8 32627 11650 32635.6 11644.8 32644 11639.3 32652.1 11633.4 32660 11627.2 32667.7 11620.8 32675.1 11614 32682.2 11606.9 32689.1 11599.6 32695.6 11592 32701.9 11584.1 32707.8 11576 32713.4 11567.7 32718.7 11559.2 32723.6 11550.4 32728.2 11541.5 32732.4 11532.4 32736.3 11523.1 32739.8 11513.7 32742.9 11504.2 32745.7 11494.5 32748 11484.8 32750 11474.9 32751.6 11465 32752.8 11455.1 32753.6 11445 32754 11435 32754 11425 32753.6 11415 32752.8 11404.9 32751.6 11395 32750 11385.1 32748 11375.2 32745.7 11365.5 32742.9 11355.8 32739.8 11346.3 32736.3 11336.9 32732.4 11327.6 32728.2 11318.5 32723.6 11309.6 32718.7 11300.8 32713.4 11292.3 32707.8 11284 32701.9 11275.9 32695.6 11268 32689.1 11260.4 32682.2 11253.1 32675.1 11246 32667.7 11239.2 32660 11232.8 32652.1 11226.6 32644 11220.7 32635.6 11215.2 32627 11210 32618.2 11205.2 32609.2 11200.7 32600.1 11196.6 32590.8 11192.8 32581.3 11189.4 32571.8 11186.4 32562.1 11183.7 32552.3 11181.4 32542.5 11179.6 32532.5 11178.1 32522.6 11177 32512.5 11176.3 32502.5 11176 32492.5 11176.1 32482.4 11176.6 32472.5 11177.5 32462.5 11178.8 32452.6 11180.5 32442.8 11182.5 32433 11185 32423.4 11187.8 32413.9 11191 32404.5 11194.6 32395.3 11198.6 32386.3 11202.9 32377.4 11207.6 32368.7 11212.6 32360.2 11217.9 32351.9 11223.6 32343.9 11229.6 32336.1 11236 32328.6 11242.6 32321.3 11249.5 32314.3 11256.7 32307.6 11264.2 32301.2 11271.9 32295.1 11279.9 32289.3 11288.1 32283.9 11296.5 32278.8 11305.2 32274 11314 32269.6 11323 32265.6 11332.2 32261.9 11341.6 32258.6 11351 32255.7 11360.6 32253.1 11370.3 32250.9 11380.1 32249.2 11390 32247.8 11400 32246.8 11409.9 32246.2 11420 32246 11430" fill="none" stroke-width="152.4"/><path d="M 33590.8 6139.7 33590.6 6127 33590 6114.3 33589 6101.7 33587.7 6089.1 33585.9 6076.5 33583.8 6064 33581.3 6051.6 33578.4 6039.2 33575.1 6027 33571.4 6014.8 33567.4 6002.8 33563 5990.9 33558.2 5979.1 33553.1 5967.5 33547.6 5956.1 33541.8 5944.8 33535.6 5933.7 33529.1 5922.8 33522.2 5912.1 33515.1 5901.7 33507.6 5891.4 33499.8 5881.4 33491.7 5871.6 33483.3 5862.1 33474.6 5852.9 33465.6 5843.9 33456.4 5835.2 33446.9 5826.8 33437.1 5818.7 33427.1 5810.9 33416.8 5803.4 33406.4 5796.3 33395.7 5789.4 33384.8 5782.9 33373.7 5776.7 33362.4 5770.9 33351 5765.4 33339.4 5760.3 33327.6 5755.5 33315.7 5751.1 33303.7 5747.1 33291.5 5743.4 33279.3 5740.1 33266.9 5737.2 33254.5 5734.7 33242 5732.6 33229.4 5730.8 33216.8 5729.5 33204.2 5728.5 33191.5 5727.9 33178.8 5727.7 33158 5727.9 33137.2 5728.7 33116.4 5729.9 33095.6 5731.7 33074.9 5733.9 33054.3 5736.7 33033.7 5739.9 33013.2 5743.6 32992.8 5747.8 32972.5 5752.5 32952.3 5757.7 32932.3 5763.3 32912.4 5769.5 32892.6 5776.1 32873 5783.2 32853.6 5790.7 32834.4 5798.7 32815.4 5807.2 32796.6 5816.1 32778 5825.5 32759.6 5835.3 32741.5 5845.5 32723.6 5856.2 32706 5867.3 32688.6 5878.8 32671.5 5890.8 32654.8 5903.1 32638.3 5915.9 32622.1 5929 32606.3 5942.5 32590.7 5956.4 32575.5 5970.6 32560.7 5985.2 M 32612.3 7169.9 32612.5 7182.6 32613.1 7195.3 32614.1 7207.9 32615.4 7220.5 32617.2 7233.1 32619.3 7245.6 32621.8 7258 32624.7 7270.4 32628 7282.6 32631.7 7294.8 32635.7 7306.8 32640.1 7318.7 32644.9 7330.5 32650 7342.1 32655.5 7353.5 32661.3 7364.8 32667.5 7375.9 32674 7386.8 32680.9 7397.5 32688 7407.9 32695.5 7418.2 32703.3 7428.2 32711.4 7438 32719.8 7447.5 32728.5 7456.7 32737.5 7465.7 32746.7 7474.4 32756.2 7482.8 32766 7490.9 32776 7498.7 32786.3 7506.2 32796.7 7513.3 32807.4 7520.2 32818.3 7526.7 32829.4 7532.9 32840.7 7538.7 32852.1 7544.2 32863.7 7549.3 32875.5 7554.1 32887.4 7558.5 32899.4 7562.5 32911.6 7566.2 32923.8 7569.5 32936.2 7572.4 32948.6 7574.9 32961.1 7577 32973.7 7578.8 32986.3 7580.1 32998.9 7581.1 33011.6 7581.7 33024.3 7581.9 33042.7 7581.7 33061.1 7581 33079.5 7579.9 33097.8 7578.4 33116.2 7576.4 33134.4 7574 33152.6 7571.2 33170.7 7567.9 33188.8 7564.2 33206.7 7560.1 33224.5 7555.5 33242.3 7550.5 33259.9 7545.1 33277.3 7539.3 33294.7 7533.1 33311.8 7526.4 33328.8 7519.3 33345.7 7511.9 33362.3 7504 33378.8 7495.8 33395 7487.1 33411.1 7478.1 33426.9 7468.7 33442.5 7458.9 33457.9 7448.8 33473 7438.3 33487.9 7427.4 M 32818.2 6809.3 32807.3 6816 32796.6 6823 32786.1 6830.3 32775.9 6837.9 32765.9 6845.9 32756.1 6854.1 32746.6 6862.6 32737.3 6871.4 32728.4 6880.5 32719.7 6889.9 32711.3 6899.5 32703.1 6909.4 32695.3 6919.5 32687.9 6929.9 32680.7 6940.5 32673.9 6951.3 32667.3 6962.3 32661.2 6973.5 32655.3 6984.8 32649.9 6996.4 32644.7 7008.1 32640 7019.9 32635.6 7031.9 32631.6 7044.1 32627.9 7056.3 32624.6 7068.7 32621.7 7081.1 32619.2 7093.6 32617.1 7106.2 32615.3 7118.9 32614 7131.6 32613 7144.4 32612.4 7157.1 32612.2 7169.9 M 33384.9 6500.3 33395.8 6493.6 33406.5 6486.6 33417 6479.3 33427.2 6471.7 33437.2 6463.7 33447 6455.5 33456.5 6447 33465.8 6438.2 33474.7 6429.1 33483.4 6419.7 33491.8 6410.1 33500 6400.2 33507.8 6390.1 33515.2 6379.7 33522.4 6369.1 33529.3 6358.3 33535.8 6347.3 33541.9 6336.1 33547.8 6324.8 33553.2 6313.2 33558.4 6301.5 33563.1 6289.7 33567.5 6277.7 33571.5 6265.5 33575.2 6253.3 33578.5 6240.9 33581.4 6228.5 33583.9 6216 33586 6203.4 33587.8 6190.7 33589.1 6178 33590.1 6165.2 33590.7 6152.5 33590.9 6139.7 M 33384.8 6500.3 32818.3 6809.3 M 34919.4 7582 34932.9 7581.8 34946.4 7581.2 34959.8 7580.2 34973.2 7578.9 34986.6 7577.1 34999.9 7575 35013.1 7572.4 35026.3 7569.5 35039.4 7566.2 35052.4 7562.5 35065.2 7558.5 35078 7554 35090.6 7549.2 35103 7544.1 35115.3 7538.6 35127.5 7532.7 35139.4 7526.5 35151.2 7519.9 35162.8 7513 35174.2 7505.7 35185.3 7498.2 35196.2 7490.3 35206.9 7482.1 35217.4 7473.5 35227.6 7464.7 35237.5 7455.6 35247.2 7446.2 35256.6 7436.5 35265.7 7426.6 35274.5 7416.4 35283.1 7405.9 35291.3 7395.2 35299.2 7384.3 35306.7 7373.2 35314 7361.8 35320.9 7350.2 35327.5 7338.4 35333.7 7326.5 35339.6 7314.3 35345.1 7302 35350.2 7289.6 35355 7277 35359.5 7264.2 35363.5 7251.4 35367.2 7238.4 35370.5 7225.3 35373.4 7212.1 35376 7198.9 35378.1 7185.6 35379.9 7172.2 35381.2 7158.8 35382.2 7145.4 35382.8 7131.9 35383 7118.4 M 34919.4 7581.9 34904.1 7581.7 34888.8 7581.1 34873.6 7580.1 34858.4 7578.8 34843.2 7577 34828.1 7574.9 34813 7572.3 34798 7569.4 34783.1 7566.1 34768.2 7562.4 34753.5 7558.3 34738.9 7553.9 34724.4 7549.1 34710 7543.9 34695.8 7538.3 34681.7 7532.4 34667.7 7526.1 34654 7519.5 34640.4 7512.5 34627 7505.2 34613.8 7497.5 34600.7 7489.5 34587.9 7481.1 34575.4 7472.5 34563 7463.5 34550.9 7454.2 34539 7444.6 34527.4 7434.6 34516 7424.4 34504.9 7413.9 34494 7403.2 34483.5 7392.1 34473.2 7380.8 34463.2 7369.2 34453.6 7357.4 34444.2 7345.3 34435.1 7333 34426.4 7320.4 34418 7307.7 34409.9 7294.7 34402.2 7281.5 34394.8 7268.2 34387.7 7254.6 34381 7240.9 34374.7 7227 34368.7 7212.9 34363 7198.7 34357.8 7184.4 34352.9 7169.9 M 35228.4 6757.9 35238.3 6767.6 35248 6777.6 35257.3 6787.9 35266.4 6798.4 35275.2 6809.2 35283.7 6820.2 35291.9 6831.4 35299.7 6842.9 35307.3 6854.6 35314.5 6866.5 35321.3 6878.6 35327.8 6890.8 35334 6903.3 35339.9 6915.9 35345.3 6928.7 35350.5 6941.6 35355.2 6954.7 35359.6 6967.9 35363.6 6981.2 35367.3 6994.6 35370.5 7008.1 35373.4 7021.7 35375.9 7035.4 35378.1 7049.1 35379.8 7062.9 35381.2 7076.7 35382.1 7090.6 35382.7 7104.5 35382.9 7118.4 M 35228.4 6757.8 34352.8 5727.7 35382.9 5727.7" fill="none" stroke-width="330.2"/><path d="M 5737.8 16870 7021.9 14733.5 8580.1 12576.7 10320.4 10563.9 12229.5 8710.5 14292.9 7030.6 16494.8 5536.8 18818.6 4240.7 21246.4 3152 23759.9 2279.1 26340 1628.5 28966.9 1205.3 31620.7 1012.6 34281.2 1052 36928.1 1323.1 39541.4 1823.9 42101 2550.5 44587.6 3497.5 46982.2 4657.5 49266.5 6021.9 51423.3 7580.1 53436 9320.4 55289.5 11229.5 56969.4 13292.9 58463.2 15494.8 59759.3 17818.6 60848 20246.4 61720.9 22760 62371.5 25340 62794.7 27966.9 62987.3 30620.7 62948 33281.2 62676.9 35928.1 62176.1 38541.4 61449.5 41101 60502.5 43587.6 59342.5 45982.2 57978.1 48266.6 56419.9 50423.3 54679.6 52436.1 52770.5 54289.5 50707.1 55969.4 48505.2 57463.2 46181.4 58759.3 43753.5 59848 41240 60721 38660 61371.5 38660 16870 5737.8 16870 M 14750 12942.7 14742.5 12828.4 14727.6 12714.8 14705.2 12602.4 14675.5 12491.7 14638.7 12383.2 14594.9 12277.4 14544.2 12174.6 14486.9 12075.4 14423.2 11980.1 14353.5 11889.2 14277.9 11803.1 14196.9 11722.1 14110.8 11646.5 14019.9 11576.8 13924.6 11513.1 13825.4 11455.8 13722.6 11405.1 13616.8 11361.3 13508.3 11324.5 13397.6 11294.8 13285.2 11272.5 13171.6 11257.5 13057.3 11250 12942.7 11250 12828.4 11257.5 12714.8 11272.5 12602.4 11294.8 12491.7 11324.5 12383.2 11361.3 12277.4 11405.1 12174.6 11455.8 12075.4 11513.1 11980.1 11576.8 11889.2 11646.5 11803.1 11722.1 11722.1 11803.1 11646.5 11889.2 11576.8 11980.1 11513.1 12075.4 11455.8 12174.6 11405.1 12277.4 11361.3 12383.2 11324.5 12491.7 11294.8 12602.4 11272.5 12714.8 11257.5 12828.4 11250 12942.7 11250 13057.3 11257.5 13171.6 11272.5 13285.2 11294.8 13397.6 11324.5 13508.3 11361.3 13616.8 11405.1 13722.6 11455.8 13825.4 11513.1 13924.6 11576.8 14019.9 11646.5 14110.8 11722.1 14196.9 11803.1 14277.9 11889.2 14353.5 11980.1 14423.2 12075.4 14486.9 12174.6 14544.2 12277.4 14594.9 12383.2 14638.7 12491.7 14675.5 12602.4 14705.2 12714.8 14727.6 12828.4 14742.5 12942.7 14750 13057.3 14750 13171.6 14742.5 13285.2 14727.6 13397.6 14705.2 13508.3 14675.5 13616.8 14638.7 13722.6 14594.9 13825.4 14544.2 13924.6 14486.9 14019.9 14423.2 14110.8 14353.5 14196.9 14277.9 14277.9 14196.9 14353.5 14110.8 14423.2 14019.9 14486.9 13924.6 14544.2 13825.4 14594.9 13722.6 14638.7 13616.8 14675.5 13508.3 14705.2 13397.6 14727.6 13285.2 14742.5 13171.6 14750 13057.3 14750 12942.7 M 53750 12942.7 53742.5 12828.4 53727.6 12714.8 53705.2 12602.4 53675.5 12491.7 53638.7 12383.2 53594.9 12277.4 53544.2 12174.6 53486.9 12075.4 53423.2 11980.1 53353.5 11889.2 53277.9 11803.1 53196.9 11722.1 53110.8 11646.5 53019.9 11576.8 52924.6 11513.1 52825.4 11455.8 52722.6 11405.1 52616.8 11361.3 52508.3 11324.5 52397.6 11294.8 52285.2 11272.5 52171.6 11257.5 52057.3 11250 51942.7 11250 51828.4 11257.5 51714.8 11272.5 51602.4 11294.8 51491.7 11324.5 51383.2 11361.3 51277.4 11405.1 51174.6 11455.8 51075.4 11513.1 50980.1 11576.8 50889.2 11646.5 50803.1 11722.1 50722.1 11803.1 50646.5 11889.2 50576.8 11980.1 50513.1 12075.4 50455.8 12174.6 50405.1 12277.4 50361.3 12383.2 50324.5 12491.7 50294.8 12602.4 50272.5 12714.8 50257.5 12828.4 50250 12942.7 50250 13057.3 50257.5 13171.6 50272.5 13285.2 50294.8 13397.6 50324.5 13508.3 50361.3 13616.8 50405.1 13722.6 50455.8 13825.4 50513.1 13924.6 50576.8 14019.9 50646.5 14110.8 50722.1 14196.9 50803.1 14277.9 50889.2 14353.5 50980.1 14423.2 51075.4 14486.9 51174.6 14544.2 51277.4 14594.9 51383.2 14638.7 51491.7 14675.5 51602.4 14705.2 51714.8 14727.6 51828.4 14742.5 51942.7 14750 52057.3 14750 52171.6 14742.5 52285.2 14727.6 52397.6 14705.2 52508.3 14675.5 52616.8 14638.7 52722.6 14594.9 52825.4 14544.2 52924.6 14486.9 53019.9 14423.2 53110.8 14353.5 53196.9 14277.9 53277.9 14196.9 53353.5 14110.8 53423.2 14019.9 53486.9 13924.6 53544.2 13825.4 53594.9 13722.6 53638.7 13616.8 53675.5 13508.3 53705.2 13397.6 53727.6 13285.2 53742.5 13171.6 53750 13057.3 53750 12942.7 M 44750 55942.7 44742.5 55828.4 44727.6 55714.8 44705.2 55602.4 44675.5 55491.7 44638.7 55383.2 44594.9 55277.4 44544.2 55174.6 44486.9 55075.4 44423.2 54980.1 44353.5 54889.2 44277.9 54803.1 44196.9 54722.1 44110.8 54646.5 44019.9 54576.8 43924.6 54513.1 43825.4 54455.8 43722.6 54405.1 43616.8 54361.3 43508.3 54324.5 43397.6 54294.8 43285.2 54272.5 43171.6 54257.5 43057.3 54250 42942.7 54250 42828.4 54257.5 42714.8 54272.5 42602.4 54294.8 42491.7 54324.5 42383.2 54361.3 42277.4 54405.1 42174.6 54455.8 42075.4 54513.1 41980.1 54576.8 41889.2 54646.5 41803.1 54722.1 41722.1 54803.1 41646.5 54889.2 41576.8 54980.1 41513.1 55075.4 41455.8 55174.6 41405.1 55277.4 41361.3 55383.2 41324.5 55491.7 41294.8 55602.4 41272.5 55714.8 41257.5 55828.4 41250 55942.7 41250 56057.3 41257.5 56171.6 41272.5 56285.2 41294.8 56397.6 41324.5 56508.3 41361.3 56616.8 41405.1 56722.6 41455.8 56825.4 41513.1 56924.6 41576.8 57019.9 41646.5 57110.8 41722.1 57196.9 41803.1 57277.9 41889.2 57353.5 41980.1 57423.2 42075.4 57486.9 42174.6 57544.2 42277.4 57594.9 42383.2 57638.7 42491.7 57675.5 42602.4 57705.2 42714.8 57727.6 42828.4 57742.5 42942.7 57750 43057.3 57750 43171.6 57742.5 43285.2 57727.6 43397.6 57705.2 43508.3 57675.5 43616.8 57638.7 43722.6 57594.9 43825.4 57544.2 43924.6 57486.9 44019.9 57423.2 44110.8 57353.5 44196.9 57277.9 44277.9 57196.9 44353.5 57110.8 44423.2 57019.9 44486.9 56924.6 44544.2 56825.4 44594.9 56722.6 44638.7 56616.8 44675.5 56508.3 44705.2 56397.6 44727.6 56285.2 44742.5 56171.6 44750 56057.3 44750 55942.7" fill="none" stroke-width="254"/></g></svg>