G04 EAGLE Gerber RS-274X export*
G75*
%MOMM*%
%FSLAX34Y34*%
%LPD*%
%INTop Copper*%
%IPPOS*%
%AMOC8*
5,1,8,0,0,1.08239X$1,22.5*%
G01*
%ADD10P,1.429621X8X112.500000*%
%ADD11C,1.524000*%
%ADD12C,1.950000*%
%ADD13C,2.000000*%
%ADD14P,4.123906X8X292.500000*%
%ADD15C,1.016000*%


D10*
X546100Y368300D03*
X546100Y393700D03*
D11*
X571500Y71120D02*
X571500Y55880D01*
X546100Y55880D02*
X546100Y71120D01*
X520700Y71120D02*
X520700Y55880D01*
D12*
X469900Y342900D03*
X393700Y342900D03*
X469900Y444500D03*
X469900Y520700D03*
D13*
X152189Y520950D03*
X202989Y520950D03*
X253789Y520950D03*
D11*
X76200Y172720D02*
X76200Y157480D01*
X50800Y157480D02*
X50800Y172720D01*
X25400Y172720D02*
X25400Y157480D01*
D14*
X305176Y430276D03*
X105024Y430276D03*
X105024Y230124D03*
X155062Y230124D03*
X255138Y230124D03*
X305176Y230124D03*
D11*
X411480Y266700D02*
X426720Y266700D01*
X426720Y241300D02*
X411480Y241300D01*
X411480Y215900D02*
X426720Y215900D01*
X426720Y190500D02*
X411480Y190500D01*
X411480Y165100D02*
X426720Y165100D01*
X426720Y139700D02*
X411480Y139700D01*
X411480Y114300D02*
X426720Y114300D01*
X426720Y88900D02*
X411480Y88900D01*
X411480Y63500D02*
X426720Y63500D01*
D13*
X600000Y285000D03*
X600000Y335800D03*
D15*
X600000Y285000D01*
D13*
X447600Y31000D03*
X447600Y272500D03*
D15*
X447600Y31000D01*
D13*
X480000Y272500D03*
X480000Y139700D03*
D15*
X480000Y272500D01*
D13*
X552500Y215900D03*
X552500Y139700D03*
D15*
X552500Y215900D01*
M02*
