G04 EAGLE Gerber RS-274X export*
G75*
%MOMM*%
%FSLAX34Y34*%
%LPD*%
%INBottom Copper*%
%IPPOS*%
%AMOC8*
5,1,8,0,0,1.08239X$1,22.5*%
G01*
%ADD10R,1.500000X1.300000*%
%ADD11P,1.429621X8X112.500000*%
%ADD12R,1.000000X1.400000*%
%ADD13R,1.400000X1.800000*%
%ADD14R,1.968500X0.599100*%
%ADD15R,1.930400X4.318000*%
%ADD16R,1.700000X1.900000*%
%ADD17C,1.524000*%
%ADD18C,1.950000*%
%ADD19C,2.000000*%
%ADD20R,1.219000X2.235000*%
%ADD21R,3.600000X2.200000*%
%ADD22P,4.123906X8X292.500000*%
%ADD23C,1.016000*%
%ADD24C,0.609600*%
%ADD25C,0.381000*%
%ADD26C,2.540000*%
%ADD27C,0.254000*%

G36*
X126064Y2556D02*
X126064Y2556D01*
X126161Y2566D01*
X126185Y2576D01*
X126211Y2580D01*
X126297Y2626D01*
X126386Y2666D01*
X126405Y2683D01*
X126428Y2696D01*
X126495Y2766D01*
X126567Y2832D01*
X126580Y2855D01*
X126598Y2874D01*
X126639Y2962D01*
X126686Y3048D01*
X126690Y3073D01*
X126701Y3097D01*
X126712Y3194D01*
X126730Y3290D01*
X126726Y3316D01*
X126729Y3341D01*
X126708Y3437D01*
X126694Y3533D01*
X126682Y3556D01*
X126676Y3582D01*
X126626Y3665D01*
X126582Y3752D01*
X126564Y3771D01*
X126550Y3793D01*
X126476Y3856D01*
X126407Y3924D01*
X126378Y3940D01*
X126363Y3953D01*
X126333Y3965D01*
X126260Y4005D01*
X126064Y4086D01*
X88719Y41431D01*
X88645Y41484D01*
X88576Y41544D01*
X88546Y41556D01*
X88519Y41575D01*
X88433Y41602D01*
X88348Y41636D01*
X88307Y41640D01*
X88284Y41647D01*
X88252Y41646D01*
X88181Y41654D01*
X78410Y41654D01*
X75434Y44630D01*
X75434Y71190D01*
X78410Y74166D01*
X94810Y74166D01*
X97786Y71190D01*
X97786Y61419D01*
X97800Y61329D01*
X97808Y61238D01*
X97820Y61208D01*
X97825Y61176D01*
X97868Y61096D01*
X97904Y61012D01*
X97930Y60980D01*
X97941Y60959D01*
X97964Y60937D01*
X98009Y60881D01*
X135806Y23084D01*
X135880Y23031D01*
X135949Y22971D01*
X135979Y22959D01*
X136006Y22940D01*
X136092Y22913D01*
X136177Y22879D01*
X136218Y22875D01*
X136241Y22868D01*
X136273Y22869D01*
X136344Y22861D01*
X433509Y22861D01*
X433554Y22868D01*
X433600Y22866D01*
X433675Y22888D01*
X433752Y22900D01*
X433792Y22922D01*
X433836Y22935D01*
X433900Y22979D01*
X433969Y23016D01*
X434001Y23049D01*
X434038Y23075D01*
X434085Y23138D01*
X434138Y23194D01*
X434158Y23236D01*
X434185Y23272D01*
X434209Y23346D01*
X434242Y23417D01*
X434247Y23463D01*
X434261Y23506D01*
X434260Y23584D01*
X434269Y23661D01*
X434259Y23706D01*
X434259Y23752D01*
X434221Y23884D01*
X434217Y23902D01*
X434214Y23906D01*
X434212Y23913D01*
X432519Y28000D01*
X432519Y34000D01*
X434815Y39543D01*
X439057Y43785D01*
X444600Y46081D01*
X450600Y46081D01*
X456143Y43785D01*
X460385Y39543D01*
X462681Y34000D01*
X462681Y28000D01*
X460988Y23913D01*
X460977Y23869D01*
X460958Y23827D01*
X460949Y23750D01*
X460932Y23674D01*
X460936Y23628D01*
X460931Y23583D01*
X460947Y23506D01*
X460955Y23429D01*
X460973Y23387D01*
X460983Y23342D01*
X461023Y23275D01*
X461055Y23204D01*
X461086Y23170D01*
X461109Y23131D01*
X461168Y23080D01*
X461221Y23023D01*
X461261Y23001D01*
X461296Y22971D01*
X461369Y22942D01*
X461437Y22905D01*
X461482Y22896D01*
X461524Y22879D01*
X461660Y22864D01*
X461679Y22861D01*
X461684Y22862D01*
X461691Y22861D01*
X516176Y22861D01*
X516266Y22875D01*
X516357Y22883D01*
X516387Y22895D01*
X516419Y22900D01*
X516499Y22943D01*
X516583Y22979D01*
X516615Y23005D01*
X516636Y23016D01*
X516658Y23039D01*
X516714Y23084D01*
X535716Y42086D01*
X535769Y42160D01*
X535829Y42229D01*
X535841Y42259D01*
X535860Y42285D01*
X535887Y42372D01*
X535921Y42457D01*
X535925Y42498D01*
X535932Y42521D01*
X535931Y42553D01*
X535939Y42624D01*
X535939Y47764D01*
X535925Y47854D01*
X535917Y47945D01*
X535905Y47975D01*
X535900Y48007D01*
X535857Y48087D01*
X535821Y48171D01*
X535795Y48203D01*
X535784Y48224D01*
X535761Y48246D01*
X535716Y48302D01*
X535333Y48686D01*
X533399Y53354D01*
X533399Y73646D01*
X535333Y78314D01*
X538906Y81887D01*
X543574Y83821D01*
X548626Y83821D01*
X553294Y81887D01*
X556867Y78314D01*
X558097Y75346D01*
X558135Y75285D01*
X558164Y75220D01*
X558199Y75181D01*
X558226Y75137D01*
X558282Y75091D01*
X558330Y75038D01*
X558376Y75013D01*
X558416Y74980D01*
X558483Y74954D01*
X558546Y74920D01*
X558597Y74911D01*
X558645Y74892D01*
X558717Y74889D01*
X558788Y74876D01*
X558839Y74884D01*
X558891Y74882D01*
X558960Y74902D01*
X559031Y74912D01*
X559077Y74936D01*
X559127Y74950D01*
X559186Y74991D01*
X559250Y75023D01*
X559287Y75061D01*
X559329Y75090D01*
X559372Y75148D01*
X559422Y75199D01*
X559457Y75262D01*
X559476Y75288D01*
X559483Y75310D01*
X559503Y75346D01*
X560733Y78314D01*
X561116Y78698D01*
X561169Y78772D01*
X561229Y78841D01*
X561241Y78871D01*
X561260Y78898D01*
X561287Y78985D01*
X561321Y79069D01*
X561325Y79110D01*
X561332Y79133D01*
X561331Y79165D01*
X561339Y79236D01*
X561339Y122476D01*
X561325Y122566D01*
X561317Y122657D01*
X561305Y122687D01*
X561300Y122719D01*
X561257Y122799D01*
X561221Y122883D01*
X561195Y122915D01*
X561184Y122936D01*
X561161Y122958D01*
X561116Y123014D01*
X558696Y125435D01*
X558602Y125502D01*
X558507Y125572D01*
X558501Y125574D01*
X558496Y125578D01*
X558385Y125612D01*
X558273Y125649D01*
X558267Y125649D01*
X558261Y125650D01*
X558144Y125647D01*
X558028Y125646D01*
X558020Y125644D01*
X558015Y125644D01*
X557998Y125638D01*
X557866Y125600D01*
X555500Y124619D01*
X549500Y124619D01*
X543957Y126915D01*
X541340Y129532D01*
X541282Y129574D01*
X541230Y129624D01*
X541183Y129646D01*
X541141Y129676D01*
X541072Y129697D01*
X541007Y129727D01*
X540955Y129733D01*
X540905Y129748D01*
X540834Y129746D01*
X540763Y129754D01*
X540712Y129743D01*
X540660Y129742D01*
X540592Y129717D01*
X540522Y129702D01*
X540477Y129675D01*
X540429Y129657D01*
X540373Y129613D01*
X540311Y129576D01*
X540277Y129536D01*
X540237Y129504D01*
X540198Y129443D01*
X540151Y129389D01*
X540132Y129341D01*
X540104Y129297D01*
X540086Y129227D01*
X540059Y129161D01*
X540051Y129089D01*
X540043Y129058D01*
X540045Y129035D01*
X540041Y128994D01*
X540041Y126014D01*
X536990Y118648D01*
X531352Y113010D01*
X523986Y109959D01*
X516014Y109959D01*
X508648Y113010D01*
X503010Y118648D01*
X499959Y126014D01*
X499959Y133986D01*
X503010Y141352D01*
X508648Y146990D01*
X516014Y150041D01*
X523986Y150041D01*
X531352Y146990D01*
X536120Y142222D01*
X536178Y142180D01*
X536230Y142131D01*
X536277Y142109D01*
X536319Y142079D01*
X536388Y142058D01*
X536453Y142027D01*
X536505Y142022D01*
X536555Y142006D01*
X536626Y142008D01*
X536697Y142000D01*
X536748Y142011D01*
X536800Y142013D01*
X536868Y142037D01*
X536938Y142052D01*
X536983Y142079D01*
X537031Y142097D01*
X537087Y142142D01*
X537149Y142179D01*
X537183Y142218D01*
X537223Y142251D01*
X537262Y142311D01*
X537309Y142366D01*
X537328Y142414D01*
X537356Y142458D01*
X537374Y142527D01*
X537401Y142594D01*
X537409Y142665D01*
X537415Y142688D01*
X539715Y148243D01*
X543957Y152485D01*
X549500Y154781D01*
X555500Y154781D01*
X561043Y152485D01*
X565285Y148243D01*
X565692Y147259D01*
X565727Y147203D01*
X565752Y147143D01*
X565804Y147078D01*
X565822Y147050D01*
X565837Y147038D01*
X565857Y147012D01*
X567521Y145349D01*
X580114Y132756D01*
X581661Y129021D01*
X581661Y79236D01*
X581675Y79146D01*
X581683Y79055D01*
X581695Y79025D01*
X581700Y78993D01*
X581743Y78913D01*
X581779Y78829D01*
X581805Y78797D01*
X581816Y78776D01*
X581839Y78754D01*
X581884Y78698D01*
X582267Y78314D01*
X584201Y73646D01*
X584201Y53354D01*
X582267Y48686D01*
X578694Y45113D01*
X574026Y43179D01*
X568974Y43179D01*
X564306Y45113D01*
X560733Y48686D01*
X559503Y51654D01*
X559466Y51715D01*
X559436Y51780D01*
X559401Y51819D01*
X559374Y51863D01*
X559319Y51909D01*
X559270Y51962D01*
X559224Y51987D01*
X559184Y52020D01*
X559117Y52046D01*
X559054Y52080D01*
X559003Y52089D01*
X558955Y52108D01*
X558883Y52111D01*
X558812Y52124D01*
X558761Y52116D01*
X558709Y52118D01*
X558640Y52098D01*
X558569Y52088D01*
X558523Y52064D01*
X558473Y52050D01*
X558414Y52009D01*
X558350Y51977D01*
X558313Y51939D01*
X558271Y51910D01*
X558228Y51852D01*
X558178Y51801D01*
X558143Y51738D01*
X558124Y51712D01*
X558117Y51690D01*
X558097Y51654D01*
X556867Y48686D01*
X556484Y48302D01*
X556431Y48228D01*
X556371Y48159D01*
X556359Y48129D01*
X556340Y48102D01*
X556313Y48015D01*
X556279Y47931D01*
X556275Y47890D01*
X556268Y47867D01*
X556269Y47835D01*
X556261Y47764D01*
X556261Y42624D01*
X556275Y42534D01*
X556283Y42443D01*
X556295Y42413D01*
X556300Y42381D01*
X556343Y42301D01*
X556379Y42217D01*
X556405Y42185D01*
X556416Y42164D01*
X556439Y42142D01*
X556484Y42086D01*
X562786Y35784D01*
X562860Y35731D01*
X562929Y35671D01*
X562959Y35659D01*
X562986Y35640D01*
X563072Y35613D01*
X563157Y35579D01*
X563198Y35575D01*
X563221Y35568D01*
X563253Y35569D01*
X563324Y35561D01*
X579676Y35561D01*
X579766Y35575D01*
X579857Y35583D01*
X579887Y35595D01*
X579919Y35600D01*
X579999Y35643D01*
X580083Y35679D01*
X580115Y35705D01*
X580136Y35716D01*
X580158Y35739D01*
X580214Y35784D01*
X599216Y54786D01*
X599269Y54860D01*
X599329Y54929D01*
X599341Y54959D01*
X599360Y54986D01*
X599387Y55072D01*
X599421Y55157D01*
X599425Y55198D01*
X599432Y55221D01*
X599431Y55253D01*
X599439Y55324D01*
X599439Y103621D01*
X600986Y107356D01*
X624616Y130986D01*
X624669Y131060D01*
X624729Y131129D01*
X624741Y131159D01*
X624760Y131186D01*
X624787Y131272D01*
X624821Y131357D01*
X624825Y131398D01*
X624832Y131421D01*
X624831Y131453D01*
X624839Y131524D01*
X624839Y274078D01*
X624836Y274098D01*
X624838Y274117D01*
X624816Y274219D01*
X624800Y274321D01*
X624790Y274338D01*
X624786Y274358D01*
X624733Y274447D01*
X624684Y274538D01*
X624670Y274552D01*
X624660Y274569D01*
X624581Y274636D01*
X624506Y274708D01*
X624488Y274716D01*
X624473Y274729D01*
X624377Y274768D01*
X624283Y274811D01*
X624263Y274813D01*
X624245Y274821D01*
X624078Y274839D01*
X613894Y274839D01*
X613824Y274828D01*
X613752Y274826D01*
X613703Y274808D01*
X613652Y274800D01*
X613588Y274766D01*
X613521Y274741D01*
X613480Y274709D01*
X613434Y274684D01*
X613385Y274632D01*
X613329Y274588D01*
X613301Y274544D01*
X613265Y274506D01*
X613235Y274441D01*
X613196Y274381D01*
X613183Y274330D01*
X613161Y274283D01*
X613153Y274212D01*
X613136Y274142D01*
X613140Y274090D01*
X613134Y274039D01*
X613149Y273968D01*
X613155Y273897D01*
X613175Y273849D01*
X613186Y273798D01*
X613223Y273737D01*
X613251Y273671D01*
X613296Y273615D01*
X613313Y273587D01*
X613330Y273572D01*
X613356Y273540D01*
X615698Y271197D01*
X619591Y267305D01*
X620829Y264317D01*
X620829Y163783D01*
X619591Y160795D01*
X617305Y158509D01*
X614317Y157271D01*
X473882Y157271D01*
X473792Y157257D01*
X473701Y157249D01*
X473672Y157237D01*
X473640Y157232D01*
X473559Y157189D01*
X473475Y157153D01*
X473443Y157127D01*
X473422Y157116D01*
X473400Y157093D01*
X473344Y157048D01*
X449105Y132809D01*
X446117Y131571D01*
X436868Y131571D01*
X436778Y131557D01*
X436687Y131549D01*
X436657Y131537D01*
X436625Y131532D01*
X436545Y131489D01*
X436461Y131453D01*
X436429Y131427D01*
X436408Y131416D01*
X436386Y131393D01*
X436330Y131348D01*
X433914Y128933D01*
X430946Y127703D01*
X430885Y127665D01*
X430820Y127636D01*
X430781Y127601D01*
X430737Y127574D01*
X430691Y127518D01*
X430638Y127470D01*
X430613Y127424D01*
X430580Y127384D01*
X430554Y127317D01*
X430520Y127254D01*
X430511Y127203D01*
X430492Y127155D01*
X430489Y127083D01*
X430476Y127012D01*
X430484Y126961D01*
X430482Y126909D01*
X430501Y126840D01*
X430512Y126769D01*
X430536Y126723D01*
X430550Y126673D01*
X430591Y126614D01*
X430623Y126550D01*
X430661Y126513D01*
X430690Y126471D01*
X430748Y126428D01*
X430799Y126378D01*
X430862Y126343D01*
X430888Y126324D01*
X430910Y126317D01*
X430946Y126297D01*
X433914Y125067D01*
X437487Y121494D01*
X439421Y116826D01*
X439421Y111774D01*
X437487Y107106D01*
X433914Y103533D01*
X430946Y102303D01*
X430885Y102265D01*
X430820Y102236D01*
X430781Y102201D01*
X430737Y102174D01*
X430691Y102118D01*
X430638Y102070D01*
X430613Y102024D01*
X430580Y101984D01*
X430554Y101917D01*
X430520Y101854D01*
X430511Y101803D01*
X430492Y101755D01*
X430489Y101683D01*
X430476Y101612D01*
X430484Y101561D01*
X430482Y101509D01*
X430501Y101440D01*
X430512Y101369D01*
X430536Y101323D01*
X430550Y101273D01*
X430591Y101214D01*
X430623Y101150D01*
X430661Y101113D01*
X430690Y101071D01*
X430748Y101028D01*
X430799Y100978D01*
X430862Y100943D01*
X430888Y100924D01*
X430910Y100917D01*
X430946Y100897D01*
X433914Y99667D01*
X434298Y99284D01*
X434372Y99231D01*
X434441Y99171D01*
X434471Y99159D01*
X434498Y99140D01*
X434585Y99113D01*
X434669Y99079D01*
X434710Y99075D01*
X434733Y99068D01*
X434765Y99069D01*
X434836Y99061D01*
X465376Y99061D01*
X465466Y99075D01*
X465557Y99083D01*
X465587Y99095D01*
X465619Y99100D01*
X465699Y99143D01*
X465783Y99179D01*
X465815Y99205D01*
X465836Y99216D01*
X465858Y99239D01*
X465914Y99284D01*
X469616Y102986D01*
X469669Y103060D01*
X469729Y103129D01*
X469741Y103159D01*
X469760Y103185D01*
X469787Y103272D01*
X469821Y103357D01*
X469825Y103398D01*
X469832Y103421D01*
X469831Y103453D01*
X469839Y103524D01*
X469839Y128218D01*
X469825Y128308D01*
X469817Y128399D01*
X469805Y128429D01*
X469800Y128461D01*
X469757Y128541D01*
X469721Y128625D01*
X469695Y128657D01*
X469684Y128678D01*
X469661Y128700D01*
X469616Y128756D01*
X467215Y131157D01*
X464919Y136700D01*
X464919Y142700D01*
X467215Y148243D01*
X471457Y152485D01*
X477000Y154781D01*
X483000Y154781D01*
X488543Y152485D01*
X492785Y148243D01*
X495081Y142700D01*
X495081Y136700D01*
X492785Y131157D01*
X490384Y128756D01*
X490331Y128682D01*
X490271Y128613D01*
X490259Y128583D01*
X490240Y128557D01*
X490213Y128470D01*
X490179Y128385D01*
X490175Y128344D01*
X490168Y128321D01*
X490169Y128289D01*
X490161Y128218D01*
X490161Y96979D01*
X488614Y93244D01*
X485649Y90279D01*
X478621Y83251D01*
X475656Y80286D01*
X471921Y78739D01*
X434836Y78739D01*
X434746Y78725D01*
X434655Y78717D01*
X434625Y78705D01*
X434593Y78700D01*
X434513Y78657D01*
X434429Y78621D01*
X434397Y78595D01*
X434376Y78584D01*
X434354Y78561D01*
X434298Y78516D01*
X433914Y78133D01*
X429246Y76199D01*
X408954Y76199D01*
X404286Y78133D01*
X400713Y81706D01*
X398779Y86374D01*
X398779Y91426D01*
X400713Y96094D01*
X404286Y99667D01*
X407254Y100897D01*
X407315Y100935D01*
X407380Y100964D01*
X407419Y100999D01*
X407463Y101026D01*
X407509Y101082D01*
X407562Y101130D01*
X407587Y101176D01*
X407620Y101216D01*
X407646Y101283D01*
X407680Y101346D01*
X407689Y101397D01*
X407708Y101445D01*
X407711Y101517D01*
X407724Y101588D01*
X407716Y101639D01*
X407718Y101691D01*
X407699Y101760D01*
X407688Y101831D01*
X407664Y101877D01*
X407650Y101927D01*
X407609Y101986D01*
X407577Y102050D01*
X407539Y102087D01*
X407510Y102129D01*
X407452Y102172D01*
X407401Y102222D01*
X407338Y102257D01*
X407312Y102276D01*
X407290Y102283D01*
X407254Y102303D01*
X404286Y103533D01*
X401870Y105948D01*
X401796Y106001D01*
X401727Y106061D01*
X401697Y106073D01*
X401670Y106092D01*
X401583Y106119D01*
X401499Y106153D01*
X401458Y106157D01*
X401435Y106164D01*
X401403Y106163D01*
X401332Y106171D01*
X393383Y106171D01*
X390395Y107409D01*
X388109Y109695D01*
X386871Y112683D01*
X386871Y276617D01*
X388109Y279605D01*
X407495Y298991D01*
X410483Y300229D01*
X505682Y300229D01*
X505701Y300232D01*
X505721Y300230D01*
X505822Y300252D01*
X505924Y300268D01*
X505942Y300278D01*
X505961Y300282D01*
X506050Y300335D01*
X506142Y300384D01*
X506155Y300398D01*
X506172Y300408D01*
X506240Y300487D01*
X506311Y300562D01*
X506319Y300580D01*
X506332Y300595D01*
X506371Y300691D01*
X506415Y300785D01*
X506417Y300805D01*
X506424Y300823D01*
X506443Y300990D01*
X506443Y309900D01*
X509076Y312533D01*
X509102Y312569D01*
X509134Y312599D01*
X509173Y312668D01*
X509220Y312733D01*
X509233Y312775D01*
X509254Y312813D01*
X509269Y312892D01*
X509292Y312968D01*
X509291Y313012D01*
X509299Y313055D01*
X509288Y313134D01*
X509286Y313214D01*
X509271Y313255D01*
X509265Y313299D01*
X509206Y313432D01*
X509201Y313445D01*
X509199Y313448D01*
X509197Y313452D01*
X509156Y313524D01*
X508983Y314170D01*
X508983Y316003D01*
X520630Y316003D01*
X520650Y316006D01*
X520670Y316004D01*
X520771Y316026D01*
X520873Y316043D01*
X520890Y316052D01*
X520910Y316056D01*
X520999Y316109D01*
X521090Y316158D01*
X521104Y316172D01*
X521121Y316182D01*
X521188Y316261D01*
X521260Y316336D01*
X521268Y316354D01*
X521281Y316369D01*
X521320Y316466D01*
X521363Y316559D01*
X521365Y316579D01*
X521369Y316589D01*
X521380Y316521D01*
X521390Y316504D01*
X521394Y316484D01*
X521447Y316395D01*
X521496Y316304D01*
X521510Y316290D01*
X521520Y316273D01*
X521599Y316206D01*
X521674Y316135D01*
X521692Y316126D01*
X521707Y316113D01*
X521803Y316075D01*
X521897Y316031D01*
X521917Y316029D01*
X521935Y316021D01*
X522102Y316003D01*
X533749Y316003D01*
X533749Y314170D01*
X533576Y313524D01*
X533535Y313452D01*
X533519Y313411D01*
X533496Y313374D01*
X533476Y313297D01*
X533448Y313222D01*
X533446Y313178D01*
X533436Y313136D01*
X533442Y313056D01*
X533439Y312977D01*
X533451Y312934D01*
X533455Y312891D01*
X533486Y312817D01*
X533509Y312741D01*
X533534Y312705D01*
X533551Y312664D01*
X533642Y312551D01*
X533650Y312539D01*
X533653Y312537D01*
X533656Y312533D01*
X536289Y309900D01*
X536289Y299700D01*
X535578Y298988D01*
X535566Y298972D01*
X535550Y298960D01*
X535494Y298872D01*
X535434Y298789D01*
X535428Y298770D01*
X535417Y298753D01*
X535392Y298652D01*
X535362Y298553D01*
X535362Y298534D01*
X535357Y298514D01*
X535365Y298411D01*
X535368Y298308D01*
X535375Y298289D01*
X535376Y298269D01*
X535417Y298174D01*
X535452Y298077D01*
X535465Y298061D01*
X535473Y298043D01*
X535578Y297912D01*
X536289Y297200D01*
X536289Y287000D01*
X535578Y286288D01*
X535566Y286272D01*
X535550Y286260D01*
X535494Y286172D01*
X535434Y286089D01*
X535428Y286070D01*
X535417Y286053D01*
X535392Y285952D01*
X535362Y285853D01*
X535362Y285834D01*
X535357Y285814D01*
X535365Y285711D01*
X535368Y285608D01*
X535375Y285589D01*
X535376Y285569D01*
X535417Y285474D01*
X535452Y285377D01*
X535465Y285361D01*
X535473Y285343D01*
X535556Y285238D01*
X535558Y285235D01*
X535561Y285233D01*
X535578Y285212D01*
X536289Y284500D01*
X536289Y275086D01*
X536308Y274971D01*
X536325Y274855D01*
X536328Y274850D01*
X536329Y274843D01*
X536383Y274741D01*
X536437Y274636D01*
X536441Y274632D01*
X536444Y274626D01*
X536528Y274546D01*
X536612Y274464D01*
X536619Y274460D01*
X536622Y274457D01*
X536639Y274449D01*
X536759Y274383D01*
X538671Y273591D01*
X541064Y271197D01*
X554611Y257651D01*
X554669Y257609D01*
X554721Y257559D01*
X554769Y257537D01*
X554811Y257507D01*
X554879Y257486D01*
X554945Y257456D01*
X554996Y257450D01*
X555046Y257435D01*
X555118Y257436D01*
X555189Y257429D01*
X555240Y257440D01*
X555292Y257441D01*
X555359Y257466D01*
X555429Y257481D01*
X555474Y257508D01*
X555523Y257525D01*
X555579Y257570D01*
X555640Y257607D01*
X555674Y257647D01*
X555715Y257679D01*
X555754Y257739D01*
X555800Y257794D01*
X555820Y257842D01*
X555848Y257886D01*
X555865Y257956D01*
X555892Y258022D01*
X555900Y258093D01*
X555908Y258125D01*
X555906Y258148D01*
X555911Y258189D01*
X555911Y259100D01*
X556622Y259812D01*
X556634Y259828D01*
X556650Y259840D01*
X556706Y259928D01*
X556766Y260011D01*
X556772Y260030D01*
X556783Y260047D01*
X556808Y260148D01*
X556838Y260247D01*
X556838Y260266D01*
X556843Y260286D01*
X556835Y260389D01*
X556832Y260492D01*
X556825Y260511D01*
X556824Y260531D01*
X556783Y260626D01*
X556748Y260723D01*
X556735Y260739D01*
X556727Y260757D01*
X556622Y260888D01*
X555911Y261600D01*
X555911Y271800D01*
X556622Y272512D01*
X556634Y272528D01*
X556650Y272540D01*
X556706Y272628D01*
X556766Y272711D01*
X556772Y272730D01*
X556783Y272747D01*
X556808Y272848D01*
X556838Y272947D01*
X556838Y272966D01*
X556843Y272986D01*
X556835Y273089D01*
X556832Y273192D01*
X556825Y273211D01*
X556824Y273231D01*
X556783Y273326D01*
X556748Y273423D01*
X556735Y273439D01*
X556727Y273457D01*
X556622Y273588D01*
X555911Y274300D01*
X555911Y284500D01*
X556622Y285212D01*
X556634Y285228D01*
X556650Y285240D01*
X556680Y285288D01*
X556689Y285298D01*
X556697Y285314D01*
X556706Y285328D01*
X556766Y285411D01*
X556772Y285430D01*
X556783Y285447D01*
X556808Y285548D01*
X556838Y285647D01*
X556838Y285666D01*
X556843Y285686D01*
X556835Y285789D01*
X556832Y285892D01*
X556825Y285911D01*
X556824Y285931D01*
X556783Y286026D01*
X556748Y286123D01*
X556735Y286139D01*
X556727Y286157D01*
X556622Y286288D01*
X555911Y287000D01*
X555911Y297200D01*
X556622Y297912D01*
X556634Y297928D01*
X556650Y297940D01*
X556706Y298028D01*
X556766Y298111D01*
X556772Y298130D01*
X556783Y298147D01*
X556808Y298248D01*
X556838Y298347D01*
X556838Y298366D01*
X556843Y298386D01*
X556835Y298489D01*
X556832Y298592D01*
X556825Y298611D01*
X556824Y298631D01*
X556783Y298726D01*
X556748Y298823D01*
X556735Y298839D01*
X556727Y298857D01*
X556622Y298988D01*
X555911Y299700D01*
X555911Y309900D01*
X556622Y310612D01*
X556634Y310628D01*
X556650Y310640D01*
X556706Y310728D01*
X556766Y310811D01*
X556772Y310830D01*
X556783Y310847D01*
X556808Y310948D01*
X556838Y311047D01*
X556838Y311066D01*
X556843Y311086D01*
X556835Y311189D01*
X556832Y311292D01*
X556825Y311311D01*
X556824Y311331D01*
X556783Y311426D01*
X556748Y311523D01*
X556735Y311539D01*
X556727Y311557D01*
X556622Y311688D01*
X555911Y312400D01*
X555911Y322600D01*
X558887Y325576D01*
X567099Y325576D01*
X567189Y325591D01*
X567280Y325598D01*
X567310Y325611D01*
X567342Y325616D01*
X567423Y325659D01*
X567506Y325694D01*
X567539Y325720D01*
X567559Y325731D01*
X567581Y325754D01*
X567637Y325799D01*
X582136Y340297D01*
X584529Y342691D01*
X586654Y343571D01*
X586732Y343619D01*
X586813Y343661D01*
X586836Y343684D01*
X586863Y343701D01*
X586922Y343771D01*
X586986Y343836D01*
X587005Y343873D01*
X587020Y343891D01*
X587032Y343920D01*
X587066Y343983D01*
X587215Y344343D01*
X591457Y348585D01*
X597000Y350881D01*
X603000Y350881D01*
X608543Y348585D01*
X612872Y344256D01*
X612930Y344214D01*
X612982Y344164D01*
X613029Y344142D01*
X613071Y344112D01*
X613140Y344091D01*
X613205Y344061D01*
X613257Y344055D01*
X613307Y344040D01*
X613378Y344042D01*
X613449Y344034D01*
X613500Y344045D01*
X613552Y344046D01*
X613620Y344071D01*
X613690Y344086D01*
X613735Y344113D01*
X613783Y344131D01*
X613839Y344175D01*
X613901Y344212D01*
X613935Y344252D01*
X613975Y344284D01*
X614014Y344345D01*
X614061Y344399D01*
X614080Y344447D01*
X614108Y344491D01*
X614126Y344561D01*
X614153Y344627D01*
X614161Y344699D01*
X614169Y344730D01*
X614167Y344753D01*
X614171Y344794D01*
X614171Y346458D01*
X614168Y346478D01*
X614170Y346497D01*
X614148Y346599D01*
X614132Y346701D01*
X614122Y346718D01*
X614118Y346738D01*
X614065Y346827D01*
X614016Y346918D01*
X614002Y346932D01*
X613992Y346949D01*
X613913Y347016D01*
X613838Y347088D01*
X613820Y347096D01*
X613805Y347109D01*
X613709Y347148D01*
X613615Y347191D01*
X613595Y347193D01*
X613577Y347201D01*
X613410Y347219D01*
X612695Y347219D01*
X609719Y350195D01*
X609719Y367404D01*
X610076Y367762D01*
X610088Y367778D01*
X610104Y367790D01*
X610160Y367877D01*
X610220Y367961D01*
X610226Y367980D01*
X610237Y367997D01*
X610262Y368098D01*
X610292Y368197D01*
X610292Y368216D01*
X610297Y368236D01*
X610289Y368339D01*
X610286Y368442D01*
X610279Y368461D01*
X610278Y368481D01*
X610237Y368576D01*
X610202Y368673D01*
X610189Y368689D01*
X610181Y368707D01*
X610076Y368838D01*
X609719Y369195D01*
X609719Y386405D01*
X611184Y387870D01*
X611196Y387886D01*
X611212Y387898D01*
X611268Y387985D01*
X611328Y388069D01*
X611334Y388088D01*
X611345Y388105D01*
X611370Y388206D01*
X611400Y388304D01*
X611400Y388324D01*
X611405Y388344D01*
X611397Y388447D01*
X611394Y388550D01*
X611387Y388569D01*
X611386Y388589D01*
X611345Y388684D01*
X611309Y388781D01*
X611297Y388797D01*
X611289Y388815D01*
X611184Y388946D01*
X610486Y389644D01*
X608939Y393379D01*
X608939Y412530D01*
X608935Y412555D01*
X608938Y412580D01*
X608932Y412606D01*
X608932Y412621D01*
X608915Y412680D01*
X608900Y412772D01*
X608888Y412795D01*
X608882Y412820D01*
X608866Y412846D01*
X608862Y412857D01*
X608834Y412897D01*
X608830Y412903D01*
X608784Y412990D01*
X608766Y413007D01*
X608752Y413029D01*
X608726Y413051D01*
X608721Y413058D01*
X608692Y413079D01*
X608677Y413092D01*
X608606Y413159D01*
X608583Y413170D01*
X608563Y413186D01*
X608528Y413200D01*
X608523Y413204D01*
X608494Y413213D01*
X608472Y413221D01*
X608383Y413263D01*
X608358Y413265D01*
X608334Y413275D01*
X608295Y413276D01*
X608289Y413279D01*
X608257Y413278D01*
X608236Y413279D01*
X608139Y413290D01*
X608114Y413284D01*
X608088Y413285D01*
X608052Y413275D01*
X608043Y413275D01*
X608005Y413262D01*
X607994Y413258D01*
X607898Y413237D01*
X607876Y413224D01*
X607852Y413217D01*
X607822Y413197D01*
X607811Y413193D01*
X607769Y413160D01*
X607687Y413111D01*
X607670Y413092D01*
X607649Y413077D01*
X607630Y413052D01*
X607617Y413041D01*
X607555Y412957D01*
X607527Y412924D01*
X607522Y412912D01*
X607518Y412906D01*
X607504Y412882D01*
X607502Y412880D01*
X607501Y412878D01*
X607133Y412240D01*
X606660Y411767D01*
X606081Y411432D01*
X605434Y411259D01*
X601623Y411259D01*
X601623Y420038D01*
X601620Y420058D01*
X601622Y420077D01*
X601600Y420179D01*
X601583Y420281D01*
X601574Y420298D01*
X601570Y420318D01*
X601517Y420407D01*
X601468Y420498D01*
X601454Y420512D01*
X601444Y420529D01*
X601365Y420596D01*
X601290Y420667D01*
X601272Y420676D01*
X601257Y420689D01*
X601161Y420728D01*
X601067Y420771D01*
X601047Y420773D01*
X601029Y420781D01*
X600862Y420799D01*
X600099Y420799D01*
X600099Y420801D01*
X600862Y420801D01*
X600882Y420804D01*
X600901Y420802D01*
X601003Y420824D01*
X601105Y420841D01*
X601122Y420850D01*
X601142Y420854D01*
X601231Y420907D01*
X601322Y420956D01*
X601336Y420970D01*
X601353Y420980D01*
X601420Y421059D01*
X601491Y421134D01*
X601500Y421152D01*
X601513Y421167D01*
X601552Y421263D01*
X601595Y421357D01*
X601597Y421377D01*
X601605Y421395D01*
X601623Y421562D01*
X601623Y430626D01*
X601630Y430636D01*
X601666Y430674D01*
X601696Y430739D01*
X601735Y430799D01*
X601747Y430850D01*
X601769Y430897D01*
X601777Y430968D01*
X601795Y431038D01*
X601791Y431090D01*
X601796Y431141D01*
X601781Y431212D01*
X601776Y431283D01*
X601755Y431331D01*
X601744Y431382D01*
X601707Y431443D01*
X601679Y431509D01*
X601635Y431565D01*
X601618Y431593D01*
X601600Y431608D01*
X601599Y431610D01*
X601595Y431615D01*
X601592Y431618D01*
X601575Y431640D01*
X600798Y432416D01*
X600724Y432469D01*
X600655Y432529D01*
X600625Y432541D01*
X600599Y432560D01*
X600512Y432587D01*
X600427Y432621D01*
X600386Y432625D01*
X600364Y432632D01*
X600331Y432631D01*
X600260Y432639D01*
X589994Y432639D01*
X589929Y432629D01*
X589864Y432628D01*
X589784Y432605D01*
X589751Y432600D01*
X589734Y432590D01*
X589703Y432581D01*
X586221Y431139D01*
X559442Y431139D01*
X559422Y431136D01*
X559403Y431138D01*
X559301Y431116D01*
X559199Y431100D01*
X559182Y431090D01*
X559162Y431086D01*
X559073Y431033D01*
X558982Y430984D01*
X558968Y430970D01*
X558951Y430960D01*
X558884Y430881D01*
X558812Y430806D01*
X558804Y430788D01*
X558791Y430773D01*
X558752Y430677D01*
X558709Y430583D01*
X558707Y430563D01*
X558699Y430545D01*
X558681Y430378D01*
X558681Y413695D01*
X556484Y411498D01*
X556431Y411425D01*
X556371Y411355D01*
X556359Y411325D01*
X556340Y411299D01*
X556313Y411212D01*
X556279Y411127D01*
X556275Y411086D01*
X556268Y411064D01*
X556269Y411031D01*
X556261Y410960D01*
X556261Y400379D01*
X556275Y400289D01*
X556283Y400198D01*
X556295Y400169D01*
X556300Y400137D01*
X556343Y400056D01*
X556379Y399972D01*
X556405Y399940D01*
X556416Y399919D01*
X556439Y399897D01*
X556484Y399841D01*
X557785Y398540D01*
X557785Y388860D01*
X550940Y382015D01*
X541260Y382015D01*
X534415Y388860D01*
X534415Y398540D01*
X535716Y399841D01*
X535769Y399915D01*
X535829Y399984D01*
X535841Y400015D01*
X535860Y400041D01*
X535887Y400128D01*
X535921Y400213D01*
X535925Y400254D01*
X535932Y400276D01*
X535931Y400308D01*
X535939Y400379D01*
X535939Y410960D01*
X535925Y411050D01*
X535917Y411141D01*
X535905Y411171D01*
X535900Y411203D01*
X535857Y411284D01*
X535821Y411367D01*
X535795Y411400D01*
X535784Y411420D01*
X535761Y411442D01*
X535716Y411498D01*
X533519Y413695D01*
X533519Y428412D01*
X533508Y428483D01*
X533506Y428554D01*
X533488Y428603D01*
X533480Y428655D01*
X533446Y428718D01*
X533421Y428785D01*
X533389Y428826D01*
X533364Y428872D01*
X533312Y428921D01*
X533268Y428977D01*
X533224Y429006D01*
X533186Y429042D01*
X533121Y429072D01*
X533061Y429110D01*
X533010Y429123D01*
X532963Y429145D01*
X532892Y429153D01*
X532822Y429171D01*
X532770Y429166D01*
X532719Y429172D01*
X532648Y429157D01*
X532577Y429151D01*
X532529Y429131D01*
X532478Y429120D01*
X532417Y429083D01*
X532351Y429055D01*
X532295Y429010D01*
X532267Y428994D01*
X532252Y428976D01*
X532220Y428950D01*
X531084Y427814D01*
X531035Y427747D01*
X531035Y427746D01*
X531034Y427746D01*
X531031Y427740D01*
X530971Y427671D01*
X530959Y427641D01*
X530940Y427614D01*
X530913Y427527D01*
X530879Y427443D01*
X530875Y427402D01*
X530868Y427379D01*
X530869Y427347D01*
X530861Y427276D01*
X530861Y391679D01*
X529314Y387944D01*
X501056Y359686D01*
X497321Y358139D01*
X475691Y358139D01*
X475595Y358124D01*
X475498Y358114D01*
X475474Y358104D01*
X475448Y358100D01*
X475362Y358054D01*
X475273Y358014D01*
X475254Y357997D01*
X475231Y357984D01*
X475164Y357914D01*
X475092Y357848D01*
X475079Y357825D01*
X475061Y357806D01*
X475020Y357718D01*
X474973Y357632D01*
X474969Y357607D01*
X474958Y357583D01*
X474947Y357486D01*
X474930Y357390D01*
X474933Y357364D01*
X474931Y357339D01*
X474951Y357243D01*
X474965Y357147D01*
X474977Y357124D01*
X474983Y357098D01*
X475033Y357015D01*
X475077Y356928D01*
X475096Y356909D01*
X475109Y356887D01*
X475183Y356824D01*
X475252Y356756D01*
X475281Y356740D01*
X475296Y356727D01*
X475327Y356715D01*
X475399Y356675D01*
X478301Y355473D01*
X480490Y353284D01*
X480564Y353231D01*
X480634Y353171D01*
X480664Y353159D01*
X480690Y353140D01*
X480777Y353113D01*
X480862Y353079D01*
X480903Y353075D01*
X480925Y353068D01*
X480957Y353069D01*
X481028Y353061D01*
X503476Y353061D01*
X503566Y353075D01*
X503657Y353083D01*
X503687Y353095D01*
X503719Y353100D01*
X503799Y353143D01*
X503883Y353179D01*
X503915Y353205D01*
X503936Y353216D01*
X503958Y353239D01*
X504014Y353284D01*
X524679Y373949D01*
X527644Y376914D01*
X531379Y378461D01*
X539421Y378461D01*
X539511Y378475D01*
X539602Y378483D01*
X539631Y378495D01*
X539663Y378500D01*
X539744Y378543D01*
X539828Y378579D01*
X539860Y378605D01*
X539881Y378616D01*
X539903Y378639D01*
X539959Y378684D01*
X541260Y379985D01*
X550940Y379985D01*
X557785Y373140D01*
X557785Y363460D01*
X550940Y356615D01*
X541260Y356615D01*
X539959Y357916D01*
X539885Y357969D01*
X539816Y358029D01*
X539785Y358041D01*
X539759Y358060D01*
X539672Y358087D01*
X539587Y358121D01*
X539546Y358125D01*
X539524Y358132D01*
X539492Y358131D01*
X539421Y358139D01*
X537924Y358139D01*
X537834Y358125D01*
X537743Y358117D01*
X537713Y358105D01*
X537681Y358100D01*
X537601Y358057D01*
X537517Y358021D01*
X537485Y357995D01*
X537464Y357984D01*
X537442Y357961D01*
X537386Y357916D01*
X516721Y337251D01*
X513756Y334286D01*
X510021Y332739D01*
X481028Y332739D01*
X480938Y332725D01*
X480847Y332717D01*
X480818Y332705D01*
X480786Y332700D01*
X480705Y332657D01*
X480621Y332621D01*
X480589Y332595D01*
X480568Y332584D01*
X480546Y332561D01*
X480490Y332516D01*
X478301Y330327D01*
X472850Y328069D01*
X466950Y328069D01*
X461499Y330327D01*
X460994Y330832D01*
X460978Y330844D01*
X460965Y330859D01*
X460878Y330915D01*
X460794Y330976D01*
X460775Y330982D01*
X460758Y330992D01*
X460658Y331018D01*
X460559Y331048D01*
X460539Y331048D01*
X460520Y331052D01*
X460417Y331044D01*
X460313Y331042D01*
X460295Y331035D01*
X460275Y331033D01*
X460180Y330993D01*
X460082Y330957D01*
X460067Y330945D01*
X460048Y330937D01*
X459917Y330832D01*
X459184Y330098D01*
X459131Y330024D01*
X459071Y329955D01*
X459059Y329925D01*
X459040Y329899D01*
X459013Y329812D01*
X458979Y329727D01*
X458975Y329686D01*
X458968Y329664D01*
X458969Y329631D01*
X458961Y329560D01*
X458961Y326169D01*
X457414Y322434D01*
X443906Y308926D01*
X440171Y307379D01*
X398264Y307379D01*
X398174Y307365D01*
X398083Y307357D01*
X398053Y307345D01*
X398021Y307340D01*
X397941Y307297D01*
X397857Y307261D01*
X397825Y307235D01*
X397804Y307224D01*
X397782Y307201D01*
X397726Y307156D01*
X351621Y261051D01*
X348656Y258086D01*
X344921Y256539D01*
X68024Y256539D01*
X67934Y256525D01*
X67843Y256517D01*
X67813Y256505D01*
X67781Y256500D01*
X67701Y256457D01*
X67617Y256421D01*
X67585Y256395D01*
X67564Y256384D01*
X67542Y256361D01*
X67486Y256316D01*
X35784Y224614D01*
X35731Y224540D01*
X35671Y224471D01*
X35659Y224441D01*
X35640Y224414D01*
X35613Y224328D01*
X35598Y224288D01*
X35589Y224269D01*
X35588Y224266D01*
X35579Y224243D01*
X35575Y224202D01*
X35568Y224179D01*
X35569Y224147D01*
X35561Y224076D01*
X35561Y180836D01*
X35575Y180746D01*
X35583Y180655D01*
X35595Y180625D01*
X35600Y180593D01*
X35643Y180513D01*
X35679Y180429D01*
X35705Y180397D01*
X35716Y180376D01*
X35739Y180354D01*
X35784Y180298D01*
X36167Y179914D01*
X38101Y175246D01*
X38101Y154954D01*
X36167Y150286D01*
X35784Y149902D01*
X35731Y149828D01*
X35671Y149759D01*
X35659Y149729D01*
X35640Y149702D01*
X35613Y149615D01*
X35579Y149531D01*
X35575Y149490D01*
X35568Y149467D01*
X35569Y149435D01*
X35561Y149364D01*
X35561Y77424D01*
X35575Y77334D01*
X35583Y77243D01*
X35595Y77213D01*
X35600Y77181D01*
X35643Y77101D01*
X35679Y77017D01*
X35705Y76985D01*
X35716Y76964D01*
X35739Y76942D01*
X35784Y76886D01*
X38281Y74389D01*
X38355Y74336D01*
X38424Y74276D01*
X38454Y74264D01*
X38481Y74245D01*
X38567Y74218D01*
X38652Y74184D01*
X38693Y74180D01*
X38716Y74173D01*
X38748Y74174D01*
X38819Y74166D01*
X48590Y74166D01*
X51566Y71190D01*
X51566Y44630D01*
X48590Y41654D01*
X34620Y41654D01*
X34582Y41648D01*
X34543Y41650D01*
X34461Y41628D01*
X34377Y41615D01*
X34343Y41596D01*
X34306Y41586D01*
X34235Y41539D01*
X34160Y41499D01*
X34133Y41471D01*
X34101Y41450D01*
X34049Y41383D01*
X33990Y41321D01*
X33974Y41286D01*
X33950Y41255D01*
X33923Y41175D01*
X33887Y41098D01*
X33882Y41060D01*
X33870Y41023D01*
X33869Y40938D01*
X33860Y40854D01*
X33868Y40816D01*
X33867Y40777D01*
X33894Y40696D01*
X33912Y40613D01*
X33932Y40580D01*
X33944Y40543D01*
X34037Y40404D01*
X36899Y36993D01*
X36923Y36972D01*
X36993Y36899D01*
X52575Y23823D01*
X52602Y23807D01*
X52684Y23747D01*
X70301Y13576D01*
X70330Y13565D01*
X70421Y13520D01*
X89536Y6563D01*
X89567Y6557D01*
X89664Y6529D01*
X109697Y2996D01*
X109729Y2996D01*
X109796Y2986D01*
X119967Y2541D01*
X119980Y2543D01*
X120000Y2541D01*
X125968Y2541D01*
X126064Y2556D01*
G37*
%LPC*%
G36*
X218095Y92819D02*
X218095Y92819D01*
X215119Y95795D01*
X215119Y106296D01*
X215105Y106386D01*
X215097Y106477D01*
X215085Y106507D01*
X215080Y106539D01*
X215037Y106619D01*
X215001Y106703D01*
X214975Y106735D01*
X214964Y106756D01*
X214941Y106778D01*
X214896Y106834D01*
X210351Y111379D01*
X207386Y114344D01*
X205839Y118079D01*
X205839Y133258D01*
X205833Y133297D01*
X205835Y133336D01*
X205813Y133418D01*
X205800Y133501D01*
X205781Y133536D01*
X205771Y133573D01*
X205686Y133717D01*
X189889Y154637D01*
X189874Y154651D01*
X189863Y154669D01*
X189785Y154736D01*
X189711Y154807D01*
X189692Y154815D01*
X189677Y154829D01*
X189581Y154867D01*
X189488Y154911D01*
X189468Y154913D01*
X189448Y154921D01*
X189282Y154939D01*
X89403Y154939D01*
X89289Y154920D01*
X89172Y154903D01*
X89167Y154901D01*
X89161Y154900D01*
X89058Y154845D01*
X88953Y154792D01*
X88949Y154787D01*
X88943Y154784D01*
X88863Y154700D01*
X88781Y154616D01*
X88777Y154610D01*
X88774Y154606D01*
X88766Y154589D01*
X88700Y154469D01*
X86967Y150286D01*
X83394Y146713D01*
X78726Y144779D01*
X73674Y144779D01*
X69006Y146713D01*
X65433Y150286D01*
X63499Y154954D01*
X63499Y175246D01*
X65433Y179914D01*
X69006Y183487D01*
X73674Y185421D01*
X78726Y185421D01*
X83394Y183487D01*
X86967Y179914D01*
X88700Y175731D01*
X88762Y175630D01*
X88822Y175531D01*
X88826Y175527D01*
X88830Y175522D01*
X88919Y175447D01*
X89009Y175371D01*
X89014Y175369D01*
X89019Y175365D01*
X89127Y175323D01*
X89237Y175279D01*
X89244Y175278D01*
X89249Y175277D01*
X89267Y175276D01*
X89403Y175261D01*
X193325Y175261D01*
X193338Y175263D01*
X193351Y175261D01*
X193517Y175285D01*
X194123Y175443D01*
X195374Y175268D01*
X195406Y175269D01*
X195479Y175261D01*
X196742Y175261D01*
X197320Y175021D01*
X197332Y175018D01*
X197344Y175012D01*
X197506Y174970D01*
X198126Y174884D01*
X199215Y174244D01*
X199245Y174232D01*
X199309Y174197D01*
X200476Y173714D01*
X200919Y173271D01*
X200929Y173264D01*
X200937Y173253D01*
X201071Y173153D01*
X201611Y172836D01*
X202372Y171828D01*
X202383Y171818D01*
X202388Y171809D01*
X202404Y171795D01*
X202441Y171748D01*
X203334Y170856D01*
X203574Y170277D01*
X203581Y170266D01*
X203584Y170254D01*
X203670Y170110D01*
X223652Y143647D01*
X223675Y143625D01*
X223721Y143567D01*
X224614Y142675D01*
X224853Y142096D01*
X224860Y142085D01*
X224864Y142073D01*
X224949Y141929D01*
X225327Y141429D01*
X225644Y140207D01*
X225657Y140177D01*
X225677Y140107D01*
X226161Y138940D01*
X226161Y138314D01*
X226163Y138301D01*
X226161Y138289D01*
X226185Y138123D01*
X226343Y137516D01*
X226168Y136266D01*
X226169Y136234D01*
X226161Y136161D01*
X226161Y124624D01*
X226175Y124534D01*
X226183Y124443D01*
X226195Y124413D01*
X226200Y124381D01*
X226243Y124301D01*
X226279Y124217D01*
X226305Y124185D01*
X226316Y124164D01*
X226339Y124142D01*
X226384Y124086D01*
X228162Y122308D01*
X228178Y122296D01*
X228190Y122281D01*
X228278Y122224D01*
X228361Y122164D01*
X228380Y122158D01*
X228397Y122148D01*
X228498Y122122D01*
X228597Y122092D01*
X228616Y122092D01*
X228636Y122087D01*
X228739Y122096D01*
X228842Y122098D01*
X228861Y122105D01*
X228881Y122107D01*
X228976Y122147D01*
X229073Y122183D01*
X229089Y122195D01*
X229107Y122203D01*
X229238Y122308D01*
X265404Y158474D01*
X269139Y160021D01*
X302006Y160021D01*
X302026Y160024D01*
X302045Y160022D01*
X302147Y160044D01*
X302249Y160060D01*
X302266Y160070D01*
X302286Y160074D01*
X302375Y160127D01*
X302466Y160176D01*
X302480Y160190D01*
X302497Y160200D01*
X302564Y160279D01*
X302636Y160354D01*
X302644Y160372D01*
X302657Y160387D01*
X302696Y160483D01*
X302739Y160577D01*
X302741Y160597D01*
X302749Y160615D01*
X302767Y160782D01*
X302767Y173555D01*
X305743Y176531D01*
X329257Y176531D01*
X332233Y173555D01*
X332233Y126165D01*
X329257Y123189D01*
X305743Y123189D01*
X302767Y126165D01*
X302767Y138938D01*
X302764Y138958D01*
X302766Y138977D01*
X302744Y139079D01*
X302728Y139181D01*
X302718Y139198D01*
X302714Y139218D01*
X302661Y139307D01*
X302612Y139398D01*
X302598Y139412D01*
X302588Y139429D01*
X302509Y139496D01*
X302434Y139568D01*
X302416Y139576D01*
X302401Y139589D01*
X302305Y139628D01*
X302211Y139671D01*
X302191Y139673D01*
X302173Y139681D01*
X302006Y139699D01*
X275684Y139699D01*
X275594Y139685D01*
X275503Y139677D01*
X275473Y139665D01*
X275441Y139660D01*
X275361Y139617D01*
X275277Y139581D01*
X275245Y139555D01*
X275224Y139544D01*
X275202Y139521D01*
X275146Y139476D01*
X242504Y106834D01*
X242451Y106760D01*
X242391Y106691D01*
X242379Y106661D01*
X242360Y106635D01*
X242333Y106548D01*
X242299Y106463D01*
X242295Y106422D01*
X242288Y106399D01*
X242289Y106367D01*
X242281Y106296D01*
X242281Y95795D01*
X239305Y92819D01*
X218095Y92819D01*
G37*
%LPD*%
%LPC*%
G36*
X218095Y182819D02*
X218095Y182819D01*
X215119Y185795D01*
X215119Y209005D01*
X218316Y212202D01*
X218369Y212275D01*
X218429Y212345D01*
X218441Y212375D01*
X218460Y212401D01*
X218487Y212488D01*
X218521Y212573D01*
X218525Y212614D01*
X218532Y212636D01*
X218531Y212669D01*
X218539Y212740D01*
X218539Y228421D01*
X220086Y232156D01*
X226544Y238614D01*
X230279Y240161D01*
X230733Y240161D01*
X230824Y240175D01*
X230914Y240183D01*
X230944Y240195D01*
X230976Y240200D01*
X231057Y240243D01*
X231141Y240279D01*
X231173Y240305D01*
X231194Y240316D01*
X231216Y240339D01*
X231272Y240384D01*
X245143Y254255D01*
X265133Y254255D01*
X279269Y240119D01*
X279269Y220129D01*
X265133Y205993D01*
X245143Y205993D01*
X243580Y207556D01*
X243522Y207598D01*
X243470Y207647D01*
X243423Y207669D01*
X243381Y207699D01*
X243312Y207720D01*
X243247Y207751D01*
X243195Y207756D01*
X243145Y207772D01*
X243074Y207770D01*
X243003Y207778D01*
X242952Y207767D01*
X242900Y207765D01*
X242832Y207741D01*
X242762Y207725D01*
X242717Y207699D01*
X242669Y207681D01*
X242613Y207636D01*
X242551Y207599D01*
X242517Y207560D01*
X242477Y207527D01*
X242438Y207467D01*
X242391Y207412D01*
X242372Y207364D01*
X242344Y207320D01*
X242326Y207251D01*
X242299Y207184D01*
X242291Y207113D01*
X242283Y207082D01*
X242285Y207058D01*
X242281Y207017D01*
X242281Y185795D01*
X239305Y182819D01*
X218095Y182819D01*
G37*
%LPD*%
%LPC*%
G36*
X167095Y182819D02*
X167095Y182819D01*
X164119Y185795D01*
X164119Y205232D01*
X164116Y205252D01*
X164118Y205271D01*
X164096Y205373D01*
X164080Y205475D01*
X164070Y205492D01*
X164066Y205512D01*
X164013Y205601D01*
X163964Y205692D01*
X163950Y205706D01*
X163940Y205723D01*
X163861Y205790D01*
X163786Y205862D01*
X163768Y205870D01*
X163753Y205883D01*
X163657Y205922D01*
X163563Y205965D01*
X163543Y205967D01*
X163525Y205975D01*
X163358Y205993D01*
X145067Y205993D01*
X130931Y220129D01*
X130931Y240119D01*
X145067Y254255D01*
X165057Y254255D01*
X179193Y240119D01*
X179193Y233378D01*
X179207Y233288D01*
X179215Y233197D01*
X179227Y233167D01*
X179232Y233135D01*
X179275Y233055D01*
X179311Y232971D01*
X179337Y232939D01*
X179348Y232918D01*
X179371Y232896D01*
X179416Y232840D01*
X186314Y225942D01*
X187861Y222207D01*
X187861Y212740D01*
X187875Y212650D01*
X187883Y212559D01*
X187895Y212529D01*
X187900Y212497D01*
X187943Y212416D01*
X187979Y212333D01*
X188005Y212300D01*
X188016Y212280D01*
X188039Y212258D01*
X188084Y212202D01*
X191281Y209005D01*
X191281Y185795D01*
X188305Y182819D01*
X167095Y182819D01*
G37*
%LPD*%
%LPC*%
G36*
X95029Y205993D02*
X95029Y205993D01*
X80893Y220129D01*
X80893Y240119D01*
X95029Y254255D01*
X115019Y254255D01*
X129155Y240119D01*
X129155Y220129D01*
X115019Y205993D01*
X95029Y205993D01*
G37*
%LPD*%
%LPC*%
G36*
X295181Y205993D02*
X295181Y205993D01*
X281045Y220129D01*
X281045Y240119D01*
X295181Y254255D01*
X315171Y254255D01*
X329307Y240119D01*
X329307Y220129D01*
X315171Y205993D01*
X295181Y205993D01*
G37*
%LPD*%
%LPC*%
G36*
X126014Y109959D02*
X126014Y109959D01*
X118648Y113010D01*
X113010Y118648D01*
X109959Y126014D01*
X109959Y133986D01*
X113010Y141352D01*
X118648Y146990D01*
X126014Y150041D01*
X133986Y150041D01*
X141352Y146990D01*
X146990Y141352D01*
X150041Y133986D01*
X150041Y126014D01*
X146990Y118648D01*
X141352Y113010D01*
X133986Y109959D01*
X126014Y109959D01*
G37*
%LPD*%
%LPC*%
G36*
X319023Y54863D02*
X319023Y54863D01*
X319023Y77471D01*
X327486Y77471D01*
X328133Y77298D01*
X328712Y76963D01*
X329185Y76490D01*
X329520Y75911D01*
X329693Y75264D01*
X329693Y54863D01*
X319023Y54863D01*
G37*
%LPD*%
%LPC*%
G36*
X319023Y51817D02*
X319023Y51817D01*
X329693Y51817D01*
X329693Y31416D01*
X329520Y30769D01*
X329185Y30190D01*
X328712Y29717D01*
X328133Y29382D01*
X327486Y29209D01*
X319023Y29209D01*
X319023Y51817D01*
G37*
%LPD*%
%LPC*%
G36*
X305307Y54863D02*
X305307Y54863D01*
X305307Y75264D01*
X305480Y75911D01*
X305815Y76490D01*
X306288Y76963D01*
X306867Y77298D01*
X307514Y77471D01*
X315977Y77471D01*
X315977Y54863D01*
X305307Y54863D01*
G37*
%LPD*%
%LPC*%
G36*
X307514Y29209D02*
X307514Y29209D01*
X306867Y29382D01*
X306288Y29717D01*
X305815Y30190D01*
X305480Y30769D01*
X305307Y31416D01*
X305307Y51817D01*
X315977Y51817D01*
X315977Y29209D01*
X307514Y29209D01*
G37*
%LPD*%
%LPC*%
G36*
X65023Y121413D02*
X65023Y121413D01*
X65023Y133431D01*
X81834Y133431D01*
X82481Y133258D01*
X83060Y132923D01*
X83533Y132450D01*
X83868Y131871D01*
X84041Y131224D01*
X84041Y121413D01*
X65023Y121413D01*
G37*
%LPD*%
%LPC*%
G36*
X42959Y121413D02*
X42959Y121413D01*
X42959Y131224D01*
X43132Y131871D01*
X43467Y132450D01*
X43940Y132923D01*
X44519Y133258D01*
X45166Y133431D01*
X61977Y133431D01*
X61977Y121413D01*
X42959Y121413D01*
G37*
%LPD*%
%LPC*%
G36*
X65023Y106349D02*
X65023Y106349D01*
X65023Y118367D01*
X84041Y118367D01*
X84041Y108556D01*
X83868Y107909D01*
X83533Y107330D01*
X83060Y106857D01*
X82481Y106522D01*
X81834Y106349D01*
X65023Y106349D01*
G37*
%LPD*%
%LPC*%
G36*
X45166Y106349D02*
X45166Y106349D01*
X44519Y106522D01*
X43940Y106857D01*
X43467Y107330D01*
X43132Y107909D01*
X42959Y108556D01*
X42959Y118367D01*
X61977Y118367D01*
X61977Y106349D01*
X45166Y106349D01*
G37*
%LPD*%
%LPC*%
G36*
X52323Y166623D02*
X52323Y166623D01*
X52323Y182766D01*
X53179Y182631D01*
X54700Y182136D01*
X56125Y181410D01*
X57419Y180470D01*
X58550Y179339D01*
X59490Y178045D01*
X60216Y176620D01*
X60711Y175099D01*
X60961Y173520D01*
X60961Y166623D01*
X52323Y166623D01*
G37*
%LPD*%
%LPC*%
G36*
X522223Y65023D02*
X522223Y65023D01*
X522223Y81166D01*
X523079Y81031D01*
X524600Y80536D01*
X526025Y79810D01*
X527319Y78870D01*
X528450Y77739D01*
X529390Y76445D01*
X530116Y75020D01*
X530611Y73499D01*
X530861Y71920D01*
X530861Y65023D01*
X522223Y65023D01*
G37*
%LPD*%
%LPC*%
G36*
X420623Y65023D02*
X420623Y65023D01*
X420623Y73661D01*
X427520Y73661D01*
X429099Y73411D01*
X430620Y72916D01*
X432045Y72190D01*
X433339Y71250D01*
X434470Y70119D01*
X435410Y68825D01*
X436136Y67400D01*
X436631Y65879D01*
X436766Y65023D01*
X420623Y65023D01*
G37*
%LPD*%
%LPC*%
G36*
X401434Y65023D02*
X401434Y65023D01*
X401569Y65879D01*
X402064Y67400D01*
X402790Y68825D01*
X403730Y70119D01*
X404861Y71250D01*
X406155Y72190D01*
X407580Y72916D01*
X409101Y73411D01*
X410680Y73661D01*
X417577Y73661D01*
X417577Y65023D01*
X401434Y65023D01*
G37*
%LPD*%
%LPC*%
G36*
X52323Y163577D02*
X52323Y163577D01*
X60961Y163577D01*
X60961Y156680D01*
X60711Y155101D01*
X60216Y153580D01*
X59490Y152155D01*
X58550Y150861D01*
X57419Y149730D01*
X56125Y148790D01*
X54700Y148064D01*
X53179Y147569D01*
X52323Y147434D01*
X52323Y163577D01*
G37*
%LPD*%
%LPC*%
G36*
X522223Y61977D02*
X522223Y61977D01*
X530861Y61977D01*
X530861Y55080D01*
X530611Y53501D01*
X530116Y51980D01*
X529390Y50555D01*
X528450Y49261D01*
X527319Y48130D01*
X526025Y47190D01*
X524600Y46464D01*
X523079Y45969D01*
X522223Y45834D01*
X522223Y61977D01*
G37*
%LPD*%
%LPC*%
G36*
X40639Y166623D02*
X40639Y166623D01*
X40639Y173520D01*
X40889Y175099D01*
X41384Y176620D01*
X42110Y178045D01*
X43050Y179339D01*
X44181Y180470D01*
X45475Y181410D01*
X46900Y182136D01*
X48421Y182631D01*
X49277Y182766D01*
X49277Y166623D01*
X40639Y166623D01*
G37*
%LPD*%
%LPC*%
G36*
X510539Y65023D02*
X510539Y65023D01*
X510539Y71920D01*
X510789Y73499D01*
X511284Y75020D01*
X512010Y76445D01*
X512950Y77739D01*
X514081Y78870D01*
X515375Y79810D01*
X516800Y80536D01*
X518321Y81031D01*
X519177Y81166D01*
X519177Y65023D01*
X510539Y65023D01*
G37*
%LPD*%
%LPC*%
G36*
X420623Y53339D02*
X420623Y53339D01*
X420623Y61977D01*
X436766Y61977D01*
X436631Y61121D01*
X436136Y59600D01*
X435410Y58175D01*
X434470Y56881D01*
X433339Y55750D01*
X432045Y54810D01*
X430620Y54084D01*
X429099Y53589D01*
X427520Y53339D01*
X420623Y53339D01*
G37*
%LPD*%
%LPC*%
G36*
X48421Y147569D02*
X48421Y147569D01*
X46900Y148064D01*
X45475Y148790D01*
X44181Y149730D01*
X43050Y150861D01*
X42110Y152155D01*
X41384Y153580D01*
X40889Y155101D01*
X40639Y156680D01*
X40639Y163577D01*
X49277Y163577D01*
X49277Y147434D01*
X48421Y147569D01*
G37*
%LPD*%
%LPC*%
G36*
X518321Y45969D02*
X518321Y45969D01*
X516800Y46464D01*
X515375Y47190D01*
X514081Y48130D01*
X512950Y49261D01*
X512010Y50555D01*
X511284Y51980D01*
X510789Y53501D01*
X510539Y55080D01*
X510539Y61977D01*
X519177Y61977D01*
X519177Y45834D01*
X518321Y45969D01*
G37*
%LPD*%
%LPC*%
G36*
X410680Y53339D02*
X410680Y53339D01*
X409101Y53589D01*
X407580Y54084D01*
X406155Y54810D01*
X404861Y55750D01*
X403730Y56881D01*
X402790Y58175D01*
X402064Y59600D01*
X401569Y61121D01*
X401434Y61977D01*
X417577Y61977D01*
X417577Y53339D01*
X410680Y53339D01*
G37*
%LPD*%
%LPC*%
G36*
X179223Y108923D02*
X179223Y108923D01*
X179223Y119441D01*
X186534Y119441D01*
X187181Y119268D01*
X187760Y118933D01*
X188233Y118460D01*
X188568Y117881D01*
X188741Y117234D01*
X188741Y108923D01*
X179223Y108923D01*
G37*
%LPD*%
%LPC*%
G36*
X166659Y108923D02*
X166659Y108923D01*
X166659Y117234D01*
X166832Y117881D01*
X167167Y118460D01*
X167640Y118933D01*
X168219Y119268D01*
X168866Y119441D01*
X176177Y119441D01*
X176177Y108923D01*
X166659Y108923D01*
G37*
%LPD*%
%LPC*%
G36*
X179223Y95359D02*
X179223Y95359D01*
X179223Y105877D01*
X188741Y105877D01*
X188741Y97566D01*
X188568Y96919D01*
X188233Y96340D01*
X187760Y95867D01*
X187181Y95532D01*
X186534Y95359D01*
X179223Y95359D01*
G37*
%LPD*%
%LPC*%
G36*
X168866Y95359D02*
X168866Y95359D01*
X168219Y95532D01*
X167640Y95867D01*
X167167Y96340D01*
X166832Y96919D01*
X166659Y97566D01*
X166659Y105877D01*
X176177Y105877D01*
X176177Y95359D01*
X168866Y95359D01*
G37*
%LPD*%
%LPC*%
G36*
X65023Y59433D02*
X65023Y59433D01*
X65023Y71626D01*
X69929Y71626D01*
X70576Y71453D01*
X71155Y71118D01*
X71628Y70645D01*
X71963Y70066D01*
X72136Y69419D01*
X72136Y59433D01*
X65023Y59433D01*
G37*
%LPD*%
%LPC*%
G36*
X65023Y44194D02*
X65023Y44194D01*
X65023Y56387D01*
X72136Y56387D01*
X72136Y46401D01*
X71963Y45754D01*
X71628Y45175D01*
X71155Y44702D01*
X70576Y44367D01*
X69929Y44194D01*
X65023Y44194D01*
G37*
%LPD*%
%LPC*%
G36*
X54864Y59433D02*
X54864Y59433D01*
X54864Y69419D01*
X55037Y70066D01*
X55372Y70645D01*
X55845Y71118D01*
X56424Y71453D01*
X57071Y71626D01*
X61977Y71626D01*
X61977Y59433D01*
X54864Y59433D01*
G37*
%LPD*%
%LPC*%
G36*
X57071Y44194D02*
X57071Y44194D01*
X56424Y44367D01*
X55845Y44702D01*
X55372Y45175D01*
X55037Y45754D01*
X54864Y46401D01*
X54864Y56387D01*
X61977Y56387D01*
X61977Y44194D01*
X57071Y44194D01*
G37*
%LPD*%
%LPC*%
G36*
X592559Y422323D02*
X592559Y422323D01*
X592559Y428134D01*
X592732Y428781D01*
X593067Y429360D01*
X593540Y429833D01*
X594119Y430168D01*
X594766Y430341D01*
X598577Y430341D01*
X598577Y422323D01*
X592559Y422323D01*
G37*
%LPD*%
%LPC*%
G36*
X594766Y411259D02*
X594766Y411259D01*
X594119Y411432D01*
X593540Y411767D01*
X593067Y412240D01*
X592732Y412819D01*
X592559Y413466D01*
X592559Y419277D01*
X598577Y419277D01*
X598577Y411259D01*
X594766Y411259D01*
G37*
%LPD*%
%LPC*%
G36*
X522863Y318997D02*
X522863Y318997D01*
X522863Y323036D01*
X531543Y323036D01*
X532189Y322863D01*
X532769Y322529D01*
X533242Y322056D01*
X533576Y321476D01*
X533749Y320830D01*
X533749Y318997D01*
X522863Y318997D01*
G37*
%LPD*%
%LPC*%
G36*
X508983Y318997D02*
X508983Y318997D01*
X508983Y320830D01*
X509156Y321476D01*
X509490Y322056D01*
X509963Y322529D01*
X510543Y322863D01*
X511189Y323036D01*
X519869Y323036D01*
X519869Y318997D01*
X508983Y318997D01*
G37*
%LPD*%
%LPC*%
G36*
X520699Y63499D02*
X520699Y63499D01*
X520699Y63501D01*
X520701Y63501D01*
X520701Y63499D01*
X520699Y63499D01*
G37*
%LPD*%
%LPC*%
G36*
X419099Y63499D02*
X419099Y63499D01*
X419099Y63501D01*
X419101Y63501D01*
X419101Y63499D01*
X419099Y63499D01*
G37*
%LPD*%
%LPC*%
G36*
X50799Y165099D02*
X50799Y165099D01*
X50799Y165101D01*
X50801Y165101D01*
X50801Y165099D01*
X50799Y165099D01*
G37*
%LPD*%
%LPC*%
G36*
X63499Y119889D02*
X63499Y119889D01*
X63499Y119891D01*
X63501Y119891D01*
X63501Y119889D01*
X63499Y119889D01*
G37*
%LPD*%
%LPC*%
G36*
X317499Y53339D02*
X317499Y53339D01*
X317499Y53341D01*
X317501Y53341D01*
X317501Y53339D01*
X317499Y53339D01*
G37*
%LPD*%
%LPC*%
G36*
X177699Y107399D02*
X177699Y107399D01*
X177699Y107401D01*
X177701Y107401D01*
X177701Y107399D01*
X177699Y107399D01*
G37*
%LPD*%
%LPC*%
G36*
X63499Y57909D02*
X63499Y57909D01*
X63499Y57911D01*
X63501Y57911D01*
X63501Y57909D01*
X63499Y57909D01*
G37*
%LPD*%
D10*
X622300Y358800D03*
X622300Y377800D03*
X546100Y441300D03*
X546100Y422300D03*
D11*
X546100Y368300D03*
X546100Y393700D03*
D12*
X609600Y442800D03*
X600100Y420800D03*
X619100Y420800D03*
D13*
X448800Y342900D03*
X414800Y342900D03*
D14*
X570834Y317500D03*
X570834Y304800D03*
X570834Y292100D03*
X570834Y279400D03*
X570834Y266700D03*
X570834Y254000D03*
X570834Y241300D03*
X521366Y241300D03*
X521366Y254000D03*
X521366Y266700D03*
X521366Y279400D03*
X521366Y292100D03*
X521366Y304800D03*
X521366Y317500D03*
D15*
X317500Y149860D03*
X317500Y53340D03*
D16*
X228700Y107400D03*
X177700Y107400D03*
X177700Y197400D03*
X228700Y197400D03*
D17*
X571500Y71120D02*
X571500Y55880D01*
X546100Y55880D02*
X546100Y71120D01*
X520700Y71120D02*
X520700Y55880D01*
D18*
X469900Y342900D03*
X393700Y342900D03*
X469900Y444500D03*
X469900Y520700D03*
D19*
X152189Y520950D03*
X202989Y520950D03*
X253789Y520950D03*
D17*
X76200Y172720D02*
X76200Y157480D01*
X50800Y157480D02*
X50800Y172720D01*
X25400Y172720D02*
X25400Y157480D01*
D20*
X86610Y57910D03*
X63500Y57910D03*
X40390Y57910D03*
D21*
X63500Y119890D03*
D22*
X305176Y430276D03*
X105024Y430276D03*
X105024Y230124D03*
X155062Y230124D03*
X255138Y230124D03*
X305176Y230124D03*
D17*
X411480Y266700D02*
X426720Y266700D01*
X426720Y241300D02*
X411480Y241300D01*
X411480Y215900D02*
X426720Y215900D01*
X426720Y190500D02*
X411480Y190500D01*
X411480Y165100D02*
X426720Y165100D01*
X426720Y139700D02*
X411480Y139700D01*
X411480Y114300D02*
X426720Y114300D01*
X426720Y88900D02*
X411480Y88900D01*
X411480Y63500D02*
X426720Y63500D01*
D23*
X546100Y393700D02*
X546100Y422300D01*
X622300Y392200D02*
X622300Y377800D01*
X622300Y392200D02*
X619100Y395400D01*
X619100Y420800D01*
X414800Y342900D02*
X393700Y342900D01*
X584200Y441300D02*
X585700Y442800D01*
X584200Y441300D02*
X546100Y441300D01*
X585700Y442800D02*
X609600Y442800D01*
X546100Y441300D02*
X530200Y441300D01*
X520700Y431800D01*
X520700Y393700D01*
X495300Y368300D01*
X427500Y368300D02*
X414800Y355600D01*
X414800Y342900D01*
X427500Y368300D02*
X495300Y368300D01*
D24*
X622300Y358800D02*
X622300Y312300D01*
X615000Y305000D01*
X571034Y305000D02*
X570834Y304800D01*
X571034Y305000D02*
X615000Y305000D01*
D25*
X64600Y60000D02*
X63500Y57910D01*
X64600Y118790D02*
X63500Y119890D01*
D23*
X25400Y72900D02*
X40390Y57910D01*
X448800Y342900D02*
X469900Y342900D01*
X63500Y266700D02*
X25400Y228600D01*
X438150Y317540D02*
X448800Y328190D01*
X448800Y342900D01*
X342900Y266700D02*
X63500Y266700D01*
X342900Y266700D02*
X393740Y317540D01*
X438150Y317540D01*
X508000Y342900D02*
X533400Y368300D01*
X508000Y342900D02*
X469900Y342900D01*
X533400Y368300D02*
X546100Y368300D01*
X25400Y228600D02*
X25400Y165100D01*
X25400Y72900D01*
D26*
X202989Y444711D02*
X202989Y520950D01*
X217424Y430276D02*
X305176Y430276D01*
X217424Y430276D02*
X202989Y444711D01*
X317500Y444500D02*
X469900Y444500D01*
X317500Y444500D02*
X305176Y432176D01*
X305176Y430276D01*
X457200Y508000D02*
X469900Y520700D01*
X266739Y508000D02*
X253789Y520950D01*
X266739Y508000D02*
X457200Y508000D01*
X105024Y498724D02*
X105024Y430276D01*
X127250Y520950D02*
X152189Y520950D01*
X127250Y520950D02*
X105024Y498724D01*
D24*
X419100Y241300D02*
X457200Y241300D01*
X469900Y254000D01*
X521366Y254000D01*
X570834Y254000D02*
X596234Y254000D01*
X596234Y190500D01*
X583534Y177800D01*
X457200Y177800D01*
X444500Y165100D01*
X419100Y165100D01*
X570834Y202734D02*
X570834Y241300D01*
X558600Y190500D02*
X419100Y190500D01*
X558600Y190500D02*
X570834Y202734D01*
X457200Y215900D02*
X419100Y215900D01*
X457200Y215900D02*
X482600Y241300D01*
X521366Y241300D01*
D23*
X131820Y12700D02*
X86610Y57910D01*
X131820Y12700D02*
X444500Y12700D01*
X520700Y12700D01*
X546100Y38100D01*
X546100Y63500D01*
X546100Y38100D02*
X558800Y25400D01*
X584200Y25400D01*
X609600Y50800D01*
X609600Y101600D01*
X635000Y127000D01*
X635000Y279400D01*
D19*
X600000Y285000D03*
X600000Y335800D03*
D23*
X629400Y285000D02*
X635000Y279400D01*
X629400Y285000D02*
X600000Y285000D01*
D19*
X447600Y31000D03*
X447600Y272500D03*
D23*
X424700Y272300D02*
X419100Y266700D01*
X424700Y272300D02*
X447600Y272500D01*
X447600Y31000D02*
X447600Y15800D01*
X444500Y12700D01*
D24*
X570834Y317500D02*
X589134Y335800D01*
X600000Y335800D01*
X612700Y262700D02*
X612700Y165400D01*
X470200Y165400D01*
X444500Y139700D02*
X419100Y139700D01*
X444500Y139700D02*
X470200Y165400D01*
X608700Y266700D02*
X612700Y262700D01*
X608700Y266700D02*
X570834Y266700D01*
X412100Y292100D02*
X395000Y275000D01*
X395000Y114300D01*
X419100Y114300D01*
X412100Y292100D02*
X521366Y292100D01*
D19*
X480000Y272500D03*
X480000Y139700D03*
D24*
X480000Y272500D02*
X484400Y279400D01*
X521366Y279400D01*
D23*
X480000Y139700D02*
X480000Y99000D01*
X469900Y88900D01*
X419100Y88900D01*
X317500Y149860D02*
X271160Y149860D01*
X228700Y107400D01*
X216000Y120100D01*
X216000Y136919D01*
X194720Y165100D01*
X76200Y165100D01*
X177700Y197400D02*
X177700Y220186D01*
X167762Y230124D01*
X155062Y230124D01*
X228700Y226400D02*
X232300Y230000D01*
X255000Y230000D01*
X228700Y226400D02*
X228700Y197400D01*
D25*
X255000Y230000D02*
X255138Y230124D01*
D24*
X534066Y266700D02*
X552700Y248066D01*
X534066Y266700D02*
X521366Y266700D01*
X552700Y248066D02*
X552500Y215900D01*
D19*
X552500Y215900D03*
X552500Y139700D03*
D23*
X571500Y127000D02*
X571500Y63500D01*
X571500Y127000D02*
X558800Y139700D01*
X552500Y139700D01*
D27*
X0Y120000D02*
X457Y109541D01*
X1823Y99162D01*
X4089Y88942D01*
X7237Y78958D01*
X11243Y69286D01*
X16077Y60000D01*
X21702Y51171D01*
X28075Y42866D01*
X35147Y35147D01*
X42866Y28075D01*
X51171Y21702D01*
X60000Y16077D01*
X69286Y11243D01*
X78958Y7237D01*
X88942Y4089D01*
X99162Y1823D01*
X109541Y457D01*
X120000Y0D01*
X530000Y0D01*
X540459Y457D01*
X550838Y1823D01*
X561058Y4089D01*
X571042Y7237D01*
X580714Y11243D01*
X590000Y16077D01*
X598829Y21702D01*
X607135Y28075D01*
X614853Y35147D01*
X621925Y42866D01*
X628298Y51171D01*
X633923Y60000D01*
X638757Y69286D01*
X642763Y78958D01*
X645911Y88942D01*
X648177Y99162D01*
X649543Y109541D01*
X650000Y120000D01*
X650000Y560000D01*
X522990Y560000D01*
X510408Y569654D01*
X487508Y584845D01*
X463371Y597981D01*
X438181Y608964D01*
X412130Y617710D01*
X385415Y624152D01*
X358241Y628241D01*
X330814Y629946D01*
X303342Y629255D01*
X276036Y626171D01*
X249102Y620720D01*
X222745Y612941D01*
X197167Y602895D01*
X172562Y590659D01*
X149117Y576324D01*
X127010Y560000D01*
X0Y560000D01*
X0Y120000D01*
M02*
