G04 EAGLE Gerber RS-274X export*
G75*
%MOMM*%
%FSLAX34Y34*%
%LPD*%
%IN*%
%IPPOS*%
%AMOC8*
5,1,8,0,0,1.08239X$1,22.5*%
G01*
%ADD10C,0.254000*%


D10*
X0Y120000D02*
X457Y109541D01*
X1823Y99162D01*
X4089Y88942D01*
X7237Y78958D01*
X11243Y69286D01*
X16077Y60000D01*
X21702Y51171D01*
X28075Y42866D01*
X35147Y35147D01*
X42866Y28075D01*
X51171Y21702D01*
X60000Y16077D01*
X69286Y11243D01*
X78958Y7237D01*
X88942Y4089D01*
X99162Y1823D01*
X109541Y457D01*
X120000Y0D01*
X530000Y0D01*
X540459Y457D01*
X550838Y1823D01*
X561058Y4089D01*
X571042Y7237D01*
X580714Y11243D01*
X590000Y16077D01*
X598829Y21702D01*
X607135Y28075D01*
X614853Y35147D01*
X621925Y42866D01*
X628298Y51171D01*
X633923Y60000D01*
X638757Y69286D01*
X642763Y78958D01*
X645911Y88942D01*
X648177Y99162D01*
X649543Y109541D01*
X650000Y120000D01*
X650000Y560000D01*
X522990Y560000D01*
X500883Y576324D01*
X477438Y590659D01*
X452833Y602895D01*
X427255Y612941D01*
X400898Y620720D01*
X373964Y626171D01*
X346658Y629255D01*
X319186Y629946D01*
X291759Y628241D01*
X264585Y624152D01*
X237870Y617710D01*
X211819Y608964D01*
X186629Y597981D01*
X162492Y584845D01*
X139592Y569654D01*
X127010Y560000D01*
X0Y560000D01*
X0Y120000D01*
X63500Y368300D02*
X342900Y368300D01*
X355600Y381000D01*
X495300Y381000D01*
X495300Y406400D01*
X342900Y406400D01*
X330200Y393700D01*
X63500Y393700D01*
X63500Y368300D01*
X147500Y129427D02*
X147425Y128284D01*
X147276Y127148D01*
X147052Y126024D01*
X146755Y124917D01*
X146387Y123832D01*
X145949Y122774D01*
X145442Y121746D01*
X144869Y120754D01*
X144232Y119801D01*
X143535Y118892D01*
X142779Y118031D01*
X141969Y117221D01*
X141108Y116465D01*
X140199Y115768D01*
X139246Y115131D01*
X138254Y114558D01*
X137226Y114051D01*
X136168Y113613D01*
X135083Y113245D01*
X133976Y112948D01*
X132852Y112725D01*
X131716Y112575D01*
X130573Y112500D01*
X129427Y112500D01*
X128284Y112575D01*
X127148Y112725D01*
X126024Y112948D01*
X124917Y113245D01*
X123832Y113613D01*
X122774Y114051D01*
X121746Y114558D01*
X120754Y115131D01*
X119801Y115768D01*
X118892Y116465D01*
X118031Y117221D01*
X117221Y118031D01*
X116465Y118892D01*
X115768Y119801D01*
X115131Y120754D01*
X114558Y121746D01*
X114051Y122774D01*
X113613Y123832D01*
X113245Y124917D01*
X112948Y126024D01*
X112725Y127148D01*
X112575Y128284D01*
X112500Y129427D01*
X112500Y130573D01*
X112575Y131716D01*
X112725Y132852D01*
X112948Y133976D01*
X113245Y135083D01*
X113613Y136168D01*
X114051Y137226D01*
X114558Y138254D01*
X115131Y139246D01*
X115768Y140199D01*
X116465Y141108D01*
X117221Y141969D01*
X118031Y142779D01*
X118892Y143535D01*
X119801Y144232D01*
X120754Y144869D01*
X121746Y145442D01*
X122774Y145949D01*
X123832Y146387D01*
X124917Y146755D01*
X126024Y147052D01*
X127148Y147276D01*
X128284Y147425D01*
X129427Y147500D01*
X130573Y147500D01*
X131716Y147425D01*
X132852Y147276D01*
X133976Y147052D01*
X135083Y146755D01*
X136168Y146387D01*
X137226Y145949D01*
X138254Y145442D01*
X139246Y144869D01*
X140199Y144232D01*
X141108Y143535D01*
X141969Y142779D01*
X142779Y141969D01*
X143535Y141108D01*
X144232Y140199D01*
X144869Y139246D01*
X145442Y138254D01*
X145949Y137226D01*
X146387Y136168D01*
X146755Y135083D01*
X147052Y133976D01*
X147276Y132852D01*
X147425Y131716D01*
X147500Y130573D01*
X147500Y129427D01*
X537500Y129427D02*
X537425Y128284D01*
X537276Y127148D01*
X537052Y126024D01*
X536755Y124917D01*
X536387Y123832D01*
X535949Y122774D01*
X535442Y121746D01*
X534869Y120754D01*
X534232Y119801D01*
X533535Y118892D01*
X532779Y118031D01*
X531969Y117221D01*
X531108Y116465D01*
X530199Y115768D01*
X529246Y115131D01*
X528254Y114558D01*
X527226Y114051D01*
X526168Y113613D01*
X525083Y113245D01*
X523976Y112948D01*
X522852Y112725D01*
X521716Y112575D01*
X520573Y112500D01*
X519427Y112500D01*
X518284Y112575D01*
X517148Y112725D01*
X516024Y112948D01*
X514917Y113245D01*
X513832Y113613D01*
X512774Y114051D01*
X511746Y114558D01*
X510754Y115131D01*
X509801Y115768D01*
X508892Y116465D01*
X508031Y117221D01*
X507221Y118031D01*
X506465Y118892D01*
X505768Y119801D01*
X505131Y120754D01*
X504558Y121746D01*
X504051Y122774D01*
X503613Y123832D01*
X503245Y124917D01*
X502948Y126024D01*
X502725Y127148D01*
X502575Y128284D01*
X502500Y129427D01*
X502500Y130573D01*
X502575Y131716D01*
X502725Y132852D01*
X502948Y133976D01*
X503245Y135083D01*
X503613Y136168D01*
X504051Y137226D01*
X504558Y138254D01*
X505131Y139246D01*
X505768Y140199D01*
X506465Y141108D01*
X507221Y141969D01*
X508031Y142779D01*
X508892Y143535D01*
X509801Y144232D01*
X510754Y144869D01*
X511746Y145442D01*
X512774Y145949D01*
X513832Y146387D01*
X514917Y146755D01*
X516024Y147052D01*
X517148Y147276D01*
X518284Y147425D01*
X519427Y147500D01*
X520573Y147500D01*
X521716Y147425D01*
X522852Y147276D01*
X523976Y147052D01*
X525083Y146755D01*
X526168Y146387D01*
X527226Y145949D01*
X528254Y145442D01*
X529246Y144869D01*
X530199Y144232D01*
X531108Y143535D01*
X531969Y142779D01*
X532779Y141969D01*
X533535Y141108D01*
X534232Y140199D01*
X534869Y139246D01*
X535442Y138254D01*
X535949Y137226D01*
X536387Y136168D01*
X536755Y135083D01*
X537052Y133976D01*
X537276Y132852D01*
X537425Y131716D01*
X537500Y130573D01*
X537500Y129427D01*
X447500Y559427D02*
X447425Y558284D01*
X447276Y557148D01*
X447052Y556024D01*
X446755Y554917D01*
X446387Y553832D01*
X445949Y552774D01*
X445442Y551746D01*
X444869Y550754D01*
X444232Y549801D01*
X443535Y548892D01*
X442779Y548031D01*
X441969Y547221D01*
X441108Y546465D01*
X440199Y545768D01*
X439246Y545131D01*
X438254Y544558D01*
X437226Y544051D01*
X436168Y543613D01*
X435083Y543245D01*
X433976Y542948D01*
X432852Y542725D01*
X431716Y542575D01*
X430573Y542500D01*
X429427Y542500D01*
X428284Y542575D01*
X427148Y542725D01*
X426024Y542948D01*
X424917Y543245D01*
X423832Y543613D01*
X422774Y544051D01*
X421746Y544558D01*
X420754Y545131D01*
X419801Y545768D01*
X418892Y546465D01*
X418031Y547221D01*
X417221Y548031D01*
X416465Y548892D01*
X415768Y549801D01*
X415131Y550754D01*
X414558Y551746D01*
X414051Y552774D01*
X413613Y553832D01*
X413245Y554917D01*
X412948Y556024D01*
X412725Y557148D01*
X412575Y558284D01*
X412500Y559427D01*
X412500Y560573D01*
X412575Y561716D01*
X412725Y562852D01*
X412948Y563976D01*
X413245Y565083D01*
X413613Y566168D01*
X414051Y567226D01*
X414558Y568254D01*
X415131Y569246D01*
X415768Y570199D01*
X416465Y571108D01*
X417221Y571969D01*
X418031Y572779D01*
X418892Y573535D01*
X419801Y574232D01*
X420754Y574869D01*
X421746Y575442D01*
X422774Y575949D01*
X423832Y576387D01*
X424917Y576755D01*
X426024Y577052D01*
X427148Y577276D01*
X428284Y577425D01*
X429427Y577500D01*
X430573Y577500D01*
X431716Y577425D01*
X432852Y577276D01*
X433976Y577052D01*
X435083Y576755D01*
X436168Y576387D01*
X437226Y575949D01*
X438254Y575442D01*
X439246Y574869D01*
X440199Y574232D01*
X441108Y573535D01*
X441969Y572779D01*
X442779Y571969D01*
X443535Y571108D01*
X444232Y570199D01*
X444869Y569246D01*
X445442Y568254D01*
X445949Y567226D01*
X446387Y566168D01*
X446755Y565083D01*
X447052Y563976D01*
X447276Y562852D01*
X447425Y561716D01*
X447500Y560573D01*
X447500Y559427D01*
X57500Y519427D02*
X57425Y518284D01*
X57276Y517148D01*
X57052Y516024D01*
X56755Y514917D01*
X56387Y513832D01*
X55949Y512774D01*
X55442Y511746D01*
X54869Y510754D01*
X54232Y509801D01*
X53535Y508892D01*
X52779Y508031D01*
X51969Y507221D01*
X51108Y506465D01*
X50199Y505768D01*
X49246Y505131D01*
X48254Y504558D01*
X47226Y504051D01*
X46168Y503613D01*
X45083Y503245D01*
X43976Y502948D01*
X42852Y502725D01*
X41716Y502575D01*
X40573Y502500D01*
X39427Y502500D01*
X38284Y502575D01*
X37148Y502725D01*
X36024Y502948D01*
X34917Y503245D01*
X33832Y503613D01*
X32774Y504051D01*
X31746Y504558D01*
X30754Y505131D01*
X29801Y505768D01*
X28892Y506465D01*
X28031Y507221D01*
X27221Y508031D01*
X26465Y508892D01*
X25768Y509801D01*
X25131Y510754D01*
X24558Y511746D01*
X24051Y512774D01*
X23613Y513832D01*
X23245Y514917D01*
X22948Y516024D01*
X22725Y517148D01*
X22575Y518284D01*
X22500Y519427D01*
X22500Y520573D01*
X22575Y521716D01*
X22725Y522852D01*
X22948Y523976D01*
X23245Y525083D01*
X23613Y526168D01*
X24051Y527226D01*
X24558Y528254D01*
X25131Y529246D01*
X25768Y530199D01*
X26465Y531108D01*
X27221Y531969D01*
X28031Y532779D01*
X28892Y533535D01*
X29801Y534232D01*
X30754Y534869D01*
X31746Y535442D01*
X32774Y535949D01*
X33832Y536387D01*
X34917Y536755D01*
X36024Y537052D01*
X37148Y537276D01*
X38284Y537425D01*
X39427Y537500D01*
X40573Y537500D01*
X41716Y537425D01*
X42852Y537276D01*
X43976Y537052D01*
X45083Y536755D01*
X46168Y536387D01*
X47226Y535949D01*
X48254Y535442D01*
X49246Y534869D01*
X50199Y534232D01*
X51108Y533535D01*
X51969Y532779D01*
X52779Y531969D01*
X53535Y531108D01*
X54232Y530199D01*
X54869Y529246D01*
X55442Y528254D01*
X55949Y527226D01*
X56387Y526168D01*
X56755Y525083D01*
X57052Y523976D01*
X57276Y522852D01*
X57425Y521716D01*
X57500Y520573D01*
X57500Y519427D01*
M02*
