G04 EAGLE Gerber RS-274X export*
G75*
%MOMM*%
%FSLAX34Y34*%
%LPD*%
%INSoldermask Bottom*%
%IPPOS*%
%AMOC8*
5,1,8,0,0,1.08239X$1,22.5*%
G01*
%ADD10C,3.703200*%
%ADD11R,1.703200X1.503200*%
%ADD12P,1.649562X8X112.500000*%
%ADD13R,1.203200X1.603200*%
%ADD14R,1.603200X2.003200*%
%ADD15R,2.171700X0.802300*%
%ADD16R,2.133600X4.521200*%
%ADD17R,1.903200X2.103200*%
%ADD18C,1.727200*%
%ADD19C,2.153200*%
%ADD20C,2.203200*%
%ADD21R,1.422200X2.438200*%
%ADD22R,3.803200X2.403200*%
%ADD23P,4.343848X8X292.500000*%


D10*
X130000Y130000D03*
X520000Y130000D03*
X430000Y560000D03*
X40000Y520000D03*
D11*
X622300Y358800D03*
X622300Y377800D03*
X546100Y441300D03*
X546100Y422300D03*
D12*
X546100Y368300D03*
X546100Y393700D03*
D13*
X609600Y442800D03*
X600100Y420800D03*
X619100Y420800D03*
D14*
X448800Y342900D03*
X414800Y342900D03*
D15*
X570834Y317500D03*
X570834Y304800D03*
X570834Y292100D03*
X570834Y279400D03*
X570834Y266700D03*
X570834Y254000D03*
X570834Y241300D03*
X521366Y241300D03*
X521366Y254000D03*
X521366Y266700D03*
X521366Y279400D03*
X521366Y292100D03*
X521366Y304800D03*
X521366Y317500D03*
D16*
X317500Y149860D03*
X317500Y53340D03*
D17*
X228700Y107400D03*
X177700Y107400D03*
X177700Y197400D03*
X228700Y197400D03*
D18*
X571500Y71120D02*
X571500Y55880D01*
X546100Y55880D02*
X546100Y71120D01*
X520700Y71120D02*
X520700Y55880D01*
D19*
X469900Y342900D03*
X393700Y342900D03*
X469900Y444500D03*
X469900Y520700D03*
D20*
X152189Y520950D03*
X202989Y520950D03*
X253789Y520950D03*
D18*
X76200Y172720D02*
X76200Y157480D01*
X50800Y157480D02*
X50800Y172720D01*
X25400Y172720D02*
X25400Y157480D01*
D21*
X86610Y57910D03*
X63500Y57910D03*
X40390Y57910D03*
D22*
X63500Y119890D03*
D23*
X305176Y430276D03*
X105024Y430276D03*
X105024Y230124D03*
X155062Y230124D03*
X255138Y230124D03*
X305176Y230124D03*
D18*
X411480Y266700D02*
X426720Y266700D01*
X426720Y241300D02*
X411480Y241300D01*
X411480Y215900D02*
X426720Y215900D01*
X426720Y190500D02*
X411480Y190500D01*
X411480Y165100D02*
X426720Y165100D01*
X426720Y139700D02*
X411480Y139700D01*
X411480Y114300D02*
X426720Y114300D01*
X426720Y88900D02*
X411480Y88900D01*
X411480Y63500D02*
X426720Y63500D01*
D20*
X600000Y285000D03*
X600000Y335800D03*
X447600Y31000D03*
X447600Y272500D03*
X480000Y272500D03*
X480000Y139700D03*
X552500Y215900D03*
X552500Y139700D03*
M02*
