<svg version="1.1" xmlns="http://www.w3.org/2000/svg" xmlns:xlink="http://www.w3.org/1999/xlink" stroke-linecap="round" stroke-linejoin="round" stroke-width="0" fill-rule="evenodd" width="65.254mm" height="63.248599999999996mm" viewBox="-127 -127 65254 63248.6" id="jTUWdYlW0Ovmh1Spq-pA"><defs><mask id="jTUWdYlW0Ovmh1Spq-pA_clear-1" fill="#000" stroke="#000"><g><rect x="3386" y="254.1" width="59097.9" height="43009.8" fill="#fff"/><path d="M 21809.5 9281.9 21809.5 9281.9 21511.9 9579.5 21511.9 10629.6 21510.5 10638.6 21509.7 10647.7 21508.5 10650.7 21508 10653.9 21503.7 10661.9 21500.1 10670.3 21497.5 10673.5 21496.4 10675.6 21494.1 10677.8 21489.6 10683.4 21035.1 11137.9 20738.6 11434.4 20583.9 11807.9 20583.9 13325.8 20583.3 13329.7 20583.5 13333.6 20581.3 13341.8 20580 13350.1 20578.1 13353.6 20577.1 13357.3 20568.6 13371.7 18988.9 15463.7 18987.4 15465.1 18986.3 15466.9 18978.5 15473.6 18971.1 15480.7 18969.2 15481.5 18967.7 15482.9 18958.1 15486.7 18948.8 15491.1 18946.8 15491.3 18944.8 15492.1 18928.2 15493.9 8940.3 15493.9 8928.9 15492 8917.2 15490.3 8916.7 15490.1 8916.1 15490 8905.8 15484.5 8895.3 15479.2 8894.9 15478.7 8894.3 15478.4 8886.3 15470 8878.1 15461.6 8877.7 15461 8877.4 15460.6 8876.6 15458.9 8870 15446.9 8696.7 15028.6 8339.4 14671.3 7872.6 14477.9 7367.4 14477.9 6900.6 14671.3 6543.3 15028.6 6349.9 15495.4 6349.9 17524.6 6543.3 17991.4 6900.6 18348.7 7367.4 18542.1 7872.6 18542.1 8339.4 18348.7 8696.7 17991.4 8870 17573.1 8876.2 17563 8882.2 17553.1 8882.6 17552.7 8883 17552.2 8891.9 17544.7 8900.9 17537.1 8901.4 17536.9 8901.9 17536.5 8912.7 17532.3 8923.7 17527.9 8924.4 17527.8 8924.9 17527.7 8926.7 17527.6 8940.3 17526.1 19332.5 17526.1 19333.8 17526.3 19335.1 17526.1 19351.7 17528.5 19412.3 17544.3 19537.4 17526.8 19540.6 17526.9 19547.9 17526.1 19674.2 17526.1 19732 17502.1 19733.2 17501.8 19734.4 17501.2 19750.6 17497 19812.6 17488.4 19921.5 17424.4 19924.5 17423.2 19930.9 17419.7 20047.6 17371.4 20091.9 17327.1 20092.9 17326.4 20093.7 17325.3 20107.1 17315.3 20161.1 17283.6 20237.2 17182.8 20238.3 17181.8 20238.8 17180.9 20240.4 17179.5 20244.1 17174.8 20333.4 17085.6 20357.4 17027.7 20358.1 17026.6 20358.4 17025.4 20367 17011 22365.2 14364.7 22367.5 14362.5 22372.1 14356.7 22461.4 14267.5 22485.3 14209.6 22486 14208.5 22486.4 14207.3 22494.9 14192.9 22532.7 14142.9 22564.4 14020.7 22565.7 14017.7 22567.7 14010.7 22616.1 13894 22616.1 13831.4 22616.3 13830.1 22616.1 13828.9 22618.5 13812.3 22634.3 13751.6 22616.8 13626.6 22616.9 13623.4 22616.1 13616.1 22616.1 12462.4 22617.5 12453.4 22618.3 12444.3 22619.5 12441.3 22620 12438.1 22624.3 12430.1 22627.9 12421.7 22630.5 12418.5 22631.6 12416.4 22633.9 12414.2 22638.4 12408.6 22816.2 12230.8 22817.8 12229.6 22819 12228.1 22827.8 12222.4 22836.1 12216.4 22838 12215.8 22839.7 12214.8 22849.8 12212.2 22859.7 12209.2 22861.6 12209.2 22863.6 12208.7 22873.9 12209.6 22884.2 12209.8 22886.1 12210.5 22888.1 12210.7 22897.6 12214.7 22907.3 12218.3 22908.9 12219.5 22910.7 12220.3 22923.8 12230.8 26540.4 15847.4 26913.9 16002.1 30200.6 16002.1 30202.6 16002.4 30204.5 16002.2 30214.7 16004.4 30224.9 16006 30226.6 16007 30228.6 16007.4 30237.5 16012.7 30246.6 16017.6 30248 16019 30249.7 16020 30256.4 16027.9 30263.6 16035.4 30264.4 16037.2 30265.7 16038.7 30269.6 16048.3 30273.9 16057.7 30274.1 16059.7 30274.9 16061.5 30276.7 16078.2 30276.7 17355.5 30574.3 17653.1 32925.7 17653.1 33223.3 17355.5 33223.3 12616.5 32925.7 12318.9 30574.3 12318.9 30276.7 12616.5 30276.7 13893.8 30276.4 13895.8 30276.6 13897.7 30274.4 13907.9 30272.8 13918.1 30271.8 13919.8 30271.4 13921.8 30266.1 13930.7 30261.2 13939.8 30259.8 13941.2 30258.8 13942.9 30250.9 13949.6 30243.4 13956.8 30241.6 13957.6 30240.1 13958.9 30230.5 13962.8 30221.1 13967.1 30219.1 13967.3 30217.3 13968.1 30200.6 13969.9 27568.4 13969.9 27559.4 13968.5 27550.3 13967.7 27547.3 13966.5 27544.1 13966 27536.1 13961.7 27527.7 13958.1 27524.5 13955.5 27522.4 13954.4 27520.2 13952.1 27514.6 13947.6 24250.4 10683.4 24245.1 10676 24239.1 10669.1 24237.9 10666.1 24236 10663.5 24233.3 10654.8 24229.9 10646.3 24229.5 10642.2 24228.8 10639.9 24228.9 10636.7 24228.1 10629.6 24228.1 9579.5 23930.5 9281.9 21809.5 9281.9"/></g></mask><mask id="jTUWdYlW0Ovmh1Spq-pA_clear-2" fill="#000" stroke="#000"><g><rect x="3386" y="254.1" width="59097.9" height="43009.8" fill="#fff"/><path d="M 21809.5 18281.9 21809.5 18281.9 21511.9 18579.5 21511.9 20900.5 21831.6 21220.2 21836.9 21227.5 21842.9 21234.5 21844.1 21237.5 21846 21240.1 21848.7 21248.8 21852.1 21257.3 21852.5 21261.4 21853.2 21263.6 21853.1 21266.9 21853.9 21274 21853.9 22842.1 22008.6 23215.6 22654.4 23861.4 23027.9 24016.1 23073.3 24016.1 23082.4 24017.5 23091.4 24018.3 23094.4 24019.5 23097.6 24020 23105.7 24024.3 23114.1 24027.9 23117.3 24030.5 23119.4 24031.6 23121.6 24033.9 23127.2 24038.4 24514.3 25425.5 26513.3 25425.5 27926.9 24011.9 27926.9 22012.9 26513.3 20599.3 24514.3 20599.3 24358 20755.6 24352.2 20759.8 24347 20764.7 24342.3 20766.9 24338.1 20769.9 24331.2 20772 24324.7 20775.1 24319.5 20775.6 24314.5 20777.2 24307.4 20777 24300.3 20777.8 24295.2 20776.7 24290 20776.5 24283.2 20774.1 24276.2 20772.5 24271.7 20769.9 24266.9 20768.1 24261.3 20763.6 24255.1 20759.9 24251.7 20756 24247.7 20752.7 24243.8 20746.7 24239.1 20741.2 24237.2 20736.4 24234.4 20732 24232.6 20725.1 24229.9 20718.4 24229.1 20711.3 24228.3 20708.2 24228.5 20705.8 24228.1 20701.7 24228.1 18579.5 23930.5 18281.9 21809.5 18281.9"/></g></mask><mask id="jTUWdYlW0Ovmh1Spq-pA_clear-3" fill="#000" stroke="#000"><g><rect x="3386" y="254.1" width="59097.9" height="43009.8" fill="#fff"/><path d="M 16709.5 18281.9 16709.5 18281.9 16411.9 18579.5 16411.9 20523.2 16411.6 20525.2 16411.8 20527.1 16409.6 20537.3 16408 20547.5 16407 20549.2 16406.6 20551.2 16401.3 20560.1 16396.4 20569.2 16395 20570.6 16394 20572.3 16386.1 20579 16378.6 20586.2 16376.8 20587 16375.3 20588.3 16365.7 20592.2 16356.3 20596.5 16354.3 20596.7 16352.5 20597.5 16335.8 20599.3 14506.7 20599.3 13093.1 22012.9 13093.1 24011.9 14506.7 25425.5 16505.7 25425.5 17919.3 24011.9 17919.3 23337.8 17920.7 23328.8 17921.5 23319.7 17922.7 23316.7 17923.2 23313.5 17927.5 23305.5 17931.1 23297.1 17933.7 23293.9 17934.8 23291.8 17937.1 23289.6 17941.6 23284 18631.4 22594.2 18786.1 22220.7 18786.1 21274 18787.5 21265 18788.3 21255.9 18789.5 21252.9 18790 21249.7 18794.3 21241.6 18797.9 21233.3 18800.5 21230 18801.6 21228 18803.9 21225.8 18808.4 21220.2 19128.1 20900.5 19128.1 18579.5 18830.5 18281.9 16709.5 18281.9"/></g></mask><mask id="jTUWdYlW0Ovmh1Spq-pA_clear-4" fill="#000" stroke="#000"><g><rect x="3386" y="254.1" width="59097.9" height="43009.8" fill="#fff"/><path d="M 9502.9 20599.3 9502.9 20599.3 8089.3 22012.9 8089.3 24011.9 9502.9 25425.5 11501.9 25425.5 12915.5 24011.9 12915.5 22012.9 11501.9 20599.3 9502.9 20599.3"/></g></mask><mask id="jTUWdYlW0Ovmh1Spq-pA_clear-5" fill="#000" stroke="#000"><g><rect x="3386" y="254.1" width="59097.9" height="43009.8" fill="#fff"/><path d="M 29518.1 20599.3 29518.1 20599.3 28104.5 22012.9 28104.5 24011.9 29518.1 25425.5 31517.1 25425.5 32930.7 24011.9 32930.7 22012.9 31517.1 20599.3 29518.1 20599.3"/></g></mask><mask id="jTUWdYlW0Ovmh1Spq-pA_clear-6" fill="#000" stroke="#000"><g><rect x="3386" y="254.1" width="59097.9" height="43009.8" fill="#fff"/><path d="M 12601.4 10995.9 12601.4 10995.9 11864.8 11301 11301 11864.8 10995.9 12601.4 10995.9 13398.6 11301 14135.2 11864.8 14699 12601.4 15004.1 13398.6 15004.1 14135.2 14699 14699 14135.2 15004.1 13398.6 15004.1 12601.4 14699 11864.8 14135.2 11301 13398.6 10995.9 12601.4 10995.9"/></g></mask><mask id="jTUWdYlW0Ovmh1Spq-pA_clear-7" fill="#000" stroke="#000"><g><rect x="3386" y="254.1" width="59097.9" height="43009.8" fill="#fff"/><path d="M 31902.3 5486.3 31902.3 5486.3 31902.3 7747.1 32748.6 7747.1 32813.3 7729.8 32871.2 7696.3 32918.5 7649 32952 7591.1 32969.3 7526.4 32969.3 5486.3 31902.3 5486.3"/></g></mask><mask id="jTUWdYlW0Ovmh1Spq-pA_clear-8" fill="#000" stroke="#000"><g><rect x="3386" y="254.1" width="59097.9" height="43009.8" fill="#fff"/><path d="M 31902.3 5181.7 31902.3 5181.7 32969.3 5181.7 32969.3 3141.6 32952 3076.9 32918.5 3019 32871.2 2971.7 32813.3 2938.2 32748.6 2920.9 31902.3 2920.9 31902.3 5181.7"/></g></mask><mask id="jTUWdYlW0Ovmh1Spq-pA_clear-9" fill="#000" stroke="#000"><g><rect x="3386" y="254.1" width="59097.9" height="43009.8" fill="#fff"/><path d="M 30530.7 5486.3 30530.7 5486.3 30530.7 7526.4 30548 7591.1 30581.5 7649 30628.8 7696.3 30686.7 7729.8 30751.4 7747.1 31597.7 7747.1 31597.7 5486.3 30530.7 5486.3"/></g></mask><mask id="jTUWdYlW0Ovmh1Spq-pA_clear-10" fill="#000" stroke="#000"><g><rect x="3386" y="254.1" width="59097.9" height="43009.8" fill="#fff"/><path d="M 30751.4 2920.9 30751.4 2920.9 30686.7 2938.2 30628.8 2971.7 30581.5 3019 30548 3076.9 30530.7 3141.6 30530.7 5181.7 31597.7 5181.7 31597.7 2920.9 30751.4 2920.9"/></g></mask><mask id="jTUWdYlW0Ovmh1Spq-pA_clear-11" fill="#000" stroke="#000"><g><rect x="3386" y="254.1" width="59097.9" height="43009.8" fill="#fff"/><path d="M 6502.3 12141.3 6502.3 12141.3 6502.3 13343.1 8183.4 13343.1 8248.1 13325.8 8306 13292.3 8353.3 13245 8386.8 13187.1 8404.1 13122.4 8404.1 12141.3 6502.3 12141.3"/></g></mask><mask id="jTUWdYlW0Ovmh1Spq-pA_clear-12" fill="#000" stroke="#000"><g><rect x="3386" y="254.1" width="59097.9" height="43009.8" fill="#fff"/><path d="M 4295.9 12141.3 4295.9 12141.3 4295.9 13122.4 4313.2 13187.1 4346.7 13245 4394 13292.3 4451.9 13325.8 4516.6 13343.1 6197.7 13343.1 6197.7 12141.3 4295.9 12141.3"/></g></mask><mask id="jTUWdYlW0Ovmh1Spq-pA_clear-13" fill="#000" stroke="#000"><g><rect x="3386" y="254.1" width="59097.9" height="43009.8" fill="#fff"/><path d="M 6502.3 10634.9 6502.3 10634.9 6502.3 11836.7 8404.1 11836.7 8404.1 10855.6 8386.8 10790.9 8353.3 10733 8306 10685.7 8248.1 10652.2 8183.4 10634.9 6502.3 10634.9"/></g></mask><mask id="jTUWdYlW0Ovmh1Spq-pA_clear-14" fill="#000" stroke="#000"><g><rect x="3386" y="254.1" width="59097.9" height="43009.8" fill="#fff"/><path d="M 4516.6 10634.9 4516.6 10634.9 4451.9 10652.2 4394 10685.7 4346.7 10733 4313.2 10790.9 4295.9 10855.6 4295.9 11836.7 6197.7 11836.7 6197.7 10634.9 4516.6 10634.9"/></g></mask><mask id="jTUWdYlW0Ovmh1Spq-pA_clear-15" fill="#000" stroke="#000"><g><rect x="3386" y="254.1" width="59097.9" height="43009.8" fill="#fff"/><path d="M 5232.3 16662.3 5232.3 16662.3 5232.3 18276.6 5317.9 18263.1 5470 18213.6 5612.5 18141 5741.9 18047 5855 17933.9 5949 17804.5 6021.6 17662 6071.1 17509.9 6096.1 17352 6096.1 16662.3 5232.3 16662.3"/></g></mask><mask id="jTUWdYlW0Ovmh1Spq-pA_clear-16" fill="#000" stroke="#000"><g><rect x="3386" y="254.1" width="59097.9" height="43009.8" fill="#fff"/><path d="M 52222.3 6502.3 52222.3 6502.3 52222.3 8116.6 52307.9 8103.1 52460 8053.6 52602.5 7981 52731.9 7887 52845 7773.9 52939 7644.5 53011.6 7502 53061.1 7349.9 53086.1 7192 53086.1 6502.3 52222.3 6502.3"/></g></mask><mask id="jTUWdYlW0Ovmh1Spq-pA_clear-17" fill="#000" stroke="#000"><g><rect x="3386" y="254.1" width="59097.9" height="43009.8" fill="#fff"/><path d="M 42062.3 6502.3 42062.3 6502.3 42062.3 7366.1 42752 7366.1 42909.9 7341.1 43062 7291.6 43204.5 7219 43333.9 7125 43447 7011.9 43541 6882.5 43613.6 6740 43663.1 6587.9 43676.6 6502.3 42062.3 6502.3"/></g></mask><mask id="jTUWdYlW0Ovmh1Spq-pA_clear-18" fill="#000" stroke="#000"><g><rect x="3386" y="254.1" width="59097.9" height="43009.8" fill="#fff"/><path d="M 40143.4 6502.3 40143.4 6502.3 40156.9 6587.9 40206.4 6740 40279 6882.5 40373 7011.9 40486.1 7125 40615.5 7219 40758 7291.6 40910.1 7341.1 41068 7366.1 41757.7 7366.1 41757.7 6502.3 40143.4 6502.3"/></g></mask><mask id="jTUWdYlW0Ovmh1Spq-pA_clear-19" fill="#000" stroke="#000"><g><rect x="3386" y="254.1" width="59097.9" height="43009.8" fill="#fff"/><path d="M 5232.3 16357.7 5232.3 16357.7 6096.1 16357.7 6096.1 15668 6071.1 15510.1 6021.6 15358 5949 15215.5 5855 15086.1 5741.9 14973 5612.5 14879 5470 14806.4 5317.9 14756.9 5232.3 14743.4 5232.3 16357.7"/></g></mask><mask id="jTUWdYlW0Ovmh1Spq-pA_clear-20" fill="#000" stroke="#000"><g><rect x="3386" y="254.1" width="59097.9" height="43009.8" fill="#fff"/><path d="M 52222.3 6197.7 52222.3 6197.7 53086.1 6197.7 53086.1 5508 53061.1 5350.1 53011.6 5198 52939 5055.5 52845 4926.1 52731.9 4813 52602.5 4719 52460 4646.4 52307.9 4596.9 52222.3 4583.4 52222.3 6197.7"/></g></mask><mask id="jTUWdYlW0Ovmh1Spq-pA_clear-21" fill="#000" stroke="#000"><g><rect x="3386" y="254.1" width="59097.9" height="43009.8" fill="#fff"/><path d="M 4063.9 16662.3 4063.9 16662.3 4063.9 17352 4088.9 17509.9 4138.4 17662 4211 17804.5 4305 17933.9 4418.1 18047 4547.5 18141 4690 18213.6 4842.1 18263.1 4927.7 18276.6 4927.7 16662.3 4063.9 16662.3"/></g></mask><mask id="jTUWdYlW0Ovmh1Spq-pA_clear-22" fill="#000" stroke="#000"><g><rect x="3386" y="254.1" width="59097.9" height="43009.8" fill="#fff"/><path d="M 51053.9 6502.3 51053.9 6502.3 51053.9 7192 51078.9 7349.9 51128.4 7502 51201 7644.5 51295 7773.9 51408.1 7887 51537.5 7981 51680 8053.6 51832.1 8103.1 51917.7 8116.6 51917.7 6502.3 51053.9 6502.3"/></g></mask><mask id="jTUWdYlW0Ovmh1Spq-pA_clear-23" fill="#000" stroke="#000"><g><rect x="3386" y="254.1" width="59097.9" height="43009.8" fill="#fff"/><path d="M 42062.3 5333.9 42062.3 5333.9 42062.3 6197.7 43676.6 6197.7 43663.1 6112.1 43613.6 5960 43541 5817.5 43447 5688.1 43333.9 5575 43204.5 5481 43062 5408.4 42909.9 5358.9 42752 5333.9 42062.3 5333.9"/></g></mask><mask id="jTUWdYlW0Ovmh1Spq-pA_clear-24" fill="#000" stroke="#000"><g><rect x="3386" y="254.1" width="59097.9" height="43009.8" fill="#fff"/><path d="M 4842.1 14756.9 4842.1 14756.9 4690 14806.4 4547.5 14879 4418.1 14973 4305 15086.1 4211 15215.5 4138.4 15358 4088.9 15510.1 4063.9 15668 4063.9 16357.7 4927.7 16357.7 4927.7 14743.4 4842.1 14756.9"/></g></mask><mask id="jTUWdYlW0Ovmh1Spq-pA_clear-25" fill="#000" stroke="#000"><g><rect x="3386" y="254.1" width="59097.9" height="43009.8" fill="#fff"/><path d="M 51832.1 4596.9 51832.1 4596.9 51680 4646.4 51537.5 4719 51408.1 4813 51295 4926.1 51201 5055.5 51128.4 5198 51078.9 5350.1 51053.9 5508 51053.9 6197.7 51917.7 6197.7 51917.7 4583.4 51832.1 4596.9"/></g></mask><mask id="jTUWdYlW0Ovmh1Spq-pA_clear-26" fill="#000" stroke="#000"><g><rect x="3386" y="254.1" width="59097.9" height="43009.8" fill="#fff"/><path d="M 41068 5333.9 41068 5333.9 40910.1 5358.9 40758 5408.4 40615.5 5481 40486.1 5575 40373 5688.1 40279 5817.5 40206.4 5960 40156.9 6112.1 40143.4 6197.7 41757.7 6197.7 41757.7 5333.9 41068 5333.9"/></g></mask><mask id="jTUWdYlW0Ovmh1Spq-pA_clear-27" fill="#000" stroke="#000"><g><rect x="3386" y="254.1" width="59097.9" height="43009.8" fill="#fff"/><path d="M 17922.3 10892.3 17922.3 10892.3 17922.3 11944.1 18653.4 11944.1 18718.1 11926.8 18776 11893.3 18823.3 11846 18856.8 11788.1 18874.1 11723.4 18874.1 10892.3 17922.3 10892.3"/></g></mask><mask id="jTUWdYlW0Ovmh1Spq-pA_clear-28" fill="#000" stroke="#000"><g><rect x="3386" y="254.1" width="59097.9" height="43009.8" fill="#fff"/><path d="M 16665.9 10892.3 16665.9 10892.3 16665.9 11723.4 16683.2 11788.1 16716.7 11846 16764 11893.3 16821.9 11926.8 16886.6 11944.1 17617.7 11944.1 17617.7 10892.3 16665.9 10892.3"/></g></mask><mask id="jTUWdYlW0Ovmh1Spq-pA_clear-29" fill="#000" stroke="#000"><g><rect x="3386" y="254.1" width="59097.9" height="43009.8" fill="#fff"/><path d="M 17922.3 9535.9 17922.3 9535.9 17922.3 10587.7 18874.1 10587.7 18874.1 9756.6 18856.8 9691.9 18823.3 9634 18776 9586.7 18718.1 9553.2 18653.4 9535.9 17922.3 9535.9"/></g></mask><mask id="jTUWdYlW0Ovmh1Spq-pA_clear-30" fill="#000" stroke="#000"><g><rect x="3386" y="254.1" width="59097.9" height="43009.8" fill="#fff"/><path d="M 16886.6 9535.9 16886.6 9535.9 16821.9 9553.2 16764 9586.7 16716.7 9634 16683.2 9691.9 16665.9 9756.6 16665.9 10587.7 17617.7 10587.7 17617.7 9535.9 16886.6 9535.9"/></g></mask><mask id="jTUWdYlW0Ovmh1Spq-pA_clear-31" fill="#000" stroke="#000"><g><rect x="3386" y="254.1" width="59097.9" height="43009.8" fill="#fff"/><path d="M 6502.3 5943.3 6502.3 5943.3 6502.3 7162.6 6992.9 7162.6 7057.6 7145.3 7115.5 7111.8 7162.8 7064.5 7196.3 7006.6 7213.6 6941.9 7213.6 5943.3 6502.3 5943.3"/></g></mask><mask id="jTUWdYlW0Ovmh1Spq-pA_clear-32" fill="#000" stroke="#000"><g><rect x="3386" y="254.1" width="59097.9" height="43009.8" fill="#fff"/><path d="M 6502.3 4419.4 6502.3 4419.4 6502.3 5638.7 7213.6 5638.7 7213.6 4640.1 7196.3 4575.4 7162.8 4517.5 7115.5 4470.2 7057.6 4436.7 6992.9 4419.4 6502.3 4419.4"/></g></mask><mask id="jTUWdYlW0Ovmh1Spq-pA_clear-33" fill="#000" stroke="#000"><g><rect x="3386" y="254.1" width="59097.9" height="43009.8" fill="#fff"/><path d="M 5486.4 5943.3 5486.4 5943.3 5486.4 6941.9 5503.7 7006.6 5537.2 7064.5 5584.5 7111.8 5642.4 7145.3 5707.1 7162.6 6197.7 7162.6 6197.7 5943.3 5486.4 5943.3"/></g></mask><mask id="jTUWdYlW0Ovmh1Spq-pA_clear-34" fill="#000" stroke="#000"><g><rect x="3386" y="254.1" width="59097.9" height="43009.8" fill="#fff"/><path d="M 5707.1 4419.4 5707.1 4419.4 5642.4 4436.7 5584.5 4470.2 5537.2 4517.5 5503.7 4575.4 5486.4 4640.1 5486.4 5638.7 6197.7 5638.7 6197.7 4419.4 5707.1 4419.4"/></g></mask><mask id="jTUWdYlW0Ovmh1Spq-pA_clear-35" fill="#000" stroke="#000"><g><rect x="3386" y="254.1" width="59097.9" height="43009.8" fill="#fff"/><path d="M 59255.9 42232.3 59255.9 42232.3 59255.9 42813.4 59273.2 42878.1 59306.7 42936 59354 42983.3 59411.9 43016.8 59476.6 43034.1 59857.7 43034.1 59857.7 42232.3 59255.9 42232.3"/></g></mask><mask id="jTUWdYlW0Ovmh1Spq-pA_clear-36" fill="#000" stroke="#000"><g><rect x="3386" y="254.1" width="59097.9" height="43009.8" fill="#fff"/><path d="M 59476.6 41125.9 59476.6 41125.9 59411.9 41143.2 59354 41176.7 59306.7 41224 59273.2 41281.9 59255.9 41346.6 59255.9 41927.7 59857.7 41927.7 59857.7 41125.9 59476.6 41125.9"/></g></mask><mask id="jTUWdYlW0Ovmh1Spq-pA_clear-37" fill="#000" stroke="#000"><g><rect x="3386" y="254.1" width="59097.9" height="43009.8" fill="#fff"/><path d="M 52286.3 31899.7 52286.3 31899.7 52286.3 32303.6 53154.3 32303.6 53218.9 32286.3 53276.9 32252.9 53324.2 32205.6 53357.6 32147.6 53374.9 32083 53374.9 31899.7 52286.3 31899.7"/></g></mask><mask id="jTUWdYlW0Ovmh1Spq-pA_clear-38" fill="#000" stroke="#000"><g><rect x="3386" y="254.1" width="59097.9" height="43009.8" fill="#fff"/><path d="M 50898.3 31899.7 50898.3 31899.7 50898.3 32083 50915.6 32147.6 50949 32205.6 50996.3 32252.9 51054.3 32286.3 51118.9 32303.6 51986.9 32303.6 51986.9 31899.7 50898.3 31899.7"/></g></mask><mask id="jTUWdYlW0Ovmh1Spq-pA_clear-39" fill="#000" stroke="#000"><g><rect x="3386" y="254.1" width="59097.9" height="43009.8" fill="#fff"/><path d="M 52069.9 6349.9 52069.9 6349.9 52069.9 6350.1 52070.1 6350.1 52070.1 6349.9 52069.9 6349.9"/></g></mask><mask id="jTUWdYlW0Ovmh1Spq-pA_clear-40" fill="#000" stroke="#000"><g><rect x="3386" y="254.1" width="59097.9" height="43009.8" fill="#fff"/><path d="M 41909.9 6349.9 41909.9 6349.9 41909.9 6350.1 41910.1 6350.1 41910.1 6349.9 41909.9 6349.9"/></g></mask><mask id="jTUWdYlW0Ovmh1Spq-pA_clear-41" fill="#000" stroke="#000"><g><rect x="3386" y="254.1" width="59097.9" height="43009.8" fill="#fff"/><path d="M 5079.9 16509.9 5079.9 16509.9 5079.9 16510.1 5080.1 16510.1 5080.1 16509.9 5079.9 16509.9"/></g></mask><mask id="jTUWdYlW0Ovmh1Spq-pA_clear-42" fill="#000" stroke="#000"><g><rect x="3386" y="254.1" width="59097.9" height="43009.8" fill="#fff"/><path d="M 6349.9 11988.9 6349.9 11988.9 6349.9 11989.1 6350.1 11989.1 6350.1 11988.9 6349.9 11988.9"/></g></mask><mask id="jTUWdYlW0Ovmh1Spq-pA_clear-43" fill="#000" stroke="#000"><g><rect x="3386" y="254.1" width="59097.9" height="43009.8" fill="#fff"/><path d="M 31749.9 5333.9 31749.9 5333.9 31749.9 5334.1 31750.1 5334.1 31750.1 5333.9 31749.9 5333.9"/></g></mask><mask id="jTUWdYlW0Ovmh1Spq-pA_clear-44" fill="#000" stroke="#000"><g><rect x="3386" y="254.1" width="59097.9" height="43009.8" fill="#fff"/><path d="M 17769.9 10739.9 17769.9 10739.9 17769.9 10740.1 17770.1 10740.1 17770.1 10739.9 17769.9 10739.9"/></g></mask><mask id="jTUWdYlW0Ovmh1Spq-pA_clear-45" fill="#000" stroke="#000"><g><rect x="3386" y="254.1" width="59097.9" height="43009.8" fill="#fff"/><path d="M 6349.9 5790.9 6349.9 5790.9 6349.9 5791.1 6350.1 5791.1 6350.1 5790.9 6349.9 5790.9"/></g></mask><rect x="-750" y="-650" width="1500" height="1300" id="jTUWdYlW0Ovmh1Spq-pA_pad-10"/><polygon points="-273.54614,660.39879 -660.39879,273.54614 -660.39879,-273.54614 -273.54614,-660.39879 273.54614,-660.39879 660.39879,-273.54614 660.39879,273.54614 273.54614,660.39879" id="jTUWdYlW0Ovmh1Spq-pA_pad-11"/><rect x="-500" y="-700" width="1000" height="1400" id="jTUWdYlW0Ovmh1Spq-pA_pad-12"/><rect x="-700" y="-900" width="1400" height="1800" id="jTUWdYlW0Ovmh1Spq-pA_pad-13"/><rect x="-984.25" y="-299.55" width="1968.5" height="599.1" id="jTUWdYlW0Ovmh1Spq-pA_pad-14"/><rect x="-965.2" y="-2159" width="1930.4" height="4318" id="jTUWdYlW0Ovmh1Spq-pA_pad-15"/><rect x="-850" y="-950" width="1700" height="1900" id="jTUWdYlW0Ovmh1Spq-pA_pad-16"/><circle cx="0" cy="0" r="975" id="jTUWdYlW0Ovmh1Spq-pA_pad-18"/><circle cx="0" cy="0" r="1000" id="jTUWdYlW0Ovmh1Spq-pA_pad-19"/><rect x="-609.5" y="-1117.5" width="1219" height="2235" id="jTUWdYlW0Ovmh1Spq-pA_pad-20"/><rect x="-1800" y="-1100" width="3600" height="2200" id="jTUWdYlW0Ovmh1Spq-pA_pad-21"/><polygon points="789.07525,-1904.99617 1904.99617,-789.07525 1904.99617,789.07525 789.07525,1904.99617 -789.07525,1904.99617 -1904.99617,789.07525 -1904.99617,-789.07525 -789.07525,-1904.99617" id="jTUWdYlW0Ovmh1Spq-pA_pad-22"/></defs><g transform="translate(0,62994.6) scale(1,-1)" fill="currentColor" stroke="currentColor"><g mask="url(#jTUWdYlW0Ovmh1Spq-pA_clear-45)"><g mask="url(#jTUWdYlW0Ovmh1Spq-pA_clear-44)"><g mask="url(#jTUWdYlW0Ovmh1Spq-pA_clear-43)"><g mask="url(#jTUWdYlW0Ovmh1Spq-pA_clear-42)"><g mask="url(#jTUWdYlW0Ovmh1Spq-pA_clear-41)"><g mask="url(#jTUWdYlW0Ovmh1Spq-pA_clear-40)"><g mask="url(#jTUWdYlW0Ovmh1Spq-pA_clear-39)"><g mask="url(#jTUWdYlW0Ovmh1Spq-pA_clear-38)"><g mask="url(#jTUWdYlW0Ovmh1Spq-pA_clear-37)"><g mask="url(#jTUWdYlW0Ovmh1Spq-pA_clear-36)"><g mask="url(#jTUWdYlW0Ovmh1Spq-pA_clear-35)"><g mask="url(#jTUWdYlW0Ovmh1Spq-pA_clear-34)"><g mask="url(#jTUWdYlW0Ovmh1Spq-pA_clear-33)"><g mask="url(#jTUWdYlW0Ovmh1Spq-pA_clear-32)"><g mask="url(#jTUWdYlW0Ovmh1Spq-pA_clear-31)"><g mask="url(#jTUWdYlW0Ovmh1Spq-pA_clear-30)"><g mask="url(#jTUWdYlW0Ovmh1Spq-pA_clear-29)"><g mask="url(#jTUWdYlW0Ovmh1Spq-pA_clear-28)"><g mask="url(#jTUWdYlW0Ovmh1Spq-pA_clear-27)"><g mask="url(#jTUWdYlW0Ovmh1Spq-pA_clear-26)"><g mask="url(#jTUWdYlW0Ovmh1Spq-pA_clear-25)"><g mask="url(#jTUWdYlW0Ovmh1Spq-pA_clear-24)"><g mask="url(#jTUWdYlW0Ovmh1Spq-pA_clear-23)"><g mask="url(#jTUWdYlW0Ovmh1Spq-pA_clear-22)"><g mask="url(#jTUWdYlW0Ovmh1Spq-pA_clear-21)"><g mask="url(#jTUWdYlW0Ovmh1Spq-pA_clear-20)"><g mask="url(#jTUWdYlW0Ovmh1Spq-pA_clear-19)"><g mask="url(#jTUWdYlW0Ovmh1Spq-pA_clear-18)"><g mask="url(#jTUWdYlW0Ovmh1Spq-pA_clear-17)"><g mask="url(#jTUWdYlW0Ovmh1Spq-pA_clear-16)"><g mask="url(#jTUWdYlW0Ovmh1Spq-pA_clear-15)"><g mask="url(#jTUWdYlW0Ovmh1Spq-pA_clear-14)"><g mask="url(#jTUWdYlW0Ovmh1Spq-pA_clear-13)"><g mask="url(#jTUWdYlW0Ovmh1Spq-pA_clear-12)"><g mask="url(#jTUWdYlW0Ovmh1Spq-pA_clear-11)"><g mask="url(#jTUWdYlW0Ovmh1Spq-pA_clear-10)"><g mask="url(#jTUWdYlW0Ovmh1Spq-pA_clear-9)"><g mask="url(#jTUWdYlW0Ovmh1Spq-pA_clear-8)"><g mask="url(#jTUWdYlW0Ovmh1Spq-pA_clear-7)"><g mask="url(#jTUWdYlW0Ovmh1Spq-pA_clear-6)"><g mask="url(#jTUWdYlW0Ovmh1Spq-pA_clear-5)"><g mask="url(#jTUWdYlW0Ovmh1Spq-pA_clear-4)"><g mask="url(#jTUWdYlW0Ovmh1Spq-pA_clear-3)"><g mask="url(#jTUWdYlW0Ovmh1Spq-pA_clear-2)"><g mask="url(#jTUWdYlW0Ovmh1Spq-pA_clear-1)"><path d="M 12606.4 255.6 12606.4 255.6 12616.1 256.6 12618.5 257.6 12621.1 258 12629.7 262.6 12638.6 266.6 12640.5 268.3 12642.8 269.6 12649.5 276.6 12656.7 283.2 12658 285.5 12659.8 287.4 12663.9 296.2 12668.6 304.8 12669 307.3 12670.1 309.7 12671.2 319.4 12673 329 12672.6 331.6 12672.9 334.1 12670.8 343.7 12669.4 353.3 12668.2 355.6 12667.6 358.2 12662.6 366.5 12658.2 375.2 12656.4 377.1 12655 379.3 12647.6 385.6 12640.7 392.4 12637.8 394 12636.3 395.3 12633.3 396.5 12626 400.5 12606.4 408.6 8871.9 4143.1 8864.5 4148.4 8857.6 4154.4 8854.6 4155.6 8851.9 4157.5 8843.3 4160.2 8834.8 4163.6 8830.7 4164 8828.4 4164.7 8825.2 4164.6 8818.1 4165.4 7841 4165.4 7543.4 4463 7543.4 7119 7841 7416.6 9481 7416.6 9778.6 7119 9778.6 6141.9 9780 6132.9 9780.8 6123.8 9782 6120.8 9782.5 6117.6 9786.8 6109.6 9790.4 6101.2 9793 6098 9794.1 6095.9 9796.4 6093.7 9800.9 6088.1 13580.6 2308.4 13588 2303.1 13594.9 2297.1 13597.9 2295.9 13600.6 2294 13609.2 2291.3 13617.7 2287.9 13621.8 2287.5 13624.1 2286.8 13627.3 2286.9 13634.4 2286.1 43350.9 2286.1 43355.4 2286.8 43360 2286.6 43367.5 2288.8 43375.2 2290 43379.2 2292.2 43383.6 2293.5 43390 2297.9 43396.9 2301.6 43400.1 2304.9 43403.8 2307.5 43408.5 2313.8 43413.8 2319.4 43415.8 2323.6 43418.5 2327.2 43420.9 2334.6 43424.2 2341.7 43424.7 2346.3 43426.1 2350.6 43426 2358.4 43426.9 2366.1 43425.9 2370.6 43425.9 2375.2 43422.1 2388.4 43421.7 2390.2 43421.4 2390.6 43421.2 2391.3 43251.9 2800 43251.9 3400 43481.5 3954.3 43905.7 4378.5 44460 4608.1 45060 4608.1 45614.3 4378.5 46038.5 3954.3 46268.1 3400 46268.1 2800 46098.8 2391.3 46097.7 2386.9 46095.8 2382.7 46094.9 2375 46093.2 2367.4 46093.6 2362.8 46093.1 2358.3 46094.7 2350.6 46095.5 2342.9 46097.3 2338.7 46098.3 2334.2 46102.3 2327.5 46105.5 2320.4 46108.6 2317 46110.9 2313.1 46116.8 2308 46122.1 2302.3 46126.1 2300.1 46129.6 2297.1 46136.9 2294.2 46143.7 2290.5 46148.2 2289.6 46152.4 2287.9 46166 2286.4 46167.9 2286.1 46168.4 2286.2 46169.1 2286.1 51617.6 2286.1 51626.6 2287.5 51635.7 2288.3 51638.7 2289.5 51641.9 2290 51649.9 2294.3 51658.3 2297.9 51661.5 2300.5 51663.6 2301.6 51665.8 2303.9 51671.4 2308.4 53571.6 4208.6 53576.9 4216 53582.9 4222.9 53584.1 4225.9 53586 4228.5 53588.7 4237.2 53592.1 4245.7 53592.5 4249.8 53593.2 4252.1 53593.1 4255.3 53593.9 4262.4 53593.9 4776.4 53592.5 4785.4 53591.7 4794.5 53590.5 4797.5 53590 4800.7 53585.7 4808.7 53582.1 4817.1 53579.5 4820.3 53578.4 4822.4 53576.1 4824.6 53571.6 4830.2 53533.3 4868.6 53339.9 5335.4 53339.9 7364.6 53533.3 7831.4 53890.6 8188.7 54357.4 8382.1 54862.6 8382.1 55329.4 8188.7 55686.7 7831.4 55809.7 7534.6 55813.5 7528.5 55816.4 7522 55819.9 7518.1 55822.6 7513.7 55828.2 7509.1 55833 7503.8 55837.6 7501.3 55841.6 7498 55848.3 7495.4 55854.6 7492 55859.7 7491.1 55864.5 7489.2 55871.7 7488.9 55878.8 7487.6 55883.9 7488.4 55889.1 7488.2 55896 7490.2 55903.1 7491.2 55907.7 7493.6 55912.7 7495 55918.6 7499.1 55925 7502.3 55928.7 7506.1 55932.9 7509 55937.2 7514.8 55942.2 7519.9 55945.7 7526.2 55947.6 7528.8 55948.3 7531 55950.3 7534.6 56073.3 7831.4 56111.6 7869.8 56116.9 7877.2 56122.9 7884.1 56124.1 7887.1 56126 7889.8 56128.7 7898.5 56132.1 7906.9 56132.5 7911 56133.2 7913.3 56133.1 7916.5 56133.9 7923.6 56133.9 12247.6 56132.5 12256.6 56131.7 12265.7 56130.5 12268.7 56130 12271.9 56125.7 12279.9 56122.1 12288.3 56119.5 12291.5 56118.4 12293.6 56116.1 12295.8 56111.6 12301.4 55869.6 12543.5 55860.2 12550.2 55850.7 12557.2 55850.1 12557.4 55849.6 12557.8 55838.5 12561.2 55827.3 12564.9 55826.7 12564.9 55826.1 12565 55814.4 12564.7 55802.8 12564.6 55802 12564.4 55801.5 12564.4 55799.8 12563.8 55786.6 12560 55550 12461.9 54950 12461.9 54395.7 12691.5 54134 12953.2 54128.2 12957.4 54123 12962.4 54118.3 12964.6 54114.1 12967.6 54107.2 12969.7 54100.7 12972.7 54095.5 12973.3 54090.5 12974.8 54083.4 12974.6 54076.3 12975.4 54071.2 12974.3 54066 12974.2 54059.2 12971.7 54052.2 12970.2 54047.7 12967.5 54042.9 12965.7 54037.3 12961.3 54031.1 12957.6 54027.7 12953.6 54023.7 12950.4 54019.8 12944.3 54015.1 12938.9 54013.2 12934.1 54010.4 12929.7 54008.6 12922.7 54005.9 12916.1 54005.1 12908.9 54004.3 12905.8 54004.5 12903.5 54004.1 12899.4 54004.1 12601.4 53699 11864.8 53135.2 11301 52398.6 10995.9 51601.4 10995.9 50864.8 11301 50301 11864.8 49995.9 12601.4 49995.9 13398.6 50301 14135.2 50864.8 14699 51601.4 15004.1 52398.6 15004.1 53135.2 14699 53612 14222.2 53617.8 14218 53623 14213.1 53627.7 14210.9 53631.9 14207.9 53638.8 14205.8 53645.3 14202.7 53650.5 14202.2 53655.5 14200.6 53662.6 14200.8 53669.7 14200 53674.8 14201.1 53680 14201.3 53686.8 14203.7 53693.8 14205.2 53698.3 14207.9 53703.1 14209.7 53708.7 14214.2 53714.9 14217.9 53718.3 14221.8 53722.3 14225.1 53726.2 14231.1 53730.9 14236.6 53732.8 14241.4 53735.6 14245.8 53737.4 14252.7 53740.1 14259.4 53740.9 14266.5 53741.5 14268.8 53971.5 14824.3 54395.7 15248.5 54950 15478.1 55550 15478.1 56104.3 15248.5 56528.5 14824.3 56569.2 14725.9 56572.7 14720.3 56575.2 14714.3 56580.4 14707.8 56582.2 14705 56583.7 14703.8 56585.7 14701.2 56752.1 14534.9 58011.4 13275.6 58166.1 12902.1 58166.1 7923.6 58167.5 7914.6 58168.3 7905.5 58169.5 7902.5 58170 7899.3 58174.3 7891.3 58177.9 7882.9 58180.5 7879.7 58181.6 7877.6 58183.9 7875.4 58188.4 7869.8 58226.7 7831.4 58420.1 7364.6 58420.1 5335.4 58226.7 4868.6 57869.4 4511.3 57402.6 4317.9 56897.4 4317.9 56430.6 4511.3 56073.3 4868.6 55950.3 5165.4 55946.6 5171.5 55943.6 5178 55940.1 5181.9 55937.4 5186.3 55931.9 5190.9 55927 5196.2 55922.4 5198.7 55918.4 5202 55911.7 5204.6 55905.4 5208 55900.3 5208.9 55895.5 5210.8 55888.3 5211.1 55881.2 5212.4 55876.1 5211.6 55870.9 5211.8 55864 5209.8 55856.9 5208.8 55852.3 5206.4 55847.3 5205 55841.4 5200.9 55835 5197.7 55831.3 5193.9 55827.1 5191 55822.8 5185.2 55817.8 5180.1 55814.3 5173.8 55812.4 5171.2 55811.7 5169 55809.7 5165.4 55686.7 4868.6 55648.4 4830.2 55643.1 4822.8 55637.1 4815.9 55635.9 4812.9 55634 4810.2 55631.3 4801.5 55627.9 4793.1 55627.5 4789 55626.8 4786.7 55626.9 4783.5 55626.1 4776.4 55626.1 4262.4 55627.5 4253.4 55628.3 4244.3 55629.5 4241.3 55630 4238.1 55634.3 4230.1 55637.9 4221.7 55640.5 4218.5 55641.6 4216.4 55643.9 4214.2 55648.4 4208.6 56278.6 3578.4 56286 3573.1 56292.9 3567.1 56295.9 3565.9 56298.6 3564 56307.2 3561.3 56315.7 3557.9 56319.8 3557.5 56322.1 3556.8 56325.3 3556.9 56332.4 3556.1 57967.6 3556.1 57976.6 3557.5 57985.7 3558.3 57988.7 3559.5 57991.9 3560 57999.9 3564.3 58008.3 3567.9 58011.5 3570.5 58013.6 3571.6 58015.8 3573.9 58021.4 3578.4 59921.6 5478.6 59926.9 5486 59932.9 5492.9 59934.1 5495.9 59936 5498.6 59938.7 5507.2 59942.1 5515.7 59942.5 5519.8 59943.2 5522.1 59943.1 5525.3 59943.9 5532.4 59943.9 10362.1 60098.6 10735.6 62461.6 13098.6 62466.9 13106 62472.9 13112.9 62474.1 13115.9 62476 13118.6 62478.7 13127.2 62482.1 13135.7 62482.5 13139.8 62483.2 13142.1 62483.1 13145.3 62483.9 13152.4 62483.9 27407.8 62483.6 27409.8 62483.8 27411.7 62481.6 27421.9 62480 27432.1 62479 27433.8 62478.6 27435.8 62473.3 27444.7 62468.4 27453.8 62467 27455.2 62466 27456.9 62458.1 27463.6 62450.6 27470.8 62448.8 27471.6 62447.3 27472.9 62437.7 27476.8 62428.3 27481.1 62426.3 27481.3 62424.5 27482.1 62407.8 27483.9 61389.4 27483.9 61382.4 27482.8 61375.2 27482.6 61370.3 27480.8 61365.2 27480 61358.8 27476.6 61352.1 27474.1 61348 27470.9 61343.4 27468.4 61338.5 27463.2 61332.9 27458.8 61330.1 27454.4 61326.5 27450.6 61323.5 27444.1 61319.6 27438.1 61318.3 27433 61316.1 27428.3 61315.3 27421.2 61313.6 27414.2 61314 27409 61313.4 27403.9 61314.9 27396.8 61315.5 27389.7 61317.5 27384.9 61318.6 27379.8 61322.3 27373.7 61325.1 27367.1 61329.6 27361.5 61331.3 27358.7 61333 27357.2 61335.6 27354 61569.8 27119.7 61959.1 26730.5 62082.9 26431.7 62082.9 16378.3 61959.1 16079.5 61730.5 15850.9 61431.7 15727.1 47388.2 15727.1 47379.2 15725.7 47370.1 15724.9 47367.2 15723.7 47364 15723.2 47355.9 15718.9 47347.5 15715.3 47344.3 15712.7 47342.2 15711.6 47340 15709.3 47334.4 15704.8 44910.5 13280.9 44611.7 13157.1 43686.8 13157.1 43677.8 13155.7 43668.7 13154.9 43665.7 13153.7 43662.5 13153.2 43654.5 13148.9 43646.1 13145.3 43642.9 13142.7 43640.8 13141.6 43638.6 13139.3 43633 13134.8 43391.4 12893.3 43094.6 12770.3 43088.5 12766.5 43082 12763.6 43078.1 12760.1 43073.7 12757.4 43069.1 12751.8 43063.8 12747 43061.3 12742.4 43058 12738.4 43055.4 12731.7 43052 12725.4 43051.1 12720.3 43049.2 12715.5 43048.9 12708.3 43047.6 12701.2 43048.4 12696.1 43048.2 12690.9 43050.1 12684 43051.2 12676.9 43053.6 12672.3 43055 12667.3 43059.1 12661.4 43062.3 12655 43066.1 12651.3 43069 12647.1 43074.8 12642.8 43079.9 12637.8 43086.2 12634.3 43088.8 12632.4 43091 12631.7 43094.6 12629.7 43391.4 12506.7 43748.7 12149.4 43942.1 11682.6 43942.1 11177.4 43748.7 10710.6 43391.4 10353.3 43094.6 10230.3 43088.5 10226.5 43082 10223.6 43078.1 10220.1 43073.7 10217.4 43069.1 10211.8 43063.8 10207 43061.3 10202.4 43058 10198.4 43055.4 10191.7 43052 10185.4 43051.1 10180.3 43049.2 10175.5 43048.9 10168.3 43047.6 10161.2 43048.4 10156.1 43048.2 10150.9 43050.1 10144 43051.2 10136.9 43053.6 10132.3 43055 10127.3 43059.1 10121.4 43062.3 10115 43066.1 10111.3 43069 10107.1 43074.8 10102.8 43079.9 10097.8 43086.2 10094.3 43088.8 10092.4 43091 10091.7 43094.6 10089.7 43391.4 9966.7 43429.8 9928.4 43437.2 9923.1 43444.1 9917.1 43447.1 9915.9 43449.8 9914 43458.5 9911.3 43466.9 9907.9 43471 9907.5 43473.3 9906.8 43476.5 9906.9 43483.6 9906.1 46537.6 9906.1 46546.6 9907.5 46555.7 9908.3 46558.7 9909.5 46561.9 9910 46569.9 9914.3 46578.3 9917.9 46581.5 9920.5 46583.6 9921.6 46585.8 9923.9 46591.4 9928.4 46961.6 10298.6 46966.9 10306 46972.9 10312.9 46974.1 10315.9 46976 10318.5 46978.7 10327.2 46982.1 10335.7 46982.5 10339.8 46983.2 10342.1 46983.1 10345.3 46983.9 10352.4 46983.9 12821.8 46982.5 12830.8 46981.7 12839.9 46980.5 12842.9 46980 12846.1 46975.7 12854.1 46972.1 12862.5 46969.5 12865.7 46968.4 12867.8 46966.1 12870 46961.6 12875.6 46721.5 13115.7 46491.9 13670 46491.9 14270 46721.5 14824.3 47145.7 15248.5 47700 15478.1 48300 15478.1 48854.3 15248.5 49278.5 14824.3 49508.1 14270 49508.1 13670 49278.5 13115.7 49038.4 12875.6 49033.1 12868.2 49027.1 12861.3 49025.9 12858.3 49024 12855.7 49021.3 12847 49017.9 12838.5 49017.5 12834.4 49016.8 12832.1 49016.9 12828.9 49016.1 12821.8 49016.1 9697.9 48861.4 9324.4 48564.9 9027.9 47862.1 8325.1 47565.6 8028.6 47192.1 7873.9 43483.6 7873.9 43474.6 7872.5 43465.5 7871.7 43462.5 7870.5 43459.3 7870 43451.3 7865.7 43442.9 7862.1 43439.7 7859.5 43437.6 7858.4 43435.4 7856.1 43429.8 7851.6 43391.4 7813.3 42924.6 7619.9 40895.4 7619.9 40428.6 7813.3 40071.3 8170.6 39877.9 8637.4 39877.9 9142.6 40071.3 9609.4 40428.6 9966.7 40725.4 10089.7 40731.5 10093.5 40738 10096.4 40741.9 10099.9 40746.3 10102.6 40750.9 10108.2 40756.2 10113 40758.7 10117.6 40762 10121.6 40764.6 10128.3 40768 10134.6 40768.9 10139.7 40770.8 10144.5 40771.1 10151.7 40772.4 10158.8 40771.6 10163.9 40771.8 10169.1 40769.9 10176 40768.8 10183.1 40766.4 10187.7 40765 10192.7 40760.9 10198.6 40757.7 10205 40753.9 10208.7 40751 10212.9 40745.2 10217.2 40740.1 10222.2 40733.8 10225.7 40731.2 10227.6 40729 10228.3 40725.4 10230.3 40428.6 10353.3 40187 10594.8 40179.6 10600.1 40172.7 10606.1 40169.7 10607.3 40167 10609.2 40158.3 10611.9 40149.9 10615.3 40145.8 10615.7 40143.5 10616.4 40140.3 10616.3 40133.2 10617.1 39338.3 10617.1 39039.5 10740.9 38810.9 10969.5 38687.1 11268.3 38687.1 27661.7 38810.9 27960.5 40749.5 29899.1 41048.3 30022.9 50568.2 30022.9 50570.1 30023.2 50572.1 30023 50582.2 30025.2 50592.4 30026.8 50594.2 30027.8 50596.1 30028.2 50605 30033.5 50614.2 30038.4 50615.5 30039.8 50617.2 30040.8 50624 30048.7 50631.1 30056.2 50631.9 30058 50633.2 30059.5 50637.1 30069.1 50641.5 30078.5 50641.7 30080.5 50642.4 30082.3 50644.3 30099 50644.3 30990 50907.6 31253.3 50910.2 31256.9 50913.4 31259.9 50917.3 31266.8 50922 31273.3 50923.3 31277.5 50925.4 31281.3 50926.9 31289.2 50929.2 31296.8 50929.1 31301.2 50929.9 31305.5 50928.8 31313.4 50928.6 31321.4 50927.1 31325.5 50926.5 31329.9 50920.6 31343.2 50920.1 31344.5 50919.9 31344.8 50919.7 31345.2 50915.6 31352.4 50898.3 31417 50898.3 31600.3 52063 31600.3 52065 31600.6 52067 31600.4 52077.1 31602.6 52087.3 31604.3 52089 31605.2 52091 31605.6 52099.9 31610.9 52109 31615.8 52110.4 31617.2 52112.1 31618.2 52118.8 31626.1 52126 31633.6 52126.8 31635.4 52128.1 31636.9 52132 31646.6 52136.3 31655.9 52136.5 31657.9 52136.9 31658.9 52138 31652.1 52139 31650.4 52139.4 31648.4 52144.7 31639.5 52149.6 31630.4 52151 31629 52152 31627.3 52159.9 31620.6 52167.4 31613.5 52169.2 31612.6 52170.7 31611.3 52180.3 31607.5 52189.7 31603.1 52191.7 31602.9 52193.5 31602.1 52210.2 31600.3 53374.9 31600.3 53374.9 31417 53357.6 31352.4 53353.5 31345.2 53351.9 31341.1 53349.6 31337.4 53347.6 31329.7 53344.8 31322.2 53344.6 31317.8 53343.6 31313.6 53344.2 31305.6 53343.9 31297.7 53345.1 31293.4 53345.5 31289.1 53348.6 31281.7 53350.9 31274.1 53353.4 31270.5 53355.1 31266.4 53364.2 31255.1 53365 31253.9 53365.3 31253.7 53365.6 31253.3 53628.9 30990 53628.9 29970 53557.8 29898.8 53556.6 29897.2 53555 29896 53549.4 29887.2 53543.4 29878.9 53542.8 29877 53541.7 29875.3 53539.2 29865.2 53536.2 29855.3 53536.2 29853.4 53535.7 29851.4 53536.5 29841.1 53536.8 29830.8 53537.5 29828.9 53537.6 29826.9 53541.7 29817.4 53545.2 29807.7 53546.5 29806.1 53547.3 29804.3 53557.8 29791.2 53628.9 29720 53628.9 28700 53557.8 28628.8 53556.6 28627.2 53555 28626 53549.4 28617.2 53543.4 28608.9 53542.8 28607 53541.7 28605.3 53539.2 28595.2 53536.2 28585.3 53536.2 28583.4 53535.7 28581.4 53536.5 28571.1 53536.8 28560.8 53537.5 28558.9 53537.6 28556.9 53541.7 28547.4 53545.2 28537.7 53546.5 28536.1 53547.3 28534.3 53555.6 28523.8 53555.8 28523.5 53556.1 28523.3 53557.8 28521.2 53628.9 28450 53628.9 27508.6 53630.8 27497.1 53632.5 27485.5 53632.8 27485 53632.9 27484.3 53638.3 27474.1 53643.7 27463.6 53644.1 27463.2 53644.4 27462.6 53652.8 27454.6 53661.2 27446.4 53661.9 27446 53662.2 27445.7 53663.9 27444.9 53675.9 27438.3 53867.1 27359.1 54106.4 27119.7 55461.1 25765.1 55466.9 25760.9 55472.1 25755.9 55476.9 25753.7 55481.1 25750.7 55487.9 25748.6 55494.5 25745.6 55499.6 25745 55504.6 25743.5 55511.8 25743.6 55518.9 25742.9 55524 25744 55529.2 25744.1 55535.9 25746.6 55542.9 25748.1 55547.4 25750.8 55552.3 25752.5 55557.9 25757 55564 25760.7 55567.4 25764.7 55571.5 25767.9 55575.4 25773.9 55580 25779.4 55582 25784.2 55584.8 25788.6 55586.5 25795.6 55589.2 25802.2 55590 25809.3 55590.8 25812.5 55590.6 25814.8 55591.1 25818.9 55591.1 25910 55662.2 25981.2 55663.4 25982.8 55665 25984 55670.6 25992.8 55676.6 26001.1 55677.2 26003 55678.3 26004.7 55680.8 26014.8 55683.8 26024.7 55683.8 26026.6 55684.3 26028.6 55683.5 26038.9 55683.2 26049.2 55682.5 26051.1 55682.4 26053.1 55678.3 26062.6 55674.8 26072.3 55673.5 26073.9 55672.7 26075.7 55662.2 26088.8 55591.1 26160 55591.1 27180 55662.2 27251.2 55663.4 27252.8 55665 27254 55670.6 27262.8 55676.6 27271.1 55677.2 27273 55678.3 27274.7 55680.8 27284.8 55683.8 27294.7 55683.8 27296.6 55684.3 27298.6 55683.5 27308.9 55683.2 27319.2 55682.5 27321.1 55682.4 27323.1 55678.3 27332.6 55674.8 27342.3 55673.5 27343.9 55672.7 27345.7 55662.2 27358.8 55591.1 27430 55591.1 28450 55662.2 28521.2 55663.4 28522.8 55665 28524 55668 28528.8 55668.9 28529.8 55669.7 28531.4 55670.6 28532.8 55676.6 28541.1 55677.2 28543 55678.3 28544.7 55680.8 28554.8 55683.8 28564.7 55683.8 28566.6 55684.3 28568.6 55683.5 28578.9 55683.2 28589.2 55682.5 28591.1 55682.4 28593.1 55678.3 28602.6 55674.8 28612.3 55673.5 28613.9 55672.7 28615.7 55662.2 28628.8 55591.1 28700 55591.1 29720 55662.2 29791.2 55663.4 29792.8 55665 29794 55670.6 29802.8 55676.6 29811.1 55677.2 29813 55678.3 29814.7 55680.8 29824.8 55683.8 29834.7 55683.8 29836.6 55684.3 29838.6 55683.5 29848.9 55683.2 29859.2 55682.5 29861.1 55682.4 29863.1 55678.3 29872.6 55674.8 29882.3 55673.5 29883.9 55672.7 29885.7 55662.2 29898.8 55591.1 29970 55591.1 30990 55662.2 31061.2 55663.4 31062.8 55665 31064 55670.6 31072.8 55676.6 31081.1 55677.2 31083 55678.3 31084.7 55680.8 31094.8 55683.8 31104.7 55683.8 31106.6 55684.3 31108.6 55683.5 31118.9 55683.2 31129.2 55682.5 31131.1 55682.4 31133.1 55678.3 31142.6 55674.8 31152.3 55673.5 31153.9 55672.7 31155.7 55662.2 31168.8 55591.1 31240 55591.1 32260 55888.7 32557.6 56709.9 32557.6 56718.9 32559.1 56728 32559.8 56731 32561.1 56734.2 32561.6 56742.3 32565.9 56750.6 32569.4 56753.9 32572 56755.9 32573.1 56758.1 32575.4 56763.7 32579.9 58213.6 34029.7 58452.9 34269.1 58665.4 34357.1 58673.2 34361.9 58681.3 34366.1 58683.6 34368.4 58686.3 34370.1 58692.2 34377.1 58698.6 34383.6 58700.5 34387.3 58702 34389.1 58703.2 34392 58706.6 34398.3 58721.5 34434.3 59145.7 34858.5 59700 35088.1 60300 35088.1 60854.3 34858.5 61287.2 34425.6 61293 34421.4 61298.2 34416.4 61302.9 34414.2 61307.1 34411.2 61314 34409.1 61320.5 34406.1 61325.7 34405.5 61330.7 34404 61337.8 34404.2 61344.9 34403.4 61350 34404.5 61355.2 34404.6 61362 34407.1 61369 34408.6 61373.5 34411.3 61378.3 34413.1 61383.9 34417.5 61390.1 34421.2 61393.5 34425.2 61397.5 34428.4 61401.4 34434.5 61406.1 34439.9 61408 34444.7 61410.8 34449.1 61412.6 34456.1 61415.3 34462.7 61416.1 34469.9 61416.9 34473 61416.7 34475.3 61417.1 34479.4 61417.1 34645.8 61416.8 34647.8 61417 34649.7 61414.8 34659.9 61413.2 34670.1 61412.2 34671.8 61411.8 34673.8 61406.5 34682.7 61401.6 34691.8 61400.2 34693.2 61399.2 34694.9 61391.3 34701.6 61383.8 34708.8 61382 34709.6 61380.5 34710.9 61370.9 34714.8 61361.5 34719.1 61359.5 34719.3 61357.7 34720.1 61341 34721.9 61269.5 34721.9 60971.9 35019.5 60971.9 36740.4 61007.6 36776.2 61008.8 36777.8 61010.4 36779 61016 36787.7 61022 36796.1 61022.6 36798 61023.7 36799.7 61026.2 36809.8 61029.2 36819.7 61029.2 36821.6 61029.7 36823.6 61028.9 36833.9 61028.6 36844.2 61027.9 36846.1 61027.8 36848.1 61023.7 36857.6 61020.2 36867.3 61018.9 36868.9 61018.1 36870.7 61007.6 36883.8 60971.9 36919.5 60971.9 38640.5 61118.4 38787 61119.6 38788.6 61121.2 38789.8 61126.8 38798.5 61132.8 38806.9 61133.4 38808.8 61134.5 38810.5 61137 38820.6 61140 38830.4 61140 38832.4 61140.5 38834.4 61139.7 38844.7 61139.4 38855 61138.7 38856.9 61138.6 38858.9 61134.5 38868.4 61130.9 38878.1 61129.7 38879.7 61128.9 38881.5 61118.4 38894.6 61048.6 38964.4 60893.9 39337.9 60893.9 41253 60893.5 41255.5 60893.8 41258 60893.2 41260.6 60893.2 41262.1 60891.5 41268 60890 41277.2 60888.8 41279.5 60888.2 41282 60886.6 41284.6 60886.2 41285.7 60883.4 41289.7 60883 41290.3 60878.4 41299 60876.6 41300.7 60875.2 41302.9 60872.6 41305.1 60872.1 41305.8 60869.2 41307.9 60867.7 41309.2 60860.6 41315.9 60858.3 41317 60856.3 41318.6 60852.8 41320 60852.3 41320.4 60849.4 41321.3 60847.2 41322.1 60838.3 41326.3 60835.8 41326.5 60833.4 41327.5 60829.5 41327.6 60828.9 41327.9 60825.7 41327.8 60823.6 41327.9 60813.9 41329 60811.4 41328.4 60808.8 41328.5 60805.2 41327.5 60804.3 41327.5 60800.5 41326.2 60799.4 41325.8 60789.8 41323.7 60787.6 41322.4 60785.2 41321.7 60782.2 41319.7 60781.1 41319.3 60776.9 41316 60768.7 41311.1 60767 41309.2 60764.9 41307.7 60763 41305.2 60761.7 41304.1 60755.5 41295.7 60752.7 41292.4 60752.2 41291.2 60751.8 41290.6 60750.4 41288.2 60750.2 41288 60750.1 41287.8 60713.3 41224 60666 41176.7 60608.1 41143.2 60543.4 41125.9 60162.3 41125.9 60162.3 42003.8 60162 42005.8 60162.2 42007.7 60160 42017.9 60158.3 42028.1 60157.4 42029.8 60157 42031.8 60151.7 42040.7 60146.8 42049.8 60145.4 42051.2 60144.4 42052.9 60136.5 42059.6 60129 42066.7 60127.2 42067.6 60125.7 42068.9 60116.1 42072.8 60106.7 42077.1 60104.7 42077.3 60102.9 42078.1 60086.2 42079.9 60009.9 42079.9 60009.9 42080.1 60086.2 42080.1 60088.2 42080.4 60090.1 42080.2 60100.3 42082.4 60110.5 42084.1 60112.2 42085 60114.2 42085.4 60123.1 42090.7 60132.2 42095.6 60133.6 42097 60135.3 42098 60142 42105.9 60149.1 42113.4 60150 42115.2 60151.3 42116.7 60155.2 42126.3 60159.5 42135.7 60159.7 42137.7 60160.5 42139.5 60162.3 42156.2 60162.3 43062.6 60163 43063.6 60166.6 43067.4 60169.6 43073.9 60173.5 43079.9 60174.7 43085 60176.9 43089.7 60177.7 43096.8 60179.5 43103.8 60179.1 43109 60179.6 43114.1 60178.1 43121.2 60177.6 43128.3 60175.5 43133.1 60174.4 43138.2 60170.7 43144.3 60167.9 43150.9 60163.5 43156.5 60161.8 43159.3 60160 43160.8 60159.9 43161 60159.5 43161.5 60159.2 43161.8 60157.5 43164 60079.8 43241.6 60072.4 43246.9 60065.5 43252.9 60062.5 43254.1 60059.9 43256 60051.2 43258.7 60042.7 43262.1 60038.6 43262.5 60036.4 43263.2 60033.1 43263.1 60026 43263.9 58999.4 43263.9 58992.9 43262.9 58986.4 43262.8 58978.4 43260.5 58975.1 43260 58973.4 43259 58970.3 43258.1 58622.1 43113.9 55944.2 43113.9 55942.2 43113.6 55940.3 43113.8 55930.1 43111.6 55919.9 43110 55918.2 43109 55916.2 43108.6 55907.3 43103.3 55898.2 43098.4 55896.8 43097 55895.1 43096 55888.4 43088.1 55881.2 43080.6 55880.4 43078.8 55879.1 43077.3 55875.2 43067.7 55870.9 43058.3 55870.7 43056.3 55869.9 43054.5 55868.1 43037.8 55868.1 41369.5 55648.4 41149.8 55643.1 41142.5 55637.1 41135.5 55635.9 41132.5 55634 41129.9 55631.3 41121.2 55627.9 41112.7 55627.5 41108.6 55626.8 41106.4 55626.9 41103.1 55626.1 41096 55626.1 40037.9 55627.5 40028.9 55628.3 40019.8 55629.5 40016.9 55630 40013.7 55634.3 40005.6 55637.9 39997.2 55640.5 39994 55641.6 39991.9 55643.9 39989.7 55648.4 39984.1 55778.5 39854 55778.5 38886 55094 38201.5 54126 38201.5 53441.5 38886 53441.5 39854 53571.6 39984.1 53576.9 39991.5 53582.9 39998.4 53584.1 40001.5 53586 40004.1 53588.7 40012.8 53592.1 40021.3 53592.5 40025.4 53593.2 40027.6 53593.1 40030.8 53593.9 40037.9 53593.9 41096 53592.5 41105 53591.7 41114.1 53590.5 41117.1 53590 41120.3 53585.7 41128.4 53582.1 41136.7 53579.5 41140 53578.4 41142 53576.1 41144.2 53571.6 41149.8 53351.9 41369.5 53351.9 42841.2 53350.8 42848.3 53350.6 42855.4 53348.8 42860.3 53348 42865.5 53344.6 42871.8 53342.1 42878.5 53338.9 42882.6 53336.4 42887.2 53331.2 42892.1 53326.8 42897.7 53322.4 42900.6 53318.6 42904.2 53312.1 42907.2 53306.1 42911 53301 42912.3 53296.3 42914.5 53289.2 42915.3 53282.2 42917.1 53277 42916.6 53271.9 42917.2 53264.8 42915.7 53257.7 42915.1 53252.9 42913.1 53247.8 42912 53241.7 42908.3 53235.1 42905.5 53229.5 42901 53226.7 42899.4 53225.2 42897.6 53222 42895 53108.4 42781.4 53103.5 42774.7 53103.5 42774.6 53103.4 42774.6 53103.1 42774 53097.1 42767.1 53095.9 42764.1 53094 42761.4 53091.3 42752.7 53087.9 42744.3 53087.5 42740.2 53086.8 42737.9 53086.9 42734.7 53086.1 42727.6 53086.1 39167.9 52931.4 38794.4 50105.6 35968.6 49732.1 35813.9 47569.1 35813.9 47559.5 35812.4 47549.8 35811.4 47547.4 35810.4 47544.8 35810 47536.2 35805.4 47527.3 35801.4 47525.4 35799.7 47523.1 35798.4 47516.4 35791.4 47509.2 35784.8 47507.9 35782.5 47506.1 35780.6 47502 35771.8 47497.3 35763.2 47496.9 35760.7 47495.8 35758.3 47494.7 35748.6 47493 35739 47493.3 35736.4 47493.1 35733.9 47495.1 35724.3 47496.5 35714.7 47497.7 35712.4 47498.3 35709.8 47503.3 35701.5 47507.7 35692.8 47509.6 35690.9 47510.9 35688.7 47518.3 35682.4 47525.2 35675.6 47528.1 35674 47529.6 35672.7 47532.7 35671.5 47539.9 35667.5 47830.1 35547.3 48049 35328.4 48056.4 35323.1 48063.4 35317.1 48066.4 35315.9 48069 35314 48077.7 35311.3 48086.2 35307.9 48090.3 35307.5 48092.5 35306.8 48095.7 35306.9 48102.8 35306.1 50347.6 35306.1 50356.6 35307.5 50365.7 35308.3 50368.7 35309.5 50371.9 35310 50379.9 35314.3 50388.3 35317.9 50391.5 35320.5 50393.6 35321.6 50395.8 35323.9 50401.4 35328.4 52467.9 37394.9 52764.4 37691.4 53137.9 37846.1 53942.1 37846.1 53951.1 37847.5 53960.2 37848.3 53963.1 37849.5 53966.3 37850 53974.4 37854.3 53982.8 37857.9 53986 37860.5 53988.1 37861.6 53990.3 37863.9 53995.9 37868.4 54126 37998.5 55094 37998.5 55778.5 37314 55778.5 36346 55094 35661.5 54126 35661.5 53995.9 35791.6 53988.5 35796.9 53981.6 35802.9 53978.5 35804.1 53975.9 35806 53967.2 35808.7 53958.7 35812.1 53954.6 35812.5 53952.4 35813.2 53949.2 35813.1 53942.1 35813.9 53792.4 35813.9 53783.4 35812.5 53774.3 35811.7 53771.3 35810.5 53768.1 35810 53760.1 35805.7 53751.7 35802.1 53748.5 35799.5 53746.4 35798.4 53744.2 35796.1 53738.6 35791.6 51672.1 33725.1 51375.6 33428.6 51002.1 33273.9 48102.8 33273.9 48093.8 33272.5 48084.7 33271.7 48081.8 33270.5 48078.6 33270 48070.5 33265.7 48062.1 33262.1 48058.9 33259.5 48056.8 33258.4 48054.6 33256.1 48049 33251.6 47830.1 33032.7 47285 32806.9 46695 32806.9 46149.9 33032.7 46099.4 33083.2 46097.8 33084.4 46096.5 33085.9 46087.8 33091.5 46079.4 33097.6 46077.5 33098.2 46075.8 33099.2 46065.8 33101.8 46055.9 33104.8 46053.9 33104.8 46052 33105.2 46041.7 33104.4 46031.3 33104.2 46029.5 33103.5 46027.5 33103.3 46018 33099.3 46008.2 33095.7 46006.7 33094.5 46004.8 33093.7 45991.7 33083.2 45918.4 33009.8 45913.1 33002.4 45907.1 32995.5 45905.9 32992.5 45904 32989.9 45901.3 32981.2 45897.9 32972.7 45897.5 32968.6 45896.8 32966.4 45896.9 32963.1 45896.1 32956 45896.1 32616.9 45741.4 32243.4 44390.6 30892.6 44017.1 30737.9 39826.4 30737.9 39817.4 30736.5 39808.3 30735.7 39805.3 30734.5 39802.1 30734 39794.1 30729.7 39785.7 30726.1 39782.5 30723.5 39780.4 30722.4 39778.2 30720.1 39772.6 30715.6 35162.1 26105.1 34865.6 25808.6 34492.1 25653.9 6802.4 25653.9 6793.4 25652.5 6784.3 25651.7 6781.3 25650.5 6778.1 25650 6770.1 25645.7 6761.7 25642.1 6758.5 25639.5 6756.4 25638.4 6754.2 25636.1 6748.6 25631.6 3578.4 22461.4 3573.1 22454 3567.1 22447.1 3565.9 22444.1 3564 22441.4 3561.3 22432.8 3559.8 22428.8 3558.9 22426.9 3558.8 22426.6 3557.9 22424.3 3557.5 22420.2 3556.8 22417.9 3556.9 22414.7 3556.1 22407.6 3556.1 18083.6 3557.5 18074.6 3558.3 18065.5 3559.5 18062.5 3560 18059.3 3564.3 18051.3 3567.9 18042.9 3570.5 18039.7 3571.6 18037.6 3573.9 18035.4 3578.4 18029.8 3616.7 17991.4 3810.1 17524.6 3810.1 15495.4 3616.7 15028.6 3578.4 14990.2 3573.1 14982.8 3567.1 14975.9 3565.9 14972.9 3564 14970.2 3561.3 14961.5 3557.9 14953.1 3557.5 14949 3556.8 14946.7 3556.9 14943.5 3556.1 14936.4 3556.1 7742.4 3557.5 7733.4 3558.3 7724.3 3559.5 7721.3 3560 7718.1 3564.3 7710.1 3567.9 7701.7 3570.5 7698.5 3571.6 7696.4 3573.9 7694.2 3578.4 7688.6 3828.1 7438.9 3835.5 7433.6 3842.4 7427.6 3845.4 7426.4 3848.1 7424.5 3856.7 7421.8 3865.2 7418.4 3869.3 7418 3871.6 7417.3 3874.8 7417.4 3881.9 7416.6 4859 7416.6 5156.6 7119 5156.6 4463 4859 4165.4 3462 4165.4 3458.2 4164.8 3454.3 4165 3446.1 4162.8 3437.7 4161.5 3434.3 4159.6 3430.6 4158.6 3423.5 4153.9 3416 4149.9 3413.3 4147.1 3410.1 4145 3404.9 4138.3 3399 4132.1 3397.4 4128.6 3395 4125.5 3392.3 4117.5 3388.7 4109.8 3388.2 4106 3387 4102.3 3386.9 4093.8 3386 4085.4 3386.8 4081.6 3386.7 4077.7 3389.4 4069.6 3391.2 4061.3 3393.2 4058 3394.4 4054.3 3403.7 4040.4 3689.9 3699.3 3692.3 3697.2 3699.3 3689.9 5257.5 2382.3 5260.2 2380.7 5268.4 2374.7 7030.1 1357.6 7033 1356.5 7042.1 1352 8953.6 656.3 8956.7 655.7 8966.4 652.9 10969.7 299.6 10972.9 299.6 10979.6 298.6 11996.7 254.1 11998 254.3 12000 254.1 12596.8 254.1 12606.4 255.6"/></g></g></g></g></g></g></g></g></g></g></g></g></g></g></g></g></g></g></g></g></g></g></g></g></g></g></g></g></g></g></g></g></g></g></g></g></g></g></g></g></g></g></g></g></g><use xlink:href="#jTUWdYlW0Ovmh1Spq-pA_pad-10" x="62230" y="35880"/><use xlink:href="#jTUWdYlW0Ovmh1Spq-pA_pad-10" x="62230" y="37780"/><use xlink:href="#jTUWdYlW0Ovmh1Spq-pA_pad-10" x="54610" y="44130"/><use xlink:href="#jTUWdYlW0Ovmh1Spq-pA_pad-10" x="54610" y="42230"/><use xlink:href="#jTUWdYlW0Ovmh1Spq-pA_pad-11" x="54610" y="36830"/><use xlink:href="#jTUWdYlW0Ovmh1Spq-pA_pad-11" x="54610" y="39370"/><use xlink:href="#jTUWdYlW0Ovmh1Spq-pA_pad-12" x="60960" y="44280"/><use xlink:href="#jTUWdYlW0Ovmh1Spq-pA_pad-12" x="60010" y="42080"/><use xlink:href="#jTUWdYlW0Ovmh1Spq-pA_pad-12" x="61910" y="42080"/><use xlink:href="#jTUWdYlW0Ovmh1Spq-pA_pad-13" x="44880" y="34290"/><use xlink:href="#jTUWdYlW0Ovmh1Spq-pA_pad-13" x="41480" y="34290"/><use xlink:href="#jTUWdYlW0Ovmh1Spq-pA_pad-14" x="57083.4" y="31750"/><use xlink:href="#jTUWdYlW0Ovmh1Spq-pA_pad-14" x="57083.4" y="30480"/><use xlink:href="#jTUWdYlW0Ovmh1Spq-pA_pad-14" x="57083.4" y="29210"/><use xlink:href="#jTUWdYlW0Ovmh1Spq-pA_pad-14" x="57083.4" y="27940"/><use xlink:href="#jTUWdYlW0Ovmh1Spq-pA_pad-14" x="57083.4" y="26670"/><use xlink:href="#jTUWdYlW0Ovmh1Spq-pA_pad-14" x="57083.4" y="25400"/><use xlink:href="#jTUWdYlW0Ovmh1Spq-pA_pad-14" x="57083.4" y="24130"/><use xlink:href="#jTUWdYlW0Ovmh1Spq-pA_pad-14" x="52136.6" y="24130"/><use xlink:href="#jTUWdYlW0Ovmh1Spq-pA_pad-14" x="52136.6" y="25400"/><use xlink:href="#jTUWdYlW0Ovmh1Spq-pA_pad-14" x="52136.6" y="26670"/><use xlink:href="#jTUWdYlW0Ovmh1Spq-pA_pad-14" x="52136.6" y="27940"/><use xlink:href="#jTUWdYlW0Ovmh1Spq-pA_pad-14" x="52136.6" y="29210"/><use xlink:href="#jTUWdYlW0Ovmh1Spq-pA_pad-14" x="52136.6" y="30480"/><use xlink:href="#jTUWdYlW0Ovmh1Spq-pA_pad-14" x="52136.6" y="31750"/><use xlink:href="#jTUWdYlW0Ovmh1Spq-pA_pad-15" x="31750" y="14986"/><use xlink:href="#jTUWdYlW0Ovmh1Spq-pA_pad-15" x="31750" y="5334"/><use xlink:href="#jTUWdYlW0Ovmh1Spq-pA_pad-16" x="22870" y="10740"/><use xlink:href="#jTUWdYlW0Ovmh1Spq-pA_pad-16" x="17770" y="10740"/><use xlink:href="#jTUWdYlW0Ovmh1Spq-pA_pad-16" x="17770" y="19740"/><use xlink:href="#jTUWdYlW0Ovmh1Spq-pA_pad-16" x="22870" y="19740"/><path d="M 57150 7112 57150 5588 M 54610 5588 54610 7112 M 52070 7112 52070 5588" fill="none" stroke-width="1524"/><use xlink:href="#jTUWdYlW0Ovmh1Spq-pA_pad-18" x="46990" y="34290"/><use xlink:href="#jTUWdYlW0Ovmh1Spq-pA_pad-18" x="39370" y="34290"/><use xlink:href="#jTUWdYlW0Ovmh1Spq-pA_pad-18" x="46990" y="44450"/><use xlink:href="#jTUWdYlW0Ovmh1Spq-pA_pad-18" x="46990" y="52070"/><use xlink:href="#jTUWdYlW0Ovmh1Spq-pA_pad-19" x="15218.9" y="52095"/><use xlink:href="#jTUWdYlW0Ovmh1Spq-pA_pad-19" x="20298.9" y="52095"/><use xlink:href="#jTUWdYlW0Ovmh1Spq-pA_pad-19" x="25378.9" y="52095"/><path d="M 7620 17272 7620 15748 M 5080 15748 5080 17272 M 2540 17272 2540 15748" fill="none" stroke-width="1524"/><use xlink:href="#jTUWdYlW0Ovmh1Spq-pA_pad-20" x="8661" y="5791"/><use xlink:href="#jTUWdYlW0Ovmh1Spq-pA_pad-20" x="6350" y="5791"/><use xlink:href="#jTUWdYlW0Ovmh1Spq-pA_pad-20" x="4039" y="5791"/><use xlink:href="#jTUWdYlW0Ovmh1Spq-pA_pad-21" x="6350" y="11989"/><use xlink:href="#jTUWdYlW0Ovmh1Spq-pA_pad-22" x="30517.6" y="43027.6"/><use xlink:href="#jTUWdYlW0Ovmh1Spq-pA_pad-22" x="10502.4" y="43027.6"/><use xlink:href="#jTUWdYlW0Ovmh1Spq-pA_pad-22" x="10502.4" y="23012.4"/><use xlink:href="#jTUWdYlW0Ovmh1Spq-pA_pad-22" x="15506.2" y="23012.4"/><use xlink:href="#jTUWdYlW0Ovmh1Spq-pA_pad-22" x="25513.8" y="23012.4"/><use xlink:href="#jTUWdYlW0Ovmh1Spq-pA_pad-22" x="30517.6" y="23012.4"/><path d="M 41148 26670 42672 26670 M 42672 24130 41148 24130 M 41148 21590 42672 21590 M 42672 19050 41148 19050 M 41148 16510 42672 16510 M 42672 13970 41148 13970 M 41148 11430 42672 11430 M 42672 8890 41148 8890 M 41148 6350 42672 6350" fill="none" stroke-width="1524"/><path d="M 54610 39370 54610 42230 M 62230 39220 62230 37780 M 62230 39220 61910 39540 61910 42080 M 41480 34290 39370 34290 M 58420 44130 58570 44280 M 58420 44130 54610 44130 M 58570 44280 60960 44280 M 54610 44130 53020 44130 52070 43180 52070 39370 49530 36830 M 42750 36830 41480 35560 41480 34290 M 42750 36830 49530 36830" fill="none" stroke-width="1016"/><path d="M 62230 35880 62230 31230 61500 30500 M 57103.4 30500 57083.4 30480 M 57103.4 30500 61500 30500" fill="none" stroke-width="609.6"/><path d="M 6460 6000 6350 5791 M 6460 11879 6350 11989" fill="none" stroke-width="381"/><path d="M 2540 7290 4039 5791 M 44880 34290 46990 34290 M 6350 26670 2540 22860 M 43815 31754 44880 32819 44880 34290 M 34290 26670 6350 26670 M 34290 26670 39374 31754 43815 31754 M 50800 34290 53340 36830 M 50800 34290 46990 34290 M 53340 36830 54610 36830 M 2540 22860 2540 16510 2540 7290" fill="none" stroke-width="1016"/><path d="M 20298.9 44471.1 20298.9 52095 M 21742.4 43027.6 30517.6 43027.6 M 21742.4 43027.6 20298.9 44471.1 M 31750 44450 46990 44450 M 31750 44450 30517.6 43217.6 30517.6 43027.6 M 45720 50800 46990 52070 M 26673.9 50800 25378.9 52095 M 26673.9 50800 45720 50800 M 10502.4 49872.4 10502.4 43027.6 M 12725 52095 15218.9 52095 M 12725 52095 10502.4 49872.4" fill="none" stroke-width="2540"/><path d="M 41910 24130 45720 24130 46990 25400 52136.6 25400 M 57083.4 25400 59623.4 25400 59623.4 19050 58353.4 17780 45720 17780 44450 16510 41910 16510 M 57083.4 20273.4 57083.4 24130 M 55860 19050 41910 19050 M 55860 19050 57083.4 20273.4 M 45720 21590 41910 21590 M 45720 21590 48260 24130 52136.6 24130" fill="none" stroke-width="609.6"/><path d="M 13182 1270 8661 5791 M 13182 1270 44450 1270 52070 1270 54610 3810 54610 6350 M 54610 3810 55880 2540 58420 2540 60960 5080 60960 10160 63500 12700 63500 27940" fill="none" stroke-width="1016"/><use xlink:href="#jTUWdYlW0Ovmh1Spq-pA_pad-19" x="60000" y="28500"/><use xlink:href="#jTUWdYlW0Ovmh1Spq-pA_pad-19" x="60000" y="33580"/><path d="M 62940 28500 63500 27940 M 62940 28500 60000 28500" fill="none" stroke-width="1016"/><use xlink:href="#jTUWdYlW0Ovmh1Spq-pA_pad-19" x="44760" y="3100"/><use xlink:href="#jTUWdYlW0Ovmh1Spq-pA_pad-19" x="44760" y="27250"/><path d="M 42470 27230 41910 26670 M 42470 27230 44760 27250 M 44760 3100 44760 1580 44450 1270" fill="none" stroke-width="1016"/><path d="M 57083.4 31750 58913.4 33580 60000 33580 M 61270 26270 61270 16540 47020 16540 M 44450 13970 41910 13970 M 44450 13970 47020 16540 M 60870 26670 61270 26270 M 60870 26670 57083.4 26670 M 41210 29210 39500 27500 39500 11430 41910 11430 M 41210 29210 52136.6 29210" fill="none" stroke-width="609.6"/><use xlink:href="#jTUWdYlW0Ovmh1Spq-pA_pad-19" x="48000" y="27250"/><use xlink:href="#jTUWdYlW0Ovmh1Spq-pA_pad-19" x="48000" y="13970"/><path d="M 48000 27250 48440 27940 52136.6 27940" fill="none" stroke-width="609.6"/><path d="M 48000 13970 48000 9900 46990 8890 41910 8890 M 31750 14986 27116 14986 22870 10740 21600 12010 21600 13691.9 19472 16510 7620 16510 M 17770 19740 17770 22018.6 16776.2 23012.4 15506.2 23012.4 M 22870 22640 23230 23000 25500 23000 M 22870 22640 22870 19740" fill="none" stroke-width="1016"/><path d="M 25500 23000 25513.8 23012.4" fill="none" stroke-width="381"/><path d="M 53406.6 26670 55270 24806.6 M 53406.6 26670 52136.6 26670 M 55270 24806.6 55250 21590" fill="none" stroke-width="609.6"/><use xlink:href="#jTUWdYlW0Ovmh1Spq-pA_pad-19" x="55250" y="21590"/><use xlink:href="#jTUWdYlW0Ovmh1Spq-pA_pad-19" x="55250" y="13970"/><path d="M 57150 12700 57150 6350 M 57150 12700 55880 13970 55250 13970" fill="none" stroke-width="1016"/><path d="M 0 12000 45.7 10954.1 182.3 9916.2 408.9 8894.2 723.7 7895.8 1124.3 6928.6 1607.7 6000 2170.2 5117.1 2807.5 4286.6 3514.7 3514.7 4286.6 2807.5 5117.1 2170.2 6000 1607.7 6928.6 1124.3 7895.8 723.7 8894.2 408.9 9916.2 182.3 10954.1 45.7 12000 0 53000 0 54045.9 45.7 55083.8 182.3 56105.8 408.9 57104.2 723.7 58071.4 1124.3 59000 1607.7 59882.9 2170.2 60713.5 2807.5 61485.3 3514.7 62192.5 4286.6 62829.8 5117.1 63392.3 6000 63875.7 6928.6 64276.3 7895.8 64591.1 8894.2 64817.7 9916.2 64954.3 10954.1 65000 12000 65000 56000 52299 56000 51040.8 56965.4 48750.8 58484.5 46337.1 59798.1 43818.1 60896.4 41213 61771 38541.5 62415.2 35824.1 62824.1 33081.4 62994.6 30334.2 62925.5 27603.6 62617.1 24910.2 62072 22274.5 61294.1 19716.7 60289.5 17256.2 59065.9 14911.7 57632.4 12701 56000 0 56000 0 12000" fill="none" stroke-width="254"/></g></svg>