<svg version="1.1" xmlns="http://www.w3.org/2000/svg" xmlns:xlink="http://www.w3.org/1999/xlink" stroke-linecap="round" stroke-linejoin="round" stroke-width="0" fill-rule="evenodd" width="65.254mm" height="63.248599999999996mm" viewBox="-127 -127 65254 63248.6" id="CzKd0cRQ1ivBpJdN92hG"><defs><rect x="-304.8" y="-787.4" width="609.6" height="1574.8" id="CzKd0cRQ1ivBpJdN92hG_pad-12"/><circle cx="0" cy="0" r="250" id="CzKd0cRQ1ivBpJdN92hG_pad-13"/></defs><g transform="translate(0,62994.6) scale(1,-1)" fill="currentColor" stroke="currentColor"><path d="M 60159.9 36995.1 60159.9 38849.3 59644.8 38849.3 59630.6 38849.1 59616.4 38848.5 59602.3 38847.5 59588.1 38846.2 59574 38844.4 59560 38842.3 59546 38839.7 59532.2 38836.8 59518.4 38833.5 59504.6 38829.9 59491 38825.8 59477.5 38821.4 59464.2 38816.6 59451 38811.4 59437.9 38805.9 59425 38800 59412.2 38793.8 59399.6 38787.2 59387.3 38780.3 59375.1 38773 59363.1 38765.4 59351.3 38757.5 59339.7 38749.2 59328.4 38740.7 59317.3 38731.8 59306.5 38722.6 59295.9 38713.2 59285.6 38703.4 59275.6 38693.4 59265.8 38683.1 59256.4 38672.5 59247.2 38661.7 59238.3 38650.6 59229.8 38639.3 59221.5 38627.7 59213.6 38615.9 59206 38603.9 59198.7 38591.8 59191.8 38579.4 59185.2 38566.8 59179 38554 59173.1 38541.1 59167.6 38528 59162.4 38514.8 59157.6 38501.5 59153.2 38488 59149.1 38474.4 59145.5 38460.6 59142.2 38446.8 59139.3 38433 59136.7 38419 59134.6 38405 59132.8 38390.9 59131.5 38376.7 59130.5 38362.6 59129.9 38348.4 59129.7 38334.2 59129.9 38320 59130.5 38305.8 59131.5 38291.7 59132.8 38277.5 59134.6 38263.4 59136.7 38249.4 59139.3 38235.4 59142.2 38221.6 59145.5 38207.8 59149.1 38194 59153.2 38180.4 59157.6 38166.9 59162.4 38153.6 59167.6 38140.4 59173.1 38127.3 59179 38114.4 59185.2 38101.6 59191.8 38089 59198.7 38076.7 59206 38064.5 59213.6 38052.5 59221.5 38040.7 59229.8 38029.1 59238.3 38017.8 59247.2 38006.7 59256.4 37995.9 59265.8 37985.3 59275.6 37975 59285.6 37965 59295.9 37955.2 59306.5 37945.8 59317.3 37936.6 59328.4 37927.7 59339.7 37919.2 59351.3 37910.9 59363.1 37903 59375.1 37895.4 59387.2 37888.1 59399.6 37881.2 59412.2 37874.6 59425 37868.4 59437.9 37862.5 59451 37857 59464.2 37851.8 59477.5 37847 59491 37842.6 59504.6 37838.5 59518.4 37834.9 59532.2 37831.6 59546 37828.7 59560 37826.1 59574 37824 59588.1 37822.2 59602.3 37820.9 59616.4 37819.9 59630.6 37819.3 59644.8 37819.1 M 59644.8 37819.2 60159.9 37819.2 M 59541.8 37819.2 59129.8 36995.1 M 58319.9 38437.3 57804.8 38849.3 57804.8 36995.1 M 58319.9 36995.1 57289.7 36995.1 M 55079.9 45885.1 55079.9 47739.3 54564.8 47739.3 54550.6 47739.1 54536.4 47738.5 54522.3 47737.5 54508.1 47736.2 54494 47734.4 54480 47732.3 54466 47729.7 54452.2 47726.8 54438.4 47723.5 54424.6 47719.9 54411 47715.8 54397.5 47711.4 54384.2 47706.6 54371 47701.4 54357.9 47695.9 54345 47690 54332.2 47683.8 54319.6 47677.2 54307.3 47670.3 54295.1 47663 54283.1 47655.4 54271.3 47647.5 54259.7 47639.2 54248.4 47630.7 54237.3 47621.8 54226.5 47612.6 54215.9 47603.2 54205.6 47593.4 54195.6 47583.4 54185.8 47573.1 54176.4 47562.5 54167.2 47551.7 54158.3 47540.6 54149.8 47529.3 54141.5 47517.7 54133.6 47505.9 54126 47493.9 54118.7 47481.8 54111.8 47469.4 54105.2 47456.8 54099 47444 54093.1 47431.1 54087.6 47418 54082.4 47404.8 54077.6 47391.5 54073.2 47378 54069.1 47364.4 54065.5 47350.6 54062.2 47336.8 54059.3 47323 54056.7 47309 54054.6 47295 54052.8 47280.9 54051.5 47266.7 54050.5 47252.6 54049.9 47238.4 54049.7 47224.2 54049.9 47210 54050.5 47195.8 54051.5 47181.7 54052.8 47167.5 54054.6 47153.4 54056.7 47139.4 54059.3 47125.4 54062.2 47111.6 54065.5 47097.8 54069.1 47084 54073.2 47070.4 54077.6 47056.9 54082.4 47043.6 54087.6 47030.4 54093.1 47017.3 54099 47004.4 54105.2 46991.6 54111.8 46979 54118.7 46966.7 54126 46954.5 54133.6 46942.5 54141.5 46930.7 54149.8 46919.1 54158.3 46907.8 54167.2 46896.7 54176.4 46885.9 54185.8 46875.3 54195.6 46865 54205.6 46855 54215.9 46845.2 54226.5 46835.8 54237.3 46826.6 54248.4 46817.7 54259.7 46809.2 54271.3 46800.9 54283.1 46793 54295.1 46785.4 54307.2 46778.1 54319.6 46771.2 54332.2 46764.6 54345 46758.4 54357.9 46752.5 54371 46747 54384.2 46741.8 54397.5 46737 54411 46732.6 54424.6 46728.5 54438.4 46724.9 54452.2 46721.6 54466 46718.7 54480 46716.1 54494 46714 54508.1 46712.2 54522.3 46710.9 54536.4 46709.9 54550.6 46709.3 54564.8 46709.1 M 54564.8 46709.2 55079.9 46709.2 M 54461.8 46709.2 54049.8 45885.1 M 52209.7 47275.8 52209.9 47289.3 52210.5 47302.8 52211.5 47316.2 52212.8 47329.6 52214.6 47343 52216.7 47356.3 52219.3 47369.5 52222.2 47382.7 52225.5 47395.8 52229.2 47408.8 52233.2 47421.6 52237.7 47434.4 52242.5 47447 52247.6 47459.4 52253.1 47471.7 52259 47483.9 52265.2 47495.8 52271.8 47507.6 52278.7 47519.2 52286 47530.6 52293.5 47541.7 52301.4 47552.6 52309.6 47563.3 52318.2 47573.8 52327 47584 52336.1 47593.9 52345.5 47603.6 52355.2 47613 52365.1 47622.1 52375.3 47630.9 52385.8 47639.5 52396.5 47647.7 52407.4 47655.6 52418.5 47663.1 52429.9 47670.4 52441.5 47677.3 52453.3 47683.9 52465.2 47690.1 52477.4 47696 52489.7 47701.5 52502.1 47706.6 52514.7 47711.4 52527.5 47715.9 52540.3 47719.9 52553.3 47723.6 52566.4 47726.9 52579.6 47729.8 52592.8 47732.4 52606.1 47734.5 52619.5 47736.3 52632.9 47737.6 52646.3 47738.6 52659.8 47739.2 52673.3 47739.4 M 52673.3 47739.3 52688.6 47739.1 52703.9 47738.5 52719.1 47737.5 52734.3 47736.2 52749.5 47734.4 52764.6 47732.3 52779.7 47729.7 52794.7 47726.8 52809.6 47723.5 52824.5 47719.8 52839.2 47715.7 52853.8 47711.3 52868.3 47706.5 52882.7 47701.3 52896.9 47695.7 52911 47689.8 52925 47683.5 52938.7 47676.9 52952.3 47669.9 52965.7 47662.6 52978.9 47654.9 52992 47646.9 53004.8 47638.5 53017.3 47629.9 53029.7 47620.9 53041.8 47611.6 53053.7 47602 53065.4 47592 53076.7 47581.8 53087.8 47571.3 53098.7 47560.6 53109.2 47549.5 53119.5 47538.2 53129.5 47526.6 53139.1 47514.8 53148.5 47502.7 53157.6 47490.4 53166.3 47477.8 53174.7 47465.1 53182.8 47452.1 53190.5 47438.9 53197.9 47425.6 53205 47412 53211.7 47398.3 53218 47384.4 53224 47370.3 53229.7 47356.1 53234.9 47341.8 53239.8 47327.3 M 52364.2 46915.3 52354.3 46925 52344.6 46935 52335.3 46945.3 52326.2 46955.8 52317.4 46966.6 52308.9 46977.6 52300.7 46988.8 52292.9 47000.3 52285.3 47012 52278.1 47023.9 52271.3 47036 52264.8 47048.2 52258.6 47060.7 52252.7 47073.3 52247.3 47086.1 52242.1 47099 52237.4 47112.1 52233 47125.3 52229 47138.6 52225.3 47152 52222.1 47165.5 52219.2 47179.1 52216.7 47192.8 52214.5 47206.5 52212.8 47220.3 52211.4 47234.1 52210.5 47248 52209.9 47261.9 52209.7 47275.8 M 52364.3 46915.2 53239.9 45885.1 52209.7 45885.1 M 60914.8 45250.1 60914.8 47104.3 M 60399.8 47104.3 61429.9 47104.3 M 59699.7 46692.3 59184.6 47104.3 59184.6 45250.1 M 59699.7 45250.1 58669.5 45250.1" fill="none" stroke-width="330.2"/><path d="M 43553 34290 42553 34890 M 43553 34290 42553 33690 42553 34890" fill="none" stroke-width="203.2"/><use xlink:href="#CzKd0cRQ1ivBpJdN92hG_pad-12" x="43738.8" y="34290"/><path d="M 39458.9 35598.1 39458.9 37452.3 38943.8 37452.3 38929.6 37452.1 38915.4 37451.5 38901.3 37450.5 38887.1 37449.2 38873 37447.4 38859 37445.3 38845 37442.7 38831.2 37439.8 38817.4 37436.5 38803.6 37432.9 38790 37428.8 38776.5 37424.4 38763.2 37419.6 38750 37414.4 38736.9 37408.9 38724 37403 38711.2 37396.8 38698.6 37390.2 38686.3 37383.3 38674.1 37376 38662.1 37368.4 38650.3 37360.5 38638.7 37352.2 38627.4 37343.7 38616.3 37334.8 38605.5 37325.6 38594.9 37316.2 38584.6 37306.4 38574.6 37296.4 38564.8 37286.1 38555.4 37275.5 38546.2 37264.7 38537.3 37253.6 38528.8 37242.3 38520.5 37230.7 38512.6 37218.9 38505 37206.9 38497.7 37194.8 38490.8 37182.4 38484.2 37169.8 38478 37157 38472.1 37144.1 38466.6 37131 38461.4 37117.8 38456.6 37104.5 38452.2 37091 38448.1 37077.4 38444.5 37063.6 38441.2 37049.8 38438.3 37036 38435.7 37022 38433.6 37008 38431.8 36993.9 38430.5 36979.7 38429.5 36965.6 38428.9 36951.4 38428.7 36937.2 M 38428.8 36937.2 38428.8 36113.2 M 38428.7 36113.2 38428.9 36099 38429.5 36084.8 38430.5 36070.7 38431.8 36056.5 38433.6 36042.4 38435.7 36028.4 38438.3 36014.4 38441.2 36000.6 38444.5 35986.8 38448.1 35973 38452.2 35959.4 38456.6 35945.9 38461.4 35932.6 38466.6 35919.4 38472.1 35906.3 38478 35893.4 38484.2 35880.6 38490.8 35868 38497.7 35855.7 38505 35843.5 38512.6 35831.5 38520.5 35819.7 38528.8 35808.1 38537.3 35796.8 38546.2 35785.7 38555.4 35774.9 38564.8 35764.3 38574.6 35754 38584.6 35744 38594.9 35734.2 38605.5 35724.8 38616.3 35715.6 38627.4 35706.7 38638.7 35698.2 38650.3 35689.9 38662.1 35682 38674.1 35674.4 38686.2 35667.1 38698.6 35660.2 38711.2 35653.6 38724 35647.4 38736.9 35641.5 38750 35636 38763.2 35630.8 38776.5 35626 38790 35621.6 38803.6 35617.5 38817.4 35613.9 38831.2 35610.6 38845 35607.7 38859 35605.1 38873 35603 38887.1 35601.2 38901.3 35599.9 38915.4 35598.9 38929.6 35598.3 38943.8 35598.1 39458.9 35598.1 M 37543.3 37040.3 37028.2 37452.3 37028.2 35598.1 M 36513.2 35598.1 37543.3 35598.1" fill="none" stroke-width="330.2"/><use xlink:href="#CzKd0cRQ1ivBpJdN92hG_pad-13" x="57338.8" y="32553.6"/><path d="M 56610 32315 56610 32303.6 M 56610 32315 52610 32315 52610 32303.6 M 56610 23576.4 56610 23565 52610 23565 52610 23576.4" fill="none" stroke-width="120"/><path d="M 56278.5 33603.7 56278.5 35457.9 M 56484.5 33603.7 56072.5 33603.7 M 56072.5 35457.9 56484.5 35457.9 M 54903.9 33603.7 54491.9 33603.7 M 54903.9 33603.7 54916.6 33603.9 54929.3 33604.5 54941.9 33605.5 54954.5 33606.8 54967.1 33608.6 54979.6 33610.7 54992 33613.2 55004.4 33616.1 55016.6 33619.4 55028.8 33623.1 55040.8 33627.1 55052.7 33631.5 55064.5 33636.3 55076.1 33641.4 55087.5 33646.9 55098.8 33652.7 55109.9 33658.9 55120.8 33665.4 55131.5 33672.3 55141.9 33679.4 55152.2 33686.9 55162.2 33694.7 55172 33702.8 55181.5 33711.2 55190.7 33719.9 55199.7 33728.9 55208.4 33738.1 55216.8 33747.6 55224.9 33757.4 55232.7 33767.4 55240.2 33777.7 55247.3 33788.1 55254.2 33798.8 55260.7 33809.7 55266.9 33820.8 55272.7 33832.1 55278.2 33843.5 55283.3 33855.1 55288.1 33866.9 55292.5 33878.8 55296.5 33890.8 55300.2 33903 55303.5 33915.2 55306.4 33927.6 55308.9 33940 55311 33952.5 55312.8 33965.1 55314.1 33977.7 55315.1 33990.3 55315.7 34003 55315.9 34015.7 M 55316 34015.7 55316 35045.9 M 55315.9 35045.9 55315.7 35058.6 55315.1 35071.3 55314.1 35083.9 55312.8 35096.5 55311 35109.1 55308.9 35121.6 55306.4 35134 55303.5 35146.4 55300.2 35158.6 55296.5 35170.8 55292.5 35182.8 55288.1 35194.7 55283.3 35206.5 55278.2 35218.1 55272.7 35229.5 55266.9 35240.8 55260.7 35251.9 55254.2 35262.8 55247.3 35273.5 55240.2 35283.9 55232.7 35294.2 55224.9 35304.2 55216.8 35314 55208.4 35323.5 55199.7 35332.7 55190.7 35341.7 55181.5 35350.4 55172 35358.8 55162.2 35366.9 55152.2 35374.7 55141.9 35382.2 55131.5 35389.3 55120.8 35396.2 55109.9 35402.7 55098.8 35408.9 55087.5 35414.7 55076.1 35420.2 55064.5 35425.3 55052.7 35430.1 55040.8 35434.5 55028.8 35438.5 55016.6 35442.2 55004.4 35445.5 54992 35448.4 54979.6 35450.9 54967.1 35453 54954.5 35454.8 54941.9 35456.1 54929.3 35457.1 54916.6 35457.7 54903.9 35457.9 54491.9 35457.9 M 53199 35458 53185.5 35457.8 53172 35457.2 53158.6 35456.2 53145.2 35454.9 53131.8 35453.1 53118.5 35451 53105.3 35448.4 53092.1 35445.5 53079 35442.2 53066 35438.5 53053.2 35434.5 53040.4 35430 53027.8 35425.2 53015.4 35420.1 53003.1 35414.6 52990.9 35408.7 52979 35402.5 52967.2 35395.9 52955.6 35389 52944.2 35381.7 52933.1 35374.2 52922.2 35366.3 52911.5 35358.1 52901 35349.5 52890.8 35340.7 52880.9 35331.6 52871.2 35322.2 52861.8 35312.5 52852.7 35302.6 52843.9 35292.4 52835.3 35281.9 52827.1 35271.2 52819.2 35260.3 52811.7 35249.2 52804.4 35237.8 52797.5 35226.2 52790.9 35214.4 52784.7 35202.5 52778.8 35190.3 52773.3 35178 52768.2 35165.6 52763.4 35153 52758.9 35140.2 52754.9 35127.4 52751.2 35114.4 52747.9 35101.3 52745 35088.1 52742.4 35074.9 52740.3 35061.6 52738.5 35048.2 52737.2 35034.8 52736.2 35021.4 52735.6 35007.9 52735.4 34994.4 M 53199 35457.9 53214.3 35457.7 53229.6 35457.1 53244.8 35456.1 53260 35454.8 53275.2 35453 53290.3 35450.9 53305.4 35448.3 53320.4 35445.4 53335.3 35442.1 53350.2 35438.4 53364.9 35434.3 53379.5 35429.9 53394 35425.1 53408.4 35419.9 53422.6 35414.3 53436.7 35408.4 53450.7 35402.1 53464.4 35395.5 53478 35388.5 53491.4 35381.2 53504.6 35373.5 53517.7 35365.5 53530.5 35357.1 53543 35348.5 53555.4 35339.5 53567.5 35330.2 53579.4 35320.6 53591.1 35310.6 53602.4 35300.4 53613.5 35289.9 53624.4 35279.2 53634.9 35268.1 53645.2 35256.8 53655.2 35245.2 53664.8 35233.4 53674.2 35221.3 53683.3 35209 53692 35196.4 53700.4 35183.7 53708.5 35170.7 53716.2 35157.5 53723.6 35144.2 53730.7 35130.6 53737.4 35116.9 53743.7 35103 53749.7 35088.9 53755.4 35074.7 53760.6 35060.4 53765.5 35045.9 M 52890 34633.9 52880.1 34643.6 52870.4 34653.6 52861.1 34663.9 52852 34674.4 52843.2 34685.2 52834.7 34696.2 52826.5 34707.4 52818.7 34718.9 52811.1 34730.6 52803.9 34742.5 52797.1 34754.6 52790.6 34766.8 52784.4 34779.3 52778.5 34791.9 52773.1 34804.7 52767.9 34817.6 52763.2 34830.7 52758.8 34843.9 52754.8 34857.2 52751.1 34870.6 52747.9 34884.1 52745 34897.7 52742.5 34911.4 52740.3 34925.1 52738.6 34938.9 52737.2 34952.7 52736.3 34966.6 52735.7 34980.5 52735.5 34994.4 M 52890 34633.8 53765.6 33603.7 52735.5 33603.7" fill="none" stroke-width="330.2"/><path d="M 30480 5080 26511.3 5080 M 33020 5080 36988.8 5080 36988.7 13176.2 34766.2 15398.7 33020 15398.8 M 26511.3 13493.8 26511.3 5080 M 26511.3 13493.8 28416.3 15398.8 30480 15398.8" fill="none" stroke-width="203.2"/><path d="M 24685.5 4330.7 24273.5 4330.7 M 24685.5 4330.7 24698.2 4330.9 24710.9 4331.5 24723.5 4332.5 24736.1 4333.8 24748.7 4335.6 24761.2 4337.7 24773.6 4340.2 24786 4343.1 24798.2 4346.4 24810.4 4350.1 24822.4 4354.1 24834.3 4358.5 24846.1 4363.3 24857.7 4368.4 24869.1 4373.9 24880.4 4379.7 24891.5 4385.9 24902.4 4392.4 24913.1 4399.3 24923.5 4406.4 24933.8 4413.9 24943.8 4421.7 24953.6 4429.8 24963.1 4438.2 24972.3 4446.9 24981.3 4455.9 24990 4465.1 24998.4 4474.6 25006.5 4484.4 25014.3 4494.4 25021.8 4504.7 25028.9 4515.1 25035.8 4525.8 25042.3 4536.7 25048.5 4547.8 25054.3 4559.1 25059.8 4570.5 25064.9 4582.1 25069.7 4593.9 25074.1 4605.8 25078.1 4617.8 25081.8 4630 25085.1 4642.2 25088 4654.6 25090.5 4667 25092.6 4679.5 25094.4 4692.1 25095.7 4704.7 25096.7 4717.3 25097.3 4730 25097.5 4742.7 M 25097.6 4742.7 25097.6 5772.9 M 25097.5 5772.9 25097.3 5785.6 25096.7 5798.3 25095.7 5810.9 25094.4 5823.5 25092.6 5836.1 25090.5 5848.6 25088 5861 25085.1 5873.4 25081.8 5885.6 25078.1 5897.8 25074.1 5909.8 25069.7 5921.7 25064.9 5933.5 25059.8 5945.1 25054.3 5956.5 25048.5 5967.8 25042.3 5978.9 25035.8 5989.8 25028.9 6000.5 25021.8 6010.9 25014.3 6021.2 25006.5 6031.2 24998.4 6041 24990 6050.5 24981.3 6059.7 24972.3 6068.7 24963.1 6077.4 24953.6 6085.8 24943.8 6093.9 24933.8 6101.7 24923.5 6109.2 24913.1 6116.3 24902.4 6123.2 24891.5 6129.7 24880.4 6135.9 24869.1 6141.7 24857.7 6147.2 24846.1 6152.3 24834.3 6157.1 24822.4 6161.5 24810.4 6165.5 24798.2 6169.2 24786 6172.5 24773.6 6175.4 24761.2 6177.9 24748.7 6180 24736.1 6181.8 24723.5 6183.1 24710.9 6184.1 24698.2 6184.7 24685.5 6184.9 24273.5 6184.9 M 23547.2 5772.9 23032.2 6184.9 23032.2 4330.7 M 23547.2 4330.7 22517.1 4330.7" fill="none" stroke-width="330.2"/><path d="M 24370 18340 16270 18340 16270 12140 23870 12140 24370 12140 24370 18340" fill="none" stroke-width="254"/><path d="M 23395 17415 23389.3 17423.8 23383.3 17432.4 23376.9 17440.8 23370.2 17448.9 23363.3 17456.8 23356 17464.4 23348.5 17471.7 23340.7 17478.8 23332.6 17485.5 23324.3 17491.9 23315.7 17498 23306.9 17503.8 23298 17509.3 23288.8 17514.4 23279.4 17519.1 23269.9 17523.5 23260.2 17527.6 23250.3 17531.2 23240.3 17534.5 23230.2 17537.5 23220 17540 23209.7 17542.2 23199.4 17543.9 23189 17545.3 23178.5 17546.3 23168 17546.9 23157.5 17547.1 23147 17546.9 23136.5 17546.3 23126 17545.3 23115.6 17543.9 23105.3 17542.2 23095 17540 23084.8 17537.5 23074.7 17534.5 23064.7 17531.2 23054.8 17527.6 23045.1 17523.5 23035.6 17519.1 23026.2 17514.4 23017 17509.3 23008.1 17503.8 22999.3 17498 22990.7 17491.9 22982.4 17485.5 22974.3 17478.8 22966.5 17471.7 22959 17464.4 22951.7 17456.8 22944.8 17448.9 22938.1 17440.8 22931.7 17432.4 22925.7 17423.8 22920 17415 22914.3 17406.2 22908.3 17397.6 22901.9 17389.2 22895.2 17381.1 22888.3 17373.2 22881 17365.6 22873.5 17358.3 22865.7 17351.2 22857.6 17344.5 22849.3 17338.1 22840.7 17332 22831.9 17326.2 22823 17320.7 22813.8 17315.6 22804.4 17310.9 22794.9 17306.5 22785.2 17302.4 22775.3 17298.8 22765.3 17295.5 22755.2 17292.5 22745 17290 22734.7 17287.8 22724.4 17286.1 22714 17284.7 22703.5 17283.7 22693 17283.1 22682.5 17282.9 22672 17283.1 22661.5 17283.7 22651 17284.7 22640.6 17286.1 22630.3 17287.8 22620 17290 22609.8 17292.5 22599.7 17295.5 22589.7 17298.8 22579.8 17302.4 22570.1 17306.5 22560.6 17310.9 22551.2 17315.6 22542 17320.7 22533.1 17326.2 22524.3 17332 22515.7 17338.1 22507.4 17344.5 22499.3 17351.2 22491.5 17358.3 22484 17365.6 22476.7 17373.2 22469.8 17381.1 22463.1 17389.2 22456.7 17397.6 22450.7 17406.2 22445 17415 M 18195 17415 18189.3 17423.8 18183.3 17432.4 18176.9 17440.8 18170.2 17448.9 18163.3 17456.8 18156 17464.4 18148.5 17471.7 18140.7 17478.8 18132.6 17485.5 18124.3 17491.9 18115.7 17498 18106.9 17503.8 18098 17509.3 18088.8 17514.4 18079.4 17519.1 18069.9 17523.5 18060.2 17527.6 18050.3 17531.2 18040.3 17534.5 18030.2 17537.5 18020 17540 18009.7 17542.2 17999.4 17543.9 17989 17545.3 17978.5 17546.3 17968 17546.9 17957.5 17547.1 17947 17546.9 17936.5 17546.3 17926 17545.3 17915.6 17543.9 17905.3 17542.2 17895 17540 17884.8 17537.5 17874.7 17534.5 17864.7 17531.2 17854.8 17527.6 17845.1 17523.5 17835.6 17519.1 17826.2 17514.4 17817 17509.3 17808.1 17503.8 17799.3 17498 17790.7 17491.9 17782.4 17485.5 17774.3 17478.8 17766.5 17471.7 17759 17464.4 17751.7 17456.8 17744.8 17448.9 17738.1 17440.8 17731.7 17432.4 17725.7 17423.8 17720 17415 17714.3 17406.2 17708.3 17397.6 17701.9 17389.2 17695.2 17381.1 17688.3 17373.2 17681 17365.6 17673.5 17358.3 17665.7 17351.2 17657.6 17344.5 17649.3 17338.1 17640.7 17332 17631.9 17326.2 17623 17320.7 17613.8 17315.6 17604.4 17310.9 17594.9 17306.5 17585.2 17302.4 17575.3 17298.8 17565.3 17295.5 17555.2 17292.5 17545 17290 17534.7 17287.8 17524.4 17286.1 17514 17284.7 17503.5 17283.7 17493 17283.1 17482.5 17282.9 17472 17283.1 17461.5 17283.7 17451 17284.7 17440.6 17286.1 17430.3 17287.8 17420 17290 17409.8 17292.5 17399.7 17295.5 17389.7 17298.8 17379.8 17302.4 17370.1 17306.5 17360.6 17310.9 17351.2 17315.6 17342 17320.7 17333.1 17326.2 17324.3 17332 17315.7 17338.1 17307.4 17344.5 17299.3 17351.2 17291.5 17358.3 17284 17365.6 17276.7 17373.2 17269.8 17381.1 17263.1 17389.2 17256.7 17397.6 17250.7 17406.2 17245 17415 M 22445 13065 23395 13065 M 18195 13065 17245 13065 M 22920 12590 22920 13540" fill="none" stroke-width="101.6"/><path d="M 23870 12140 23870 18340" fill="none" stroke-width="254"/><path d="M 27205.4 17425.8 27720.4 17425.8 M 27205.4 17425.9 27191.2 17425.7 27177 17425.1 27162.9 17424.1 27148.7 17422.8 27134.6 17421 27120.6 17418.9 27106.6 17416.3 27092.8 17413.4 27079 17410.1 27065.2 17406.5 27051.6 17402.4 27038.1 17398 27024.8 17393.2 27011.6 17388 26998.5 17382.5 26985.6 17376.6 26972.8 17370.4 26960.2 17363.8 26947.9 17356.9 26935.7 17349.6 26923.7 17342 26911.9 17334.1 26900.3 17325.8 26889 17317.3 26877.9 17308.4 26867.1 17299.2 26856.5 17289.8 26846.2 17280 26836.2 17270 26826.4 17259.7 26817 17249.1 26807.8 17238.3 26798.9 17227.2 26790.4 17215.9 26782.1 17204.3 26774.2 17192.5 26766.6 17180.5 26759.3 17168.4 26752.4 17156 26745.8 17143.4 26739.6 17130.6 26733.7 17117.7 26728.2 17104.6 26723 17091.4 26718.2 17078.1 26713.8 17064.6 26709.7 17051 26706.1 17037.2 26702.8 17023.4 26699.9 17009.6 26697.3 16995.6 26695.2 16981.6 26693.4 16967.5 26692.1 16953.3 26691.1 16939.2 26690.5 16925 26690.3 16910.8 26690.5 16896.6 26691.1 16882.4 26692.1 16868.3 26693.4 16854.1 26695.2 16840 26697.3 16826 26699.9 16812 26702.8 16798.2 26706.1 16784.4 26709.7 16770.6 26713.8 16757 26718.2 16743.5 26723 16730.2 26728.2 16717 26733.7 16703.9 26739.6 16691 26745.8 16678.2 26752.4 16665.6 26759.3 16653.3 26766.6 16641.1 26774.2 16629.1 26782.1 16617.3 26790.4 16605.7 26798.9 16594.4 26807.8 16583.3 26817 16572.5 26826.4 16561.9 26836.2 16551.6 26846.2 16541.6 26856.5 16531.8 26867.1 16522.4 26877.9 16513.2 26889 16504.3 26900.3 16495.8 26911.9 16487.5 26923.7 16479.6 26935.7 16472 26947.8 16464.7 26960.2 16457.8 26972.8 16451.2 26985.6 16445 26998.5 16439.1 27011.6 16433.6 27024.8 16428.4 27038.1 16423.6 27051.6 16419.2 27065.2 16415.1 27079 16411.5 27092.8 16408.2 27106.6 16405.3 27120.6 16402.7 27134.6 16400.6 27148.7 16398.8 27162.9 16397.5 27177 16396.5 27191.2 16395.9 27205.4 16395.7 27720.4 16395.7 27720.4 18249.9 27205.4 18249.9 27192.7 18249.7 27180 18249.1 27167.4 18248.1 27154.8 18246.8 27142.2 18245 27129.7 18242.9 27117.3 18240.4 27104.9 18237.5 27092.7 18234.2 27080.5 18230.5 27068.5 18226.5 27056.6 18222.1 27044.8 18217.3 27033.2 18212.2 27021.8 18206.7 27010.5 18200.9 26999.4 18194.7 26988.5 18188.2 26977.8 18181.3 26967.4 18174.2 26957.1 18166.7 26947.1 18158.9 26937.3 18150.8 26927.8 18142.4 26918.6 18133.7 26909.6 18124.7 26900.9 18115.5 26892.5 18106 26884.4 18096.2 26876.6 18086.2 26869.1 18075.9 26862 18065.5 26855.1 18054.8 26848.6 18043.9 26842.4 18032.8 26836.6 18021.5 26831.1 18010.1 26826 17998.5 26821.2 17986.7 26816.8 17974.8 26812.8 17962.8 26809.1 17950.6 26805.8 17938.4 26802.9 17926 26800.4 17913.6 26798.3 17901.1 26796.5 17888.5 26795.2 17875.9 26794.2 17863.3 26793.6 17850.6 26793.4 17837.9 26793.6 17825.2 26794.2 17812.5 26795.2 17799.9 26796.5 17787.3 26798.3 17774.7 26800.4 17762.2 26802.9 17749.8 26805.8 17737.4 26809.1 17725.2 26812.8 17713 26816.8 17701 26821.2 17689.1 26826 17677.3 26831.1 17665.7 26836.6 17654.3 26842.4 17643 26848.6 17631.9 26855.1 17621 26862 17610.3 26869.1 17599.9 26876.6 17589.6 26884.4 17579.6 26892.5 17569.8 26900.9 17560.3 26909.6 17551.1 26918.6 17542.1 26927.8 17533.4 26937.3 17525 26947.1 17516.9 26957.1 17509.1 26967.4 17501.6 26977.8 17494.5 26988.5 17487.6 26999.4 17481.1 27010.5 17474.9 27021.8 17469.1 27033.2 17463.6 27044.8 17458.5 27056.6 17453.7 27068.5 17449.3 27080.5 17445.3 27092.7 17441.6 27104.9 17438.3 27117.3 17435.4 27129.7 17432.9 27142.2 17430.8 27154.8 17429 27167.4 17427.7 27180 17426.7 27192.7 17426.1 27205.4 17425.9 M 25960.2 17837.9 25445.2 18249.9 25445.2 16395.7 M 25960.2 16395.7 24930.1 16395.7" fill="none" stroke-width="330.2"/><path d="M 9969.5 17843.5 9969.5 18954.8 M 9969.5 17843.5 9969.5 15462.3 9580 14550 580 14550 190.5 15462.3 190.5 17843.5 190.5 18954.8 9969.5 18954.8 M 9969.5 17843.5 8318.5 17843.5 M 6953.3 17843.5 5778.5 17843.5 M 4381.5 17843.5 3238.5 17843.5 M 1809.8 17843.5 190.5 17843.5 M 8477.3 15462.3 9969.5 15462.3 M 6731 15462.3 5969 15462.3 M 4191 15462.3 3429 15462.3 M 1651 15462.3 190.5 15462.3" fill="none" stroke-width="203.2"/><path d="M 8749.8 19850.1 8749.8 21704.3 8234.7 21704.3 8220.5 21704.1 8206.3 21703.5 8192.2 21702.5 8178 21701.2 8163.9 21699.4 8149.9 21697.3 8135.9 21694.7 8122.1 21691.8 8108.3 21688.5 8094.5 21684.9 8080.9 21680.8 8067.4 21676.4 8054.1 21671.6 8040.9 21666.4 8027.8 21660.9 8014.9 21655 8002.1 21648.8 7989.5 21642.2 7977.2 21635.3 7965 21628 7953 21620.4 7941.2 21612.5 7929.6 21604.2 7918.3 21595.7 7907.2 21586.8 7896.4 21577.6 7885.8 21568.2 7875.5 21558.4 7865.5 21548.4 7855.7 21538.1 7846.3 21527.5 7837.1 21516.7 7828.2 21505.6 7819.7 21494.3 7811.4 21482.7 7803.5 21470.9 7795.9 21458.9 7788.6 21446.8 7781.7 21434.4 7775.1 21421.8 7768.9 21409 7763 21396.1 7757.5 21383 7752.3 21369.8 7747.5 21356.5 7743.1 21343 7739 21329.4 7735.4 21315.6 7732.1 21301.8 7729.2 21288 7726.6 21274 7724.5 21260 7722.7 21245.9 7721.4 21231.7 7720.4 21217.6 7719.8 21203.4 7719.6 21189.2 M 7719.7 21189.2 7719.7 20365.2 M 7719.6 20365.2 7719.8 20351 7720.4 20336.8 7721.4 20322.7 7722.7 20308.5 7724.5 20294.4 7726.6 20280.4 7729.2 20266.4 7732.1 20252.6 7735.4 20238.8 7739 20225 7743.1 20211.4 7747.5 20197.9 7752.3 20184.6 7757.5 20171.4 7763 20158.3 7768.9 20145.4 7775.1 20132.6 7781.7 20120 7788.6 20107.7 7795.9 20095.5 7803.5 20083.5 7811.4 20071.7 7819.7 20060.1 7828.2 20048.8 7837.1 20037.7 7846.3 20026.9 7855.7 20016.3 7865.5 20006 7875.5 19996 7885.8 19986.2 7896.4 19976.8 7907.2 19967.6 7918.3 19958.7 7929.6 19950.2 7941.2 19941.9 7953 19934 7965 19926.4 7977.1 19919.1 7989.5 19912.2 8002.1 19905.6 8014.9 19899.4 8027.8 19893.5 8040.9 19888 8054.1 19882.8 8067.4 19878 8080.9 19873.6 8094.5 19869.5 8108.3 19865.9 8122.1 19862.6 8135.9 19859.7 8149.9 19857.1 8163.9 19855 8178 19853.2 8192.2 19851.9 8206.3 19850.9 8220.5 19850.3 8234.7 19850.1 8749.8 19850.1 M 6937.2 19850.1 6319.1 21704.3 5701 19850.1 M 5855.6 20313.7 6782.7 20313.7 M 4980.3 21292.3 4465.3 21704.3 4465.3 19850.1 M 4980.3 19850.1 3950.2 19850.1" fill="none" stroke-width="330.2"/><path d="M 3073 10668 3073 7112 9627 7112 9627 10668 3073 10668" fill="none" stroke-width="203.2"/><path d="M 15099.8 9639.3 15099.8 7785.1 M 15099.8 9639.3 14584.7 9639.3 14570.5 9639.1 14556.3 9638.5 14542.2 9637.5 14528 9636.2 14513.9 9634.4 14499.9 9632.3 14485.9 9629.7 14472.1 9626.8 14458.3 9623.5 14444.5 9619.9 14430.9 9615.8 14417.4 9611.4 14404.1 9606.6 14390.9 9601.4 14377.8 9595.9 14364.9 9590 14352.1 9583.8 14339.5 9577.2 14327.2 9570.3 14315 9563 14303 9555.4 14291.2 9547.5 14279.6 9539.2 14268.3 9530.7 14257.2 9521.8 14246.4 9512.6 14235.8 9503.2 14225.5 9493.4 14215.5 9483.4 14205.7 9473.1 14196.3 9462.5 14187.1 9451.7 14178.2 9440.6 14169.7 9429.3 14161.4 9417.7 14153.5 9405.9 14145.9 9393.9 14138.6 9381.8 14131.7 9369.4 14125.1 9356.8 14118.9 9344 14113 9331.1 14107.5 9318 14102.3 9304.8 14097.5 9291.5 14093.1 9278 14089 9264.4 14085.4 9250.6 14082.1 9236.8 14079.2 9223 14076.6 9209 14074.5 9195 14072.7 9180.9 14071.4 9166.7 14070.4 9152.6 14069.8 9138.4 14069.6 9124.2 M 14069.7 9124.2 14069.7 8300.2 M 14069.6 8300.2 14069.8 8286 14070.4 8271.8 14071.4 8257.7 14072.7 8243.5 14074.5 8229.4 14076.6 8215.4 14079.2 8201.4 14082.1 8187.6 14085.4 8173.8 14089 8160 14093.1 8146.4 14097.5 8132.9 14102.3 8119.6 14107.5 8106.4 14113 8093.3 14118.9 8080.4 14125.1 8067.6 14131.7 8055 14138.6 8042.7 14145.9 8030.5 14153.5 8018.5 14161.4 8006.7 14169.7 7995.1 14178.2 7983.8 14187.1 7972.7 14196.3 7961.9 14205.7 7951.3 14215.5 7941 14225.5 7931 14235.8 7921.2 14246.4 7911.8 14257.2 7902.6 14268.3 7893.7 14279.6 7885.2 14291.2 7876.9 14303 7869 14315 7861.4 14327.1 7854.1 14339.5 7847.2 14352.1 7840.6 14364.9 7834.4 14377.8 7828.5 14390.9 7823 14404.1 7817.8 14417.4 7813 14430.9 7808.6 14444.5 7804.5 14458.3 7800.9 14472.1 7797.6 14485.9 7794.7 14499.9 7792.1 14513.9 7790 14528 7788.2 14542.2 7786.9 14556.3 7785.9 14570.5 7785.3 14584.7 7785.1 15099.8 7785.1 M 13287.2 7785.1 12669.1 9639.3 12051 7785.1 M 12205.6 8248.7 13132.7 8248.7 M 10763.8 9639.4 10750.3 9639.2 10736.8 9638.6 10723.4 9637.6 10710 9636.3 10696.6 9634.5 10683.3 9632.4 10670.1 9629.8 10656.9 9626.9 10643.8 9623.6 10630.8 9619.9 10618 9615.9 10605.2 9611.4 10592.6 9606.6 10580.2 9601.5 10567.9 9596 10555.7 9590.1 10543.8 9583.9 10532 9577.3 10520.4 9570.4 10509 9563.1 10497.9 9555.6 10487 9547.7 10476.3 9539.5 10465.8 9530.9 10455.6 9522.1 10445.7 9513 10436 9503.6 10426.6 9493.9 10417.5 9484 10408.7 9473.8 10400.1 9463.3 10391.9 9452.6 10384 9441.7 10376.5 9430.6 10369.2 9419.2 10362.3 9407.6 10355.7 9395.8 10349.5 9383.9 10343.6 9371.7 10338.1 9359.4 10333 9347 10328.2 9334.4 10323.7 9321.6 10319.7 9308.8 10316 9295.8 10312.7 9282.7 10309.8 9269.5 10307.2 9256.3 10305.1 9243 10303.3 9229.6 10302 9216.2 10301 9202.8 10300.4 9189.3 10300.2 9175.8 M 10763.8 9639.3 10779.1 9639.1 10794.4 9638.5 10809.6 9637.5 10824.8 9636.2 10840 9634.4 10855.1 9632.3 10870.2 9629.7 10885.2 9626.8 10900.1 9623.5 10915 9619.8 10929.7 9615.7 10944.3 9611.3 10958.8 9606.5 10973.2 9601.3 10987.4 9595.7 11001.5 9589.8 11015.5 9583.5 11029.2 9576.9 11042.8 9569.9 11056.2 9562.6 11069.4 9554.9 11082.5 9546.9 11095.3 9538.5 11107.8 9529.9 11120.2 9520.9 11132.3 9511.6 11144.2 9502 11155.9 9492 11167.2 9481.8 11178.3 9471.3 11189.2 9460.6 11199.7 9449.5 11210 9438.2 11220 9426.6 11229.6 9414.8 11239 9402.7 11248.1 9390.4 11256.8 9377.8 11265.2 9365.1 11273.3 9352.1 11281 9338.9 11288.4 9325.6 11295.5 9312 11302.2 9298.3 11308.5 9284.4 11314.5 9270.3 11320.2 9256.1 11325.4 9241.8 11330.3 9227.3 M 10454.7 8815.3 10444.8 8825 10435.1 8835 10425.8 8845.3 10416.7 8855.8 10407.9 8866.6 10399.4 8877.6 10391.2 8888.8 10383.4 8900.3 10375.8 8912 10368.6 8923.9 10361.8 8936 10355.3 8948.2 10349.1 8960.7 10343.2 8973.3 10337.8 8986.1 10332.6 8999 10327.9 9012.1 10323.5 9025.3 10319.5 9038.6 10315.8 9052 10312.6 9065.5 10309.7 9079.1 10307.2 9092.8 10305 9106.5 10303.3 9120.3 10301.9 9134.1 10301 9148 10300.4 9161.9 10300.2 9175.8 M 10454.7 8815.2 11330.3 7785.1 10300.2 7785.1" fill="none" stroke-width="330.2"/><path d="M 0 12000 45.7 10954.1 182.3 9916.2 408.9 8894.2 723.7 7895.8 1124.3 6928.6 1607.7 6000 2170.2 5117.1 2807.5 4286.6 3514.7 3514.7 4286.6 2807.5 5117.1 2170.2 6000 1607.7 6928.6 1124.3 7895.8 723.7 8894.2 408.9 9916.2 182.3 10954.1 45.7 12000 0 53000 0 54045.9 45.7 55083.8 182.3 56105.8 408.9 57104.2 723.7 58071.4 1124.3 59000 1607.7 59882.9 2170.2 60713.5 2807.5 61485.3 3514.7 62192.5 4286.6 62829.8 5117.1 63392.3 6000 63875.7 6928.6 64276.3 7895.8 64591.1 8894.2 64817.7 9916.2 64954.3 10954.1 65000 12000 65000 56000 52299 56000 50088.3 57632.4 47743.8 59065.9 45283.3 60289.5 42725.5 61294.1 40089.8 62072 37396.4 62617.1 34665.8 62925.5 31918.6 62994.6 29175.9 62824.1 26458.5 62415.2 23787 61771 21181.9 60896.4 18662.9 59798.1 16249.2 58484.5 13959.2 56965.4 12701 56000 0 56000 0 12000 M 6350 36830 34290 36830 35560 38100 49530 38100 49530 40640 34290 40640 33020 39370 6350 39370 6350 36830 M 14750 12942.7 14742.5 12828.4 14727.6 12714.8 14705.2 12602.4 14675.5 12491.7 14638.7 12383.2 14594.9 12277.4 14544.2 12174.6 14486.9 12075.4 14423.2 11980.1 14353.5 11889.2 14277.9 11803.1 14196.9 11722.1 14110.8 11646.5 14019.9 11576.8 13924.6 11513.1 13825.4 11455.8 13722.6 11405.1 13616.8 11361.3 13508.3 11324.5 13397.6 11294.8 13285.2 11272.5 13171.6 11257.5 13057.3 11250 12942.7 11250 12828.4 11257.5 12714.8 11272.5 12602.4 11294.8 12491.7 11324.5 12383.2 11361.3 12277.4 11405.1 12174.6 11455.8 12075.4 11513.1 11980.1 11576.8 11889.2 11646.5 11803.1 11722.1 11722.1 11803.1 11646.5 11889.2 11576.8 11980.1 11513.1 12075.4 11455.8 12174.6 11405.1 12277.4 11361.3 12383.2 11324.5 12491.7 11294.8 12602.4 11272.5 12714.8 11257.5 12828.4 11250 12942.7 11250 13057.3 11257.5 13171.6 11272.5 13285.2 11294.8 13397.6 11324.5 13508.3 11361.3 13616.8 11405.1 13722.6 11455.8 13825.4 11513.1 13924.6 11576.8 14019.9 11646.5 14110.8 11722.1 14196.9 11803.1 14277.9 11889.2 14353.5 11980.1 14423.2 12075.4 14486.9 12174.6 14544.2 12277.4 14594.9 12383.2 14638.7 12491.7 14675.5 12602.4 14705.2 12714.8 14727.6 12828.4 14742.5 12942.7 14750 13057.3 14750 13171.6 14742.5 13285.2 14727.6 13397.6 14705.2 13508.3 14675.5 13616.8 14638.7 13722.6 14594.9 13825.4 14544.2 13924.6 14486.9 14019.9 14423.2 14110.8 14353.5 14196.9 14277.9 14277.9 14196.9 14353.5 14110.8 14423.2 14019.9 14486.9 13924.6 14544.2 13825.4 14594.9 13722.6 14638.7 13616.8 14675.5 13508.3 14705.2 13397.6 14727.6 13285.2 14742.5 13171.6 14750 13057.3 14750 12942.7 M 53750 12942.7 53742.5 12828.4 53727.6 12714.8 53705.2 12602.4 53675.5 12491.7 53638.7 12383.2 53594.9 12277.4 53544.2 12174.6 53486.9 12075.4 53423.2 11980.1 53353.5 11889.2 53277.9 11803.1 53196.9 11722.1 53110.8 11646.5 53019.9 11576.8 52924.6 11513.1 52825.4 11455.8 52722.6 11405.1 52616.8 11361.3 52508.3 11324.5 52397.6 11294.8 52285.2 11272.5 52171.6 11257.5 52057.3 11250 51942.7 11250 51828.4 11257.5 51714.8 11272.5 51602.4 11294.8 51491.7 11324.5 51383.2 11361.3 51277.4 11405.1 51174.6 11455.8 51075.4 11513.1 50980.1 11576.8 50889.2 11646.5 50803.1 11722.1 50722.1 11803.1 50646.5 11889.2 50576.8 11980.1 50513.1 12075.4 50455.8 12174.6 50405.1 12277.4 50361.3 12383.2 50324.5 12491.7 50294.8 12602.4 50272.5 12714.8 50257.5 12828.4 50250 12942.7 50250 13057.3 50257.5 13171.6 50272.5 13285.2 50294.8 13397.6 50324.5 13508.3 50361.3 13616.8 50405.1 13722.6 50455.8 13825.4 50513.1 13924.6 50576.8 14019.9 50646.5 14110.8 50722.1 14196.9 50803.1 14277.9 50889.2 14353.5 50980.1 14423.2 51075.4 14486.9 51174.6 14544.2 51277.4 14594.9 51383.2 14638.7 51491.7 14675.5 51602.4 14705.2 51714.8 14727.6 51828.4 14742.5 51942.7 14750 52057.3 14750 52171.6 14742.5 52285.2 14727.6 52397.6 14705.2 52508.3 14675.5 52616.8 14638.7 52722.6 14594.9 52825.4 14544.2 52924.6 14486.9 53019.9 14423.2 53110.8 14353.5 53196.9 14277.9 53277.9 14196.9 53353.5 14110.8 53423.2 14019.9 53486.9 13924.6 53544.2 13825.4 53594.9 13722.6 53638.7 13616.8 53675.5 13508.3 53705.2 13397.6 53727.6 13285.2 53742.5 13171.6 53750 13057.3 53750 12942.7 M 44750 55942.7 44742.5 55828.4 44727.6 55714.8 44705.2 55602.4 44675.5 55491.7 44638.7 55383.2 44594.9 55277.4 44544.2 55174.6 44486.9 55075.4 44423.2 54980.1 44353.5 54889.2 44277.9 54803.1 44196.9 54722.1 44110.8 54646.5 44019.9 54576.8 43924.6 54513.1 43825.4 54455.8 43722.6 54405.1 43616.8 54361.3 43508.3 54324.5 43397.6 54294.8 43285.2 54272.5 43171.6 54257.5 43057.3 54250 42942.7 54250 42828.4 54257.5 42714.8 54272.5 42602.4 54294.8 42491.7 54324.5 42383.2 54361.3 42277.4 54405.1 42174.6 54455.8 42075.4 54513.1 41980.1 54576.8 41889.2 54646.5 41803.1 54722.1 41722.1 54803.1 41646.5 54889.2 41576.8 54980.1 41513.1 55075.4 41455.8 55174.6 41405.1 55277.4 41361.3 55383.2 41324.5 55491.7 41294.8 55602.4 41272.5 55714.8 41257.5 55828.4 41250 55942.7 41250 56057.3 41257.5 56171.6 41272.5 56285.2 41294.8 56397.6 41324.5 56508.3 41361.3 56616.8 41405.1 56722.6 41455.8 56825.4 41513.1 56924.6 41576.8 57019.9 41646.5 57110.8 41722.1 57196.9 41803.1 57277.9 41889.2 57353.5 41980.1 57423.2 42075.4 57486.9 42174.6 57544.2 42277.4 57594.9 42383.2 57638.7 42491.7 57675.5 42602.4 57705.2 42714.8 57727.6 42828.4 57742.5 42942.7 57750 43057.3 57750 43171.6 57742.5 43285.2 57727.6 43397.6 57705.2 43508.3 57675.5 43616.8 57638.7 43722.6 57594.9 43825.4 57544.2 43924.6 57486.9 44019.9 57423.2 44110.8 57353.5 44196.9 57277.9 44277.9 57196.9 44353.5 57110.8 44423.2 57019.9 44486.9 56924.6 44544.2 56825.4 44594.9 56722.6 44638.7 56616.8 44675.5 56508.3 44705.2 56397.6 44727.6 56285.2 44742.5 56171.6 44750 56057.3 44750 55942.7 M 5750 51942.7 5742.5 51828.4 5727.6 51714.8 5705.2 51602.4 5675.5 51491.7 5638.7 51383.2 5594.9 51277.4 5544.2 51174.6 5486.9 51075.4 5423.2 50980.1 5353.5 50889.2 5277.9 50803.1 5196.9 50722.1 5110.8 50646.5 5019.9 50576.8 4924.6 50513.1 4825.4 50455.8 4722.6 50405.1 4616.8 50361.3 4508.3 50324.5 4397.6 50294.8 4285.2 50272.5 4171.6 50257.5 4057.3 50250 3942.7 50250 3828.4 50257.5 3714.8 50272.5 3602.4 50294.8 3491.7 50324.5 3383.2 50361.3 3277.4 50405.1 3174.6 50455.8 3075.4 50513.1 2980.1 50576.8 2889.2 50646.5 2803.1 50722.1 2722.1 50803.1 2646.5 50889.2 2576.8 50980.1 2513.1 51075.4 2455.8 51174.6 2405.1 51277.4 2361.3 51383.2 2324.5 51491.7 2294.8 51602.4 2272.5 51714.8 2257.5 51828.4 2250 51942.7 2250 52057.3 2257.5 52171.6 2272.5 52285.2 2294.8 52397.6 2324.5 52508.3 2361.3 52616.8 2405.1 52722.6 2455.8 52825.4 2513.1 52924.6 2576.8 53019.9 2646.5 53110.8 2722.1 53196.9 2803.1 53277.9 2889.2 53353.5 2980.1 53423.2 3075.4 53486.9 3174.6 53544.2 3277.4 53594.9 3383.2 53638.7 3491.7 53675.5 3602.4 53705.2 3714.8 53727.6 3828.4 53742.5 3942.7 53750 4057.3 53750 4171.6 53742.5 4285.2 53727.6 4397.6 53705.2 4508.3 53675.5 4616.8 53638.7 4722.6 53594.9 4825.4 53544.2 4924.6 53486.9 5019.9 53423.2 5110.8 53353.5 5196.9 53277.9 5277.9 53196.9 5353.5 53110.8 5423.2 53019.9 5486.9 52924.6 5544.2 52825.4 5594.9 52722.6 5638.7 52616.8 5675.5 52508.3 5705.2 52397.6 5727.6 52285.2 5742.5 52171.6 5750 52057.3 5750 51942.7" fill="none" stroke-width="254"/></g></svg>